<svg preserveAspectRatio="none" width="100%" height="100%" overflow="visible" style="display: block;" viewBox="0 0 14 14" fill="none" xmlns="http://www.w3.org/2000/svg">
<g id="Shape">
<path id="Normal" fill-rule="evenodd" clip-rule="evenodd" d="M1.22496 6.99999C1.22496 3.81054 3.81051 1.22499 6.99994 1.22499C10.1894 1.22499 12.7749 3.81054 12.7749 6.99999C12.7749 10.1894 10.1894 12.775 6.99994 12.775C3.81051 12.775 1.22496 10.1894 1.22496 6.99999ZM9.71051 5.76089C9.91217 5.55255 9.90675 5.22018 9.69841 5.01853C9.49007 4.81687 9.1577 4.82229 8.95605 5.03063L6.22841 7.8487L5.04436 6.62205C4.84299 6.41344 4.51063 6.40757 4.30202 6.60894C4.0934 6.81031 4.08753 7.14267 4.2889 7.35129L5.85017 8.96871C5.94902 9.07112 6.08521 9.129 6.22754 9.12909C6.36987 9.12919 6.50614 9.0715 6.60513 8.96922L9.71051 5.76089Z" fill="var(--fill-0, #2F2B27)" fill-opacity="0.88"/>
</g>
</svg>
