<svg width="12" height="12" viewBox="0 0 12 12" fill="none" xmlns="http://www.w3.org/2000/svg">
<path d="M5.74971 3.29961C5.99824 3.29961 6.19971 3.50108 6.19971 3.74961V6.06327L7.30528 7.16885C7.48102 7.34458 7.48102 7.62951 7.30528 7.80524C7.12955 7.98098 6.84462 7.98098 6.66889 7.80524L5.43146 6.56781C5.34169 6.47804 5.29778 6.35979 5.29972 6.24215V3.74961C5.29972 3.50108 5.50119 3.29961 5.74971 3.29961Z" fill="#C06E1C"/>
<path fill-rule="evenodd" clip-rule="evenodd" d="M5.99979 1.0498C3.26599 1.0498 1.0498 3.266 1.0498 5.9998C1.0498 8.73361 3.26599 10.9498 5.99979 10.9498C8.73358 10.9498 10.9498 8.73361 10.9498 5.9998C10.9498 3.266 8.73358 1.0498 5.99979 1.0498ZM1.9498 5.9998C1.9498 3.76305 3.76304 1.9498 5.99979 1.9498C8.23653 1.9498 10.0498 3.76305 10.0498 5.9998C10.0498 8.23656 8.23653 10.0498 5.99979 10.0498C3.76304 10.0498 1.9498 8.23656 1.9498 5.9998Z" fill="#C06E1C"/>
</svg>
