<svg preserveAspectRatio="none" width="100%" height="100%" overflow="visible" style="display: block;" viewBox="0 0 12 12" fill="none" xmlns="http://www.w3.org/2000/svg">
<g id="Shape">
<path id="Normal" d="M3.97226 1.70413L10.1123 4.90034C10.3176 5.00718 10.4985 5.10133 10.6353 5.18923C10.7714 5.2767 10.9362 5.40131 11.028 5.59833C11.1467 5.85284 11.1467 6.14681 11.028 6.40131C10.9362 6.59834 10.7714 6.72294 10.6353 6.81042C10.4985 6.89831 10.3176 6.99246 10.1123 7.09931L3.97226 10.2955C3.72692 10.4232 3.51612 10.533 3.34454 10.6037C3.18093 10.6712 2.95777 10.7464 2.72316 10.694C2.42944 10.6283 2.1842 10.4274 2.06209 10.1523C1.96455 9.93258 1.99449 9.69898 2.02845 9.5253C2.06407 9.34315 2.13022 9.11491 2.20723 8.84924L2.90259 6.44982H6.49993C6.74846 6.44982 6.94993 6.24835 6.94993 5.99982C6.94993 5.75129 6.74846 5.54982 6.49993 5.54982H2.90259L2.20723 3.15041C2.13023 2.88474 2.06407 2.65649 2.02845 2.47434C1.99449 2.30067 1.96455 2.06707 2.06209 1.84734C2.1842 1.57226 2.42944 1.37131 2.72316 1.30566C2.95777 1.25322 3.18093 1.32849 3.34454 1.39593C3.51613 1.46666 3.72691 1.5764 3.97226 1.70413Z" fill="var(--fill-0, #557A55)"/>
</g>
</svg>
