<svg width="20" height="20" viewBox="0 0 20 20" fill="none" xmlns="http://www.w3.org/2000/svg">
<path fill-rule="evenodd" clip-rule="evenodd" d="M9.99997 1.75C5.44364 1.75 1.75 5.44365 1.75 10C1.75 14.5563 5.44364 18.25 9.99997 18.25C14.5563 18.25 18.2499 14.5563 18.2499 10C18.2499 5.44365 14.5563 1.75 9.99997 1.75ZM9.58322 5.08285C9.99743 5.08285 10.3332 5.41863 10.3332 5.83285V10.1056L12.2621 12.0345C12.555 12.3274 12.555 12.8023 12.2621 13.0952C11.9692 13.3881 11.4944 13.3881 11.2015 13.0952L9.05279 10.9465C8.90318 10.7969 8.83 10.5998 8.83322 10.4038V5.83285C8.83322 5.41863 9.16901 5.08285 9.58322 5.08285Z" fill="#B33528"/>
</svg>
