<svg width="22" height="22" viewBox="0 0 22 22" fill="none" xmlns="http://www.w3.org/2000/svg">
<rect x="5.5" y="5.5" width="11" height="11" rx="5.49998" fill="white"/>
<path fill-rule="evenodd" clip-rule="evenodd" d="M9.91854 2.84311C10.6068 2.53667 11.3928 2.53667 12.081 2.84311C12.5607 3.05669 12.9071 3.4482 13.208 3.8742C13.5064 4.29654 13.8347 4.86517 14.2341 5.55702L18.9191 13.6716C19.3185 14.3635 19.6468 14.9321 19.8634 15.4017C20.0818 15.8753 20.2477 16.371 20.1928 16.8932C20.1141 17.6425 19.7211 18.3232 19.1116 18.766C18.6868 19.0747 18.1745 19.1788 17.6551 19.2265C17.1402 19.2737 16.4836 19.2737 15.6847 19.2737H6.31484C5.51597 19.2737 4.85937 19.2737 4.34442 19.2265C3.82501 19.1788 3.31279 19.0747 2.88796 18.766C2.27846 18.3232 1.88548 17.6425 1.80673 16.8932C1.75184 16.371 1.91773 15.8753 2.13617 15.4017C2.35273 14.9321 2.68104 14.3634 3.08049 13.6716L7.76543 5.55702C8.16485 4.86518 8.49314 4.29654 8.79152 3.8742C9.0925 3.4482 9.43882 3.05669 9.91854 2.84311ZM10.9999 7.42578C11.4556 7.42578 11.8249 7.79515 11.8249 8.25078V11.9174C11.8249 12.3731 11.4556 12.7424 10.9999 12.7424C10.5443 12.7424 10.1749 12.3731 10.1749 11.9174V8.25078C10.1749 7.79515 10.5443 7.42578 10.9999 7.42578ZM11.9165 15.1258C11.9165 15.632 11.5061 16.0424 10.9998 16.0424C10.4936 16.0424 10.0831 15.632 10.0831 15.1258C10.0831 14.6195 10.4936 14.2091 10.9998 14.2091C11.5061 14.2091 11.9165 14.6195 11.9165 15.1258Z" fill="#D6812A"/>
</svg>
