<svg width="19" height="19" viewBox="0 0 19 19" fill="none" xmlns="http://www.w3.org/2000/svg">
<path fill-rule="evenodd" clip-rule="evenodd" d="M-0.000167847 9.075C-0.000167847 4.06302 4.06284 0 9.07483 0C14.0868 0 18.1498 4.06302 18.1498 9.075C18.1498 14.087 14.0868 18.15 9.07483 18.15C4.06284 18.15 -0.000167847 14.087 -0.000167847 9.075ZM9.07491 4.58324C9.53055 4.58324 9.89991 4.95261 9.89991 5.40824V9.53324C9.89991 9.98888 9.53055 10.3582 9.07491 10.3582C8.61928 10.3582 8.24991 9.98888 8.24991 9.53324V5.40824C8.24991 4.95261 8.61928 4.58324 9.07491 4.58324ZM9.99147 12.7416C9.99147 13.2478 9.58106 13.6582 9.0748 13.6582C8.56854 13.6582 8.15813 13.2478 8.15813 12.7416C8.15813 12.2353 8.56854 11.8249 9.0748 11.8249C9.58106 11.8249 9.99147 12.2353 9.99147 12.7416Z" fill="#B33528"/>
</svg>
