<svg width="19" height="19" viewBox="0 0 19 19" fill="none" xmlns="http://www.w3.org/2000/svg">
<path fill-rule="evenodd" clip-rule="evenodd" d="M-5.59489e-05 9.075C-5.59489e-05 4.06302 4.06296 0 9.07494 0C14.0869 0 18.1499 4.06302 18.1499 9.075C18.1499 14.087 14.0869 18.15 9.07494 18.15C4.06296 18.15 -5.59489e-05 14.087 -5.59489e-05 9.075ZM13.3344 7.12785C13.6513 6.80046 13.6428 6.27817 13.3154 5.96128C12.988 5.64439 12.4657 5.65291 12.1488 5.9803L7.86253 10.4087L6.00187 8.48111C5.68543 8.15329 5.16315 8.14406 4.83533 8.4605C4.50751 8.77694 4.49828 9.29922 4.81472 9.62705L7.26815 12.1687C7.42349 12.3296 7.6375 12.4206 7.86117 12.4207C8.08483 12.4209 8.29897 12.3302 8.45452 12.1695L13.3344 7.12785Z" fill="#1A1815"/>
</svg>
