<svg width="24" height="24" viewBox="0 0 24 24" fill="none" xmlns="http://www.w3.org/2000/svg">
<path d="M3 20.5V3.5H20.5V20.5H3Z" fill="black"/>
<path d="M2.93377 5.75L2.00075 5.39019L2.93377 5.75ZM2.67455 7.625L1.67491 7.65167L2.67455 7.625ZM3.1944 11.375L2.21796 11.5908L3.1944 11.375ZM3.36016 12.125L2.38372 12.3408L3.36016 12.125ZM3.09762 13.625L2.14167 13.3315L3.09762 13.625ZM3.35452 15.125L2.40508 15.439L3.35452 15.125ZM3.26705 15.875L4.13809 16.3662L3.26705 15.875ZM2.84409 16.625L1.97305 16.1338L2.84409 16.625ZM2.79228 18.125L1.8022 18.2655L2.79228 18.125ZM3.06024 20.1628L3.52147 19.2756L3.06024 20.1628ZM3.68675 20.4885L4.14798 19.6012L3.68675 20.4885ZM4.375 20.5307L4.68135 21.4826L4.375 20.5307ZM4.75 20.41L4.44365 19.4581L4.75 20.41ZM5.125 20.2893L5.43135 21.2412L5.125 20.2893ZM5.875 20.2971L6.19905 19.351L5.875 20.2971ZM6.625 20.554L6.30095 21.5L6.625 20.554ZM7.375 20.6233L7.21938 19.6355L7.375 20.6233ZM8.125 20.5052L8.28062 21.493L8.125 20.5052ZM8.875 20.4335L8.84141 19.4341L8.875 20.4335ZM9.25 20.4209L9.28359 21.4203L9.25 20.4209ZM9.625 20.4083L9.59141 19.4089L9.625 20.4083ZM10.375 20.4066L10.3458 21.4062L10.375 20.4066ZM11.125 20.4285L11.1542 19.429L11.125 20.4285ZM11.875 20.3512L12.1042 21.3245L11.875 20.3512ZM12.625 20.1745L12.8542 21.1479L12.625 20.1745ZM13.375 20.3167L12.8514 21.1686L13.375 20.3167ZM14.125 20.7776L14.6486 19.9257L14.125 20.7776ZM14.875 20.8631L14.5144 19.9304L14.875 20.8631ZM16.375 20.4296L16.3789 19.4296L16.375 20.4296ZM17.125 20.4325L17.1211 21.4325L17.125 20.4325ZM17.875 20.5166L17.66 21.4932L17.875 20.5166ZM18.625 20.6817L18.8401 19.7051L18.625 20.6817ZM20.125 20.3316L19.766 19.3982L20.125 20.3316ZM20.6036 19.8905L19.6595 19.5609L20.6036 19.8905ZM20.8109 19.2968L21.755 19.6265L20.8109 19.2968ZM20.7216 18.625L19.8324 19.0826L20.7216 18.625ZM20.3357 17.875L21.2248 17.4174L20.3357 17.875ZM20.3032 17.125L21.2225 17.5185L20.3032 17.125ZM20.6243 16.375L21.5436 16.7685L20.6243 16.375ZM20.8489 15.625L19.8632 15.4565L20.8489 15.625ZM20.9771 14.875L19.9914 14.7065L20.9771 14.875ZM20.8729 14.125L21.7852 13.7155L20.8729 14.125ZM20.7046 13.75L19.7923 14.1595L20.7046 13.75ZM20.5362 13.375L21.4485 12.9655L20.5362 13.375ZM20.3485 12.625L21.3471 12.5733L20.3485 12.625ZM20.329 12.25L19.3304 12.3017L20.329 12.25ZM20.3096 11.875L21.3083 11.8233L20.3096 11.875ZM20.3855 11.125L19.4163 10.8787L20.3855 11.125ZM20.4808 10.75L21.45 10.9963L20.4808 10.75ZM20.5762 10.375L19.607 10.1287L20.5762 10.375ZM20.6836 9.625L19.6841 9.59273L20.6836 9.625ZM20.7078 8.875L21.7073 8.90727L20.7078 8.875ZM20.7554 8.125L21.7509 8.21925L20.7554 8.125ZM20.8264 7.375L19.8308 7.28075L20.8264 7.375ZM20.8975 6.625L19.902 6.53049L20.8975 6.625ZM20.9687 5.875L21.9642 5.96951L20.9687 5.875ZM20.7671 5.125L19.922 5.65963L20.7671 5.125ZM20.5298 4.75L19.6847 5.28463L20.5298 4.75ZM20.2926 4.375L21.1377 3.84037L20.2926 4.375ZM19.9165 3.94581L19.5529 4.87735L19.9165 3.94581ZM19.6388 3.83742L19.2752 4.76896L19.6388 3.83742ZM11.625 3.3092L11.3103 4.2584L11.625 3.3092ZM9.375 2.97434L9.34117 1.97491L9.375 2.97434ZM3.375 3.15099L3.14415 4.12398L3.375 3.15099ZM3.1115 4.25L2.12237 4.39705L2.17812 4.77205L3.16725 4.625L4.15638 4.47795L4.10063 4.10295L3.1115 4.25ZM3.16725 4.625L2.17812 4.77205C2.18834 4.84074 2.18346 4.91641 2.14536 5.01519L3.07839 5.375L4.01141 5.73481C4.16614 5.33359 4.2205 4.90926 4.15638 4.47795L3.16725 4.625ZM3.07839 5.375L2.14536 5.01519L2.00075 5.39019L2.93377 5.75L3.8668 6.10981L4.01141 5.73481L3.07839 5.375ZM2.93377 5.75L2.00075 5.39019L1.85613 5.76519L2.78916 6.125L3.72218 6.48481L3.8668 6.10981L2.93377 5.75ZM2.78916 6.125L1.85613 5.76519C1.71565 6.12946 1.64446 6.5105 1.6549 6.90167L2.65454 6.875L3.65419 6.84833C3.65128 6.7395 3.66984 6.62054 3.72218 6.48481L2.78916 6.125ZM2.65454 6.875L1.6549 6.90167L1.6649 7.27667L2.66455 7.25L3.66419 7.22333L3.65419 6.84833L2.65454 6.875ZM2.66455 7.25L1.6649 7.27667L1.67491 7.65167L2.67455 7.625L3.6742 7.59833L3.66419 7.22333L2.66455 7.25ZM2.67455 7.625L1.67491 7.65167C1.6854 8.0451 1.77874 8.42405 1.93886 8.78269L2.85199 8.375L3.76511 7.96731C3.70199 7.82595 3.67704 7.7049 3.6742 7.59833L2.67455 7.625ZM2.85199 8.375L1.93886 8.78269L2.10629 9.15769L3.01941 8.75L3.93254 8.34231L3.76511 7.96731L2.85199 8.375ZM3.01941 8.75L2.10629 9.15769L2.27372 9.53269L3.18684 9.125L4.09997 8.71731L3.93254 8.34231L3.01941 8.75ZM3.18684 9.125L2.27372 9.53269C2.31264 9.61986 2.31323 9.67323 2.30643 9.71524L3.29359 9.875L4.28074 10.0348C4.35486 9.57677 4.28428 9.13014 4.09997 8.71731L3.18684 9.125ZM3.29359 9.875L2.30643 9.71524L2.24574 10.0902L3.2329 10.25L4.22005 10.4098L4.28074 10.0348L3.29359 9.875ZM3.2329 10.25L2.24574 10.0902L2.18505 10.4652L3.17221 10.625L4.15937 10.7848L4.22005 10.4098L3.2329 10.25ZM3.17221 10.625L2.18505 10.4652C2.12418 10.8414 2.13575 11.2188 2.21796 11.5908L3.1944 11.375L4.17084 11.1592C4.14255 11.0312 4.13932 10.9086 4.15937 10.7848L3.17221 10.625ZM3.1944 11.375L2.21796 11.5908L2.30084 11.9658L3.27728 11.75L4.25372 11.5342L4.17084 11.1592L3.1944 11.375ZM3.27728 11.75L2.30084 11.9658L2.38372 12.3408L3.36016 12.125L4.3366 11.9092L4.25372 11.5342L3.27728 11.75ZM3.36016 12.125L2.38372 12.3408C2.40086 12.4184 2.39913 12.4929 2.37194 12.5815L3.3279 12.875L4.28386 13.1685C4.41018 12.7571 4.42996 12.3316 4.3366 11.9092L3.36016 12.125ZM3.3279 12.875L2.37194 12.5815L2.25681 12.9565L3.21276 13.25L4.16872 13.5435L4.28386 13.1685L3.3279 12.875ZM3.21276 13.25L2.25681 12.9565L2.14167 13.3315L3.09762 13.625L4.05358 13.9185L4.16872 13.5435L3.21276 13.25ZM3.09762 13.625L2.14167 13.3315C2.00359 13.7812 2.00975 14.2435 2.15706 14.689L3.1065 14.375L4.05593 14.061C4.03789 14.0065 4.03814 13.9688 4.05358 13.9185L3.09762 13.625ZM3.1065 14.375L2.15706 14.689L2.28107 15.064L3.23051 14.75L4.17994 14.436L4.05593 14.061L3.1065 14.375ZM3.23051 14.75L2.28107 15.064L2.40508 15.439L3.35452 15.125L4.30395 14.811L4.17994 14.436L3.23051 14.75ZM3.35452 15.125L2.40508 15.439C2.40452 15.4373 2.40245 15.4303 2.40123 15.4189C2.40001 15.4075 2.40008 15.3954 2.40139 15.3842C2.40268 15.3731 2.40474 15.3665 2.40513 15.3654C2.40543 15.3645 2.40346 15.3706 2.39601 15.3838L3.26705 15.875L4.13809 16.3662C4.40352 15.8955 4.4836 15.3543 4.30395 14.811L3.35452 15.125ZM3.26705 15.875L2.39601 15.3838L2.18453 15.7588L3.05557 16.25L3.92661 16.7412L4.13809 16.3662L3.26705 15.875ZM3.05557 16.25L2.18453 15.7588L1.97305 16.1338L2.84409 16.625L3.71513 17.1162L3.92661 16.7412L3.05557 16.25ZM2.84409 16.625L1.97305 16.1338C1.73943 16.548 1.62519 17.0183 1.69576 17.5155L2.68584 17.375L3.67591 17.2345C3.67552 17.2317 3.66678 17.202 3.71513 17.1162L2.84409 16.625ZM2.68584 17.375L1.69576 17.5155L1.74898 17.8905L2.73906 17.75L3.72914 17.6095L3.67591 17.2345L2.68584 17.375ZM2.73906 17.75L1.74898 17.8905L1.8022 18.2655L2.79228 18.125L3.78236 17.9845L3.72914 17.6095L2.73906 17.75ZM2.79228 18.125L1.8022 18.2655C1.82808 18.4478 1.83489 18.6288 1.82302 18.8095L2.82087 18.875L3.81872 18.9405C3.8397 18.6212 3.82745 18.3022 3.78236 17.9845L2.79228 18.125ZM2.82087 18.875L1.82302 18.8095L1.7984 19.1845L2.79625 19.25L3.7941 19.3155L3.81872 18.9405L2.82087 18.875ZM2.79625 19.25L1.7984 19.1845L1.77377 19.5595L2.77162 19.625L3.76947 19.6905L3.7941 19.3155L2.79625 19.25ZM2.77162 19.625L1.77377 19.5595C1.75612 19.8281 1.7952 20.1308 1.95032 20.4198C2.1078 20.7133 2.34492 20.918 2.59901 21.0501L3.06024 20.1628L3.52147 19.2756C3.56673 19.2991 3.65133 19.3599 3.7126 19.4741C3.77151 19.5839 3.77069 19.6719 3.76947 19.6905L2.77162 19.625ZM3.06024 20.1628L2.59901 21.0501L2.91226 21.213L3.37349 20.3257L3.83473 19.4384L3.52147 19.2756L3.06024 20.1628ZM3.37349 20.3257L2.91226 21.213L3.22551 21.3758L3.68675 20.4885L4.14798 19.6012L3.83473 19.4384L3.37349 20.3257ZM3.68675 20.4885L3.22551 21.3758C3.69979 21.6223 4.20939 21.6345 4.68135 21.4826L4.375 20.5307L4.06865 19.5788C4.04546 19.5862 4.05056 19.5807 4.07657 19.5823C4.08897 19.5831 4.10275 19.5853 4.11666 19.5892C4.13049 19.5931 4.14114 19.5977 4.14798 19.6012L3.68675 20.4885ZM4.375 20.5307L4.68135 21.4826L5.05635 21.3619L4.75 20.41L4.44365 19.4581L4.06865 19.5788L4.375 20.5307ZM4.75 20.41L5.05635 21.3619L5.43135 21.2412L5.125 20.2893L4.81865 19.3374L4.44365 19.4581L4.75 20.41ZM5.125 20.2893L5.43135 21.2412C5.4747 21.2273 5.50358 21.2269 5.55095 21.2431L5.875 20.2971L6.19905 19.351C5.74642 19.196 5.2753 19.1904 4.81865 19.3374L5.125 20.2893ZM5.875 20.2971L5.55095 21.2431L5.92595 21.3716L6.25 20.4255L6.57405 19.4795L6.19905 19.351L5.875 20.2971ZM6.25 20.4255L5.92595 21.3716L6.30095 21.5L6.625 20.554L6.94905 19.6079L6.57405 19.4795L6.25 20.4255ZM6.625 20.554L6.30095 21.5C6.69801 21.636 7.11252 21.677 7.53062 21.6112L7.375 20.6233L7.21938 19.6355C7.13748 19.6484 7.05199 19.6432 6.94905 19.6079L6.625 20.554ZM7.375 20.6233L7.53062 21.6112L7.90562 21.5521L7.75 20.5643L7.59438 19.5764L7.21938 19.6355L7.375 20.6233ZM7.75 20.5643L7.90562 21.5521L8.28062 21.493L8.125 20.5052L7.96938 19.5174L7.59438 19.5764L7.75 20.5643ZM8.125 20.5052L8.28062 21.493C8.4907 21.4599 8.69994 21.44 8.90859 21.4329L8.875 20.4335L8.84141 19.4341C8.55006 19.4439 8.2593 19.4717 7.96938 19.5174L8.125 20.5052ZM8.875 20.4335L8.90859 21.4329L9.28359 21.4203L9.25 20.4209L9.21641 19.4215L8.84141 19.4341L8.875 20.4335ZM9.25 20.4209L9.28359 21.4203L9.65859 21.4077L9.625 20.4083L9.59141 19.4089L9.21641 19.4215L9.25 20.4209ZM9.625 20.4083L9.65859 21.4077C9.88767 21.4 10.1167 21.3995 10.3458 21.4062L10.375 20.4066L10.4042 19.4071C10.1333 19.3992 9.86233 19.3998 9.59141 19.4089L9.625 20.4083ZM10.375 20.4066L10.3458 21.4062L10.7208 21.4172L10.75 20.4176L10.7792 19.418L10.4042 19.4071L10.375 20.4066ZM10.75 20.4176L10.7208 21.4172L11.0958 21.4281L11.125 20.4285L11.1542 19.429L10.7792 19.418L10.75 20.4176ZM11.125 20.4285L11.0958 21.4281C11.4351 21.438 11.7719 21.4028 12.1042 21.3245L11.875 20.3512L11.6458 19.3778C11.4781 19.4173 11.3149 19.4337 11.1542 19.429L11.125 20.4285ZM11.875 20.3512L12.1042 21.3245L12.4792 21.2362L12.25 20.2628L12.0208 19.2895L11.6458 19.3778L11.875 20.3512ZM12.25 20.2628L12.4792 21.2362L12.8542 21.1479L12.625 20.1745L12.3958 19.2012L12.0208 19.2895L12.25 20.2628ZM12.625 20.1745L12.8542 21.1479C12.8509 21.1487 12.8443 21.1498 12.8355 21.15C12.8266 21.1502 12.819 21.1494 12.8138 21.1484C12.8087 21.1475 12.8088 21.1469 12.8144 21.1492C12.8203 21.1515 12.8326 21.1571 12.8514 21.1686L13.375 20.3167L13.8986 19.4647C13.4584 19.1941 12.9401 19.0729 12.3958 19.2012L12.625 20.1745ZM13.375 20.3167L12.8514 21.1686L13.2264 21.3991L13.75 20.5472L14.2736 19.6952L13.8986 19.4647L13.375 20.3167ZM13.75 20.5472L13.2264 21.3991L13.6014 21.6296L14.125 20.7776L14.6486 19.9257L14.2736 19.6952L13.75 20.5472ZM14.125 20.7776L13.6014 21.6296C14.0883 21.9289 14.664 22.0168 15.2356 21.7958L14.875 20.8631L14.5144 19.9304C14.52 19.9282 14.5331 19.924 14.5524 19.9213C14.572 19.9186 14.5929 19.9184 14.6132 19.9207C14.656 19.9256 14.6695 19.9385 14.6486 19.9257L14.125 20.7776ZM14.875 20.8631L15.2356 21.7958L15.6106 21.6508L15.25 20.7181L14.8894 19.7854L14.5144 19.9304L14.875 20.8631ZM15.25 20.7181L15.6106 21.6508L15.9856 21.5058L15.625 20.5731L15.2644 19.6404L14.8894 19.7854L15.25 20.7181ZM15.625 20.5731L15.9856 21.5058C16.1278 21.4508 16.2545 21.4291 16.3711 21.4296L16.375 20.4296L16.3789 19.4296C15.9955 19.4281 15.6222 19.5021 15.2644 19.6404L15.625 20.5731ZM16.375 20.4296L16.3711 21.4296L16.7461 21.431L16.75 20.431L16.7539 19.4311L16.3789 19.4296L16.375 20.4296ZM16.75 20.431L16.7461 21.431L17.1211 21.4325L17.125 20.4325L17.1289 19.4325L16.7539 19.4311L16.75 20.431ZM17.125 20.4325L17.1211 21.4325C17.2984 21.4332 17.4776 21.453 17.66 21.4932L17.875 20.5166L18.0901 19.54C17.7724 19.47 17.4516 19.4338 17.1289 19.4325L17.125 20.4325ZM17.875 20.5166L17.66 21.4932L18.0349 21.5757L18.25 20.5991L18.4651 19.6225L18.0901 19.54L17.875 20.5166ZM18.25 20.5991L18.0349 21.5757L18.4099 21.6583L18.625 20.6817L18.8401 19.7051L18.4651 19.6225L18.25 20.5991ZM18.625 20.6817L18.4099 21.6583C18.8605 21.7575 19.31 21.7165 19.734 21.5534L19.375 20.6201L19.016 19.6867C18.94 19.7159 18.8895 19.716 18.8401 19.7051L18.625 20.6817ZM19.375 20.6201L19.734 21.5534L20.109 21.4092L19.75 20.4758L19.391 19.5425L19.016 19.6867L19.375 20.6201ZM19.75 20.4758L20.109 21.4092L20.484 21.2649L20.125 20.3316L19.766 19.3982L19.391 19.5425L19.75 20.4758ZM20.125 20.3316L20.484 21.2649C20.9261 21.0949 21.3561 20.769 21.5478 20.2202L20.6036 19.8905L19.6595 19.5609C19.6811 19.4992 19.7179 19.4476 19.7545 19.4138C19.7865 19.3844 19.8 19.3852 19.766 19.3982L20.125 20.3316ZM20.6036 19.8905L21.5478 20.2202L21.6514 19.9233L20.7073 19.5937L19.7632 19.2641L19.6595 19.5609L20.6036 19.8905ZM20.7073 19.5937L21.6514 19.9233L21.755 19.6265L20.8109 19.2968L19.8668 18.9672L19.7632 19.2641L20.7073 19.5937ZM20.8109 19.2968L21.755 19.6265C21.9422 19.0904 21.8204 18.5747 21.6108 18.1674L20.7216 18.625L19.8324 19.0826C19.8566 19.1296 19.8525 19.1378 19.8491 19.1123C19.8473 19.0987 19.846 19.0776 19.8485 19.0507C19.851 19.0236 19.8571 18.9951 19.8668 18.9672L20.8109 19.2968ZM20.7216 18.625L21.6108 18.1674L21.4178 17.7924L20.5286 18.25L19.6394 18.7076L19.8324 19.0826L20.7216 18.625ZM20.5286 18.25L21.4178 17.7924L21.2248 17.4174L20.3357 17.875L19.4465 18.3326L19.6394 18.7076L20.5286 18.25ZM20.3357 17.875L21.2248 17.4174C21.2185 17.405 21.2286 17.4204 21.2301 17.4568C21.2309 17.4734 21.2295 17.4888 21.227 17.5014C21.2247 17.5138 21.222 17.5197 21.2225 17.5185L20.3032 17.125L19.3839 16.7315C19.1551 17.266 19.1868 17.8279 19.4465 18.3326L20.3357 17.875ZM20.3032 17.125L21.2225 17.5185L21.3831 17.1435L20.4637 16.75L19.5444 16.3565L19.3839 16.7315L20.3032 17.125ZM20.4637 16.75L21.3831 17.1435L21.5436 16.7685L20.6243 16.375L19.7049 15.9815L19.5444 16.3565L20.4637 16.75ZM20.6243 16.375L21.5436 16.7685C21.6793 16.4516 21.7777 16.1262 21.8346 15.7935L20.8489 15.625L19.8632 15.4565C19.8346 15.6238 19.7833 15.7984 19.7049 15.9815L20.6243 16.375ZM20.8489 15.625L21.8346 15.7935L21.8987 15.4185L20.913 15.25L19.9273 15.0815L19.8632 15.4565L20.8489 15.625ZM20.913 15.25L21.8987 15.4185L21.9628 15.0435L20.9771 14.875L19.9914 14.7065L19.9273 15.0815L20.913 15.25ZM20.9771 14.875L21.9628 15.0435C22.0417 14.582 21.9719 14.1313 21.7852 13.7155L20.8729 14.125L19.9606 14.5345C19.9984 14.6187 19.998 14.668 19.9914 14.7065L20.9771 14.875ZM20.8729 14.125L21.7852 13.7155L21.6169 13.3405L20.7046 13.75L19.7923 14.1595L19.9606 14.5345L20.8729 14.125ZM20.7046 13.75L21.6169 13.3405L21.4485 12.9655L20.5362 13.375L19.6239 13.7845L19.7923 14.1595L20.7046 13.75ZM20.5362 13.375L21.4485 12.9655C21.3822 12.8177 21.3531 12.6885 21.3471 12.5733L20.3485 12.625L19.3498 12.6767C19.3697 13.0615 19.4658 13.4323 19.6239 13.7845L20.5362 13.375ZM20.3485 12.625L21.3471 12.5733L21.3277 12.1983L20.329 12.25L19.3304 12.3017L19.3498 12.6767L20.3485 12.625ZM20.329 12.25L21.3277 12.1983L21.3083 11.8233L20.3096 11.875L19.311 11.9267L19.3304 12.3017L20.329 12.25ZM20.3096 11.875L21.3083 11.8233C21.3007 11.6766 21.3151 11.527 21.3547 11.3713L20.3855 11.125L19.4163 10.8787C19.3288 11.223 19.2927 11.5734 19.311 11.9267L20.3096 11.875ZM20.3855 11.125L21.3547 11.3713L21.45 10.9963L20.4808 10.75L19.5117 10.5037L19.4163 10.8787L20.3855 11.125ZM20.4808 10.75L21.45 10.9963L21.5453 10.6213L20.5762 10.375L19.607 10.1287L19.5117 10.5037L20.4808 10.75ZM20.5762 10.375L21.5453 10.6213C21.6261 10.3035 21.6726 9.98173 21.6831 9.65727L20.6836 9.625L19.6841 9.59273C19.6784 9.76827 19.6533 9.94652 19.607 10.1287L20.5762 10.375ZM20.6836 9.625L21.6831 9.65727L21.6952 9.28227L20.6957 9.25L19.6962 9.21773L19.6841 9.59273L20.6836 9.625ZM20.6957 9.25L21.6952 9.28227L21.7073 8.90727L20.7078 8.875L19.7083 8.84273L19.6962 9.21773L20.6957 9.25ZM20.7078 8.875L21.7073 8.90727C21.7147 8.67804 21.7292 8.44871 21.7509 8.21925L20.7554 8.125L19.7598 8.03075C19.7342 8.30129 19.717 8.57196 19.7083 8.84273L20.7078 8.875ZM20.7554 8.125L21.7509 8.21925L21.7864 7.84425L20.7909 7.75L19.7953 7.65575L19.7598 8.03075L20.7554 8.125ZM20.7909 7.75L21.7864 7.84425L21.8219 7.46925L20.8264 7.375L19.8308 7.28075L19.7953 7.65575L20.7909 7.75ZM20.8264 7.375L21.8219 7.46925C21.8456 7.21933 21.8693 6.96942 21.893 6.71951L20.8975 6.625L19.902 6.53049C19.8782 6.78058 19.8545 7.03067 19.8308 7.28075L20.8264 7.375ZM20.8975 6.625L21.893 6.71951L21.9286 6.34451L20.9331 6.25L19.9376 6.15549L19.902 6.53049L20.8975 6.625ZM20.9331 6.25L21.9286 6.34451L21.9642 5.96951L20.9687 5.875L19.9732 5.78049L19.9376 6.15549L20.9331 6.25ZM20.9687 5.875L21.9642 5.96951C22.0125 5.46135 21.8669 4.99301 21.6121 4.59037L20.7671 5.125L19.922 5.65963C19.9548 5.71147 19.9663 5.74458 19.9704 5.75963C19.9739 5.77293 19.9734 5.77805 19.9732 5.78049L20.9687 5.875ZM20.7671 5.125L21.6121 4.59037L21.3749 4.21537L20.5298 4.75L19.6847 5.28463L19.922 5.65963L20.7671 5.125ZM20.5298 4.75L21.3749 4.21537L21.1377 3.84037L20.2926 4.375L19.4475 4.90963L19.6847 5.28463L20.5298 4.75ZM20.2926 4.375L21.1377 3.84037C21.0443 3.69276 20.9422 3.54687 20.8321 3.42117C20.7436 3.32018 20.5583 3.12284 20.2801 3.01426L19.9165 3.94581L19.5529 4.87735C19.4969 4.85549 19.4535 4.83157 19.4234 4.81278C19.393 4.79383 19.3709 4.7768 19.3569 4.76534C19.3306 4.74366 19.3208 4.73127 19.3278 4.73923C19.3336 4.74588 19.3474 4.76246 19.3691 4.79255C19.3904 4.82213 19.4165 4.86068 19.4475 4.90963L20.2926 4.375ZM19.9165 3.94581L20.2801 3.01426L20.1413 2.96007L19.7777 3.89161L19.414 4.82316L19.5529 4.87735L19.9165 3.94581ZM19.7777 3.89161L20.1413 2.96007L20.0025 2.90587L19.6388 3.83742L19.2752 4.76896L19.414 4.82316L19.7777 3.89161ZM19.6388 3.83742L20.0025 2.90587C20.0027 2.90595 19.9998 2.90484 19.9934 2.90211C19.9872 2.89943 19.9786 2.89568 19.9676 2.89067C19.9452 2.88053 19.916 2.86678 19.8791 2.8488C19.805 2.8127 19.7088 2.76384 19.5887 2.70097L19.125 3.58697L18.6613 4.47298C18.9052 4.60058 19.1236 4.70976 19.2752 4.76896L19.6388 3.83742ZM19.125 3.58697L19.5887 2.70097L19.2137 2.50472L18.75 3.39073L18.2863 4.27673L18.6613 4.47298L19.125 3.58697ZM18.75 3.39073L19.2137 2.50472L18.8387 2.30847L18.375 3.19448L17.9113 4.08048L18.2863 4.27673L18.75 3.39073ZM18.375 3.19448L18.8387 2.30847C18.3507 2.05311 17.8027 2.00328 17.269 2.20663L17.625 3.1411L17.981 4.07558C17.9817 4.07532 17.9763 4.07742 17.9656 4.07907C17.9547 4.08076 17.942 4.08141 17.929 4.08049C17.9161 4.07957 17.9069 4.07739 17.9026 4.0761C17.8985 4.07489 17.9013 4.07525 17.9113 4.08048L18.375 3.19448ZM17.625 3.1411L17.269 2.20663L16.894 2.3495L17.25 3.28398L17.606 4.21845L17.981 4.07558L17.625 3.1411ZM17.25 3.28398L16.894 2.3495L16.519 2.49238L16.875 3.42685L17.231 4.36133L17.606 4.21845L17.25 3.28398ZM16.875 3.42685L16.519 2.49238C16.364 2.55144 16.2215 2.57935 16.088 2.58429L16.125 3.5836L16.162 4.58292C16.5285 4.56936 16.886 4.49277 17.231 4.36133L16.875 3.42685ZM16.125 3.5836L16.088 2.58429L15.713 2.59816L15.75 3.59748L15.787 4.59679L16.162 4.58292L16.125 3.5836ZM15.75 3.59748L15.713 2.59816L15.338 2.61204L15.375 3.61136L15.412 4.61067L15.787 4.59679L15.75 3.59748ZM15.375 3.61136L15.338 2.61204C15.2645 2.61476 15.1729 2.6009 15.0523 2.54389L14.625 3.44801L14.1977 4.35214C14.5771 4.53142 14.9855 4.62645 15.412 4.61067L15.375 3.61136ZM14.625 3.44801L15.0523 2.54389L14.6773 2.36667L14.25 3.2708L13.8227 4.17492L14.1977 4.35214L14.625 3.44801ZM14.25 3.2708L14.6773 2.36667L14.3023 2.18946L13.875 3.09358L13.4477 3.9977L13.8227 4.17492L14.25 3.2708ZM13.875 3.09358L14.3023 2.18946C13.8282 1.96541 13.3081 1.92475 12.7991 2.10026L13.125 3.04565L13.4509 3.99104C13.4556 3.98943 13.4556 3.98988 13.4516 3.99044C13.4474 3.99103 13.4419 3.99132 13.4362 3.99095C13.4306 3.99059 13.4277 3.98978 13.4284 3.98998C13.4293 3.99023 13.4357 3.99201 13.4477 3.9977L13.875 3.09358ZM13.125 3.04565L12.7991 2.10026L12.4241 2.22954L12.75 3.17493L13.0759 4.12033L13.4509 3.99104L13.125 3.04565ZM12.75 3.17493L12.4241 2.22954L12.0491 2.35883L12.375 3.30422L12.7009 4.24961L13.0759 4.12033L12.75 3.17493ZM12.375 3.30422L12.0491 2.35883C12.0055 2.37385 11.9806 2.37356 11.9397 2.35999L11.625 3.3092L11.3103 4.2584C11.7694 4.41059 12.2445 4.40697 12.7009 4.24961L12.375 3.30422ZM11.625 3.3092L11.9397 2.35999L11.5647 2.23568L11.25 3.18488L10.9353 4.13409L11.3103 4.2584L11.625 3.3092ZM11.25 3.18488L11.5647 2.23568L11.1897 2.11137L10.875 3.06057L10.5603 4.00978L10.9353 4.13409L11.25 3.18488ZM10.875 3.06057L11.1897 2.11137C10.8334 1.99326 10.4656 1.93685 10.0912 1.94952L10.125 2.94895L10.1588 3.94838C10.2844 3.94413 10.4166 3.96213 10.5603 4.00978L10.875 3.06057ZM10.125 2.94895L10.0912 1.94952L9.71617 1.96222L9.75 2.96164L9.78382 3.96107L10.1588 3.94838L10.125 2.94895ZM9.75 2.96164L9.71617 1.96222L9.34117 1.97491L9.375 2.97434L9.40882 3.97376L9.78382 3.96107L9.75 2.96164ZM9.375 2.97434L9.34117 1.97491C8.92503 1.98899 8.53054 2.10401 8.16524 2.29313L8.625 3.18117L9.08476 4.06922C9.21946 3.99948 9.32497 3.9766 9.40882 3.97376L9.375 2.97434ZM8.625 3.18117L8.16524 2.29313L7.79024 2.48728L8.25 3.37532L8.70976 4.26336L9.08476 4.06922L8.625 3.18117ZM8.25 3.37532L7.79024 2.48728L7.41524 2.68142L7.875 3.56946L8.33476 4.45751L8.70976 4.26336L8.25 3.37532ZM7.875 3.56946L7.41524 2.68142C7.29706 2.74261 7.21446 2.75458 7.15504 2.75279L7.125 3.75234L7.09496 4.75189C7.53554 4.76513 7.95294 4.65518 8.33476 4.45751L7.875 3.56946ZM7.125 3.75234L7.15504 2.75279L6.78004 2.74152L6.75 3.74107L6.71996 4.74062L7.09496 4.75189L7.125 3.75234ZM6.75 3.74107L6.78004 2.74152L6.40504 2.73025L6.375 3.7298L6.34496 4.72935L6.71996 4.74062L6.75 3.74107ZM6.375 3.7298L6.40504 2.73025C6.21204 2.72445 6.01771 2.7022 5.82151 2.66288L5.625 3.64338L5.42849 4.62388C5.73229 4.68477 6.03796 4.72013 6.34496 4.72935L6.375 3.7298ZM5.625 3.64338L5.82151 2.66288L5.44651 2.58772L5.25 3.56822L5.05349 4.54872L5.42849 4.62388L5.625 3.64338ZM5.25 3.56822L5.44651 2.58772L5.07151 2.51256L4.875 3.49307L4.67849 4.47357L5.05349 4.54872L5.25 3.56822ZM4.875 3.49307L5.07151 2.51256C4.83309 2.46478 4.59454 2.41258 4.35585 2.35595L4.125 3.32894L3.89415 4.30192C4.15546 4.36392 4.41691 4.42114 4.67849 4.47357L4.875 3.49307ZM4.125 3.32894L4.35585 2.35595L3.98085 2.26697L3.75 3.23996L3.51915 4.21295L3.89415 4.30192L4.125 3.32894ZM3.75 3.23996L3.98085 2.26697L3.60585 2.178L3.375 3.15099L3.14415 4.12398L3.51915 4.21295L3.75 3.23996ZM3.375 3.15099L3.60585 2.178C3.46404 2.14435 3.25303 2.10142 3.0391 2.11313C2.94007 2.11855 2.71387 2.14032 2.48516 2.2864C2.18746 2.47654 2 2.8054 2 3.17151H3H4C4 3.30923 3.96919 3.47178 3.88078 3.63151C3.79274 3.79057 3.67308 3.9008 3.56172 3.97193C3.36426 4.09805 3.18493 4.10814 3.1484 4.11014C3.05947 4.115 3.03596 4.09831 3.14415 4.12398L3.375 3.15099ZM3 3.17151H2V3.28101H3H4V3.17151H3ZM3 3.28101H2V3.3905H3H4V3.28101H3ZM3 3.3905H2C2 3.55219 2.03244 3.79214 2.06662 4.02205L3.05575 3.875L4.04488 3.72795C4.02714 3.60859 4.01493 3.51764 4.00738 3.45206C4.00362 3.41936 4.00147 3.39689 4.00036 3.38284C3.99903 3.36606 4 3.37148 4 3.3905H3ZM3.05575 3.875L2.06662 4.02205L2.12237 4.39705L3.1115 4.25L4.10063 4.10295L4.04488 3.72795L3.05575 3.875Z" fill="black"/>
<path d="M7.49297 10.4696C7.01245 10.1974 6.40221 10.3662 6.12995 10.8467C5.85769 11.3272 6.02652 11.9375 6.50703 12.2097L7 11.3397L7.49297 10.4696ZM7.087 11.389L7.72986 10.623L7.65968 10.5641L7.57997 10.5189L7.087 11.389ZM8.21277 12.3898L7.40184 12.9749L8.21277 12.3898ZM8.52023 12.8159L7.70931 13.401L8.52023 12.8159ZM8.82769 13.242L8.01677 13.8271L8.82769 13.242ZM9.05227 13.5106L8.33237 14.2047L9.05227 13.5106ZM9.41853 13.8905L8.69864 14.5846L9.41853 13.8905ZM9.7848 14.2704L10.5047 13.5763L9.7848 14.2704ZM10.0115 14.5374L10.8132 13.9396L10.0115 14.5374ZM10.3255 14.9584L9.52384 15.5562L10.3255 14.9584ZM10.7957 15.4209L11.682 15.8841L10.7957 15.4209ZM10.9507 15.1245L10.0644 14.6612L10.9507 15.1245ZM11.1056 14.828L11.9918 15.2913L11.1056 14.828ZM11.2928 14.6161L11.9334 15.384L11.2928 14.6161ZM11.6995 14.2769L12.3401 15.0448L11.6995 14.2769ZM12.1062 13.9377L11.4656 13.1698L12.1062 13.9377ZM12.3795 13.7136L11.7525 12.9347L12.3795 13.7136ZM12.7931 13.3807L12.166 12.6018L12.7931 13.3807ZM13.2066 13.0478L13.8337 13.8268L13.2066 13.0478ZM13.4782 12.8221L14.1294 13.5809L13.4782 12.8221ZM13.8793 12.4778L13.2281 11.7189L13.8793 12.4778ZM14.2805 12.1335L14.9318 12.8924L14.2805 12.1335ZM14.5098 11.8689L13.6669 11.3309L14.5098 11.8689ZM14.7967 11.4195L15.6397 11.9575L14.7967 11.4195ZM15.0836 10.97L14.2407 10.4319L15.0836 10.97ZM15.3343 10.725L14.811 9.8728L15.3343 10.725ZM16.8554 9.59669L16.1282 8.91032L16.8554 9.59669ZM17.1825 9.25011L16.4553 8.56375L17.1825 9.25011ZM17.2551 9.10104L17.9324 8.36528L17.2551 9.10104ZM17.1458 9.0004L17.823 8.26464L17.6479 8.10342L17.4189 8.03841L17.1458 9.0004ZM16.9323 8.93979L16.1965 8.26254L15.0961 9.45803L16.6592 9.90177L16.9323 8.93979ZM17.7358 9.54346C18.1098 9.13712 18.0836 8.50449 17.6773 8.13046C17.2709 7.75642 16.6383 7.78262 16.2642 8.18896L17 8.86621L17.7358 9.54346ZM7 11.3397L6.50703 12.2097L6.59404 12.259L7.087 11.389L7.57997 10.5189L7.49297 10.4696L7 11.3397ZM7.087 11.389L6.44415 12.1549L7.2116 12.799L7.85446 12.0331L8.49732 11.2671L7.72986 10.623L7.087 11.389ZM7.85446 12.0331L7.2116 12.799C7.2816 12.8578 7.33194 12.9039 7.3664 12.9383C7.40299 12.9747 7.40992 12.9861 7.40184 12.9749L8.21277 12.3898L9.02369 11.8046C8.88129 11.6073 8.68501 11.4246 8.49732 11.2671L7.85446 12.0331ZM8.21277 12.3898L7.40184 12.9749L7.70931 13.401L8.52023 12.8159L9.33115 12.2307L9.02369 11.8046L8.21277 12.3898ZM8.52023 12.8159L7.70931 13.401L8.01677 13.8271L8.82769 13.242L9.63861 12.6568L9.33115 12.2307L8.52023 12.8159ZM8.82769 13.242L8.01677 13.8271C8.11294 13.9604 8.21824 14.0863 8.33237 14.2047L9.05227 13.5106L9.77216 12.8165C9.72351 12.7661 9.6791 12.7129 9.63861 12.6568L8.82769 13.242ZM9.05227 13.5106L8.33237 14.2047L8.69864 14.5846L9.41853 13.8905L10.1384 13.1964L9.77216 12.8165L9.05227 13.5106ZM9.41853 13.8905L8.69864 14.5846L9.0649 14.9645L9.7848 14.2704L10.5047 13.5763L10.1384 13.1964L9.41853 13.8905ZM9.7848 14.2704L9.0649 14.9645C9.11719 15.0187 9.16544 15.0756 9.20989 15.1352L10.0115 14.5374L10.8132 13.9396C10.7181 13.8121 10.6152 13.6909 10.5047 13.5763L9.7848 14.2704ZM10.0115 14.5374L9.20989 15.1352L9.52384 15.5562L10.3255 14.9584L11.1271 14.3606L10.8132 13.9396L10.0115 14.5374ZM10.3255 14.9584L9.52384 15.5562L9.83778 15.9772L10.6394 15.3794L11.4411 14.7816L11.1271 14.3606L10.3255 14.9584ZM10.6394 15.3794L9.83778 15.9772C9.88033 16.0342 9.94295 16.1105 10.0273 16.1848C10.1049 16.2532 10.2547 16.3681 10.4741 16.4264C10.7289 16.4941 11.0222 16.4685 11.2819 16.3123C11.5077 16.1766 11.6259 15.9914 11.682 15.8841L10.7957 15.4209L9.9095 14.9576C9.94834 14.8833 10.0471 14.7211 10.2513 14.5983C10.4893 14.4552 10.7588 14.4326 10.9876 14.4934C11.1809 14.5448 11.3024 14.6428 11.3496 14.6843C11.4035 14.7318 11.4334 14.7713 11.4411 14.7816L10.6394 15.3794ZM10.7957 15.4209L11.682 15.8841L11.8369 15.5877L10.9507 15.1245L10.0644 14.6612L9.9095 14.9576L10.7957 15.4209ZM10.9507 15.1245L11.8369 15.5877L11.9918 15.2913L11.1056 14.828L10.2194 14.3648L10.0644 14.6612L10.9507 15.1245ZM11.1056 14.828L11.9918 15.2913C11.9632 15.346 11.9364 15.3779 11.9277 15.3878C11.9183 15.3984 11.918 15.3969 11.9334 15.384L11.2928 14.6161L10.6523 13.8482C10.513 13.9644 10.34 14.1341 10.2194 14.3648L11.1056 14.828ZM11.2928 14.6161L11.9334 15.384L12.3401 15.0448L11.6995 14.2769L11.0589 13.509L10.6523 13.8482L11.2928 14.6161ZM11.6995 14.2769L12.3401 15.0448L12.7467 14.7056L12.1062 13.9377L11.4656 13.1698L11.0589 13.509L11.6995 14.2769ZM12.1062 13.9377L12.7467 14.7056C12.8326 14.6339 12.9193 14.5629 13.0066 14.4926L12.3795 13.7136L11.7525 12.9347C11.656 13.0123 11.5604 13.0907 11.4656 13.1698L12.1062 13.9377ZM12.3795 13.7136L13.0066 14.4926L13.4202 14.1597L12.7931 13.3807L12.166 12.6018L11.7525 12.9347L12.3795 13.7136ZM12.7931 13.3807L13.4202 14.1597L13.8337 13.8268L13.2066 13.0478L12.5795 12.2689L12.166 12.6018L12.7931 13.3807ZM13.2066 13.0478L13.8337 13.8268C13.9337 13.7462 14.0323 13.6643 14.1294 13.5809L13.4782 12.8221L12.8269 12.0632C12.7457 12.1329 12.6633 12.2014 12.5795 12.2689L13.2066 13.0478ZM13.4782 12.8221L14.1294 13.5809L14.5306 13.2367L13.8793 12.4778L13.2281 11.7189L12.8269 12.0632L13.4782 12.8221ZM13.8793 12.4778L14.5306 13.2367L14.9318 12.8924L14.2805 12.1335L13.6292 11.3747L13.2281 11.7189L13.8793 12.4778ZM14.2805 12.1335L14.9318 12.8924C15.0959 12.7515 15.2368 12.5887 15.3528 12.407L14.5098 11.8689L13.6669 11.3309C13.6554 11.3489 13.6434 11.3625 13.6292 11.3747L14.2805 12.1335ZM14.5098 11.8689L15.3528 12.407L15.6397 11.9575L14.7967 11.4195L13.9538 10.8814L13.6669 11.3309L14.5098 11.8689ZM14.7967 11.4195L15.6397 11.9575L15.9266 11.508L15.0836 10.97L14.2407 10.4319L13.9538 10.8814L14.7967 11.4195ZM15.0836 10.97L15.9266 11.508C15.918 11.5215 15.9067 11.5357 15.8931 11.5489C15.8796 11.5621 15.8669 11.5714 15.8575 11.5772L15.3343 10.725L14.811 9.8728C14.5819 10.0135 14.3878 10.2015 14.2407 10.4319L15.0836 10.97ZM15.3343 10.725L15.8575 11.5772L16.3225 11.2917L15.7993 10.4395L15.2761 9.58728L14.811 9.8728L15.3343 10.725ZM15.7993 10.4395L16.3225 11.2917L16.7875 11.0062L16.2643 10.154L15.7411 9.30177L15.2761 9.58728L15.7993 10.4395ZM16.2643 10.154L16.7875 11.0062C16.9553 10.9032 17.1145 10.7791 17.2556 10.6296L16.5283 9.94327L15.8011 9.2569C15.7968 9.26143 15.78 9.27786 15.7411 9.30177L16.2643 10.154ZM16.5283 9.94327L17.2556 10.6296L17.5827 10.283L16.8554 9.59669L16.1282 8.91032L15.8011 9.2569L16.5283 9.94327ZM16.8554 9.59669L17.5827 10.283L17.9098 9.93647L17.1825 9.25011L16.4553 8.56375L16.1282 8.91032L16.8554 9.59669ZM17.1825 9.25011L17.9098 9.93647C17.9643 9.87872 18.0739 9.75782 18.1543 9.59285C18.1947 9.50983 18.2645 9.34231 18.2642 9.12153C18.2639 8.86176 18.1637 8.57827 17.9324 8.36528L17.2551 9.10104L16.5779 9.83679C16.3586 9.63499 16.2646 9.36609 16.2642 9.12433C16.264 8.92157 16.3278 8.77548 16.3561 8.7173C16.4122 8.60202 16.4734 8.54448 16.4553 8.56375L17.1825 9.25011ZM17.2551 9.10104L17.9324 8.36528L17.823 8.26464L17.1458 9.0004L16.4685 9.73615L16.5779 9.83679L17.2551 9.10104ZM17.1458 9.0004L17.4189 8.03841L17.2054 7.9778L16.9323 8.93979L16.6592 9.90177L16.8727 9.96238L17.1458 9.0004ZM16.9323 8.93979L17.668 9.61704L17.7358 9.54346L17 8.86621L16.2642 8.18896L16.1965 8.26254L16.9323 8.93979Z" fill="white"/>
</svg>
