<svg width="24" height="24" viewBox="0 0 24 24" fill="none" xmlns="http://www.w3.org/2000/svg">
<path d="M11.6385 2.27647C11.8753 2.21318 12.1246 2.21318 12.3614 2.27647C12.6421 2.3515 12.8749 2.5333 12.9975 2.62905L13.0326 2.65625L19.8658 7.88153C20.2526 8.17677 20.5788 8.42572 20.8215 8.75002C21.0348 9.03498 21.1938 9.35676 21.2906 9.69929C21.4008 10.0891 21.4004 10.4994 21.4 10.9861L21.3999 17.335C21.3999 17.8648 21.3999 18.316 21.3697 18.6865C21.3379 19.0756 21.2682 19.4542 21.0838 19.8161C20.8058 20.3618 20.3621 20.8055 19.8165 21.0835C19.4545 21.2679 19.0759 21.3375 18.6868 21.3693C18.3164 21.3996 17.8652 21.3996 17.3354 21.3996H12.9002V13.9996C12.9002 13.5026 12.4973 13.0996 12.0002 13.0996C11.5032 13.0996 11.1002 13.5026 11.1002 13.9996V21.3996H6.66455C6.1347 21.3996 5.68349 21.3996 5.31307 21.3693C4.92391 21.3375 4.54532 21.2679 4.18339 21.0835C3.63772 20.8055 3.19408 20.3618 2.91605 19.8161C2.73163 19.4542 2.662 19.0756 2.6302 18.6865C2.59994 18.316 2.59995 17.8648 2.59997 17.335L2.59991 10.9861C2.59946 10.4995 2.59908 10.0891 2.70924 9.69929C2.80603 9.35676 2.96504 9.03498 3.17834 8.75002C3.4211 8.42572 3.74727 8.17676 4.13408 7.88153L10.9673 2.65625L11.0023 2.62905C11.1249 2.5333 11.3577 2.3515 11.6385 2.27647Z" fill="#1A1815"/>
</svg>
