<svg width="69" height="69" viewBox="0 0 69 69" fill="none" xmlns="http://www.w3.org/2000/svg">
<path d="M30.8304 0.129357C31.3778 -0.000633627 31.9362 -0.0341545 32.4945 0.0356067L33.0687 0.117638L33.6429 0.18795C34.0168 0.234887 34.3888 0.276334 34.7562 0.316857L35.3187 0.37545L35.8929 0.445763C36.3096 0.491838 36.7255 0.552415 37.1351 0.633263L37.6859 0.738732L38.2367 0.855919C38.5484 0.917422 38.869 0.960186 39.1859 0.984825L39.7484 1.01998L40.3109 1.06686C40.6995 1.09708 41.0905 1.13033 41.4828 1.17233L42.057 1.24264L42.6195 1.30123C43.0549 1.34788 43.4922 1.41696 43.9203 1.51217L44.4828 1.64108L45.0453 1.75826C45.6715 1.89824 46.229 2.19665 46.7093 2.61373L47.1664 3.00045L47.6117 3.39889C47.9289 3.67431 48.2412 3.94873 48.5375 4.23092L48.9594 4.64108L49.2875 4.95748H49.3109L50.6937 4.81686H51.3265C51.7505 4.8607 52.1638 5.00008 52.5336 5.25045L53.0492 5.7192L53.4359 6.16451L53.8226 6.62154C53.9521 6.77245 54.1035 6.87828 54.268 6.96139L54.7836 7.23092L55.2992 7.48873C55.9462 7.81575 56.4344 8.32857 56.7523 8.96529L57.0219 9.50436L57.3031 10.0434C57.3444 10.1262 57.3778 10.1733 57.4437 10.2075L57.9711 10.477L58.5101 10.7465C59.1448 11.075 59.6381 11.585 59.9516 12.2348L60.2094 12.7622L60.4555 13.2895C60.5786 13.5445 60.7272 13.7758 60.8891 13.9809L61.2406 14.4145L61.5805 14.8598C61.8652 15.2208 62.1224 15.6044 62.3422 16.0083L62.8812 16.9926C62.9897 17.192 63.1309 17.3923 63.3148 17.5786L63.7367 18.0004L64.1469 18.4223C64.8048 19.0884 65.0075 19.9471 64.8734 20.7895L64.768 21.4458L64.6625 22.1137C64.6321 22.3085 64.6706 22.3759 64.6742 22.3833L64.9086 22.8872L65.143 23.3794C65.3243 23.7598 65.4947 24.1532 65.6352 24.5512L65.8109 25.0669L65.9984 25.5942C66.0467 25.7309 66.1442 25.9032 66.3266 26.1098L67.1938 27.0942C67.717 27.6869 68.0111 28.4423 67.9438 29.2856L67.8969 29.8598L67.85 30.4458C67.8235 30.7762 67.8253 31.1028 67.8383 31.4184L67.8852 32.5551C67.8944 32.7781 67.8886 33.0053 67.8734 33.2114C67.8596 33.3959 67.8265 33.6668 67.7211 33.9379L67.6625 34.0669C67.6698 34.0937 67.6873 34.1267 67.6977 34.1606L68.0492 35.309C68.2378 35.9316 68.2669 36.579 68.1195 37.2192L67.9789 37.7817L67.85 38.3442C67.7649 38.7124 67.6833 39.0813 67.6039 39.4458L67.4867 40.0083L67.3695 40.559C67.2407 41.1509 66.9779 41.7032 66.6195 42.1879L66.2562 42.6684L65.9047 43.1606C65.7998 43.3024 65.7565 43.4265 65.7406 43.5356L65.6586 44.0864L65.5766 44.6489C65.5269 44.9914 65.4795 45.3489 65.4477 45.7153L65.4008 46.3012L65.3539 46.8989C65.2966 47.5498 65.0681 48.1557 64.6859 48.6918L64.3578 49.1606L64.018 49.6293C63.8921 49.8058 63.8028 50.0069 63.7367 50.227L63.5609 50.7895L63.3969 51.352C63.1989 52.0116 62.8232 52.5774 62.2953 53.0161L61.8383 53.3911L61.3812 53.7778C61.2193 53.9124 61.0964 54.0583 61.0062 54.2231L60.725 54.727L60.4555 55.2309C60.2273 55.6482 59.959 56.0471 59.6586 56.4145L59.2953 56.8481L58.932 57.2934C58.5515 57.7589 58.0855 58.1272 57.5492 58.395L57.0219 58.6645L56.4828 58.9223C56.3991 58.9646 56.3408 59.0248 56.2836 59.1215L55.6742 60.1762C55.1866 61.013 54.3686 61.4313 53.4828 61.477L52.1351 61.5239L51.8187 61.934L51.4554 62.3911C50.9921 62.9647 50.3675 63.3467 49.639 63.4926L48.4906 63.727C48.1998 63.7852 47.9305 63.8622 47.682 63.9614L47.1664 64.1723L46.6508 64.3715C46.4224 64.4632 46.1954 64.5893 45.9711 64.7465L45.5023 65.0747L45.0218 65.4028C44.5518 65.7321 44.0355 65.9681 43.475 66.0942L42.9242 66.2231L42.3734 66.3403C41.865 66.4539 41.3481 66.4943 40.8265 66.4575L40.2523 66.4106L39.6781 66.3754C39.5673 66.3675 39.4556 66.3879 39.3382 66.4458L38.8109 66.7036L38.2953 66.9614C37.8163 67.1977 37.3076 67.3673 36.7836 67.4536L36.2211 67.5356L35.6586 67.6293C35.0863 67.723 34.5112 67.7054 33.9476 67.5708L33.3851 67.4301L32.8226 67.3012C32.7875 67.2933 32.7261 67.2847 32.6 67.3364L32.0023 67.5825L31.4164 67.8286C30.7987 68.0835 30.1368 68.1784 29.4593 68.0747L28.8851 67.9926L28.3109 67.8989C27.6849 67.802 27.1112 67.5597 26.5999 67.1958L26.096 66.8325L25.5921 66.4809C25.3558 66.3125 25.125 66.1952 24.9124 66.1176L24.3851 65.9184L23.8578 65.7309C23.5845 65.6315 23.2967 65.5531 23.0023 65.4965L22.4515 65.3911L21.889 65.2856C21.1673 65.147 20.557 64.7658 20.0843 64.2309L19.6742 63.7856L19.2757 63.3286C19.1304 63.1642 18.9916 63.0587 18.8656 63.0004L18.3617 62.7778L17.8695 62.5434C17.7098 62.4697 17.4989 62.4066 17.2249 62.3793L15.9593 62.2622C15.2822 62.1956 14.6435 61.9526 14.096 61.5122L13.6507 61.1606L13.2054 60.7973L11.4241 59.3911C11.084 59.1227 10.7621 58.8264 10.4515 58.5239L9.63117 57.727C9.27278 57.378 8.9496 56.9907 8.68195 56.5668L8.37727 56.0864L8.07258 55.5942C7.85715 55.253 7.64963 54.9092 7.45148 54.5629L7.15851 54.059L6.87726 53.5668C6.70798 53.2712 6.52573 52.9779 6.3382 52.6997L6.03351 52.2426L5.71711 51.7739C5.48403 51.4281 5.26346 51.0721 5.06086 50.7075L4.79132 50.2153L4.51007 49.7231C4.39215 49.5112 4.24661 49.2966 4.05304 49.0903L3.23273 48.2231C2.82536 47.7892 2.50848 47.2845 2.30695 46.7231L2.10773 46.184L1.92023 45.6333C1.73796 45.1232 1.63247 44.5942 1.61554 44.0512L1.60382 43.4536L1.58038 42.8676C1.56718 42.4292 1.57672 41.9887 1.60382 41.5551L1.63898 40.9809L1.67413 40.395C1.67842 40.3209 1.67296 40.246 1.61554 40.1489L1.31085 39.6333L0.994444 39.1176C0.647526 38.5308 0.474938 37.8664 0.513974 37.1723L0.549131 36.6098L0.584287 36.0356C0.594384 35.8503 0.56896 35.6571 0.502256 35.4497L0.314756 34.8754L0.127255 34.3129C-0.169971 33.3934 0.0792035 32.5153 0.607725 31.8286L1.01788 31.2895L1.35773 30.8442L1.2171 30.434L1.01788 29.8481C0.786582 29.1576 0.783877 28.4229 1.05304 27.7153L1.25226 27.1762L1.45148 26.6489C1.614 26.2225 1.81261 25.8041 2.03741 25.4067L2.31866 24.9028L2.59991 24.4106L2.61163 24.3989C2.61291 24.389 2.61205 24.3508 2.59991 24.2817L2.48273 23.6489L2.36554 23.0044C2.22554 22.2163 2.37453 21.4108 2.89288 20.7309L3.25617 20.2622L3.60773 19.8051C3.77211 19.5896 3.90642 19.3669 4.00617 19.1372L4.22882 18.6098L4.45148 18.0942C4.58903 17.7765 4.71573 17.4466 4.8382 17.1098L5.03742 16.559L5.23664 16.02L5.50617 15.4692C5.82142 14.9675 6.27461 14.5887 6.80695 14.3442L7.40461 14.0747L7.79133 13.8872L7.84992 13.395L7.92023 12.727L8.07258 12.0708C8.15105 11.8499 8.26079 11.6312 8.41242 11.4262C8.71639 11.0156 9.12009 10.7438 9.54914 10.5825L10.1468 10.3598L10.7327 10.1372C11.0803 10.0074 11.4049 9.87181 11.6937 9.72701L12.7249 9.21139C12.7826 9.1822 12.8342 9.13485 12.889 9.03561L13.182 8.50826L13.4632 7.98092C13.7816 7.4045 14.2386 6.92956 14.8226 6.59811L15.3148 6.31686L15.807 6.04732C16.221 5.81237 16.654 5.61061 17.1077 5.46139L18.1859 5.10983C18.2509 5.08836 18.3274 5.04679 18.4202 4.93404L18.8187 4.45358L19.2054 3.97311C19.5626 3.53597 19.9825 3.16736 20.4593 2.87154L20.9515 2.55514L21.4437 2.25045C21.9195 1.95569 22.4432 1.74537 22.9906 1.62936L24.1156 1.39498C24.6101 1.29019 25.1191 1.24047 25.6273 1.25436L26.2132 1.27779L26.7992 1.28951C27.0005 1.29498 27.1795 1.26055 27.3499 1.19576L28.4281 0.797325C28.8456 0.638617 29.2706 0.502554 29.7054 0.398888L30.2679 0.269982L30.8304 0.129357Z" fill="black"/>
</svg>
