<svg width="27" height="26" viewBox="0 0 27 26" fill="none" xmlns="http://www.w3.org/2000/svg">
<path d="M18.9108 0.333344H8.20173C4.05627 0.333344 0.832031 3.55759 0.832031 7.58789V18.297C0.832031 22.4424 4.05627 25.6667 8.20173 25.6667H18.9108C22.9411 25.6667 26.1654 22.4424 26.1654 18.297V7.58789C26.1654 3.55759 22.9411 0.333344 18.9108 0.333344ZM13.4987 19.6788C9.81385 19.6788 6.93506 16.6849 6.93506 13.1152C6.93506 9.54547 9.81385 6.43637 13.4987 6.43637C17.1835 6.43637 20.0623 9.43031 20.0623 13C20.0623 16.5697 17.1835 19.6788 13.4987 19.6788ZM20.2926 7.81819C19.4866 7.81819 18.7957 7.12728 18.7957 6.32122C18.7957 5.51516 19.4866 4.82425 20.2926 4.82425C21.0987 4.82425 21.7896 5.51516 21.7896 6.32122C21.7896 7.12728 21.0987 7.81819 20.2926 7.81819Z" fill="#F3F1EF"/>
</svg>
