<svg width="33" height="32" viewBox="0 0 33 32" fill="none" xmlns="http://www.w3.org/2000/svg">
<path fill-rule="evenodd" clip-rule="evenodd" d="M17.455 6.68816C19.7059 4.43728 23.4278 4.43728 25.6787 6.68816C27.9296 8.93903 27.9296 12.661 25.6787 14.9118L21.5709 19.0196C19.6157 21.1367 16.4342 21.248 14.2423 19.7868C13.4765 19.2762 13.2695 18.2414 13.7801 17.4755C14.2907 16.7096 15.3255 16.5027 16.0913 17.0133C17.0885 17.678 18.4195 17.5311 19.1336 16.7455C19.1514 16.726 19.1696 16.7069 19.1883 16.6882L23.3217 12.5548C24.2708 11.6057 24.2708 9.9943 23.3217 9.04518C22.4065 8.13003 20.8757 8.09727 19.9164 8.94689L19.7536 9.19117C19.243 9.95705 18.2082 10.164 17.4423 9.65342C16.6765 9.14283 16.4695 8.10805 16.9801 7.34217L17.2468 6.94217C17.3076 6.85085 17.3774 6.76576 17.455 6.68816Z" fill="#F3F1EF"/>
<path fill-rule="evenodd" clip-rule="evenodd" d="M11.3789 12.9002C13.3419 11.1157 16.3628 10.6472 18.7 12.4001C19.4364 12.9524 19.5856 13.9971 19.0333 14.7334C18.481 15.4698 17.4364 15.6191 16.7 15.0668C15.8476 14.4275 14.6216 14.4831 13.6565 15.335L9.56373 19.5598L9.54518 19.5786C8.59605 20.5277 8.59605 22.1391 9.54518 23.0883C10.4943 24.0374 12.1057 24.0374 13.0548 23.0883L14.2333 24.2668L13.0548 23.0883L13.4548 22.6883C14.1057 22.0374 15.161 22.0374 15.8118 22.6883C16.4627 23.3391 16.4627 24.3944 15.8118 25.0453L15.4118 25.4453C13.161 27.6962 9.43903 27.6962 7.18816 25.4453C4.94067 23.1978 4.93729 19.4837 7.17802 17.2318L11.3029 12.9738C11.3275 12.9485 11.3528 12.9239 11.3789 12.9002Z" fill="#F3F1EF"/>
</svg>
