<svg width="21" height="21" viewBox="0 0 21 21" fill="none" xmlns="http://www.w3.org/2000/svg">
<path d="M1.93377 4.75L1.00075 4.39019L1.93377 4.75ZM1.67455 6.625L0.674907 6.65167L1.67455 6.625ZM2.1944 10.375L1.21796 10.5908L2.1944 10.375ZM2.36016 11.125L1.38372 11.3408L2.36016 11.125ZM2.09762 12.625L1.14167 12.3315L2.09762 12.625ZM2.35452 14.125L1.40508 14.439L2.35452 14.125ZM2.26705 14.875L3.13809 15.3662L2.26705 14.875ZM1.84409 15.625L0.973054 15.1338L1.84409 15.625ZM1.79228 17.125L0.802203 17.2655L1.79228 17.125ZM2.06024 19.1628L2.52147 18.2756L2.06024 19.1628ZM2.68675 19.4885L3.14798 18.6012L2.68675 19.4885ZM3.375 19.5307L3.68135 20.4826L3.375 19.5307ZM3.75 19.41L3.44365 18.4581L3.75 19.41ZM4.125 19.2893L4.43135 20.2412L4.125 19.2893ZM4.875 19.2971L5.19905 18.351L4.875 19.2971ZM5.625 19.554L5.30095 20.5L5.625 19.554ZM6.375 19.6233L6.21938 18.6355L6.375 19.6233ZM7.125 19.5052L7.28062 20.493L7.125 19.5052ZM7.875 19.4335L7.84141 18.4341L7.875 19.4335ZM8.25 19.4209L8.28359 20.4203L8.25 19.4209ZM8.625 19.4083L8.59141 18.4089L8.625 19.4083ZM9.375 19.4066L9.34582 20.4062L9.375 19.4066ZM10.125 19.4285L10.1542 18.429L10.125 19.4285ZM10.875 19.3512L11.1042 20.3245L10.875 19.3512ZM11.625 19.1745L11.8542 20.1479L11.625 19.1745ZM12.375 19.3167L11.8514 20.1686L12.375 19.3167ZM13.125 19.7776L13.6486 18.9257L13.125 19.7776ZM13.875 19.8631L13.5144 18.9304L13.875 19.8631ZM15.375 19.4296L15.3789 18.4296L15.375 19.4296ZM16.125 19.4325L16.1211 20.4325L16.125 19.4325ZM16.875 19.5166L16.66 20.4932L16.875 19.5166ZM17.625 19.6817L17.8401 18.7051L17.625 19.6817ZM19.125 19.3316L18.766 18.3982L19.125 19.3316ZM19.6036 18.8905L18.6595 18.5609L19.6036 18.8905ZM19.8109 18.2968L20.755 18.6265L19.8109 18.2968ZM19.7216 17.625L18.8324 18.0826L19.7216 17.625ZM19.3357 16.875L20.2248 16.4174L19.3357 16.875ZM19.3032 16.125L20.2225 16.5185L19.3032 16.125ZM19.6243 15.375L20.5436 15.7685L19.6243 15.375ZM19.8489 14.625L18.8632 14.4565L19.8489 14.625ZM19.9771 13.875L18.9914 13.7065L19.9771 13.875ZM19.8729 13.125L20.7852 12.7155L19.8729 13.125ZM19.7046 12.75L18.7923 13.1595L19.7046 12.75ZM19.5362 12.375L20.4485 11.9655L19.5362 12.375ZM19.3485 11.625L20.3471 11.5733L19.3485 11.625ZM19.329 11.25L18.3304 11.3017L19.329 11.25ZM19.3096 10.875L20.3083 10.8233L19.3096 10.875ZM19.3855 10.125L18.4163 9.87866L19.3855 10.125ZM19.4808 9.75L20.45 9.99634L19.4808 9.75ZM19.5762 9.375L18.607 9.12866L19.5762 9.375ZM19.6836 8.625L18.6841 8.59273L19.6836 8.625ZM19.7078 7.875L20.7073 7.90727L19.7078 7.875ZM19.7554 7.125L20.7509 7.21925L19.7554 7.125ZM19.8264 6.375L18.8308 6.28075L19.8264 6.375ZM19.8975 5.625L18.902 5.53049L19.8975 5.625ZM19.9687 4.875L20.9642 4.96951L19.9687 4.875ZM19.7671 4.125L18.922 4.65963L19.7671 4.125ZM19.5298 3.75L18.6847 4.28463L19.5298 3.75ZM19.2926 3.375L20.1377 2.84037L19.2926 3.375ZM18.9165 2.94581L18.5529 3.87735L18.9165 2.94581ZM18.6388 2.83742L18.2752 3.76896L18.6388 2.83742ZM10.625 2.3092L10.3103 3.2584L10.625 2.3092ZM8.375 1.97434L8.34117 0.974908L8.375 1.97434ZM2.375 2.15099L2.14415 3.12398L2.375 2.15099ZM2.1115 3.25L1.12237 3.39705L1.17812 3.77205L2.16725 3.625L3.15638 3.47795L3.10063 3.10295L2.1115 3.25ZM2.16725 3.625L1.17812 3.77205C1.18834 3.84074 1.18346 3.91641 1.14536 4.01519L2.07839 4.375L3.01141 4.73481C3.16614 4.33359 3.2205 3.90926 3.15638 3.47795L2.16725 3.625ZM2.07839 4.375L1.14536 4.01519L1.00075 4.39019L1.93377 4.75L2.8668 5.10981L3.01141 4.73481L2.07839 4.375ZM1.93377 4.75L1.00075 4.39019L0.856131 4.76519L1.78916 5.125L2.72218 5.48481L2.8668 5.10981L1.93377 4.75ZM1.78916 5.125L0.856131 4.76519C0.715653 5.12946 0.644464 5.5105 0.654899 5.90167L1.65454 5.875L2.65419 5.84833C2.65128 5.7395 2.66984 5.62054 2.72218 5.48481L1.78916 5.125ZM1.65454 5.875L0.654899 5.90167L0.664903 6.27667L1.66455 6.25L2.66419 6.22333L2.65419 5.84833L1.65454 5.875ZM1.66455 6.25L0.664903 6.27667L0.674907 6.65167L1.67455 6.625L2.6742 6.59833L2.66419 6.22333L1.66455 6.25ZM1.67455 6.625L0.674907 6.65167C0.685403 7.0451 0.778738 7.42405 0.938865 7.78269L1.85199 7.375L2.76511 6.96731C2.70199 6.82595 2.67704 6.7049 2.6742 6.59833L1.67455 6.625ZM1.85199 7.375L0.938865 7.78269L1.10629 8.15769L2.01941 7.75L2.93254 7.34231L2.76511 6.96731L1.85199 7.375ZM2.01941 7.75L1.10629 8.15769L1.27372 8.53269L2.18684 8.125L3.09997 7.71731L2.93254 7.34231L2.01941 7.75ZM2.18684 8.125L1.27372 8.53269C1.31264 8.61986 1.31323 8.67323 1.30643 8.71524L2.29359 8.875L3.28074 9.03476C3.35486 8.57677 3.28428 8.13014 3.09997 7.71731L2.18684 8.125ZM2.29359 8.875L1.30643 8.71524L1.24574 9.09024L2.2329 9.25L3.22005 9.40976L3.28074 9.03476L2.29359 8.875ZM2.2329 9.25L1.24574 9.09024L1.18505 9.46524L2.17221 9.625L3.15937 9.78476L3.22005 9.40976L2.2329 9.25ZM2.17221 9.625L1.18505 9.46524C1.12418 9.84138 1.13575 10.2188 1.21796 10.5908L2.1944 10.375L3.17084 10.1592C3.14255 10.0312 3.13932 9.90862 3.15937 9.78476L2.17221 9.625ZM2.1944 10.375L1.21796 10.5908L1.30084 10.9658L2.27728 10.75L3.25372 10.5342L3.17084 10.1592L2.1944 10.375ZM2.27728 10.75L1.30084 10.9658L1.38372 11.3408L2.36016 11.125L3.3366 10.9092L3.25372 10.5342L2.27728 10.75ZM2.36016 11.125L1.38372 11.3408C1.40086 11.4184 1.39913 11.4929 1.37194 11.5815L2.3279 11.875L3.28386 12.1685C3.41018 11.7571 3.42996 11.3316 3.3366 10.9092L2.36016 11.125ZM2.3279 11.875L1.37194 11.5815L1.25681 11.9565L2.21276 12.25L3.16872 12.5435L3.28386 12.1685L2.3279 11.875ZM2.21276 12.25L1.25681 11.9565L1.14167 12.3315L2.09762 12.625L3.05358 12.9185L3.16872 12.5435L2.21276 12.25ZM2.09762 12.625L1.14167 12.3315C1.00359 12.7812 1.00975 13.2435 1.15706 13.689L2.1065 13.375L3.05593 13.061C3.03789 13.0065 3.03814 12.9688 3.05358 12.9185L2.09762 12.625ZM2.1065 13.375L1.15706 13.689L1.28107 14.064L2.23051 13.75L3.17994 13.436L3.05593 13.061L2.1065 13.375ZM2.23051 13.75L1.28107 14.064L1.40508 14.439L2.35452 14.125L3.30395 13.811L3.17994 13.436L2.23051 13.75ZM2.35452 14.125L1.40508 14.439C1.40452 14.4373 1.40245 14.4303 1.40123 14.4189C1.40001 14.4075 1.40008 14.3954 1.40139 14.3842C1.40268 14.3731 1.40474 14.3665 1.40513 14.3654C1.40543 14.3645 1.40346 14.3706 1.39601 14.3838L2.26705 14.875L3.13809 15.3662C3.40352 14.8955 3.4836 14.3543 3.30395 13.811L2.35452 14.125ZM2.26705 14.875L1.39601 14.3838L1.18453 14.7588L2.05557 15.25L2.92661 15.7412L3.13809 15.3662L2.26705 14.875ZM2.05557 15.25L1.18453 14.7588L0.973054 15.1338L1.84409 15.625L2.71513 16.1162L2.92661 15.7412L2.05557 15.25ZM1.84409 15.625L0.973054 15.1338C0.739432 15.548 0.625186 16.0183 0.695757 16.5155L1.68584 16.375L2.67591 16.2345C2.67552 16.2317 2.66678 16.202 2.71513 16.1162L1.84409 15.625ZM1.68584 16.375L0.695757 16.5155L0.74898 16.8905L1.73906 16.75L2.72914 16.6095L2.67591 16.2345L1.68584 16.375ZM1.73906 16.75L0.74898 16.8905L0.802203 17.2655L1.79228 17.125L2.78236 16.9845L2.72914 16.6095L1.73906 16.75ZM1.79228 17.125L0.802203 17.2655C0.828077 17.4478 0.834891 17.6288 0.823024 17.8095L1.82087 17.875L2.81872 17.9405C2.8397 17.6212 2.82745 17.3022 2.78236 16.9845L1.79228 17.125ZM1.82087 17.875L0.823024 17.8095L0.798395 18.1845L1.79625 18.25L2.7941 18.3155L2.81872 17.9405L1.82087 17.875ZM1.79625 18.25L0.798395 18.1845L0.773766 18.5595L1.77162 18.625L2.76947 18.6905L2.7941 18.3155L1.79625 18.25ZM1.77162 18.625L0.773766 18.5595C0.756124 18.8281 0.795202 19.1308 0.950317 19.4198C1.1078 19.7133 1.34492 19.918 1.59901 20.0501L2.06024 19.1628L2.52147 18.2756C2.56673 18.2991 2.65133 18.3599 2.7126 18.4741C2.77151 18.5839 2.77069 18.6719 2.76947 18.6905L1.77162 18.625ZM2.06024 19.1628L1.59901 20.0501L1.91226 20.213L2.37349 19.3257L2.83473 18.4384L2.52147 18.2756L2.06024 19.1628ZM2.37349 19.3257L1.91226 20.213L2.22551 20.3758L2.68675 19.4885L3.14798 18.6012L2.83473 18.4384L2.37349 19.3257ZM2.68675 19.4885L2.22551 20.3758C2.69979 20.6223 3.20939 20.6345 3.68135 20.4826L3.375 19.5307L3.06865 18.5788C3.04546 18.5862 3.05056 18.5807 3.07657 18.5823C3.08897 18.5831 3.10275 18.5853 3.11666 18.5892C3.13049 18.5931 3.14114 18.5977 3.14798 18.6012L2.68675 19.4885ZM3.375 19.5307L3.68135 20.4826L4.05635 20.3619L3.75 19.41L3.44365 18.4581L3.06865 18.5788L3.375 19.5307ZM3.75 19.41L4.05635 20.3619L4.43135 20.2412L4.125 19.2893L3.81865 18.3374L3.44365 18.4581L3.75 19.41ZM4.125 19.2893L4.43135 20.2412C4.4747 20.2273 4.50358 20.2269 4.55095 20.2431L4.875 19.2971L5.19905 18.351C4.74642 18.196 4.2753 18.1904 3.81865 18.3374L4.125 19.2893ZM4.875 19.2971L4.55095 20.2431L4.92595 20.3716L5.25 19.4255L5.57405 18.4795L5.19905 18.351L4.875 19.2971ZM5.25 19.4255L4.92595 20.3716L5.30095 20.5L5.625 19.554L5.94905 18.6079L5.57405 18.4795L5.25 19.4255ZM5.625 19.554L5.30095 20.5C5.69801 20.636 6.11252 20.677 6.53062 20.6112L6.375 19.6233L6.21938 18.6355C6.13748 18.6484 6.05199 18.6432 5.94905 18.6079L5.625 19.554ZM6.375 19.6233L6.53062 20.6112L6.90562 20.5521L6.75 19.5643L6.59438 18.5764L6.21938 18.6355L6.375 19.6233ZM6.75 19.5643L6.90562 20.5521L7.28062 20.493L7.125 19.5052L6.96938 18.5174L6.59438 18.5764L6.75 19.5643ZM7.125 19.5052L7.28062 20.493C7.4907 20.4599 7.69994 20.44 7.90859 20.4329L7.875 19.4335L7.84141 18.4341C7.55006 18.4439 7.2593 18.4717 6.96938 18.5174L7.125 19.5052ZM7.875 19.4335L7.90859 20.4329L8.28359 20.4203L8.25 19.4209L8.21641 18.4215L7.84141 18.4341L7.875 19.4335ZM8.25 19.4209L8.28359 20.4203L8.65859 20.4077L8.625 19.4083L8.59141 18.4089L8.21641 18.4215L8.25 19.4209ZM8.625 19.4083L8.65859 20.4077C8.88767 20.4 9.11674 20.3995 9.34582 20.4062L9.375 19.4066L9.40418 18.4071C9.13326 18.3992 8.86233 18.3998 8.59141 18.4089L8.625 19.4083ZM9.375 19.4066L9.34582 20.4062L9.72082 20.4172L9.75 19.4176L9.77918 18.418L9.40418 18.4071L9.375 19.4066ZM9.75 19.4176L9.72082 20.4172L10.0958 20.4281L10.125 19.4285L10.1542 18.429L9.77918 18.418L9.75 19.4176ZM10.125 19.4285L10.0958 20.4281C10.4351 20.438 10.7719 20.4028 11.1042 20.3245L10.875 19.3512L10.6458 18.3778C10.4781 18.4173 10.3149 18.4337 10.1542 18.429L10.125 19.4285ZM10.875 19.3512L11.1042 20.3245L11.4792 20.2362L11.25 19.2628L11.0208 18.2895L10.6458 18.3778L10.875 19.3512ZM11.25 19.2628L11.4792 20.2362L11.8542 20.1479L11.625 19.1745L11.3958 18.2012L11.0208 18.2895L11.25 19.2628ZM11.625 19.1745L11.8542 20.1479C11.8509 20.1487 11.8443 20.1498 11.8355 20.15C11.8266 20.1502 11.819 20.1494 11.8138 20.1484C11.8087 20.1475 11.8088 20.1469 11.8144 20.1492C11.8203 20.1515 11.8326 20.1571 11.8514 20.1686L12.375 19.3167L12.8986 18.4647C12.4584 18.1941 11.9401 18.0729 11.3958 18.2012L11.625 19.1745ZM12.375 19.3167L11.8514 20.1686L12.2264 20.3991L12.75 19.5472L13.2736 18.6952L12.8986 18.4647L12.375 19.3167ZM12.75 19.5472L12.2264 20.3991L12.6014 20.6296L13.125 19.7776L13.6486 18.9257L13.2736 18.6952L12.75 19.5472ZM13.125 19.7776L12.6014 20.6296C13.0883 20.9289 13.664 21.0168 14.2356 20.7958L13.875 19.8631L13.5144 18.9304C13.52 18.9282 13.5331 18.924 13.5524 18.9213C13.572 18.9186 13.5929 18.9184 13.6132 18.9207C13.656 18.9256 13.6695 18.9385 13.6486 18.9257L13.125 19.7776ZM13.875 19.8631L14.2356 20.7958L14.6106 20.6508L14.25 19.7181L13.8894 18.7854L13.5144 18.9304L13.875 19.8631ZM14.25 19.7181L14.6106 20.6508L14.9856 20.5058L14.625 19.5731L14.2644 18.6404L13.8894 18.7854L14.25 19.7181ZM14.625 19.5731L14.9856 20.5058C15.1278 20.4508 15.2545 20.4291 15.3711 20.4296L15.375 19.4296L15.3789 18.4296C14.9955 18.4281 14.6222 18.5021 14.2644 18.6404L14.625 19.5731ZM15.375 19.4296L15.3711 20.4296L15.7461 20.431L15.75 19.431L15.7539 18.4311L15.3789 18.4296L15.375 19.4296ZM15.75 19.431L15.7461 20.431L16.1211 20.4325L16.125 19.4325L16.1289 18.4325L15.7539 18.4311L15.75 19.431ZM16.125 19.4325L16.1211 20.4325C16.2984 20.4332 16.4776 20.453 16.66 20.4932L16.875 19.5166L17.0901 18.54C16.7724 18.47 16.4516 18.4338 16.1289 18.4325L16.125 19.4325ZM16.875 19.5166L16.66 20.4932L17.0349 20.5757L17.25 19.5991L17.4651 18.6225L17.0901 18.54L16.875 19.5166ZM17.25 19.5991L17.0349 20.5757L17.4099 20.6583L17.625 19.6817L17.8401 18.7051L17.4651 18.6225L17.25 19.5991ZM17.625 19.6817L17.4099 20.6583C17.8605 20.7575 18.31 20.7165 18.734 20.5534L18.375 19.6201L18.016 18.6867C17.94 18.7159 17.8895 18.716 17.8401 18.7051L17.625 19.6817ZM18.375 19.6201L18.734 20.5534L19.109 20.4092L18.75 19.4758L18.391 18.5425L18.016 18.6867L18.375 19.6201ZM18.75 19.4758L19.109 20.4092L19.484 20.2649L19.125 19.3316L18.766 18.3982L18.391 18.5425L18.75 19.4758ZM19.125 19.3316L19.484 20.2649C19.9261 20.0949 20.3561 19.769 20.5478 19.2202L19.6036 18.8905L18.6595 18.5609C18.6811 18.4992 18.7179 18.4476 18.7545 18.4138C18.7865 18.3844 18.8 18.3852 18.766 18.3982L19.125 19.3316ZM19.6036 18.8905L20.5478 19.2202L20.6514 18.9233L19.7073 18.5937L18.7632 18.2641L18.6595 18.5609L19.6036 18.8905ZM19.7073 18.5937L20.6514 18.9233L20.755 18.6265L19.8109 18.2968L18.8668 17.9672L18.7632 18.2641L19.7073 18.5937ZM19.8109 18.2968L20.755 18.6265C20.9422 18.0904 20.8204 17.5747 20.6108 17.1674L19.7216 17.625L18.8324 18.0826C18.8566 18.1296 18.8525 18.1378 18.8491 18.1123C18.8473 18.0987 18.846 18.0776 18.8485 18.0507C18.851 18.0236 18.8571 17.9951 18.8668 17.9672L19.8109 18.2968ZM19.7216 17.625L20.6108 17.1674L20.4178 16.7924L19.5286 17.25L18.6394 17.7076L18.8324 18.0826L19.7216 17.625ZM19.5286 17.25L20.4178 16.7924L20.2248 16.4174L19.3357 16.875L18.4465 17.3326L18.6394 17.7076L19.5286 17.25ZM19.3357 16.875L20.2248 16.4174C20.2185 16.405 20.2286 16.4204 20.2301 16.4568C20.2309 16.4734 20.2295 16.4888 20.227 16.5014C20.2247 16.5138 20.222 16.5197 20.2225 16.5185L19.3032 16.125L18.3839 15.7315C18.1551 16.266 18.1868 16.8279 18.4465 17.3326L19.3357 16.875ZM19.3032 16.125L20.2225 16.5185L20.3831 16.1435L19.4637 15.75L18.5444 15.3565L18.3839 15.7315L19.3032 16.125ZM19.4637 15.75L20.3831 16.1435L20.5436 15.7685L19.6243 15.375L18.7049 14.9815L18.5444 15.3565L19.4637 15.75ZM19.6243 15.375L20.5436 15.7685C20.6793 15.4516 20.7777 15.1262 20.8346 14.7935L19.8489 14.625L18.8632 14.4565C18.8346 14.6238 18.7833 14.7984 18.7049 14.9815L19.6243 15.375ZM19.8489 14.625L20.8346 14.7935L20.8987 14.4185L19.913 14.25L18.9273 14.0815L18.8632 14.4565L19.8489 14.625ZM19.913 14.25L20.8987 14.4185L20.9628 14.0435L19.9771 13.875L18.9914 13.7065L18.9273 14.0815L19.913 14.25ZM19.9771 13.875L20.9628 14.0435C21.0417 13.582 20.9719 13.1313 20.7852 12.7155L19.8729 13.125L18.9606 13.5345C18.9984 13.6187 18.998 13.668 18.9914 13.7065L19.9771 13.875ZM19.8729 13.125L20.7852 12.7155L20.6169 12.3405L19.7046 12.75L18.7923 13.1595L18.9606 13.5345L19.8729 13.125ZM19.7046 12.75L20.6169 12.3405L20.4485 11.9655L19.5362 12.375L18.6239 12.7845L18.7923 13.1595L19.7046 12.75ZM19.5362 12.375L20.4485 11.9655C20.3822 11.8177 20.3531 11.6885 20.3471 11.5733L19.3485 11.625L18.3498 11.6767C18.3697 12.0615 18.4658 12.4323 18.6239 12.7845L19.5362 12.375ZM19.3485 11.625L20.3471 11.5733L20.3277 11.1983L19.329 11.25L18.3304 11.3017L18.3498 11.6767L19.3485 11.625ZM19.329 11.25L20.3277 11.1983L20.3083 10.8233L19.3096 10.875L18.311 10.9267L18.3304 11.3017L19.329 11.25ZM19.3096 10.875L20.3083 10.8233C20.3007 10.6766 20.3151 10.527 20.3547 10.3713L19.3855 10.125L18.4163 9.87866C18.3288 10.223 18.2927 10.5734 18.311 10.9267L19.3096 10.875ZM19.3855 10.125L20.3547 10.3713L20.45 9.99634L19.4808 9.75L18.5117 9.50366L18.4163 9.87866L19.3855 10.125ZM19.4808 9.75L20.45 9.99634L20.5453 9.62134L19.5762 9.375L18.607 9.12866L18.5117 9.50366L19.4808 9.75ZM19.5762 9.375L20.5453 9.62134C20.6261 9.30348 20.6726 8.98173 20.6831 8.65727L19.6836 8.625L18.6841 8.59273C18.6784 8.76827 18.6533 8.94652 18.607 9.12866L19.5762 9.375ZM19.6836 8.625L20.6831 8.65727L20.6952 8.28227L19.6957 8.25L18.6962 8.21773L18.6841 8.59273L19.6836 8.625ZM19.6957 8.25L20.6952 8.28227L20.7073 7.90727L19.7078 7.875L18.7083 7.84273L18.6962 8.21773L19.6957 8.25ZM19.7078 7.875L20.7073 7.90727C20.7147 7.67804 20.7292 7.44871 20.7509 7.21925L19.7554 7.125L18.7598 7.03075C18.7342 7.30129 18.717 7.57196 18.7083 7.84273L19.7078 7.875ZM19.7554 7.125L20.7509 7.21925L20.7864 6.84425L19.7909 6.75L18.7953 6.65575L18.7598 7.03075L19.7554 7.125ZM19.7909 6.75L20.7864 6.84425L20.8219 6.46925L19.8264 6.375L18.8308 6.28075L18.7953 6.65575L19.7909 6.75ZM19.8264 6.375L20.8219 6.46925C20.8456 6.21933 20.8693 5.96942 20.893 5.71951L19.8975 5.625L18.902 5.53049C18.8782 5.78058 18.8545 6.03067 18.8308 6.28075L19.8264 6.375ZM19.8975 5.625L20.893 5.71951L20.9286 5.34451L19.9331 5.25L18.9376 5.15549L18.902 5.53049L19.8975 5.625ZM19.9331 5.25L20.9286 5.34451L20.9642 4.96951L19.9687 4.875L18.9732 4.78049L18.9376 5.15549L19.9331 5.25ZM19.9687 4.875L20.9642 4.96951C21.0125 4.46135 20.8669 3.99301 20.6121 3.59037L19.7671 4.125L18.922 4.65963C18.9548 4.71147 18.9663 4.74458 18.9704 4.75963C18.9739 4.77293 18.9734 4.77805 18.9732 4.78049L19.9687 4.875ZM19.7671 4.125L20.6121 3.59037L20.3749 3.21537L19.5298 3.75L18.6847 4.28463L18.922 4.65963L19.7671 4.125ZM19.5298 3.75L20.3749 3.21537L20.1377 2.84037L19.2926 3.375L18.4475 3.90963L18.6847 4.28463L19.5298 3.75ZM19.2926 3.375L20.1377 2.84037C20.0443 2.69276 19.9422 2.54687 19.8321 2.42117C19.7436 2.32018 19.5583 2.12284 19.2801 2.01426L18.9165 2.94581L18.5529 3.87735C18.4969 3.85549 18.4535 3.83157 18.4234 3.81278C18.393 3.79383 18.3709 3.7768 18.3569 3.76534C18.3306 3.74366 18.3208 3.73127 18.3278 3.73923C18.3336 3.74588 18.3474 3.76246 18.3691 3.79255C18.3904 3.82213 18.4165 3.86068 18.4475 3.90963L19.2926 3.375ZM18.9165 2.94581L19.2801 2.01426L19.1413 1.96007L18.7777 2.89161L18.414 3.82316L18.5529 3.87735L18.9165 2.94581ZM18.7777 2.89161L19.1413 1.96007L19.0025 1.90587L18.6388 2.83742L18.2752 3.76896L18.414 3.82316L18.7777 2.89161ZM18.6388 2.83742L19.0025 1.90587C19.0027 1.90595 18.9998 1.90484 18.9934 1.90211C18.9872 1.89943 18.9786 1.89568 18.9676 1.89067C18.9452 1.88053 18.916 1.86678 18.8791 1.8488C18.805 1.8127 18.7088 1.76384 18.5887 1.70097L18.125 2.58697L17.6613 3.47298C17.9052 3.60058 18.1236 3.70976 18.2752 3.76896L18.6388 2.83742ZM18.125 2.58697L18.5887 1.70097L18.2137 1.50472L17.75 2.39073L17.2863 3.27673L17.6613 3.47298L18.125 2.58697ZM17.75 2.39073L18.2137 1.50472L17.8387 1.30847L17.375 2.19448L16.9113 3.08048L17.2863 3.27673L17.75 2.39073ZM17.375 2.19448L17.8387 1.30847C17.3507 1.05311 16.8027 1.00328 16.269 1.20663L16.625 2.1411L16.981 3.07558C16.9817 3.07532 16.9763 3.07742 16.9656 3.07907C16.9547 3.08076 16.942 3.08141 16.929 3.08049C16.9161 3.07957 16.9069 3.07739 16.9026 3.0761C16.8985 3.07489 16.9013 3.07525 16.9113 3.08048L17.375 2.19448ZM16.625 2.1411L16.269 1.20663L15.894 1.3495L16.25 2.28398L16.606 3.21845L16.981 3.07558L16.625 2.1411ZM16.25 2.28398L15.894 1.3495L15.519 1.49238L15.875 2.42685L16.231 3.36133L16.606 3.21845L16.25 2.28398ZM15.875 2.42685L15.519 1.49238C15.364 1.55144 15.2215 1.57935 15.088 1.58429L15.125 2.5836L15.162 3.58292C15.5285 3.56936 15.886 3.49277 16.231 3.36133L15.875 2.42685ZM15.125 2.5836L15.088 1.58429L14.713 1.59816L14.75 2.59748L14.787 3.59679L15.162 3.58292L15.125 2.5836ZM14.75 2.59748L14.713 1.59816L14.338 1.61204L14.375 2.61136L14.412 3.61067L14.787 3.59679L14.75 2.59748ZM14.375 2.61136L14.338 1.61204C14.2645 1.61476 14.1729 1.6009 14.0523 1.54389L13.625 2.44801L13.1977 3.35214C13.5771 3.53142 13.9855 3.62645 14.412 3.61067L14.375 2.61136ZM13.625 2.44801L14.0523 1.54389L13.6773 1.36667L13.25 2.2708L12.8227 3.17492L13.1977 3.35214L13.625 2.44801ZM13.25 2.2708L13.6773 1.36667L13.3023 1.18946L12.875 2.09358L12.4477 2.9977L12.8227 3.17492L13.25 2.2708ZM12.875 2.09358L13.3023 1.18946C12.8282 0.965406 12.3081 0.924751 11.7991 1.10026L12.125 2.04565L12.4509 2.99104C12.4556 2.98943 12.4556 2.98988 12.4516 2.99044C12.4474 2.99103 12.4419 2.99132 12.4362 2.99095C12.4306 2.99059 12.4277 2.98978 12.4284 2.98998C12.4293 2.99023 12.4357 2.99201 12.4477 2.9977L12.875 2.09358ZM12.125 2.04565L11.7991 1.10026L11.4241 1.22954L11.75 2.17493L12.0759 3.12033L12.4509 2.99104L12.125 2.04565ZM11.75 2.17493L11.4241 1.22954L11.0491 1.35883L11.375 2.30422L11.7009 3.24961L12.0759 3.12033L11.75 2.17493ZM11.375 2.30422L11.0491 1.35883C11.0055 1.37385 10.9806 1.37356 10.9397 1.35999L10.625 2.3092L10.3103 3.2584C10.7694 3.41059 11.2445 3.40697 11.7009 3.24961L11.375 2.30422ZM10.625 2.3092L10.9397 1.35999L10.5647 1.23568L10.25 2.18488L9.93534 3.13409L10.3103 3.2584L10.625 2.3092ZM10.25 2.18488L10.5647 1.23568L10.1897 1.11137L9.875 2.06057L9.56034 3.00978L9.93534 3.13409L10.25 2.18488ZM9.875 2.06057L10.1897 1.11137C9.83338 0.993264 9.46555 0.936854 9.09117 0.949525L9.125 1.94895L9.15882 2.94838C9.28445 2.94413 9.41661 2.96213 9.56034 3.00978L9.875 2.06057ZM9.125 1.94895L9.09117 0.949525L8.71617 0.962216L8.75 1.96164L8.78382 2.96107L9.15882 2.94838L9.125 1.94895ZM8.75 1.96164L8.71617 0.962216L8.34117 0.974908L8.375 1.97434L8.40882 2.97376L8.78382 2.96107L8.75 1.96164ZM8.375 1.97434L8.34117 0.974908C7.92503 0.988992 7.53054 1.10401 7.16524 1.29313L7.625 2.18117L8.08476 3.06922C8.21946 2.99948 8.32497 2.9766 8.40882 2.97376L8.375 1.97434ZM7.625 2.18117L7.16524 1.29313L6.79024 1.48728L7.25 2.37532L7.70976 3.26336L8.08476 3.06922L7.625 2.18117ZM7.25 2.37532L6.79024 1.48728L6.41524 1.68142L6.875 2.56946L7.33476 3.45751L7.70976 3.26336L7.25 2.37532ZM6.875 2.56946L6.41524 1.68142C6.29706 1.74261 6.21446 1.75458 6.15504 1.75279L6.125 2.75234L6.09496 3.75189C6.53554 3.76513 6.95294 3.65518 7.33476 3.45751L6.875 2.56946ZM6.125 2.75234L6.15504 1.75279L5.78004 1.74152L5.75 2.74107L5.71996 3.74062L6.09496 3.75189L6.125 2.75234ZM5.75 2.74107L5.78004 1.74152L5.40504 1.73025L5.375 2.7298L5.34496 3.72935L5.71996 3.74062L5.75 2.74107ZM5.375 2.7298L5.40504 1.73025C5.21204 1.72445 5.01771 1.7022 4.82151 1.66288L4.625 2.64338L4.42849 3.62388C4.73229 3.68477 5.03796 3.72013 5.34496 3.72935L5.375 2.7298ZM4.625 2.64338L4.82151 1.66288L4.44651 1.58772L4.25 2.56822L4.05349 3.54872L4.42849 3.62388L4.625 2.64338ZM4.25 2.56822L4.44651 1.58772L4.07151 1.51256L3.875 2.49307L3.67849 3.47357L4.05349 3.54872L4.25 2.56822ZM3.875 2.49307L4.07151 1.51256C3.83309 1.46478 3.59454 1.41258 3.35585 1.35595L3.125 2.32894L2.89415 3.30192C3.15546 3.36392 3.41691 3.42114 3.67849 3.47357L3.875 2.49307ZM3.125 2.32894L3.35585 1.35595L2.98085 1.26697L2.75 2.23996L2.51915 3.21295L2.89415 3.30192L3.125 2.32894ZM2.75 2.23996L2.98085 1.26697L2.60585 1.178L2.375 2.15099L2.14415 3.12398L2.51915 3.21295L2.75 2.23996ZM2.375 2.15099L2.60585 1.178C2.46404 1.14435 2.25303 1.10142 2.0391 1.11313C1.94007 1.11855 1.71387 1.14032 1.48516 1.2864C1.18746 1.47654 1 1.8054 1 2.17151H2H3C3 2.30923 2.96919 2.47178 2.88078 2.63151C2.79274 2.79057 2.67308 2.9008 2.56172 2.97193C2.36426 3.09805 2.18493 3.10814 2.1484 3.11014C2.05947 3.115 2.03596 3.09831 2.14415 3.12398L2.375 2.15099ZM2 2.17151H1V2.28101H2H3V2.17151H2ZM2 2.28101H1V2.3905H2H3V2.28101H2ZM2 2.3905H1C1 2.55219 1.03244 2.79214 1.06662 3.02205L2.05575 2.875L3.04488 2.72795C3.02714 2.60859 3.01493 2.51764 3.00738 2.45206C3.00362 2.41936 3.00147 2.39689 3.00036 2.38284C2.99903 2.36606 3 2.37148 3 2.3905H2ZM2.05575 2.875L1.06662 3.02205L1.12237 3.39705L2.1115 3.25L3.10063 3.10295L3.04488 2.72795L2.05575 2.875Z" fill="black"/>
</svg>
