<svg width="24" height="24" viewBox="0 0 24 24" fill="none" xmlns="http://www.w3.org/2000/svg">
<path d="M3.70711 2.79289C3.31658 2.40237 2.68342 2.40237 2.29289 2.79289C1.90237 3.18342 1.90237 3.81658 2.29289 4.20711L3 3.5L3.70711 2.79289ZM3.07071 3.57071L2.3636 4.27782L2.4138 4.32801L2.47059 4.37062L3.07071 3.57071ZM4.00295 4.26482L3.4163 5.07466L4.00295 4.26482ZM4.20798 4.41334L3.62132 5.22318L4.20798 4.41334ZM4.41301 4.56187L4.99966 3.75203L4.41301 4.56187ZM5.22352 5.87267L5.62471 4.95668L5.22352 5.87267ZM5.46939 5.98036L5.0682 6.89635L5.46939 5.98036ZM5.71526 6.08804L6.11644 5.17205L5.71526 6.08804ZM6.1137 6.3967L5.31723 7.00138L6.1137 6.3967ZM6.41886 6.79866L5.62239 7.40333L6.41886 6.79866ZM6.76547 7.15915L6.1304 7.93161L6.76547 7.15915ZM6.9595 7.31867L7.59457 6.54622L6.9595 7.31867ZM7.15353 7.47819L7.7886 6.70574L7.15353 7.47819ZM7.43656 7.90228L6.48874 8.22109L7.43656 7.90228ZM7.61454 8.4314L8.56235 8.11259L7.61454 8.4314ZM7.95698 8.79607L8.32433 7.86599L7.95698 8.79607ZM8.21043 8.89618L7.84307 9.82626L8.21043 8.89618ZM8.46387 8.99628L8.83123 8.0662L8.46387 8.99628ZM8.94046 9.22681L9.44507 8.36346L8.94046 9.22681ZM9.16359 9.35723L8.65897 10.2206L9.16359 9.35723ZM9.38672 9.48765L8.88211 10.351L9.38672 9.48765ZM9.66526 9.91622L8.68209 10.0989L9.66526 9.91622ZM10.1039 10.8918L9.8186 11.8502L10.1039 10.8918ZM10.6488 11.054L10.3635 12.0124L10.6488 11.054ZM11.0039 11.406L11.9604 11.114L11.0039 11.406ZM11.1693 11.9477L12.1257 11.6558L11.1693 11.9477ZM11.4679 12.3562L12.0055 11.513L11.4679 12.3562ZM11.8997 12.6315L11.3621 13.4747L11.8997 12.6315ZM12.2983 12.9401L11.615 13.6702L12.2983 12.9401ZM12.6636 13.2819L13.3468 12.5517L12.6636 13.2819ZM13.0683 13.5843L13.5778 12.7238L13.0683 13.5843ZM13.2903 13.7158L12.7808 14.5762L13.2903 13.7158ZM13.5124 13.8473L14.0219 12.9868L13.5124 13.8473ZM13.8334 14.2334L12.9012 14.5955L13.8334 14.2334ZM14.0312 14.7427L14.9633 14.3806L14.0312 14.7427ZM14.3421 15.1389L13.787 15.9706L14.3421 15.1389ZM14.7662 15.4219L15.3213 14.5901L14.7662 15.4219ZM15.1143 15.7809L15.9621 15.2507L15.1143 15.7809ZM15.3863 16.2159L14.5385 16.7462L15.3863 16.2159ZM15.717 16.5924L16.3494 15.8177L15.717 16.5924ZM15.9117 16.7513L15.2793 17.5259L15.9117 16.7513ZM16.1063 16.9102L16.7387 16.1355L16.1063 16.9102ZM16.5214 17.2022L16.0043 18.0581L16.5214 17.2022ZM16.9622 17.4685L16.4451 18.3244L16.9622 17.4685ZM17.3006 17.8373L16.4064 18.285L17.3006 17.8373ZM17.5365 18.3084L18.4307 17.8607L17.5365 18.3084ZM17.909 18.6431L18.2716 17.7111L17.909 18.6431ZM18.418 18.8411L18.0554 19.7731L18.418 18.8411ZM18.7828 19.1835L17.8719 19.5961L18.7828 19.1835ZM19.0032 19.6702L19.9141 19.2576L19.0032 19.6702ZM19.2843 20.0962L20.0147 19.4132L19.2843 20.0962ZM19.6259 20.4616L18.8955 21.1446L19.6259 20.4616ZM19.9726 20.5707L19.586 19.6484L19.9726 20.5707ZM20.3242 20.4233L20.7108 21.3455L20.3242 20.4233ZM20.5 20.4248L20.6046 21.4193L21.5 21.3252V20.4248H20.5ZM20.4262 20.4325L20.3216 19.438L18.11 19.6705L19.7516 21.1707L20.4262 20.4325ZM19.8254 21.2382C20.2331 21.6108 20.8656 21.5823 21.2382 21.1746C21.6108 20.7669 21.5823 20.1344 21.1746 19.7618L20.5 20.5L19.8254 21.2382ZM2.30321 19.7827C1.90707 20.1675 1.8979 20.8006 2.28272 21.1968C2.66754 21.5929 3.30064 21.6021 3.69679 21.2173L3 20.5L2.30321 19.7827ZM3.07173 20.4303L2.56737 19.5668L2.46226 19.6282L2.37494 19.713L3.07173 20.4303ZM3.47199 20.1965L2.96763 19.333L3.47199 20.1965ZM3.95903 19.6933L4.91088 19.9998L3.95903 19.6933ZM4.13259 19.1544L3.18074 18.8478L4.13259 19.1544ZM4.51785 18.8334L4.34772 17.848L4.51785 18.8334ZM4.81633 18.7818L4.98647 19.7673L4.81633 18.7818ZM5.11481 18.7303L5.28495 19.7157L5.11481 18.7303ZM5.56327 18.4744L6.36949 19.066L5.56327 18.4744ZM5.86325 18.0656L5.05703 17.474L5.86325 18.0656ZM6.19308 17.6876L5.49844 16.9682L6.19308 17.6876ZM6.55276 17.3402L7.2474 18.0596L6.55276 17.3402ZM6.86302 16.942L7.72773 17.4443L6.86302 16.942ZM6.99344 16.7175L6.12873 16.2152L6.99344 16.7175ZM7.12386 16.493L7.98857 16.9952L7.12386 16.493ZM7.49942 16.162L7.8977 17.0793L7.49942 16.162ZM7.9897 15.9491L7.59142 15.0319L7.9897 15.9491ZM8.30056 15.5515L7.3251 15.3313L8.30056 15.5515ZM8.36628 15.2604L9.34173 15.4806L8.36628 15.2604ZM8.74159 14.5704L9.14569 15.4851L8.74159 14.5704ZM8.98547 14.4626L8.58137 13.5479L8.98547 14.4626ZM9.22935 14.3549L9.63345 15.2696L9.22935 14.3549ZM9.59288 14.0115L10.4845 14.4643L9.59288 14.0115ZM9.71253 13.7759L8.82091 13.3231L9.71253 13.7759ZM9.83218 13.5403L10.7238 13.9931L9.83218 13.5403ZM10.2075 13.2091L9.85723 12.2724L10.2075 13.2091ZM10.4632 13.1135L10.8134 14.0501L10.4632 13.1135ZM10.7188 13.0179L10.3686 12.0812L10.7188 13.0179ZM11.0751 12.667L10.1448 12.3003L11.0751 12.667ZM11.1757 12.4118L12.106 12.7785L11.1757 12.4118ZM11.2763 12.1566L12.2066 12.5233L11.2763 12.1566ZM11.67 11.8443L11.8612 12.8258L11.67 11.8443ZM12.2562 11.7301L12.065 10.7485L12.2562 11.7301ZM12.694 11.4633L13.517 12.0313L12.694 11.4633ZM12.9836 11.0438L12.1606 10.4757L12.9836 11.0438ZM13.6153 10.2589L12.8521 9.61274L13.6153 10.2589ZM13.9767 9.91329L13.365 9.12215L13.9767 9.91329ZM14.3748 9.60551L14.9864 10.3966L14.3748 9.60551ZM14.6837 9.20594L13.7708 8.79769L14.6837 9.20594ZM14.9034 8.71457L15.8163 9.12282L14.9034 8.71457ZM15.4845 8.23632L15.0418 7.33961L15.4845 8.23632ZM15.72 8.12003L16.1627 9.01674L15.72 8.12003ZM16.19 7.8862L16.6383 8.78006L16.19 7.8862ZM16.4243 7.76866L15.976 6.87479L16.4243 7.76866ZM16.9583 7.24196L17.9341 7.46036L16.9583 7.24196ZM17.4011 6.26267L17.7906 7.18372L17.4011 6.26267ZM17.8953 6.05374L18.2847 6.9748L17.8953 6.05374ZM18.3505 5.80477L17.7802 4.98333L18.3505 5.80477ZM18.5586 5.66025L19.1289 6.48169L18.5586 5.66025ZM18.7668 5.51574L19.3371 6.33717L18.7668 5.51574ZM19.2812 4.96891L18.4855 4.36319L19.2812 4.96891ZM19.7684 4.39405L19.0782 3.67044L19.7684 4.39405ZM20.1302 4.04893L19.44 3.32532L20.1302 4.04893ZM20.3583 3.78227L21.2521 4.23086L20.3583 3.78227ZM20.4055 3.68818L21.2993 4.13677L21.3615 4.01278L21.3876 3.87652L20.4055 3.68818ZM20.4283 3.56968L19.7315 2.8524L19.5055 3.07192L19.4462 3.38134L20.4283 3.56968ZM21.1968 4.21728C21.5929 3.83246 21.6021 3.19936 21.2173 2.80321C20.8325 2.40707 20.1994 2.3979 19.8032 2.78272L20.5 3.5L21.1968 4.21728ZM3 3.5L2.29289 4.20711L2.3636 4.27782L3.07071 3.57071L3.77782 2.8636L3.70711 2.79289L3 3.5ZM3.07071 3.57071L2.47059 4.37062L2.83419 4.64341L3.43431 3.8435L4.03444 3.0436L3.67084 2.7708L3.07071 3.57071ZM3.43431 3.8435L2.83419 4.64341C3.07815 4.82644 3.27289 4.97077 3.4163 5.07466L4.00295 4.26482L4.5896 3.45498C4.45964 3.36084 4.27528 3.22429 4.03444 3.0436L3.43431 3.8435ZM4.00295 4.26482L3.4163 5.07466L3.62132 5.22318L4.20798 4.41334L4.79463 3.6035L4.5896 3.45498L4.00295 4.26482ZM4.20798 4.41334L3.62132 5.22318L3.82635 5.37171L4.41301 4.56187L4.99966 3.75203L4.79463 3.6035L4.20798 4.41334ZM4.41301 4.56187L3.82635 5.37171C3.80729 5.35789 3.78954 5.34001 3.77601 5.3211C3.763 5.30292 3.75991 5.29225 3.76146 5.29679L4.70794 4.97404L5.65442 4.65129C5.53478 4.30043 5.32052 3.98446 4.99966 3.75203L4.41301 4.56187ZM4.70794 4.97404L3.76146 5.29679L3.85136 5.56044L4.79784 5.23769L5.74433 4.91494L5.65442 4.65129L4.70794 4.97404ZM4.79784 5.23769L3.85136 5.56044L3.94126 5.82409L4.88775 5.50134L5.83423 5.17859L5.74433 4.91494L4.79784 5.23769ZM4.88775 5.50134L3.94126 5.82409C4.08785 6.25397 4.39071 6.59963 4.82233 6.78867L5.22352 5.87267L5.62471 4.95668C5.66282 4.97337 5.71272 5.00481 5.75837 5.0553C5.80339 5.10508 5.82528 5.15233 5.83423 5.17859L4.88775 5.50134ZM5.22352 5.87267L4.82233 6.78867L5.0682 6.89635L5.46939 5.98036L5.87058 5.06436L5.62471 4.95668L5.22352 5.87267ZM5.46939 5.98036L5.0682 6.89635L5.31407 7.00404L5.71526 6.08804L6.11644 5.17205L5.87058 5.06436L5.46939 5.98036ZM5.71526 6.08804L5.31407 7.00404C5.32561 7.00909 5.32805 7.01165 5.3254 7.0096C5.32428 7.00873 5.32271 7.00738 5.32098 7.00564C5.31926 7.0039 5.31798 7.00237 5.31723 7.00138L6.1137 6.3967L6.91018 5.79203C6.6988 5.51361 6.42621 5.30772 6.11644 5.17205L5.71526 6.08804ZM6.1137 6.3967L5.31723 7.00138L5.46981 7.20235L6.26628 6.59768L7.06275 5.99301L6.91018 5.79203L6.1137 6.3967ZM6.26628 6.59768L5.46981 7.20235L5.62239 7.40333L6.41886 6.79866L7.21533 6.19398L7.06275 5.99301L6.26628 6.59768ZM6.41886 6.79866L5.62239 7.40333C5.77097 7.59905 5.94062 7.77558 6.1304 7.93161L6.76547 7.15915L7.40054 6.38669C7.33161 6.33003 7.27018 6.26623 7.21533 6.19398L6.41886 6.79866ZM6.76547 7.15915L6.1304 7.93161L6.32443 8.09113L6.9595 7.31867L7.59457 6.54622L7.40054 6.38669L6.76547 7.15915ZM6.9595 7.31867L6.32443 8.09113L6.51847 8.25065L7.15353 7.47819L7.7886 6.70574L7.59457 6.54622L6.9595 7.31867ZM7.15353 7.47819L6.51847 8.25065C6.50612 8.2405 6.49607 8.22889 6.48953 8.21908C6.48338 8.20988 6.48454 8.20859 6.48874 8.22109L7.43656 7.90228L8.38437 7.58346C8.27219 7.24994 8.07838 6.94398 7.7886 6.70574L7.15353 7.47819ZM7.43656 7.90228L6.48874 8.22109L6.57773 8.48566L7.52555 8.16684L8.47336 7.84803L8.38437 7.58346L7.43656 7.90228ZM7.52555 8.16684L6.57773 8.48566L6.66672 8.75022L7.61454 8.4314L8.56235 8.11259L8.47336 7.84803L7.52555 8.16684ZM7.61454 8.4314L6.66672 8.75022C6.81737 9.1981 7.13896 9.54815 7.58962 9.72615L7.95698 8.79607L8.32433 7.86599C8.36457 7.88189 8.42095 7.91423 8.47362 7.97031C8.52578 8.02587 8.55154 8.08044 8.56235 8.11259L7.61454 8.4314ZM7.95698 8.79607L7.58962 9.72615L7.84307 9.82626L8.21043 8.89618L8.57778 7.9661L8.32433 7.86599L7.95698 8.79607ZM8.21043 8.89618L7.84307 9.82626L8.09652 9.92636L8.46387 8.99628L8.83123 8.0662L8.57778 7.9661L8.21043 8.89618ZM8.46387 8.99628L8.09652 9.92636C8.22065 9.97539 8.33338 10.0303 8.43584 10.0901L8.94046 9.22681L9.44507 8.36346C9.25002 8.24946 9.04503 8.15065 8.83123 8.0662L8.46387 8.99628ZM8.94046 9.22681L8.43584 10.0901L8.65897 10.2206L9.16359 9.35723L9.66821 8.49388L9.44507 8.36346L8.94046 9.22681ZM9.16359 9.35723L8.65897 10.2206L8.88211 10.351L9.38672 9.48765L9.89134 8.6243L9.66821 8.49388L9.16359 9.35723ZM9.38672 9.48765L8.88211 10.351C8.82348 10.3167 8.76897 10.2657 8.72945 10.2049C8.69229 10.1478 8.68321 10.105 8.68209 10.0989L9.66526 9.91622L10.6484 9.73353C10.5686 9.30379 10.3352 8.88375 9.89134 8.6243L9.38672 9.48765ZM9.66526 9.91622L8.68209 10.0989L8.73749 10.3971L9.72066 10.2144L10.7038 10.0317L10.6484 9.73353L9.66526 9.91622ZM9.72066 10.2144L8.73749 10.3971L8.79289 10.6952L9.77606 10.5125L10.7592 10.3298L10.7038 10.0317L9.72066 10.2144ZM9.77606 10.5125L8.79289 10.6952C8.83697 10.9324 8.93642 11.1874 9.12921 11.4104C9.3248 11.6366 9.57009 11.7762 9.8186 11.8502L10.1039 10.8918L10.3892 9.93334C10.4561 9.95325 10.5559 10.0026 10.6422 10.1024C10.7257 10.199 10.7521 10.2914 10.7592 10.3298L9.77606 10.5125ZM10.1039 10.8918L9.8186 11.8502L10.091 11.9313L10.3764 10.9729L10.6617 10.0144L10.3892 9.93334L10.1039 10.8918ZM10.3764 10.9729L10.091 11.9313L10.3635 12.0124L10.6488 11.054L10.9341 10.0956L10.6617 10.0144L10.3764 10.9729ZM10.6488 11.054L10.3635 12.0124C10.3183 11.999 10.2429 11.9651 10.1699 11.8928C10.0968 11.8203 10.0617 11.7445 10.0475 11.6979L11.0039 11.406L11.9604 11.114C11.807 10.6114 11.4356 10.2448 10.9341 10.0956L10.6488 11.054ZM11.0039 11.406L10.0475 11.6979L10.1302 11.9688L11.0866 11.6768L12.0431 11.3849L11.9604 11.114L11.0039 11.406ZM11.0866 11.6768L10.1302 11.9688L10.2129 12.2397L11.1693 11.9477L12.1257 11.6558L12.0431 11.3849L11.0866 11.6768ZM11.1693 11.9477L10.2129 12.2397C10.3296 12.6221 10.5639 12.9658 10.9303 13.1994L11.4679 12.3562L12.0055 11.513C12.0371 11.5332 12.0681 11.5616 12.0926 11.5952C12.1163 11.6275 12.1245 11.6517 12.1257 11.6558L11.1693 11.9477ZM11.4679 12.3562L10.9303 13.1994L11.1462 13.3371L11.6838 12.4939L12.2214 11.6507L12.0055 11.513L11.4679 12.3562ZM11.6838 12.4939L11.1462 13.3371L11.3621 13.4747L11.8997 12.6315L12.4373 11.7883L12.2214 11.6507L11.6838 12.4939ZM11.8997 12.6315L11.3621 13.4747C11.4554 13.5342 11.5393 13.5994 11.615 13.6702L12.2983 12.9401L12.9815 12.2099C12.8137 12.0529 12.6319 11.9124 12.4373 11.7883L11.8997 12.6315ZM12.2983 12.9401L11.615 13.6702L11.7977 13.8412L12.4809 13.111L13.1642 12.3808L12.9815 12.2099L12.2983 12.9401ZM12.4809 13.111L11.7977 13.8412L11.9803 14.0121L12.6636 13.2819L13.3468 12.5517L13.1642 12.3808L12.4809 13.111ZM12.6636 13.2819L11.9803 14.0121C12.1567 14.1772 12.3502 14.3213 12.5587 14.4447L13.0683 13.5843L13.5778 12.7238C13.4902 12.672 13.4139 12.6145 13.3468 12.5517L12.6636 13.2819ZM13.0683 13.5843L12.5587 14.4447L12.7808 14.5762L13.2903 13.7158L13.7998 12.8553L13.5778 12.7238L13.0683 13.5843ZM13.2903 13.7158L12.7808 14.5762L13.0029 14.7077L13.5124 13.8473L14.0219 12.9868L13.7998 12.8553L13.2903 13.7158ZM13.5124 13.8473L13.0029 14.7077C12.9812 14.6949 12.9564 14.6749 12.9346 14.6488C12.9133 14.6232 12.9039 14.6023 12.9012 14.5955L13.8334 14.2334L14.7655 13.8713C14.6236 13.5059 14.3744 13.1955 14.0219 12.9868L13.5124 13.8473ZM13.8334 14.2334L12.9012 14.5955L13.0001 14.8501L13.9323 14.488L14.8644 14.126L14.7655 13.8713L13.8334 14.2334ZM13.9323 14.488L13.0001 14.8501L13.099 15.1048L14.0312 14.7427L14.9633 14.3806L14.8644 14.126L13.9323 14.488ZM14.0312 14.7427L13.099 15.1048C13.2338 15.4516 13.4622 15.7539 13.787 15.9706L14.3421 15.1389L14.8972 14.3071C14.9135 14.3179 14.9306 14.3334 14.945 14.3516C14.9589 14.3694 14.9636 14.3814 14.9633 14.3806L14.0312 14.7427ZM14.3421 15.1389L13.787 15.9706L13.9991 16.1121L14.5542 15.2804L15.1093 14.4486L14.8972 14.3071L14.3421 15.1389ZM14.5542 15.2804L13.9991 16.1121L14.2111 16.2537L14.7662 15.4219L15.3213 14.5901L15.1093 14.4486L14.5542 15.2804ZM14.7662 15.4219L14.2111 16.2537C14.2338 16.2688 14.2504 16.2854 14.2664 16.3111L15.1143 15.7809L15.9621 15.2507C15.7968 14.9863 15.5813 14.7636 15.3213 14.5901L14.7662 15.4219ZM15.1143 15.7809L14.2664 16.3111L14.4025 16.5287L15.2503 15.9984L16.0982 15.4682L15.9621 15.2507L15.1143 15.7809ZM15.2503 15.9984L14.4025 16.5287L14.5385 16.7462L15.3863 16.2159L16.2342 15.6857L16.0982 15.4682L15.2503 15.9984ZM15.3863 16.2159L14.5385 16.7462C14.6859 16.9819 14.8684 17.1905 15.0847 17.367L15.717 16.5924L16.3494 15.8177C16.3061 15.7824 16.2681 15.74 16.2342 15.6857L15.3863 16.2159ZM15.717 16.5924L15.0847 17.367L15.2793 17.5259L15.9117 16.7513L16.5441 15.9766L16.3494 15.8177L15.717 16.5924ZM15.9117 16.7513L15.2793 17.5259L15.474 17.6848L16.1063 16.9102L16.7387 16.1355L16.5441 15.9766L15.9117 16.7513ZM16.1063 16.9102L15.474 17.6848C15.6411 17.8213 15.8181 17.9456 16.0043 18.0581L16.5214 17.2022L17.0385 16.3463C16.9309 16.2812 16.8311 16.2109 16.7387 16.1355L16.1063 16.9102ZM16.5214 17.2022L16.0043 18.0581L16.2247 18.1913L16.7418 17.3354L17.2589 16.4794L17.0385 16.3463L16.5214 17.2022ZM16.7418 17.3354L16.2247 18.1913L16.4451 18.3244L16.9622 17.4685L17.4793 16.6126L17.2589 16.4794L16.7418 17.3354ZM16.9622 17.4685L16.4451 18.3244C16.4396 18.3211 16.43 18.314 16.4202 18.3034C16.4157 18.2985 16.4122 18.2939 16.4097 18.2903C16.4072 18.2867 16.4062 18.2847 16.4064 18.285L17.3006 17.8373L18.1948 17.3895C18.0336 17.0677 17.7919 16.8014 17.4793 16.6126L16.9622 17.4685ZM17.3006 17.8373L16.4064 18.285L16.5244 18.5206L17.4185 18.0728L18.3127 17.6251L18.1948 17.3895L17.3006 17.8373ZM17.4185 18.0728L16.5244 18.5206L16.6423 18.7561L17.5365 18.3084L18.4307 17.8607L18.3127 17.6251L17.4185 18.0728ZM17.5365 18.3084L16.6423 18.7561C16.8364 19.1437 17.1549 19.4227 17.5464 19.575L17.909 18.6431L18.2716 17.7111C18.2889 17.7179 18.3214 17.7341 18.3569 17.766C18.3928 17.7983 18.4169 17.8332 18.4307 17.8607L17.5365 18.3084ZM17.909 18.6431L17.5464 19.575L17.8009 19.674L18.1635 18.7421L18.5261 17.8101L18.2716 17.7111L17.909 18.6431ZM18.1635 18.7421L17.8009 19.674L18.0554 19.7731L18.418 18.8411L18.7806 17.9092L18.5261 17.8101L18.1635 18.7421ZM18.418 18.8411L18.0554 19.7731C18.032 19.764 17.9928 19.7436 17.9521 19.7053C17.911 19.6668 17.8854 19.6261 17.8719 19.5961L18.7828 19.1835L19.6937 18.7709C19.5097 18.3646 19.1879 18.0676 18.7806 17.9092L18.418 18.8411ZM18.7828 19.1835L17.8719 19.5961L17.9821 19.8394L18.893 19.4268L19.8039 19.0142L19.6937 18.7709L18.7828 19.1835ZM18.893 19.4268L17.9821 19.8394L18.0923 20.0827L19.0032 19.6702L19.9141 19.2576L19.8039 19.0142L18.893 19.4268ZM19.0032 19.6702L18.0923 20.0827C18.2077 20.3376 18.3605 20.5724 18.5538 20.7792L19.2843 20.0962L20.0147 19.4132C19.9802 19.3764 19.9457 19.3272 19.9141 19.2576L19.0032 19.6702ZM19.2843 20.0962L18.5538 20.7792L18.7246 20.9619L19.4551 20.2789L20.1855 19.596L20.0147 19.4132L19.2843 20.0962ZM19.4551 20.2789L18.7246 20.9619L18.8955 21.1446L19.6259 20.4616L20.3564 19.7787L20.1855 19.596L19.4551 20.2789ZM19.6259 20.4616L18.8955 21.1446C19.0278 21.2862 19.2254 21.4485 19.498 21.5342C19.793 21.627 20.0943 21.6039 20.3592 21.4929L19.9726 20.5707L19.586 19.6484C19.7337 19.5865 19.9186 19.5699 20.098 19.6263C20.2551 19.6757 20.3379 19.7589 20.3564 19.7787L19.6259 20.4616ZM19.9726 20.5707L20.3592 21.4929L20.535 21.4192L20.1484 20.497L19.7618 19.5747L19.586 19.6484L19.9726 20.5707ZM20.1484 20.497L20.535 21.4192L20.7108 21.3455L20.3242 20.4233L19.9376 19.501L19.7618 19.5747L20.1484 20.497ZM20.3242 20.4233L20.7108 21.3455C20.7607 21.3246 20.7291 21.3422 20.6571 21.357C20.6439 21.3597 20.4807 21.3979 20.2718 21.3514C20.1528 21.325 19.9447 21.2543 19.764 21.0595C19.5666 20.8466 19.5 20.5921 19.5 20.3872H20.5H21.5C21.5 20.176 21.4316 19.9164 21.2305 19.6995C21.0461 19.5007 20.8326 19.4273 20.7063 19.3992C20.4827 19.3494 20.2975 19.3891 20.255 19.3978C20.1243 19.4246 20.0049 19.4728 19.9376 19.501L20.3242 20.4233ZM20.5 20.3872H19.5V20.4248H20.5H21.5V20.3872H20.5ZM20.5 20.4248L20.3954 19.4303L20.3216 19.438L20.4262 20.4325L20.5307 21.4271L20.6046 21.4193L20.5 20.4248ZM20.4262 20.4325L19.7516 21.1707L19.8254 21.2382L20.5 20.5L21.1746 19.7618L21.1008 19.6943L20.4262 20.4325ZM3 20.5L3.69679 21.2173L3.76851 21.1476L3.07173 20.4303L2.37494 19.713L2.30321 19.7827L3 20.5ZM3.07173 20.4303L3.57609 21.2938L3.97635 21.06L3.47199 20.1965L2.96763 19.333L2.56737 19.5668L3.07173 20.4303ZM3.47199 20.1965L3.97635 21.06C4.32871 20.8542 4.74211 20.5239 4.91088 19.9998L3.95903 19.6933L3.00718 19.3867C3.035 19.3003 3.07467 19.259 3.0753 19.2584C3.07575 19.2579 3.06873 19.2652 3.05048 19.2789C3.03231 19.2926 3.00542 19.311 2.96763 19.333L3.47199 20.1965ZM3.95903 19.6933L4.91088 19.9998L4.99766 19.7304L4.04581 19.4238L3.09396 19.1173L3.00718 19.3867L3.95903 19.6933ZM4.04581 19.4238L4.99766 19.7304L5.08445 19.4609L4.13259 19.1544L3.18074 18.8478L3.09396 19.1173L4.04581 19.4238ZM4.13259 19.1544L5.08445 19.4609C5.063 19.5275 5.01194 19.6248 4.91241 19.7077C4.81623 19.7878 4.72555 19.8123 4.68799 19.8188L4.51785 18.8334L4.34772 17.848C4.11117 17.8888 3.85679 17.984 3.63219 18.1711C3.40424 18.361 3.26004 18.6016 3.18074 18.8478L4.13259 19.1544ZM4.51785 18.8334L4.68799 19.8188L4.98647 19.7673L4.81633 18.7818L4.64619 17.7964L4.34772 17.848L4.51785 18.8334ZM4.81633 18.7818L4.98647 19.7673L5.28495 19.7157L5.11481 18.7303L4.94467 17.7449L4.64619 17.7964L4.81633 18.7818ZM5.11481 18.7303L5.28495 19.7157C5.686 19.6465 6.08734 19.4505 6.36949 19.066L5.56327 18.4744L4.75706 17.8828C4.79158 17.8357 4.83577 17.7976 4.88052 17.772C4.92246 17.7481 4.94911 17.7441 4.94467 17.7449L5.11481 18.7303ZM5.56327 18.4744L6.36949 19.066L6.51948 18.8616L5.71326 18.27L4.90704 17.6784L4.75706 17.8828L5.56327 18.4744ZM5.71326 18.27L6.51948 18.8616L6.66947 18.6572L5.86325 18.0656L5.05703 17.474L4.90704 17.6784L5.71326 18.27ZM5.86325 18.0656L6.66947 18.6572C6.73642 18.566 6.80913 18.4828 6.88771 18.4069L6.19308 17.6876L5.49844 16.9682C5.33723 17.1239 5.19006 17.2927 5.05703 17.474L5.86325 18.0656ZM6.19308 17.6876L6.88771 18.4069L7.06755 18.2333L6.37292 17.5139L5.67828 16.7945L5.49844 16.9682L6.19308 17.6876ZM6.37292 17.5139L7.06755 18.2333L7.2474 18.0596L6.55276 17.3402L5.85812 16.6209L5.67828 16.7945L6.37292 17.5139ZM6.55276 17.3402L7.2474 18.0596C7.43627 17.8772 7.59619 17.6708 7.72773 17.4443L6.86302 16.942L5.99831 16.4398C5.95595 16.5127 5.90904 16.5717 5.85812 16.6209L6.55276 17.3402ZM6.86302 16.942L7.72773 17.4443L7.85815 17.2198L6.99344 16.7175L6.12873 16.2152L5.99831 16.4398L6.86302 16.942ZM6.99344 16.7175L7.85815 17.2198L7.98857 16.9952L7.12386 16.493L6.25915 15.9907L6.12873 16.2152L6.99344 16.7175ZM7.12386 16.493L7.98857 16.9952C7.98003 17.0099 7.96529 17.0296 7.94413 17.0482C7.92321 17.0666 7.9053 17.076 7.8977 17.0793L7.49942 16.162L7.10114 15.2447C6.74807 15.398 6.45661 15.6507 6.25915 15.9907L7.12386 16.493ZM7.49942 16.162L7.8977 17.0793L8.14284 16.9728L7.74456 16.0556L7.34628 15.1383L7.10114 15.2447L7.49942 16.162ZM7.74456 16.0556L8.14284 16.9728L8.38798 16.8664L7.9897 15.9491L7.59142 15.0319L7.34628 15.1383L7.74456 16.0556ZM7.9897 15.9491L8.38798 16.8664C8.88127 16.6522 9.17144 16.235 9.27601 15.7717L8.30056 15.5515L7.3251 15.3313C7.32985 15.3103 7.34782 15.2501 7.4022 15.1805C7.45917 15.1077 7.52954 15.0587 7.59142 15.0319L7.9897 15.9491ZM8.30056 15.5515L9.27601 15.7717L9.34173 15.4806L8.36628 15.2604L7.39082 15.0402L7.3251 15.3313L8.30056 15.5515ZM8.36628 15.2604L9.34173 15.4806L9.40745 15.1894L8.432 14.9693L7.45654 14.7491L7.39082 15.0402L8.36628 15.2604ZM8.432 14.9693L9.40745 15.1894C9.4029 15.2096 9.38542 15.2686 9.33222 15.3371C9.27646 15.409 9.20725 15.4579 9.14569 15.4851L8.74159 14.5704L8.33749 13.6557C7.84759 13.8721 7.5605 14.2885 7.45654 14.7491L8.432 14.9693ZM8.74159 14.5704L9.14569 15.4851L9.38957 15.3774L8.98547 14.4626L8.58137 13.5479L8.33749 13.6557L8.74159 14.5704ZM8.98547 14.4626L9.38957 15.3774L9.63345 15.2696L9.22935 14.3549L8.82525 13.4402L8.58137 13.5479L8.98547 14.4626ZM9.22935 14.3549L9.63345 15.2696C10.0049 15.1055 10.2993 14.829 10.4845 14.4643L9.59288 14.0115L8.70126 13.5588C8.71044 13.5407 8.72787 13.5143 8.75552 13.4882C8.78309 13.4622 8.8093 13.4472 8.82525 13.4402L9.22935 14.3549ZM9.59288 14.0115L10.4845 14.4643L10.6042 14.2287L9.71253 13.7759L8.82091 13.3231L8.70126 13.5588L9.59288 14.0115ZM9.71253 13.7759L10.6042 14.2287L10.7238 13.9931L9.83218 13.5403L8.94056 13.0875L8.82091 13.3231L9.71253 13.7759ZM9.83218 13.5403L10.7238 13.9931C10.7097 14.0208 10.6849 14.0565 10.6475 14.0895C10.6106 14.1221 10.5765 14.1387 10.5578 14.1457L10.2075 13.2091L9.85723 12.2724C9.46061 12.4207 9.13784 12.699 8.94056 13.0875L9.83218 13.5403ZM10.2075 13.2091L10.5578 14.1457L10.8134 14.0501L10.4632 13.1135L10.1129 12.1768L9.85723 12.2724L10.2075 13.2091ZM10.4632 13.1135L10.8134 14.0501L11.0691 13.9545L10.7188 13.0179L10.3686 12.0812L10.1129 12.1768L10.4632 13.1135ZM10.7188 13.0179L11.0691 13.9545C11.5064 13.791 11.8351 13.4659 12.0054 13.0337L11.0751 12.667L10.1448 12.3003C10.1574 12.2682 10.1846 12.2186 10.2341 12.1698C10.2837 12.121 10.3344 12.094 10.3686 12.0812L10.7188 13.0179ZM11.0751 12.667L12.0054 13.0337L12.106 12.7785L11.1757 12.4118L10.2454 12.0451L10.1448 12.3003L11.0751 12.667ZM11.1757 12.4118L12.106 12.7785L12.2066 12.5233L11.2763 12.1566L10.346 11.7899L10.2454 12.0451L11.1757 12.4118ZM11.2763 12.1566L12.2066 12.5233C12.1818 12.5864 12.1312 12.6671 12.0465 12.7343C11.965 12.7989 11.8912 12.82 11.8612 12.8258L11.67 11.8443L11.4788 10.8627C10.9836 10.9592 10.5509 11.2699 10.346 11.7899L11.2763 12.1566ZM11.67 11.8443L11.8612 12.8258L12.1542 12.7687L11.9631 11.7872L11.7719 10.8056L11.4788 10.8627L11.67 11.8443ZM11.9631 11.7872L12.1542 12.7687L12.4473 12.7116L12.2562 11.7301L12.065 10.7485L11.7719 10.8056L11.9631 11.7872ZM12.2562 11.7301L12.4473 12.7116C12.852 12.6328 13.2467 12.4229 13.517 12.0313L12.694 11.4633L11.8711 10.8952C11.903 10.8489 11.9457 10.809 11.9918 10.7809C12.0353 10.7544 12.0651 10.7485 12.065 10.7485L12.2562 11.7301ZM12.694 11.4633L13.517 12.0313L13.6618 11.8216L12.8388 11.2535L12.0158 10.6854L11.8711 10.8952L12.694 11.4633ZM12.8388 11.2535L13.6618 11.8216L13.8066 11.6119L12.9836 11.0438L12.1606 10.4757L12.0158 10.6854L12.8388 11.2535ZM12.9836 11.0438L13.8066 11.6119C13.8847 11.4986 13.9672 11.3909 14.0539 11.2885L13.2907 10.6423L12.5275 9.99616C12.3978 10.1494 12.2755 10.3093 12.1606 10.4757L12.9836 11.0438ZM13.2907 10.6423L14.0539 11.2885L14.2162 11.0967L13.453 10.4506L12.6898 9.80445L12.5275 9.99616L13.2907 10.6423ZM13.453 10.4506L14.2162 11.0967L14.3785 10.905L13.6153 10.2589L12.8521 9.61274L12.6898 9.80445L13.453 10.4506ZM13.6153 10.2589L14.3785 10.905C14.4413 10.8308 14.511 10.7642 14.5883 10.7044L13.9767 9.91329L13.365 9.12215C13.1769 9.26756 13.0057 9.43133 12.8521 9.61274L13.6153 10.2589ZM13.9767 9.91329L14.5883 10.7044L14.7873 10.5505L14.1757 9.7594L13.5641 8.96826L13.365 9.12215L13.9767 9.91329ZM14.1757 9.7594L14.7873 10.5505L14.9864 10.3966L14.3748 9.60551L13.7631 8.81438L13.5641 8.96826L14.1757 9.7594ZM14.3748 9.60551L14.9864 10.3966C15.2586 10.1862 15.4608 9.9177 15.5965 9.61419L14.6837 9.20594L13.7708 8.79769C13.7675 8.80499 13.7649 8.80985 13.7632 8.81274C13.7615 8.8156 13.7605 8.81688 13.7604 8.81703C13.7603 8.81715 13.7607 8.81667 13.7614 8.81589C13.7622 8.8151 13.7629 8.81457 13.7631 8.81438L14.3748 9.60551ZM14.6837 9.20594L15.5965 9.61419L15.7064 9.36851L14.7936 8.96025L13.8807 8.552L13.7708 8.79769L14.6837 9.20594ZM14.7936 8.96025L15.7064 9.36851L15.8163 9.12282L14.9034 8.71457L13.9906 8.30632L13.8807 8.552L14.7936 8.96025ZM14.9034 8.71457L15.8163 9.12282C15.8099 9.13719 15.7951 9.16337 15.7681 9.19165C15.7409 9.22017 15.7126 9.23889 15.6915 9.24931L15.2489 8.3526L14.8062 7.4559C14.4349 7.63922 14.1564 7.93558 13.9906 8.30632L14.9034 8.71457ZM15.2489 8.3526L15.6915 9.24931L15.9271 9.13302L15.4845 8.23632L15.0418 7.33961L14.8062 7.4559L15.2489 8.3526ZM15.4845 8.23632L15.9271 9.13302L16.1627 9.01674L15.72 8.12003L15.2774 7.22333L15.0418 7.33961L15.4845 8.23632ZM15.72 8.12003L16.1627 9.01674C16.3216 8.93828 16.4802 8.85938 16.6383 8.78006L16.19 7.8862L15.7416 6.99234C15.5873 7.06975 15.4326 7.14674 15.2774 7.22333L15.72 8.12003ZM16.19 7.8862L16.6383 8.78006L16.8727 8.66252L16.4243 7.76866L15.976 6.87479L15.7416 6.99234L16.19 7.8862ZM16.4243 7.76866L16.8727 8.66252L17.107 8.54497L16.6587 7.65111L16.2103 6.75725L15.976 6.87479L16.4243 7.76866ZM16.6587 7.65111L17.107 8.54497C17.5711 8.31222 17.8354 7.90163 17.9341 7.46036L16.9583 7.24196L15.9824 7.02356C15.9855 7.00998 15.9993 6.96025 16.0439 6.89924C16.091 6.83498 16.1516 6.78671 16.2103 6.75725L16.6587 7.65111ZM16.9583 7.24196L17.9341 7.46036L17.9994 7.16875L17.0235 6.95035L16.0477 6.73195L15.9824 7.02356L16.9583 7.24196ZM17.0235 6.95035L17.9994 7.16875L18.0647 6.87714L17.0888 6.65874L16.1129 6.44034L16.0477 6.73195L17.0235 6.95035ZM17.0888 6.65874L18.0647 6.87714C18.0597 6.89935 18.0411 6.9617 17.9847 7.03312C17.9258 7.10791 17.8533 7.15721 17.7906 7.18372L17.4011 6.26267L17.0117 5.34162C16.5122 5.5528 16.2177 5.97246 16.1129 6.44034L17.0888 6.65874ZM17.4011 6.26267L17.7906 7.18372L18.0376 7.07926L17.6482 6.15821L17.2588 5.23715L17.0117 5.34162L17.4011 6.26267ZM17.6482 6.15821L18.0376 7.07926L18.2847 6.9748L17.8953 6.05374L17.5058 5.13269L17.2588 5.23715L17.6482 6.15821ZM17.8953 6.05374L18.2847 6.9748C18.5093 6.87984 18.7221 6.76413 18.9208 6.6262L18.3505 5.80477L17.7802 4.98333C17.7013 5.03809 17.6107 5.08836 17.5058 5.13269L17.8953 6.05374ZM18.3505 5.80477L18.9208 6.6262L19.1289 6.48169L18.5586 5.66025L17.9883 4.83882L17.7802 4.98333L18.3505 5.80477ZM18.5586 5.66025L19.1289 6.48169L19.3371 6.33717L18.7668 5.51574L18.1965 4.6943L17.9883 4.83882L18.5586 5.66025ZM18.7668 5.51574L19.3371 6.33717C19.5616 6.1813 19.7581 5.99335 19.9237 5.77579L19.1281 5.17007L18.3324 4.56434C18.2938 4.615 18.2495 4.65749 18.1965 4.6943L18.7668 5.51574ZM19.1281 5.17007L19.9237 5.77579L20.0769 5.57464L19.2812 4.96891L18.4855 4.36319L18.3324 4.56434L19.1281 5.17007ZM19.2812 4.96891L20.0769 5.57464L20.23 5.37349L19.4343 4.76776L18.6387 4.16203L18.4855 4.36319L19.2812 4.96891ZM19.4343 4.76776L20.23 5.37349C20.3005 5.28093 20.3766 5.19584 20.4586 5.11765L19.7684 4.39405L19.0782 3.67044C18.9189 3.82234 18.7724 3.98639 18.6387 4.16203L19.4343 4.76776ZM19.7684 4.39405L20.4586 5.11765L20.6395 4.94509L19.9493 4.22149L19.2591 3.49788L19.0782 3.67044L19.7684 4.39405ZM19.9493 4.22149L20.6395 4.94509L20.8204 4.77253L20.1302 4.04893L19.44 3.32532L19.2591 3.49788L19.9493 4.22149ZM20.1302 4.04893L20.8204 4.77253C20.941 4.6575 21.1349 4.46425 21.2521 4.23086L20.3583 3.78227L19.4646 3.33368C19.4754 3.31211 19.4853 3.29507 19.4928 3.28293C19.5003 3.27068 19.5065 3.26154 19.5107 3.25571C19.5149 3.24982 19.5177 3.24615 19.5187 3.24484C19.5198 3.24349 19.5196 3.24381 19.5178 3.24589C19.5141 3.25029 19.506 3.25933 19.4925 3.2734C19.479 3.2873 19.4617 3.30455 19.44 3.32532L20.1302 4.04893ZM20.3583 3.78227L21.2521 4.23086L21.2993 4.13677L20.4055 3.68818L19.5118 3.23959L19.4646 3.33368L20.3583 3.78227ZM20.4055 3.68818L21.3876 3.87652L21.4104 3.75802L20.4283 3.56968L19.4462 3.38134L19.4234 3.49984L20.4055 3.68818ZM20.4283 3.56968L21.1251 4.28696L21.1968 4.21728L20.5 3.5L19.8032 2.78272L19.7315 2.8524L20.4283 3.56968Z" fill="black"/>
</svg>
