<svg width="306" height="58" viewBox="0 0 306 58" fill="none" xmlns="http://www.w3.org/2000/svg">
<path d="M300 0.679702C300.641 0.60132 301.272 0.702673 301.863 0.937514L302.988 1.38283C303.169 1.45457 303.298 1.49659 303.375 1.52345V1.53517C304.135 1.60167 304.496 2.15703 304.558 2.26173C304.67 2.45046 304.734 2.63288 304.758 2.71876C304.812 2.91339 304.84 3.13075 304.863 3.31642L304.922 3.82033L304.992 4.31251C305.034 4.65365 305.068 5.02117 305.109 5.40236L305.168 5.96486L305.238 6.52736C305.302 7.11571 305.239 7.69874 305.062 8.26173L304.711 9.38673C304.625 9.65901 304.567 9.92591 304.547 10.1836L304.5 10.7461L304.465 11.3086C304.427 11.7823 304.337 12.2511 304.207 12.7149L304.055 13.2774L303.891 13.8399C303.893 13.8481 303.905 13.858 303.914 13.875L304.195 14.4375L304.488 15C304.802 15.6128 304.944 16.2944 304.851 17.0039L304.711 18.1289C304.683 18.3417 304.693 18.5561 304.734 18.7735L304.945 19.8985C305.076 20.5753 305 21.252 304.746 21.8789L304.512 22.4414L304.289 23.0039C304.199 23.226 304.154 23.4304 304.148 23.6133L304.137 24.1758L304.113 24.7383C304.111 24.847 304.144 24.9809 304.23 25.1602L304.769 26.2852C305.048 26.864 305.183 27.4932 305.144 28.1485L305.121 28.711L305.086 29.2735C305.049 29.889 304.868 30.4794 304.582 31.0195L304.277 31.582L303.984 32.1445C303.907 32.2925 303.898 32.3763 303.902 32.4258L303.961 32.9883L304.008 33.5508C304.021 33.6984 304.065 33.8819 304.183 34.1016L304.793 35.2266C305.101 35.7967 305.285 36.424 305.273 37.0899L305.25 38.2149C305.238 38.8735 305.05 39.4953 304.734 40.0547L304.101 41.1797C304.069 41.2384 304.046 41.2698 304.043 41.2852V41.3086L304.137 41.8711L304.242 42.4336C304.312 42.8443 304.355 43.264 304.394 43.6758L304.512 44.8008C304.566 45.3802 304.497 45.9569 304.324 46.5117L304.148 47.0742L304.008 47.5078L304.359 48.0469L304.734 48.6094C305.174 49.2773 305.379 50.0887 305.156 50.9414L305.004 51.5039L304.863 52.0664C304.767 52.4358 304.674 52.8104 304.582 53.1797L304.301 54.3047C304.147 54.9178 303.789 55.6147 303.047 56.0156L302.683 56.2149L302.32 56.4024C301.45 56.8714 300.57 56.6235 300 56.332L299.437 56.0508L299.004 55.8164L298.57 56.0508L298.008 56.3438C297.326 56.6985 296.556 56.8068 295.781 56.5899L295.219 56.4375L294.656 56.2735C294.374 56.1947 294.096 56.1534 293.824 56.1328L292.699 56.0391C292.542 56.0273 292.374 56.0548 292.183 56.1211L291.621 56.3203L291.058 56.5078C290.611 56.6639 290.157 56.7907 289.699 56.8711L289.137 56.9649L288.574 57.0703C288.151 57.1445 287.721 57.1904 287.297 57.2227L286.734 57.2695L286.172 57.3047C285.364 57.365 284.642 57.0929 284.051 56.6602L283.488 56.2383L283.008 55.8867L282.644 56.0274L282.082 56.2383C281.549 56.4351 280.996 56.5346 280.43 56.5313H279.305C278.967 56.5292 278.623 56.5434 278.285 56.5664L277.16 56.6367C276.622 56.6728 276.09 56.6185 275.566 56.4844L274.441 56.2031C274.266 56.1584 274.101 56.1518 273.937 56.1797L272.812 56.3672C272.45 56.429 272.085 56.4957 271.723 56.5664L271.16 56.6836L270.598 56.7891C269.9 56.9246 269.215 56.823 268.582 56.543L268.019 56.2969L267.504 56.0625L266.988 56.3086L266.426 56.5547C265.81 56.8304 265.141 56.9405 264.457 56.836L263.894 56.7539L263.332 56.6602C262.876 56.5903 262.419 56.4878 261.973 56.3438L261.41 56.1563L260.848 55.9805C260.78 55.9591 260.732 55.9566 260.66 55.9805L259.535 56.3555C259.039 56.5207 258.528 56.6217 258.012 56.6485L257.449 56.6719L256.887 56.707C256.348 56.7345 255.814 56.6748 255.293 56.5313L254.73 56.3672L254.168 56.2149C254.055 56.1837 253.952 56.1843 253.84 56.2149L253.277 56.3672L252.715 56.5313C251.969 56.7374 251.223 56.641 250.547 56.3203L249.984 56.0625L249.422 55.793C249.399 55.7823 249.383 55.7717 249.375 55.7695H249.363L248.801 55.9453L248.238 56.1094C247.855 56.2227 247.473 56.3319 247.09 56.4375L245.965 56.7422C245.374 56.9051 244.764 56.9391 244.16 56.8242L243.598 56.707L243.035 56.6016C242.879 56.5717 242.719 56.5832 242.555 56.625L241.43 56.9063C240.789 57.0689 240.139 57.0492 239.508 56.8594L238.945 56.6953L238.383 56.5195C238.218 56.4701 238.069 56.4624 237.926 56.4844L236.801 56.6719C236.09 56.7842 235.397 56.65 234.773 56.3438L234.211 56.0625L233.883 55.9102L233.496 56.1914L232.933 56.5899C232.268 57.0643 231.434 57.3119 230.543 57.0703L229.418 56.7656C229.296 56.7327 229.187 56.734 229.066 56.7656L228.504 56.9063L227.941 57.0586C227.276 57.2329 226.596 57.1966 225.949 56.9766L224.824 56.6016C224.747 56.5758 224.694 56.5686 224.625 56.5899L223.5 56.9414C222.633 57.2066 221.796 57.0078 221.109 56.5547L220.547 56.1914L219.984 55.8164C219.793 55.6911 219.674 55.6779 219.621 55.6758L218.496 55.6289C218.228 55.6185 217.959 55.6298 217.687 55.6758L216.562 55.8633C216.249 55.9165 215.932 55.9917 215.613 56.086L215.051 56.2617L214.488 56.4258C214.087 56.5446 213.684 56.6488 213.281 56.7422L212.156 57C211.697 57.1064 211.228 57.1765 210.762 57.1992L210.199 57.2227L209.637 57.2578C209.138 57.2821 208.64 57.2375 208.148 57.1406L207.586 57.0352L207.023 56.918C206.706 56.8554 206.389 56.8139 206.074 56.7891L204.949 56.6953C204.686 56.6746 204.418 56.6924 204.152 56.7305L203.59 56.8125L203.027 56.8828C202.326 56.9834 201.651 56.854 201.035 56.5547L199.91 56.0156L199.394 56.2149L198.832 56.4258C198.372 56.5969 197.9 56.7231 197.426 56.8008L196.301 56.9883C195.661 57.0923 195.027 57.0206 194.426 56.8008L193.863 56.5899L193.301 56.3906C193.133 56.3291 192.984 56.3171 192.855 56.332L192.293 56.3906L191.73 56.461C191.379 56.5019 191.027 56.5448 190.676 56.6016L189.551 56.7891C189.055 56.8691 188.55 56.8915 188.051 56.8477L187.488 56.7891L186.926 56.7422C186.739 56.7265 186.544 56.7432 186.34 56.8008L185.777 56.9649L185.215 57.1172C184.453 57.3306 183.692 57.234 183.012 56.8945L181.887 56.332C181.62 56.1995 181.37 56.1098 181.137 56.0625L180.574 55.957L180.012 55.8399C179.96 55.8296 179.899 55.8278 179.789 55.875L178.664 56.3672C178.006 56.6527 177.291 56.7199 176.578 56.543L175.453 56.2617C175.247 56.2105 175.049 56.2058 174.855 56.2266L173.73 56.3438C173.262 56.3951 172.782 56.4047 172.312 56.3672L171.187 56.2735C171.051 56.2634 170.897 56.2874 170.719 56.3555L170.156 56.5664L169.594 56.7891C169.1 56.9774 168.59 57.0959 168.07 57.1406L166.945 57.2344C166.327 57.287 165.714 57.1878 165.141 56.9649L164.578 56.7539L164.016 56.5313C163.699 56.4085 163.386 56.3023 163.078 56.2266L162.516 56.0977L161.953 55.957C161.69 55.8925 161.433 55.8543 161.18 55.8516H160.055C159.885 55.8501 159.69 55.875 159.48 55.957L158.355 56.4024C157.702 56.6569 157.006 56.7081 156.316 56.5313L155.754 56.3789L155.191 56.2383C154.908 56.1653 154.623 56.1252 154.348 56.1094L153.223 56.0391C153.109 56.0331 152.974 56.0563 152.801 56.1328L152.238 56.3789L151.676 56.6367C150.843 57.0066 149.967 56.9271 149.203 56.4961L148.641 56.1797L148.09 55.875L147.609 56.0391L147.047 56.2383C146.551 56.4064 146.04 56.5027 145.523 56.5313L144.961 56.5664L144.398 56.5899C143.987 56.6123 143.568 56.6213 143.156 56.6133L142.031 56.5899C141.818 56.586 141.595 56.626 141.363 56.6953L140.238 57.0235C139.509 57.2404 138.776 57.1791 138.094 56.8828L136.969 56.3906C136.77 56.304 136.598 56.2839 136.453 56.2852H135.891L135.328 56.2969C135.194 56.2982 135.035 56.331 134.836 56.4258L134.273 56.6836L133.711 56.9531C133.155 57.2183 132.553 57.3658 131.93 57.3633H130.805C130.258 57.3609 129.719 57.2715 129.199 57.0938L128.637 56.8945L128.074 56.707C127.696 56.5779 127.315 56.4409 126.937 56.3086L126.375 56.1094L125.812 55.9219L125.262 56.1914L124.699 56.461C124.013 56.7831 123.257 56.8608 122.508 56.6367L121.945 56.461L121.383 56.2969C121.173 56.234 120.973 56.2138 120.785 56.2266L119.66 56.2969C119.132 56.3324 118.606 56.2905 118.09 56.168L117.527 56.0391L116.965 55.8985C116.804 55.8606 116.653 55.8657 116.496 55.8985L115.371 56.1328C114.829 56.2461 114.278 56.2576 113.73 56.1797L113.168 56.0977L112.605 56.0274C112.305 55.9844 112.001 55.9552 111.703 55.957L111.141 55.9688H110.578C110.434 55.9698 110.264 56.007 110.062 56.0977L109.5 56.3438L108.937 56.6016C108.42 56.8362 107.871 56.9899 107.308 57.0352L106.746 57.082L106.183 57.1172C105.573 57.1661 104.971 57.0743 104.402 56.8594L103.277 56.4375C103.239 56.4235 103.215 56.426 103.207 56.4258C103.198 56.426 103.176 56.4167 103.148 56.4258L102.023 56.8008C101.498 56.9719 100.957 57.0596 100.406 57.0469L99.8436 57.0352L99.2811 57.0117C98.8803 57.0021 98.4747 56.9844 98.0741 56.9531L97.5116 56.9063L96.9491 56.8711C96.3934 56.8276 95.8467 56.6857 95.3319 56.461L94.2069 55.9688C94.0136 55.8848 93.8531 55.8488 93.7147 55.8516L92.5897 55.875C92.2864 55.8813 91.9815 55.9085 91.6757 55.957L90.5507 56.1445C90.0733 56.2205 89.5901 56.2397 89.1093 56.2149L88.5468 56.1914L87.9843 56.1563C87.7372 56.1436 87.4881 56.1641 87.2343 56.2149L86.6718 56.332L86.1093 56.4375C85.5789 56.5438 85.04 56.5739 84.5038 56.5078L83.3788 56.3672C83.1219 56.3355 82.8619 56.3258 82.6053 56.3555L81.4803 56.4961C80.9305 56.5591 80.3789 56.518 79.8397 56.3906L78.7147 56.1328C78.6122 56.1088 78.5177 56.107 78.3983 56.1445L77.8358 56.3203L77.2733 56.5078C76.8031 56.658 76.3155 56.7522 75.8319 56.8008L74.7069 56.918C74.0355 56.9843 73.3902 56.8484 72.7968 56.5664L72.2343 56.2969L71.6835 56.0274L71.1561 56.2383L70.5936 56.4492C70.1431 56.6195 69.6851 56.7469 69.2225 56.836L68.66 56.9414L68.0975 57.0586C67.3247 57.2071 66.5839 57.0389 65.9413 56.6719L65.3788 56.3438L65.0507 56.1563L64.1366 56.7656C63.501 57.1812 62.7392 57.3937 61.9218 57.2461L61.3593 57.1524L60.7968 57.0469C60.2503 56.9481 59.7239 56.7513 59.2264 56.4844L58.6639 56.1914L58.1366 55.8985L57.6561 56.086L57.0936 56.3086C56.6042 56.4951 56.0956 56.6203 55.5819 56.6719L55.0194 56.7305L54.4569 56.7774C54.1471 56.8087 53.833 56.8695 53.5194 56.9414L52.3944 57.1992C51.4781 57.4079 50.6531 57.0994 50.0155 56.6016L49.453 56.168L49.1366 55.9102L48.8905 56.0625L48.328 56.4024C47.5647 56.8568 46.6725 56.9486 45.8202 56.5664L45.2577 56.3086L44.871 56.1328L44.4374 56.4258L43.8749 56.7891C43.1812 57.2348 42.344 57.4123 41.4843 57.1406L40.9218 56.9649L40.3593 56.7774C40.0973 56.6948 39.8433 56.6523 39.5975 56.6367L38.4725 56.5664C38.0791 56.5419 37.6822 56.5122 37.2889 56.4727L36.1639 56.3555C36.0189 56.3409 35.8629 56.363 35.6835 56.4258L35.121 56.6133L34.5585 56.8125C33.9712 57.0179 33.3519 57.0846 32.7304 57L32.1679 56.9297L31.6054 56.8477C31.1698 56.7881 30.7355 56.705 30.3046 56.5899L29.1796 56.2852C29.1706 56.288 29.1459 56.2957 29.121 56.3086L27.996 56.8945C27.1893 57.3087 26.3038 57.3 25.4999 56.8828L24.9374 56.5899L24.4335 56.332L23.9647 56.5313L23.4022 56.7774C22.8826 56.9979 22.3335 57.131 21.7733 57.1641L20.6483 57.2344C20.0629 57.2686 19.4889 57.1717 18.9374 56.9766L17.8124 56.5781C17.4866 56.4629 17.1606 56.373 16.8397 56.2969L16.2772 56.1563L15.7147 56.0274C15.4372 55.9617 15.164 55.9308 14.8944 55.9219L13.7694 55.875H12.1405L11.578 55.8867C11.357 55.89 11.1277 55.9282 10.8866 56.0039L9.7616 56.3555C9.11086 56.5598 8.439 56.5655 7.78113 56.3789L7.21863 56.2266L6.70301 56.0742L6.69129 56.086L5.56629 56.7422C5.16035 56.9783 4.65776 57.1296 4.10144 57.0703C3.55093 57.0113 3.09709 56.7563 2.75379 56.461L2.23816 56.0274L1.72254 55.582C1.05069 55.0032 0.6269 54.1307 0.85535 53.1094L0.984256 52.5469L1.10144 51.9844C1.1409 51.808 1.14529 51.6409 1.11316 51.4688L0.902225 50.3438C0.746315 49.5177 0.972087 48.7439 1.39441 48.1055L1.75769 47.543L2.13269 46.9805C2.16399 46.9329 2.17664 46.9069 2.17957 46.8985L2.08582 46.3828L1.98035 45.8203C1.87948 45.2496 1.88892 44.6748 2.01551 44.1094L2.27332 42.9844C2.31991 42.7764 2.33386 42.5745 2.30847 42.375L2.22644 41.8125L2.15613 41.25C2.10617 40.8573 2.06235 40.4594 2.02722 40.0664L1.93347 38.9414C1.90999 38.6824 1.8553 38.4172 1.76941 38.1445L1.59363 37.582L1.40613 37.0195C1.26241 36.5652 1.16336 36.1009 1.10144 35.6367L1.03113 35.0742L0.9491 34.5117C0.875652 33.9605 0.899649 33.4028 1.01941 32.8594L1.14832 32.2969L1.26551 31.7344C1.32052 31.4832 1.34537 31.2386 1.33582 30.9961L1.28894 29.8711C1.27004 29.3901 1.31248 28.9064 1.39441 28.4297L1.58191 27.3047C1.62412 27.0573 1.63871 26.8097 1.61707 26.5664L1.55847 26.0039L1.5116 25.4414C1.47535 25.0327 1.46038 24.6201 1.45301 24.211L1.42957 23.086C1.42077 22.5812 1.47458 22.0801 1.59363 21.586L1.73426 21.0235L1.86316 20.461C1.93455 20.1646 1.98278 19.8721 2.00379 19.582L2.03894 19.0195L2.08582 18.457C2.10822 18.1459 2.10333 17.8305 2.08582 17.5195L2.06238 16.957L2.02722 16.3945C2.01028 16.0958 1.9723 15.7951 1.91004 15.4922L1.67566 14.3672C1.53979 13.7075 1.59969 13.0467 1.82801 12.4219L2.02722 11.8594L2.20301 11.3906L1.55847 10.3242C1.11596 9.57753 1.01759 8.71056 1.37097 7.8633L1.60535 7.3008L1.81629 6.82033L1.54676 6.3047L1.25379 5.7422C1.08064 5.40145 0.930176 4.94519 0.972537 4.4297C1.01899 3.87563 1.27841 3.41052 1.64051 3.07033L2.36707 2.39064L2.83582 2.03908C3.32884 1.75358 3.88394 1.6556 4.42957 1.69923L5.55457 1.79298C6.00354 1.82957 6.4581 1.90161 6.90222 2.00392L7.46472 2.13283L8.00379 2.26173C8.01471 2.2575 8.03541 2.24225 8.06238 2.22658L9.18738 1.57033L9.74988 1.31251C10.1399 1.18248 10.5526 1.13975 10.9686 1.19533L11.6014 1.35939L12.1639 1.58205L12.7264 1.79298C12.9753 1.88856 13.2086 1.93976 13.4296 1.95705L14.5546 2.0508C14.8012 2.07003 15.0532 2.0485 15.3046 2.00392L15.8671 1.91017L16.4296 1.8047C16.9381 1.71495 17.4519 1.69372 17.9647 1.74611L19.0897 1.8633C19.2837 1.88314 19.4798 1.86886 19.6874 1.81642L20.8124 1.53517C21.3768 1.3914 21.9585 1.35444 22.535 1.44142L23.0975 1.53517L23.66 1.6172C23.8911 1.6522 24.1211 1.64914 24.3514 1.6172L24.9139 1.54689L25.4764 1.46486C25.7727 1.42343 26.0754 1.35573 26.3788 1.26564L26.9413 1.10158L27.5038 0.925796C28.0189 0.772385 28.5515 0.694463 29.0858 0.703139L30.2108 0.726577C30.9065 0.738069 31.5455 0.968387 32.1093 1.32423L32.6718 1.6758L33.2343 2.03908L33.2694 2.0508L33.785 1.93361L34.3475 1.8047C34.7012 1.72118 35.0596 1.62247 35.4139 1.52345L35.9764 1.37111L36.5389 1.20705C37.1305 1.04272 37.7387 1.02042 38.3436 1.13673L39.4686 1.34767C39.9261 1.43597 40.381 1.5702 40.828 1.73439L41.3905 1.94533L41.953 2.14455C42.0241 2.17067 42.0646 2.17166 42.1171 2.15626L43.2421 1.8047C43.7488 1.6494 44.2748 1.57514 44.8007 1.57033L45.3632 1.55861H45.9257C46.1746 1.55617 46.4273 1.51927 46.6874 1.45314L47.8124 1.17189C48.5846 0.97471 49.3455 1.09832 50.0155 1.45314L51.1405 2.03908C51.2597 2.10219 51.3041 2.09972 51.3163 2.09767L52.4413 1.91017C52.9104 1.8314 53.3862 1.79148 53.8593 1.8047L54.4218 1.81642L54.9843 1.83986C55.1795 1.84475 55.3859 1.8167 55.6054 1.74611L56.1679 1.55861L56.7304 1.38283C57.1526 1.2471 57.5814 1.1329 58.0077 1.04298L59.1327 0.808608C59.8655 0.655028 60.5843 0.771383 61.2304 1.08986L61.7929 1.35939L62.3554 1.64064C62.5667 1.74432 62.7433 1.78357 62.8944 1.79298L64.0194 1.8633C64.3383 1.88173 64.6615 1.88025 64.9803 1.8633L65.5428 1.83986L66.1053 1.8047C66.4303 1.78735 66.7633 1.74944 67.0897 1.69923L68.2147 1.53517C68.7415 1.45463 69.2704 1.45099 69.7968 1.53517L70.9218 1.72267C71.3228 1.78712 71.7285 1.85935 72.1288 1.94533L73.2538 2.1797C73.4973 2.23198 73.7335 2.25182 73.9686 2.2383L74.5311 2.20314L75.0936 2.1797C75.2845 2.16838 75.4957 2.11302 75.7264 2.01564L76.8514 1.54689C77.3299 1.34482 77.8253 1.19338 78.328 1.1133L78.8905 1.03126L79.453 0.937514C80.0081 0.849286 80.5666 0.858518 81.1171 0.972671L82.2421 1.20705C82.7385 1.31015 83.2239 1.48022 83.6952 1.69923L84.2577 1.95705L84.7264 2.1797L85.2186 1.94533L85.7811 1.6758C86.393 1.37841 87.065 1.243 87.7616 1.33595L88.3241 1.41798L88.8866 1.4883C89.3661 1.55234 89.8393 1.66626 90.3046 1.82814L90.8671 2.02736L91.2772 2.16798L91.7811 1.82814L92.3436 1.45314C92.8809 1.09094 93.5152 0.893426 94.1718 0.960952L94.8397 1.12501L95.9647 1.54689C96.2565 1.65698 96.5422 1.74376 96.8202 1.79298L97.9452 1.98048C98.1688 2.01996 98.3925 2.0337 98.6132 2.00392L99.1757 1.92189L99.7382 1.85158C100.292 1.777 100.845 1.79994 101.391 1.92189L101.953 2.0508L102.516 2.16798C102.619 2.19121 102.72 2.19602 102.844 2.15626L103.969 1.78126C104.573 1.58434 105.203 1.54768 105.832 1.66408L106.394 1.75783L106.957 1.8633C106.983 1.8681 107.035 1.88116 107.144 1.82814L108.269 1.26564L108.891 1.0547C109.303 0.95867 109.723 0.953201 110.133 1.0547L110.742 1.28908L111.867 1.85158C112.006 1.92132 112.085 1.92705 112.137 1.92189L112.699 1.8633L113.262 1.79298C113.727 1.73964 114.201 1.72527 114.668 1.75783L115.23 1.8047L115.793 1.83986C116.119 1.86258 116.451 1.87215 116.777 1.8633L117.34 1.85158L117.902 1.82814C118.25 1.81862 118.598 1.80838 118.945 1.78126L120.07 1.68751C120.345 1.66604 120.629 1.61447 120.914 1.53517L122.039 1.23048C122.456 1.1145 122.873 1.0142 123.293 0.937514L124.418 0.726577C125.13 0.596518 125.824 0.718587 126.457 1.01955L127.019 1.27736L127.582 1.54689C127.664 1.58573 127.694 1.5861 127.711 1.58205L128.273 1.44142L128.836 1.31251C129.547 1.14413 130.258 1.22666 130.91 1.51173L131.473 1.75783L131.894 1.94533L132.363 1.6758L132.926 1.34767C133.318 1.11745 133.784 0.968304 134.297 0.984389C134.551 0.992358 134.789 1.03781 135.012 1.1133L135.633 1.41798L136.195 1.78126L136.617 2.06251L136.992 1.88673L137.555 1.6172C138.105 1.36143 138.694 1.28366 139.277 1.38283L139.851 1.53517L140.414 1.75783L140.976 1.96876C141.123 2.02556 141.238 2.04259 141.34 2.02736L141.902 1.93361L142.465 1.85158C142.738 1.81041 143.021 1.74376 143.308 1.64064L143.871 1.44142L144.433 1.23048C145.145 0.976314 145.886 0.987992 146.59 1.25392L147.152 1.46486L147.715 1.68751C147.852 1.73957 147.959 1.73929 148.055 1.72267L148.617 1.62892L149.18 1.52345C149.574 1.45462 149.969 1.40007 150.363 1.34767L150.926 1.26564L151.488 1.19533C152.17 1.10482 152.837 1.21992 153.445 1.50001L154.57 2.01564C154.802 2.12201 155.005 2.18622 155.191 2.20314L155.754 2.25001L156.281 2.29689C156.29 2.29408 156.341 2.27486 156.422 2.21486L156.984 1.8047L157.547 1.38283C158.004 1.04459 158.543 0.803741 159.141 0.750014L159.762 0.761733L160.324 0.832046L160.887 0.914077C161.116 0.94455 161.347 0.93947 161.578 0.902358L162.141 0.808608L162.703 0.726577C163.485 0.601532 164.219 0.787184 164.848 1.17189L165.41 1.52345L165.973 1.8633C166.127 1.95795 166.195 1.95792 166.207 1.95705L166.769 1.91017L167.332 1.87501C167.531 1.86056 167.752 1.81001 167.988 1.71095L169.113 1.2422L169.687 1.0547C170.073 0.978783 170.464 0.993008 170.848 1.07814L171.422 1.26564L172.547 1.75783C172.795 1.86785 173.027 1.93294 173.238 1.95705L173.801 2.02736L174.363 2.08595C174.571 2.10907 174.78 2.09751 174.996 2.0508L175.558 1.93361L176.121 1.8047C176.434 1.73679 176.752 1.65576 177.07 1.54689L177.633 1.34767L178.195 1.16017C178.923 0.910623 179.683 0.941151 180.387 1.23048L180.949 1.45314L181.512 1.68751C181.529 1.69466 181.541 1.69793 181.547 1.69923H181.582L182.144 1.50001L182.707 1.31251C183.377 1.08501 184.079 1.06821 184.758 1.27736L185.883 1.62892C186.246 1.74089 186.609 1.85248 186.973 1.95705L187.535 2.12111L188.098 2.27345C188.194 2.30133 188.279 2.30318 188.379 2.27345L188.941 2.10939L189.504 1.93361C190.03 1.77576 190.574 1.70255 191.121 1.72267L192.246 1.76955C192.497 1.77849 192.75 1.7528 193.008 1.69923L194.133 1.46486C194.619 1.36401 195.116 1.3224 195.609 1.33595L196.172 1.34767L196.734 1.37111C197.228 1.38513 197.717 1.45286 198.199 1.58205L199.324 1.88673C199.462 1.9239 199.59 1.92931 199.723 1.89845L200.285 1.76955L200.848 1.62892C201.334 1.5154 201.828 1.45979 202.324 1.46486L202.887 1.47658H203.449C203.819 1.48064 204.193 1.48807 204.562 1.4883H205.687C206.117 1.48856 206.548 1.51092 206.976 1.55861L207.539 1.62892L208.101 1.68751C208.195 1.69793 208.309 1.68471 208.465 1.6172L209.027 1.37111L209.59 1.13673C210.276 0.839103 210.967 0.854067 211.582 1.10158L212.168 1.41798L212.73 1.81642L213.246 2.1797L214.23 1.85158C214.87 1.64565 215.534 1.62357 216.187 1.79298L216.75 1.94533L217.312 2.08595C217.321 2.08305 217.336 2.07416 217.359 2.06251L217.922 1.76955L218.484 1.46486L219.105 1.23048C219.518 1.12384 219.943 1.12175 220.359 1.21876L220.98 1.44142L222.105 2.00392C222.251 2.07656 222.34 2.08026 222.398 2.07423L222.961 2.01564L223.523 1.94533C223.84 1.91086 224.164 1.86563 224.484 1.79298L225.609 1.53517C226.004 1.44568 226.398 1.36032 226.793 1.28908L227.355 1.19533L227.918 1.08986C228.587 0.969254 229.255 1.05195 229.875 1.3008L231 1.74611C231.179 1.81781 231.325 1.83699 231.457 1.82814L232.582 1.75783C233.005 1.72858 233.436 1.71102 233.859 1.72267L234.422 1.74611L234.984 1.75783C235.411 1.76976 235.837 1.80546 236.262 1.8633L236.824 1.94533L237.387 2.01564C237.417 2.01978 237.488 2.02679 237.621 1.95705L238.746 1.37111C239.333 1.064 239.984 0.903498 240.668 0.949233L241.793 1.01955C242.368 1.05872 242.921 1.20975 243.445 1.45314L244.008 1.71095L244.406 1.91017L245.414 1.3008L246.023 1.01955C246.448 0.884404 246.894 0.854027 247.336 0.949233L247.992 1.18361L249.117 1.74611C249.303 1.83948 249.443 1.8644 249.551 1.8633H250.113L250.676 1.85158C250.81 1.84964 250.972 1.82624 251.168 1.73439L252.293 1.19533C252.939 0.889978 253.656 0.783188 254.379 0.937514L254.941 1.06642L255.504 1.18361C255.723 1.23005 255.937 1.2415 256.148 1.21876L256.711 1.16017L257.273 1.08986C257.896 1.02225 258.509 1.11782 259.09 1.33595L259.652 1.54689L260.18 1.74611L260.742 1.4883L261.305 1.21876L261.961 1.00783C262.403 0.926923 262.845 0.969642 263.262 1.1133L263.859 1.39455L264.984 2.09767C264.999 2.10669 265.01 2.11631 265.019 2.12111L265.535 2.00392L266.098 1.87501C266.469 1.78785 266.84 1.69529 267.211 1.60548L267.773 1.46486L268.336 1.33595C268.789 1.22625 269.247 1.14637 269.707 1.1133L270.269 1.07814L270.832 1.03126C271.576 0.978352 272.264 1.19918 272.859 1.57033L273.422 1.92189L273.926 2.25001L274.383 2.08595L274.945 1.89845C275.398 1.74286 275.864 1.62068 276.328 1.54689L276.891 1.46486L277.453 1.37111C278.022 1.28082 278.592 1.30954 279.152 1.44142L280.277 1.69923L280.301 1.71095C280.305 1.71031 280.34 1.70318 280.394 1.6758L281.519 1.1133L282.117 0.878921C282.522 0.778446 282.939 0.775622 283.348 0.867202L283.957 1.07814L284.519 1.35939L285 1.59376L285.48 1.35939L286.043 1.08986C286.656 0.797786 287.33 0.665903 288.023 0.761733L289.148 0.925796C289.531 0.978698 289.914 1.02803 290.297 1.08986L291.422 1.27736C291.549 1.29794 291.688 1.29367 291.844 1.2422L292.969 0.867202L293.648 0.738296C294.093 0.714191 294.517 0.806115 294.902 0.984389L295.453 1.31251L296.016 1.73439L296.32 1.96876L296.59 1.79298L297.152 1.45314C297.679 1.12802 298.254 0.897048 298.875 0.820327L300 0.679702ZM300.375 3.66798L299.812 3.72658L299.25 3.79689C299.123 3.81246 298.944 3.87128 298.723 4.00783L298.16 4.34767L297.598 4.69923C297.194 4.94787 296.702 5.10781 296.156 5.07423C295.618 5.04072 295.16 4.82741 294.797 4.55861L294.234 4.13673L293.73 3.76173L293.344 3.90236L292.781 4.08986C292.189 4.28526 291.573 4.34155 290.953 4.2422L289.828 4.0547C289.464 3.99586 289.09 3.94088 288.726 3.89064L288.164 3.82033L287.601 3.7383C287.545 3.73132 287.465 3.73356 287.332 3.79689L286.207 4.33595C285.423 4.70896 284.575 4.69912 283.793 4.32423L283.23 4.0547L282.762 3.82033L282.293 4.06642L281.73 4.35939C281.074 4.68752 280.342 4.80334 279.598 4.62892L279.035 4.4883L278.473 4.35939C278.285 4.31506 278.101 4.30748 277.922 4.33595L277.359 4.4297L276.797 4.51173C276.513 4.55695 276.224 4.63345 275.93 4.73439L275.367 4.92189L274.805 5.12111C273.95 5.41455 273.099 5.25837 272.391 4.81642L271.266 4.1133C271.113 4.01873 271.048 4.03087 271.043 4.03126L270.48 4.06642L269.918 4.1133C269.628 4.13426 269.335 4.17064 269.039 4.2422L267.914 4.52345C267.536 4.6148 267.155 4.70431 266.777 4.79298L265.652 5.0508C264.83 5.24322 264.049 5.05289 263.391 4.64064L262.828 4.28908L262.394 4.01955L262.008 4.20705L261.445 4.46486C260.719 4.80382 259.926 4.84632 259.16 4.55861L258.035 4.13673C257.867 4.07382 257.728 4.06471 257.601 4.07814L256.476 4.19533C255.94 4.25354 255.399 4.22604 254.871 4.1133L253.746 3.87892C253.719 3.87332 253.681 3.86754 253.582 3.91408L253.019 4.17189L252.457 4.44142C251.907 4.7011 251.312 4.84526 250.699 4.85158L250.137 4.8633H249.574C248.933 4.86925 248.32 4.71271 247.758 4.4297L247.195 4.14845L246.808 3.94923L246.398 4.20705L245.836 4.54689C245.064 5.01133 244.162 5.09751 243.305 4.69923L242.742 4.44142L242.18 4.17189C241.956 4.0683 241.755 4.01939 241.582 4.00783L240.457 3.93751C240.391 3.93395 240.286 3.94874 240.129 4.03126L239.004 4.6172C238.389 4.93807 237.705 5.08912 236.988 4.9922L236.426 4.91017L235.863 4.83986C235.541 4.79595 235.211 4.76664 234.891 4.75783L234.328 4.74611L233.766 4.72267C233.441 4.71394 233.117 4.72375 232.793 4.74611L232.23 4.78126L231.668 4.82814C231.05 4.87083 230.444 4.76354 229.875 4.53517L229.312 4.31251L228.75 4.07814C228.624 4.02849 228.536 4.02929 228.457 4.04298L227.894 4.14845L227.332 4.2422C226.979 4.30575 226.619 4.38468 226.266 4.46486L225.703 4.59376L225.141 4.71095C224.712 4.80809 224.283 4.88658 223.851 4.93361L222.726 5.0508C222.035 5.126 221.372 4.98767 220.769 4.68751L219.762 4.18361L218.766 4.72267C218.094 5.07508 217.332 5.1916 216.562 4.9922L216 4.83986L215.437 4.69923C215.344 4.67494 215.253 4.67589 215.144 4.71095L214.582 4.88673L214.019 5.07423C213.125 5.36202 212.271 5.14365 211.582 4.66408L211.019 4.27736L210.574 3.96095L210.223 4.12501L209.66 4.37111C209.066 4.62876 208.429 4.73685 207.773 4.66408L206.648 4.54689C206.328 4.51122 206.007 4.48852 205.687 4.4883H204.562C204.184 4.48806 203.804 4.48073 203.426 4.47658H202.863L202.301 4.46486C202.049 4.46209 201.788 4.49766 201.527 4.55861L200.402 4.81642C199.785 4.96038 199.162 4.94523 198.551 4.78126L197.988 4.62892L197.426 4.4883C197.16 4.41698 196.894 4.37807 196.641 4.37111L196.078 4.34767L195.516 4.33595C195.261 4.3294 195.004 4.35192 194.742 4.40626L193.617 4.64064C193.126 4.74257 192.627 4.78789 192.129 4.76955L191.004 4.72267C190.802 4.71562 190.594 4.74964 190.371 4.81642L189.246 5.14455C188.597 5.33933 187.929 5.34315 187.277 5.15626L186.715 5.00392L186.152 4.83986C185.768 4.72941 185.376 4.61824 184.992 4.50001L183.867 4.14845C183.799 4.12797 183.745 4.12204 183.668 4.14845L183.105 4.34767L182.543 4.53517C181.816 4.78193 181.064 4.75336 180.363 4.46486L179.238 3.99611L179.203 3.98439L179.18 3.99611L178.617 4.18361L178.055 4.38283C177.626 4.52968 177.188 4.65209 176.754 4.74611L175.629 4.98048C175.096 5.09578 174.552 5.12424 174.012 5.06251L173.449 5.00392L172.887 4.93361C172.35 4.87164 171.828 4.72211 171.328 4.50001L170.766 4.25392L170.226 4.01955L169.711 4.2422L169.148 4.47658C168.635 4.69177 168.093 4.82383 167.543 4.8633L166.98 4.91017L166.418 4.94533C165.681 4.99771 164.997 4.79352 164.402 4.4297L163.84 4.07814L163.277 3.7383L163.172 3.6797L162.047 3.8672C161.529 3.95003 161.007 3.95996 160.488 3.89064L159.926 3.80861L159.398 3.7383C159.381 3.74805 159.359 3.77404 159.328 3.79689L158.766 4.20705L158.203 4.62892C157.608 5.06997 156.879 5.35699 156.058 5.28517L154.933 5.19142C154.371 5.14158 153.821 4.9838 153.305 4.74611L152.18 4.23048C152.041 4.16714 151.954 4.16312 151.887 4.17189L150.762 4.31251C150.407 4.35957 150.05 4.4146 149.695 4.47658L149.133 4.58205L148.57 4.6758C147.917 4.78992 147.272 4.71949 146.66 4.4883L146.098 4.27736L145.535 4.0547C145.522 4.04981 145.507 4.05637 145.5 4.0547L145.488 4.04298L145.476 4.0547C145.471 4.05565 145.457 4.04895 145.441 4.0547L144.879 4.26564L144.316 4.46486C143.855 4.63003 143.385 4.74498 142.91 4.81642L142.348 4.89845L141.785 4.9922C141.137 5.0894 140.501 5.00212 139.898 4.76955L139.336 4.55861L138.808 4.34767L138.258 4.60548L137.695 4.8633C136.807 5.27698 135.884 5.16237 135.117 4.66408L134.555 4.28908L134.203 4.06642L133.887 4.26564L133.324 4.59376C132.566 5.03908 131.685 5.12661 130.84 4.75783L129.715 4.26564C129.623 4.22555 129.575 4.22254 129.539 4.23048L128.976 4.37111L128.414 4.50001C127.68 4.67388 126.951 4.56695 126.293 4.25392L125.73 3.99611L125.168 3.72658C125.051 3.6708 124.994 3.67292 124.957 3.6797L123.832 3.89064C123.503 3.95079 123.168 4.02092 122.836 4.1133L122.273 4.26564L121.711 4.4297C121.247 4.55844 120.778 4.63881 120.305 4.6758L119.18 4.76955C118.779 4.80078 118.373 4.81727 117.973 4.82814L117.41 4.83986L116.848 4.8633C116.426 4.87455 116.003 4.85751 115.582 4.82814L114.457 4.75783C114.176 4.73831 113.895 4.7376 113.613 4.76955L113.051 4.83986L112.488 4.89845C111.79 4.97844 111.114 4.84138 110.508 4.53517L109.945 4.2422L109.488 4.00783L109.043 4.2422L108.48 4.51173C107.846 4.82406 107.14 4.94972 106.418 4.81642L105.293 4.60548C105.174 4.58334 105.05 4.59417 104.906 4.64064L104.344 4.81642L103.781 5.00392C103.157 5.20736 102.504 5.24192 101.859 5.09767L101.297 4.96876L100.734 4.85158C100.53 4.80586 100.333 4.78993 100.137 4.81642L99.5741 4.89845L99.0116 4.96876C98.4837 5.03993 97.9545 5.03763 97.4296 4.94533L96.8671 4.83986L96.3046 4.74611C95.8342 4.66306 95.3667 4.53151 94.91 4.35939L94.3475 4.14845L93.9374 3.99611L93.4686 4.32423L92.9061 4.69923C92.2015 5.17421 91.3329 5.3598 90.4452 5.0508L89.8827 4.8633L89.3202 4.66408C89.0361 4.56519 88.758 4.50086 88.4882 4.46486L87.9257 4.38283L87.3632 4.31251C87.3099 4.30549 87.2307 4.30463 87.0936 4.37111L86.5311 4.64064L85.9686 4.92189C85.1922 5.29898 84.3422 5.31109 83.5546 4.94533L82.9921 4.6758L82.4296 4.41798C82.1513 4.28873 81.8859 4.20106 81.6327 4.14845L80.5077 3.91408C80.3092 3.87285 80.1156 3.87148 79.9218 3.90236L79.3593 3.99611L78.7968 4.07814C78.5499 4.11757 78.2943 4.19811 78.0233 4.31251L76.8983 4.78126C76.3809 4.9998 75.8383 5.13432 75.2811 5.16798L74.1561 5.2383C73.6429 5.26875 73.1258 5.22953 72.621 5.12111L72.0585 4.9922L71.496 4.87501C71.1478 4.80025 70.8004 4.73168 70.453 4.6758L69.8905 4.59376L69.328 4.50001C69.1072 4.46452 68.8804 4.46612 68.66 4.50001L67.535 4.66408C67.1136 4.72876 66.6924 4.78205 66.2694 4.8047L65.7069 4.82814L65.1444 4.8633C64.7155 4.8862 64.2842 4.88791 63.8554 4.8633L62.7304 4.79298C62.1334 4.75848 61.5541 4.59953 61.0194 4.33595L59.8944 3.77345C59.7958 3.72579 59.7575 3.73503 59.7421 3.7383L58.6171 3.97267C58.2952 4.04069 57.9704 4.13736 57.6444 4.2422L57.0819 4.41798L56.5194 4.60548C55.9919 4.77469 55.4425 4.85529 54.8905 4.83986L54.328 4.81642L53.7655 4.8047C53.4908 4.79735 53.2121 4.81644 52.9335 4.8633L51.8085 5.0508C51.0717 5.17416 50.3643 5.03277 49.7343 4.69923L49.1718 4.39455L48.6093 4.10158L48.5624 4.07814L47.4374 4.35939C46.9493 4.48402 46.4485 4.55404 45.9491 4.55861H45.3866L44.8241 4.57033C44.6024 4.57255 44.3731 4.60269 44.1327 4.6758L43.0077 5.02736C42.3132 5.24024 41.5981 5.20562 40.9218 4.95705L40.3593 4.75783L39.7968 4.54689C39.4953 4.43609 39.1972 4.35716 38.9061 4.3008L38.3436 4.19533L37.7811 4.07814C37.6391 4.05073 37.4913 4.05812 37.3358 4.10158L36.7733 4.25392L36.2108 4.41798C35.8182 4.52765 35.4205 4.62987 35.0272 4.72267L34.4647 4.85158L33.9022 4.9922C33.0777 5.18508 32.298 4.98534 31.6405 4.57033L31.078 4.21876L30.5155 3.85548C30.3318 3.73926 30.2171 3.72768 30.1639 3.72658L29.0389 3.70314C28.8249 3.6996 28.604 3.73959 28.371 3.80861L27.246 4.13673C26.8024 4.26885 26.3491 4.36648 25.8983 4.4297L24.7733 4.59376C24.2552 4.6662 23.7321 4.66023 23.2147 4.58205L22.6522 4.50001L22.0897 4.40626C21.9184 4.38031 21.7455 4.39532 21.5624 4.44142L20.4374 4.72267C19.8964 4.86046 19.3398 4.90829 18.785 4.85158L17.66 4.73439C17.4247 4.71031 17.1848 4.71533 16.9452 4.75783L16.3827 4.8633L15.8202 4.95705C15.3228 5.045 14.8223 5.07835 14.3202 5.03908L13.1952 4.94533C12.6666 4.90393 12.1491 4.78626 11.6483 4.59376L11.0858 4.38283L10.6288 4.19533L10.1249 4.50001L9.56238 4.81642C8.90331 5.19938 8.14165 5.36264 7.34754 5.1797L6.22254 4.92189C5.91941 4.85224 5.61855 4.8058 5.32019 4.78126L4.75769 4.73439L4.28894 4.68751L4.14832 4.81642L4.21863 4.94533L4.49988 5.50783C4.88185 6.25786 4.93658 7.09043 4.60535 7.88673L4.37097 8.44923L4.18347 8.88283L4.47644 9.3633L4.80457 9.9258C5.23249 10.6468 5.35771 11.4878 5.05066 12.3281L4.85144 12.8906L4.64051 13.4531C4.59582 13.5764 4.59897 13.6686 4.61707 13.7578L4.85144 14.8828C4.9432 15.3284 5.0019 15.7807 5.02722 16.2305L5.05066 16.793L5.08582 17.3555C5.11037 17.7931 5.1055 18.2306 5.0741 18.668L5.03894 19.2305L4.99207 19.793C4.95901 20.2522 4.89025 20.7111 4.78113 21.1641L4.64051 21.7266L4.5116 22.2891C4.45024 22.5438 4.42517 22.795 4.42957 23.0391L4.44129 23.6016V24.1641C4.44747 24.5024 4.46975 24.8448 4.49988 25.1836L4.54676 25.7461L4.60535 26.3086C4.64981 26.8127 4.62097 27.3204 4.53504 27.8203L4.34754 28.9453C4.30103 29.2173 4.2784 29.4863 4.28894 29.7539L4.33582 30.8789C4.35571 31.385 4.30478 31.8934 4.19519 32.3906L4.07801 32.9531L3.9491 33.5156C3.90474 33.7198 3.89958 33.9167 3.92566 34.1133L3.99597 34.6758L4.07801 35.2383C4.11578 35.5218 4.17308 35.8122 4.26551 36.1055L4.45301 36.668L4.62879 37.2305C4.77874 37.7045 4.87813 38.1956 4.92176 38.6836L5.01551 39.8086C5.04728 40.1635 5.0875 40.5199 5.13269 40.875L5.27332 42C5.34316 42.5499 5.32426 43.0993 5.20301 43.6406L4.94519 44.7656C4.90438 44.9481 4.90196 45.1275 4.93347 45.3047L5.03894 45.8672L5.13269 46.4297C5.27722 47.2492 5.0593 48.0115 4.64051 48.6445L3.89051 49.7695C3.87995 49.7857 3.86138 49.7936 3.85535 49.8047L3.96082 50.3438L4.06629 50.9063C4.17517 51.4832 4.15923 52.068 4.03113 52.6406L3.90222 53.2031L3.84363 53.4492L4.19519 53.7539L4.40613 53.9297L4.61707 53.8242L5.17957 53.4961C5.69208 53.1972 6.26857 53.0369 6.86707 53.0742L7.47644 53.1797L8.03894 53.332L8.60144 53.4961C8.68962 53.5208 8.76449 53.5252 8.85926 53.4961L9.42176 53.3203L9.98426 53.1328C10.4918 52.9734 11.0151 52.8936 11.5428 52.8867L12.1053 52.875H12.6678C13.0653 52.8698 13.4657 52.8741 13.8632 52.8867L14.4257 52.8985L14.9882 52.9219C15.4646 52.9373 15.9377 52.9985 16.4061 53.1094L16.9686 53.2383L17.8514 53.459C18.1718 53.5437 18.4913 53.6418 18.8085 53.7539L19.9335 54.1524C20.1305 54.2221 20.3094 54.2439 20.4725 54.2344L21.5975 54.1641C21.7873 54.1529 22 54.1095 22.2304 54.0117L22.7929 53.7774L23.3554 53.5313L23.9647 53.3555C24.3715 53.2824 24.7774 53.3048 25.1718 53.4141L25.7577 53.6367L26.3202 53.9297L26.7538 54.1524L27.1874 53.9297L27.7499 53.6485C28.4251 53.3001 29.1849 53.1851 29.953 53.3906L30.5155 53.543L31.078 53.6836C31.3932 53.7679 31.705 53.8406 32.0155 53.8828L32.578 53.9531L33.1405 54.0352C33.2679 54.0523 33.4012 54.0326 33.5624 53.9766L34.1249 53.7891L34.6874 53.5899C35.256 53.391 35.8541 53.3074 36.4569 53.3672L37.5819 53.4844C37.938 53.5202 38.3042 53.556 38.66 53.5781L39.2225 53.6016L39.785 53.6367C40.2848 53.6682 40.7781 53.7655 41.2616 53.918L41.8241 54.0938L42.2694 54.2344L42.8085 53.9063L43.371 53.543L43.9686 53.2383C44.5852 53.0164 45.2644 53.0242 45.9257 53.3203L46.4882 53.5781L46.8983 53.7539L47.3554 53.4844L47.9179 53.1563L48.5975 52.8633C48.8432 52.8008 49.1072 52.7799 49.3827 52.8047C49.6544 52.8297 49.9066 52.9048 50.1327 53.0039L50.7304 53.3672L51.2929 53.8008L51.8436 54.2344L52.2889 54.1406L52.8514 54.0117C53.2862 53.9121 53.7254 53.8449 54.1639 53.8008L55.2889 53.6836C55.5229 53.6599 55.7691 53.6062 56.0272 53.5078L56.5897 53.2852L57.1522 53.0742C57.9599 52.7659 58.7878 52.8467 59.5194 53.2383L60.6444 53.8477C60.8949 53.9821 61.1218 54.0566 61.3241 54.0938L61.8866 54.1992L62.4139 54.2813C62.4281 54.2752 62.4614 54.2687 62.496 54.2461L63.621 53.5195L64.2304 53.2149C64.449 53.1391 64.6834 53.085 64.9335 53.0742C65.1863 53.0638 65.4325 53.0964 65.66 53.1563L66.3046 53.4258L66.8671 53.7422L67.4296 54.0703C67.491 54.1053 67.5308 54.1047 67.535 54.1055L68.66 53.8945C68.9442 53.8396 69.2312 53.7485 69.5272 53.6367L70.6522 53.2149C71.4248 52.9228 72.2319 52.9729 72.9608 53.3203L74.0858 53.8594C74.2375 53.9311 74.3397 53.9372 74.4139 53.9297L75.5389 53.8125C75.8048 53.7857 76.0801 53.7376 76.3593 53.6485L76.9218 53.461L77.4843 53.2852C78.1111 53.0855 78.7619 53.0513 79.4061 53.2031L79.9686 53.3438L80.5311 53.4727C80.7403 53.5221 80.942 53.5308 81.1405 53.5078L81.703 53.4492L82.2655 53.3789C82.7576 53.322 83.2503 53.3303 83.7421 53.3906L84.3046 53.461L84.8671 53.5195C85.0807 53.5459 85.3039 53.5401 85.5233 53.4961L86.0858 53.3906L86.6483 53.2735C87.1407 53.1752 87.6374 53.1424 88.1366 53.168L88.6991 53.1914L89.2616 53.2266C89.5307 53.2405 89.8093 53.2231 90.0819 53.1797L90.6444 53.086L91.2069 53.0039C91.6473 52.934 92.0882 52.884 92.5311 52.875L93.6561 52.8516C94.267 52.8392 94.8585 52.9723 95.4139 53.2149L96.5389 53.707C96.7737 53.8094 96.9895 53.8559 97.1835 53.8711L98.3085 53.9649C98.6552 53.9919 99.0049 54.0034 99.3514 54.0117L99.9139 54.0352L100.476 54.0469C100.671 54.0512 100.877 54.025 101.098 53.9531L102.223 53.5781C102.928 53.348 103.655 53.3764 104.344 53.6367L105.469 54.0586C105.648 54.126 105.799 54.1393 105.937 54.1289L106.5 54.082L107.062 54.0469C107.249 54.0319 107.463 53.9763 107.695 53.8711L108.82 53.3555C109.367 53.1084 109.951 52.973 110.555 52.9688H111.117L111.68 52.957C112.129 52.954 112.58 52.9868 113.027 53.0508L114.152 53.2149C114.35 53.2429 114.546 53.2333 114.75 53.1914L115.875 52.957C116.466 52.8335 117.069 52.8416 117.656 52.9805L118.219 53.1211L118.781 53.25C119.013 53.3051 119.24 53.3236 119.461 53.3086L120.023 53.2735L120.586 53.2266C121.147 53.1885 121.699 53.2645 122.238 53.4258L123.363 53.7539L123.375 53.7656V53.7539C123.382 53.7519 123.4 53.7522 123.422 53.7422L123.984 53.4727L124.547 53.2149C125.082 52.9627 125.658 52.8643 126.234 52.9453L126.808 53.086L127.933 53.4844C128.304 53.6139 128.677 53.7329 129.047 53.8594L129.609 54.0586L130.172 54.2461C130.4 54.3243 130.614 54.3622 130.816 54.3633H131.941C132.068 54.3638 132.228 54.3384 132.422 54.2461L133.547 53.707C134.094 53.447 134.681 53.3036 135.293 53.2969L135.855 53.2852H136.418C137.022 53.2793 137.613 53.4085 138.164 53.6485L139.289 54.1406C139.319 54.1534 139.339 54.151 139.348 54.1524H139.383L139.945 53.9883L140.508 53.8125C141.024 53.6584 141.554 53.5914 142.09 53.6016H142.652L143.215 53.6133C143.553 53.6198 143.896 53.62 144.234 53.6016L144.797 53.5664L145.359 53.543C145.59 53.5301 145.834 53.476 146.086 53.3906L147.211 53.0156L147.82 52.875C148.225 52.8321 148.626 52.8775 149.004 53.0039L149.555 53.25L150.117 53.5664L150.586 53.8242L151.019 53.6367L151.582 53.3906C152.154 53.1371 152.764 53.0143 153.398 53.0508L153.961 53.0742L154.523 53.1094C154.998 53.1368 155.475 53.2121 155.941 53.332L156.504 53.4844L157.066 53.625C157.122 53.6386 157.174 53.6373 157.266 53.6016L157.828 53.3789L158.391 53.168C158.931 52.9569 159.498 52.8464 160.078 52.8516H161.203C161.696 52.8562 162.185 52.9208 162.668 53.0391L163.793 53.3203C164.233 53.4284 164.673 53.5624 165.105 53.7305L166.23 54.1758C166.407 54.2444 166.556 54.2573 166.687 54.2461L167.812 54.1524C168.038 54.133 168.275 54.0729 168.527 53.9766L169.652 53.5547C170.222 53.3369 170.821 53.2362 171.433 53.2852L172.558 53.3789C172.838 53.4012 173.121 53.398 173.402 53.3672L173.965 53.2969L174.527 53.2383C175.081 53.178 175.638 53.221 176.18 53.3555L177.305 53.6367C177.339 53.6448 177.382 53.6509 177.469 53.6133L178.594 53.1211C179.229 52.846 179.914 52.7576 180.609 52.8985L181.172 53.0156L181.734 53.1211C182.25 53.2257 182.753 53.408 183.234 53.6485L184.406 54.2344L184.969 54.0703L185.531 53.918C186.075 53.765 186.633 53.7046 187.195 53.7539L188.32 53.8477C188.569 53.8694 188.818 53.8648 189.07 53.8242L189.633 53.7305L190.195 53.6485C190.592 53.5844 190.993 53.5189 191.391 53.4727L191.953 53.4141L192.516 53.3438C193.137 53.2718 193.75 53.3531 194.332 53.5664L194.894 53.7774L195.457 53.9766C195.602 54.0296 195.714 54.0409 195.82 54.0235L196.945 53.836C197.219 53.791 197.501 53.7207 197.789 53.6133L198.914 53.1914L199.5 53.0391C200.087 52.9497 200.678 53.0555 201.223 53.3203L202.348 53.8594C202.475 53.9208 202.545 53.9241 202.594 53.918L203.719 53.7539C204.202 53.6845 204.698 53.6689 205.183 53.707L206.308 53.8008C206.739 53.8348 207.169 53.8924 207.598 53.9766L208.16 54.0938L208.723 54.1992C208.978 54.2497 209.235 54.2695 209.484 54.2578L210.047 54.2227L210.609 54.1992C210.893 54.1855 211.186 54.1492 211.476 54.082L212.601 53.8242C212.945 53.7446 213.287 53.6451 213.633 53.543L214.758 53.2149C215.188 53.0876 215.624 52.984 216.058 52.9102L217.183 52.7227C217.66 52.6419 218.144 52.6095 218.625 52.6289L219.75 52.6758C220.445 52.7043 221.08 52.9424 221.637 53.3086L222.726 54.0352L223.183 53.8945L223.746 53.7305C224.426 53.5216 225.126 53.5258 225.797 53.7539L226.359 53.9531L226.922 54.1406C227.023 54.1751 227.097 54.174 227.18 54.1524L227.742 54.0117L228.305 53.8594C228.934 53.694 229.575 53.701 230.203 53.8711L231.199 54.1406L231.75 53.7539L232.312 53.3438C232.663 53.0941 233.097 52.9061 233.59 52.8516C234.089 52.7972 234.559 52.8946 234.973 53.0977L235.535 53.3789L236.098 53.6485C236.224 53.7108 236.293 53.7132 236.332 53.707L237.457 53.5195C238.06 53.4249 238.667 53.473 239.25 53.6485L239.812 53.8242L240.375 53.9883C240.49 54.0223 240.586 54.0267 240.691 54L241.254 53.8594L241.816 53.707C242.402 53.5582 243.003 53.5461 243.598 53.6602L244.723 53.8711C244.866 53.8985 245.011 53.9026 245.168 53.8594L245.73 53.6953L246.293 53.543C246.656 53.4427 247.019 53.3342 247.383 53.2266L248.508 52.8985C249.257 52.6766 250.014 52.7517 250.699 53.0742L251.824 53.6133C251.849 53.6249 251.872 53.6338 251.883 53.6367H251.918L252.48 53.4727L253.043 53.3203C253.678 53.1459 254.33 53.1448 254.965 53.3203L255.527 53.4844L256.09 53.6367C256.314 53.6984 256.527 53.7177 256.734 53.707L257.297 53.6836L257.859 53.6485C258.092 53.6364 258.333 53.592 258.586 53.5078L259.711 53.1328C260.388 52.907 261.093 52.9019 261.773 53.1211L262.336 53.3086L262.898 53.4844C263.2 53.5815 263.496 53.6506 263.789 53.6953L264.351 53.7891L264.914 53.8711C264.98 53.8811 265.062 53.8721 265.195 53.8125L265.758 53.5664L266.32 53.3086C266.893 53.0521 267.5 52.9944 268.09 53.1211L268.664 53.3086L269.789 53.8008C269.903 53.8511 269.972 53.8572 270.023 53.8477L270.586 53.7305L271.148 53.625C271.534 53.5498 271.923 53.4798 272.308 53.4141L272.871 53.3203L273.433 53.2149C274.018 53.1152 274.606 53.1505 275.18 53.2969L276.305 53.5781C276.53 53.6358 276.75 53.6628 276.961 53.6485L277.523 53.6016L278.086 53.5664C278.496 53.5386 278.906 53.5289 279.316 53.5313H280.441C280.623 53.5324 280.823 53.5051 281.039 53.4258L282.164 53.0039C282.861 52.7464 283.54 52.8207 284.133 53.086L284.695 53.4141L285.82 54.2344C285.888 54.2837 285.939 54.2961 285.961 54.3047L286.512 54.2813L287.074 54.2344C287.4 54.2096 287.731 54.1629 288.058 54.1055L289.183 53.918C289.474 53.8667 289.774 53.7884 290.074 53.6836L291.199 53.2852C291.755 53.0921 292.333 53.0068 292.922 53.0508L293.484 53.0977L294.047 53.1328C294.523 53.1688 294.998 53.2602 295.465 53.3906L296.027 53.543L296.578 53.6953C296.586 53.6922 296.607 53.693 296.625 53.6836L297.75 53.0977L298.359 52.8633C298.777 52.7572 299.206 52.7497 299.625 52.8516L300.246 53.086L300.808 53.3789L301.23 53.5899L301.266 53.5781L301.394 53.4961L301.523 53.0156L301.664 52.4531C301.759 52.0724 301.858 51.6853 301.957 51.3047L302.109 50.7422L302.226 50.2617L301.851 49.6992L301.488 49.1367C301.034 48.4476 300.844 47.6137 301.113 46.7461L301.465 45.6211C301.525 45.4288 301.539 45.2499 301.523 45.082L301.465 44.5195L301.418 43.957C301.386 43.6188 301.335 43.2768 301.277 42.9375L301.09 41.8125C300.961 41.0539 301.131 40.3359 301.488 39.7031L302.121 38.5781C302.228 38.3881 302.248 38.2469 302.25 38.1563L302.273 37.0313C302.274 36.9482 302.249 36.8296 302.156 36.6563L301.547 35.5313C301.26 35.0011 301.074 34.4226 301.019 33.8203L300.973 33.2578L300.914 32.6953C300.851 31.9964 301.02 31.3356 301.336 30.7383L301.629 30.1758L301.933 29.6133C302.044 29.4036 302.078 29.232 302.086 29.0977L302.156 27.9727C302.161 27.879 302.144 27.7556 302.062 27.586L301.523 26.461C301.251 25.8941 301.106 25.2841 301.125 24.6445L301.148 23.5195C301.165 22.9542 301.299 22.405 301.512 21.8789L301.734 21.3164L301.969 20.7539C302.018 20.6316 302.018 20.5455 302.004 20.4727L301.887 19.9102L301.781 19.3477C301.678 18.8162 301.664 18.2784 301.734 17.7422L301.805 17.1797L301.887 16.6172C301.892 16.5776 301.886 16.5064 301.816 16.3711L301.535 15.8086L301.242 15.2461C300.893 14.5652 300.792 13.8009 301.008 13.0313L301.312 11.9063C301.392 11.6234 301.443 11.3473 301.465 11.0742L301.558 9.94923C301.598 9.45693 301.69 8.96211 301.84 8.48439L302.016 7.92189L302.203 7.35939C302.26 7.17747 302.266 7.01287 302.25 6.85548L302.133 5.73048C302.093 5.3628 302.044 5.01218 302.004 4.68751L301.945 4.18361C301.927 4.1765 301.905 4.17922 301.887 4.17189L300.762 3.72658C300.606 3.66473 300.482 3.65558 300.375 3.66798Z" fill="black"/>
</svg>
