<svg width="171" height="58" viewBox="0 0 171 58" fill="none" xmlns="http://www.w3.org/2000/svg">
<path d="M163.417 0.714767L163.979 0.749924L164.542 0.796799C165.228 0.84762 165.857 1.10409 166.405 1.47649L166.967 1.85149L167.53 2.2382C167.898 2.48847 168.138 2.63413 168.268 2.70695L168.549 2.87102L168.842 3.03508C169.915 3.63845 169.868 4.80639 169.792 5.2968L169.698 5.8593L169.616 6.4218C169.538 6.9216 169.392 7.41031 169.194 7.88664L168.725 9.01164C168.684 9.10926 168.69 9.16269 168.702 9.21086L168.831 9.77336L168.971 10.3359C169.064 10.7183 169.155 11.1017 169.241 11.4843L169.358 12.0468L169.487 12.6093C169.617 13.1875 169.627 13.7743 169.51 14.3554L169.276 15.4804C169.263 15.5447 169.263 15.6219 169.311 15.7382L169.78 16.8632C170.024 17.4534 170.122 18.0816 170.049 18.7265L169.991 19.289L169.92 19.8515C169.891 20.1119 169.902 20.3762 169.932 20.6366L169.991 21.1991L170.061 21.7616C170.125 22.318 170.078 22.8815 169.944 23.4257L169.815 23.9882L169.674 24.5507C169.598 24.8615 169.545 25.1699 169.51 25.4765L169.44 26.039L169.381 26.6015C169.348 26.8964 169.332 27.1984 169.346 27.4921L169.381 28.0546L169.405 28.6171C169.428 29.0978 169.401 29.5816 169.323 30.0585L169.135 31.1835V31.207C169.138 31.2222 169.157 31.2691 169.194 31.3359L169.499 31.8984L169.815 32.4609C170.131 33.0282 170.323 33.6552 170.319 34.3241V34.8866L170.307 35.4491C170.303 36.0805 170.141 36.6864 169.862 37.2421L169.299 38.3671L169.276 38.3905L169.452 38.9413L169.616 39.5038C169.839 40.2499 169.769 41.0084 169.452 41.6952L169.194 42.2577L168.995 42.6445L169.276 43.1015L169.616 43.664C170.003 44.3048 170.189 45.0528 170.038 45.8437L169.92 46.4062L169.815 46.9687C169.766 47.2211 169.754 47.4725 169.768 47.7187L169.803 48.2812L169.827 48.8437C169.863 49.4564 169.761 50.0601 169.534 50.6249L169.311 51.1874L169.088 51.7265L169.557 52.8515C169.725 53.252 169.811 53.7301 169.721 54.2343C169.631 54.7364 169.387 55.1475 169.088 55.4648L168.256 56.3437C167.968 56.649 167.588 56.914 167.12 57.0468C166.649 57.1803 166.187 57.1544 165.772 57.0351L164.647 56.707C164.296 56.6058 163.943 56.5213 163.592 56.4374L163.03 56.2968L162.467 56.1679C162.305 56.1292 162.144 56.1234 161.987 56.1562L160.862 56.3905C160.408 56.4846 159.95 56.5373 159.491 56.5546L158.366 56.6015C157.883 56.6195 157.402 56.5816 156.924 56.496L156.362 56.4023L155.799 56.2968C155.592 56.2595 155.385 56.2629 155.178 56.2968L154.616 56.3905L154.053 56.4726C153.618 56.5441 153.179 56.5964 152.741 56.6132L152.178 56.6366L151.616 56.6484C151.118 56.6673 150.618 56.6329 150.127 56.5312L149.002 56.2968C148.708 56.2359 148.413 56.2026 148.124 56.1913L146.999 56.1445C146.748 56.135 146.494 56.1502 146.237 56.203L145.112 56.4374C144.589 56.5447 144.06 56.5762 143.53 56.5195L142.967 56.4491L142.405 56.3905C142.25 56.3738 142.083 56.3908 141.901 56.4491L141.338 56.6366L140.776 56.8124C140.294 56.9683 139.798 57.0688 139.299 57.1054L138.737 57.1405L138.174 57.1874C137.679 57.2234 137.178 57.1999 136.686 57.1171L135.561 56.9296C135.05 56.8435 134.555 56.6787 134.073 56.4609L133.51 56.2148L132.948 55.957C132.927 55.9476 132.907 55.9468 132.901 55.9452H132.889L131.764 56.2968C131.378 56.4202 130.991 56.5474 130.604 56.6601L129.479 56.9882C128.97 57.1361 128.447 57.204 127.92 57.1991H127.358L126.795 57.1874C126.429 57.1841 126.06 57.1849 125.694 57.1874L125.131 57.1991H124.569C124.008 57.2027 123.458 57.1073 122.928 56.9179L122.366 56.707L121.803 56.5077C121.588 56.4309 121.39 56.3997 121.206 56.4023L120.643 56.414H120.081C119.815 56.4178 119.546 56.4564 119.272 56.5195L118.147 56.7773C117.516 56.9225 116.878 56.9022 116.26 56.7187L115.698 56.5429L115.135 56.3788C114.889 56.3054 114.65 56.2772 114.42 56.2734L113.295 56.2499C112.844 56.2435 112.384 56.2072 111.936 56.1327L110.811 55.9452C110.792 55.9421 110.745 55.9349 110.635 55.9921L109.51 56.578C108.781 56.9604 107.955 57.0434 107.155 56.7421L106.03 56.3202L105.479 56.5663L104.917 56.8124C104.104 57.1675 103.241 57.1119 102.479 56.707L101.917 56.414L101.483 56.1796L101.061 56.4023L100.499 56.6952C99.9612 56.9732 99.3841 57.1516 98.7759 57.1874L98.2134 57.2226L97.6509 57.246C96.9226 57.2885 96.249 57.0781 95.6587 56.7187L95.0962 56.3788L94.7564 56.1679L94.4165 56.3905L93.854 56.7421C93.1431 57.1878 92.2979 57.3476 91.44 57.0468L90.315 56.6484C90.2205 56.6152 90.1549 56.6163 90.0806 56.6366L88.9556 56.9413C88.3337 57.1113 87.6951 57.1215 87.0689 56.9648L85.9439 56.6835C85.7735 56.6413 85.6131 56.6426 85.4517 56.6718L84.8892 56.7655L84.3267 56.871C83.542 57.0125 82.7962 56.8316 82.1587 56.4491L81.0337 55.7695C80.8593 55.6656 80.7529 55.6526 80.6939 55.6523H79.5689C79.3665 55.6529 79.1528 55.6921 78.9244 55.7695L77.7994 56.1445C77.3823 56.2864 76.9542 56.4063 76.5337 56.5077L75.4087 56.789C74.8808 56.9158 74.343 56.9548 73.8033 56.9062L73.2408 56.8593L72.6783 56.8007C72.3353 56.7696 71.9896 56.751 71.647 56.7421L70.522 56.7187C70.1078 56.708 69.6935 56.68 69.2798 56.6366L68.1548 56.5195C67.932 56.4961 67.7043 56.4972 67.4751 56.5429L66.3501 56.7773C65.7021 56.9055 65.0566 56.8422 64.44 56.6249L63.8775 56.4257L63.315 56.2382C63.0076 56.1298 62.6995 56.0377 62.4009 55.9804L61.2759 55.7695C61.046 55.7256 60.8207 55.7104 60.5962 55.7343L60.0337 55.8046L59.4712 55.8632C59.2337 55.8886 58.9827 55.9504 58.7212 56.0507L57.5962 56.4726C57.1381 56.6483 56.6745 56.7874 56.2017 56.871L55.6392 56.9648L55.0767 57.0702C54.2996 57.2071 53.5564 57.0235 52.9205 56.6484L52.358 56.3202L51.7955 55.9804C51.6278 55.8823 51.5268 55.8734 51.479 55.8749L50.9165 55.8984L50.354 55.9101C50.1039 55.9181 49.8435 55.9546 49.5806 56.0273L49.0181 56.1913L48.4556 56.3437C48.0214 56.4635 47.5824 56.5513 47.1431 56.6132L46.0181 56.7773C45.5152 56.8479 45.0102 56.8505 44.5064 56.789L43.3814 56.6484C43.0421 56.6068 42.7004 56.5832 42.3619 56.5663L41.7994 56.5312L41.2369 56.5077C40.8157 56.4868 40.3912 56.4504 39.9712 56.3905L38.8462 56.2265C38.4433 56.169 38.0412 56.0975 37.6392 56.0155L37.0767 55.8984L36.5259 55.7812C36.5131 55.786 36.4897 55.8076 36.4556 55.828L35.3306 56.5077C34.9437 56.7395 34.4825 56.8923 33.9712 56.8827C33.4589 56.8728 33.0001 56.702 32.6236 56.4609L31.4986 55.7343C31.332 55.6284 31.2404 55.6173 31.2056 55.6171L30.6431 55.6288H30.0806C29.9737 55.6299 29.8263 55.6573 29.6353 55.7577L29.0728 56.0624L28.5103 56.3554C27.8048 56.727 27.0054 56.8272 26.2134 56.5663L25.0884 56.1913C24.7696 56.0865 24.4526 56.0083 24.1392 55.9452L23.0142 55.7109C22.8584 55.6797 22.7069 55.684 22.5455 55.7226L21.983 55.8632L21.4205 55.9921C20.9168 56.1146 20.4005 56.1745 19.8853 56.1562L18.7603 56.1093C18.3167 56.0932 17.8651 56.0567 17.4244 55.9804L16.8619 55.8749L16.2994 55.7812C16.2154 55.7675 16.1247 55.7768 15.9947 55.828L14.8697 56.2734C14.3885 56.4645 13.8854 56.5922 13.3814 56.6601L12.8189 56.7421L12.2564 56.8124C11.8121 56.872 11.3667 56.9004 10.9205 56.8945L10.358 56.8827H9.79545C9.29053 56.8757 8.78695 56.7941 8.29545 56.6601L7.17045 56.3554C7.13414 56.3455 7.09908 56.345 7.01811 56.3788L5.89311 56.8476C5.21529 57.1316 4.22001 57.2484 3.40873 56.5077L3.08061 56.203L2.75248 55.9101C2.04864 55.267 1.93661 54.3993 2.06108 53.6835L2.15483 53.121L2.2603 52.5585C2.29175 52.3794 2.28963 52.1922 2.24858 52.0077L1.99077 50.8827C1.86937 50.3343 1.85138 49.7746 1.93217 49.2187L2.09623 48.0937C2.12248 47.9101 2.1068 47.7242 2.06108 47.5312L1.80327 46.4062C1.66761 45.833 1.65094 45.2518 1.75639 44.6718L1.85014 44.1093L1.95561 43.5468C2.01938 43.1974 2.07475 42.8409 2.11967 42.4921L2.2603 41.3671C2.287 41.1573 2.28011 40.9497 2.23686 40.7343L2.13139 40.1718L2.0142 39.6093C1.92707 39.1756 1.87195 38.7335 1.83842 38.2968L1.74467 37.1718C1.72086 36.8649 1.67983 36.5563 1.61577 36.246L1.38139 35.121C1.24828 34.4782 1.29242 33.8285 1.49858 33.2109L1.87358 32.0859C1.97419 31.7843 2.0486 31.4875 2.09623 31.1952L2.28373 30.0702C2.3073 29.9245 2.29607 29.7773 2.24858 29.6132L1.92045 28.4882C1.82786 28.172 1.70646 27.8505 1.56889 27.5273L1.10014 26.4023C0.741399 25.5595 0.825231 24.6828 1.2642 23.9296L1.59233 23.3671L1.83842 22.957L1.62748 22.582L1.3228 22.0195C1.03358 21.4783 0.855048 20.892 0.818891 20.2734L0.748578 19.1484C0.725374 18.7509 0.706591 18.3506 0.701703 17.953V17.3905L0.689985 16.828C0.685335 16.4492 0.690805 16.0702 0.689985 15.6913L0.678266 15.1288V14.5663C0.67749 14.2073 0.678795 13.8473 0.666547 13.4882L0.619672 12.3632C0.606092 11.9649 0.6024 11.5663 0.607953 11.1679L0.631391 10.0429C0.639334 9.47557 0.752671 8.92047 0.959516 8.39055L1.18217 7.82805L1.39311 7.26555C1.46204 7.08896 1.48622 6.93929 1.47514 6.80852L1.38139 5.68352C1.32816 5.0446 1.4383 4.42198 1.72123 3.84367L1.8267 3.64445C1.70338 3.38904 1.5758 3.02712 1.70952 2.57805C1.89951 1.94373 2.40645 1.69695 2.52983 1.64055C2.70469 1.56088 2.85741 1.53327 2.91655 1.52336C3.04615 1.50187 3.1549 1.49995 3.1978 1.49992H3.60795C3.87979 1.50075 4.26472 1.58613 4.60405 1.8632L5.04936 1.96867C5.17045 1.9993 5.28694 2.00346 5.41264 1.96867L5.97514 1.81633L6.53764 1.65227C7.04816 1.51125 7.56975 1.45241 8.09623 1.46477L9.22123 1.4882C9.55704 1.49609 9.89312 1.49366 10.229 1.47649L10.7915 1.44133L11.354 1.41789C11.7704 1.39645 12.1915 1.39251 12.608 1.40617L13.1705 1.41789L13.733 1.44133C14.2522 1.45845 14.7683 1.55184 15.2681 1.71086L16.3931 2.06242C16.4485 2.0799 16.4888 2.08708 16.5572 2.06242L17.1197 1.85149L17.6822 1.65227C18.1019 1.50113 18.5235 1.37078 18.9478 1.26555L20.0728 0.984299L20.7056 0.902267C21.3216 0.894231 21.8976 1.09924 22.3931 1.42961L22.9556 1.80461L23.2603 2.01555L23.565 1.82805L24.1275 1.46477C24.6789 1.11347 25.3047 0.882291 25.979 0.843674L27.104 0.773361C27.8554 0.731309 28.5422 0.974636 29.1314 1.3593L30.2564 2.08586L30.2798 2.1093L30.7837 1.99211L31.3462 1.8632C31.7012 1.78054 32.0571 1.69054 32.4126 1.59367L32.9751 1.42961L33.5376 1.27727C33.9633 1.16121 34.3974 1.07645 34.8267 1.00774L35.9517 0.820236C36.5466 0.725508 37.1432 0.762204 37.7212 0.925705L38.8462 1.25383C39.1318 1.33442 39.4141 1.38257 39.69 1.40617L40.815 1.49992C41.1629 1.52967 41.5103 1.55821 41.858 1.57024L42.4205 1.58195L42.983 1.60539C43.2008 1.61288 43.4291 1.58667 43.6626 1.52336L44.7876 1.21867C45.3312 1.07039 45.8912 1.0135 46.4517 1.06633L47.0142 1.12492L47.5767 1.1718C48.0485 1.21631 48.521 1.30764 48.983 1.44133L50.108 1.76945C50.1515 1.78156 50.188 1.78551 50.2603 1.75774L51.3853 1.31242C51.875 1.12042 52.382 0.99353 52.897 0.937424L54.022 0.820236C54.4853 0.769964 54.9524 0.75255 55.4165 0.78508L55.979 0.831955L56.5415 0.867111C56.9396 0.895017 57.3391 0.937793 57.7369 0.984299L58.2994 1.04289L58.8619 1.1132C59.1633 1.14836 59.4641 1.15641 59.7642 1.14836L60.8892 1.12492C61.4947 1.10817 62.0921 1.22035 62.647 1.45305L63.2095 1.68742L63.772 1.93352C63.9198 1.99438 64.0304 2.00365 64.1236 1.99211L65.2486 1.85149C65.6074 1.80642 65.9677 1.75565 66.3267 1.69914L67.4517 1.51164C67.8185 1.4539 68.1865 1.39947 68.5533 1.33586L69.1158 1.24211L69.6783 1.13664C70.1988 1.04636 70.725 1.03551 71.2486 1.10149L72.3736 1.24211C72.6597 1.27818 72.9446 1.29163 73.229 1.27727L73.7915 1.24211L74.354 1.21867C74.9867 1.18608 75.6008 1.3153 76.1705 1.57024L76.733 1.82805L77.2603 2.06242L77.7994 1.83977L78.3619 1.60539C79.0635 1.31318 79.8125 1.28623 80.5415 1.53508L81.104 1.72258L81.6665 1.9218C81.8938 1.99967 82.1106 2.02657 82.3111 2.02727H83.4361C83.4881 2.02737 83.597 2.01955 83.7759 1.91008L84.3384 1.55852L84.9009 1.21867C85.3082 0.968854 85.8042 0.804397 86.354 0.843674C86.6245 0.863554 86.8773 0.936737 87.104 1.03117L87.7134 1.38274L88.2759 1.81633L88.6978 2.14445L89.0376 2.00383L89.6001 1.75774C90.0888 1.54931 90.5939 1.40502 91.1119 1.33586L91.6744 1.26555L92.2369 1.18352C92.9805 1.08428 93.6818 1.2665 94.2994 1.61711L94.8619 1.93352L95.1197 2.09758L95.4712 1.82805L96.0337 1.40617L96.69 1.04289C96.935 0.950393 97.2048 0.890296 97.4986 0.890549C97.795 0.891296 98.0726 0.9482 98.3189 1.04289L98.9751 1.41789L99.5376 1.83977L99.7837 2.03899L100.018 1.87492L100.581 1.47649L101.19 1.16008C101.414 1.07558 101.656 1.01047 101.917 0.996017C102.18 0.981544 102.431 1.01517 102.667 1.07805L103.323 1.3593L104.448 2.01555C104.661 2.14127 104.826 2.19028 104.952 2.20305L105.514 2.26164L106.077 2.30852C106.08 2.3088 106.142 2.32618 106.288 2.2382L107.413 1.55852L107.975 1.28899C108.364 1.15152 108.774 1.09881 109.194 1.14836L109.838 1.3007L110.401 1.51164L110.928 1.72258L110.94 1.71086L112.065 1.19524C112.694 0.9077 113.38 0.798029 114.081 0.925705L115.206 1.13664C115.482 1.18685 115.755 1.21225 116.026 1.20695L117.151 1.18352C117.436 1.17764 117.728 1.1466 118.018 1.08977L118.581 0.97258L119.143 0.867111C119.702 0.757009 120.27 0.752114 120.831 0.855392L121.956 1.06633C122.344 1.13809 122.739 1.20644 123.127 1.28899L123.69 1.40617L124.252 1.53508C124.689 1.62811 125.123 1.7491 125.553 1.89836L126.116 2.08586L126.678 2.28508C126.806 2.32955 126.907 2.32924 127.006 2.30852L128.131 2.07414C128.702 1.95537 129.282 1.96104 129.854 2.07414L130.417 2.17961L130.932 2.2968C130.942 2.2934 130.963 2.27516 131.002 2.24992L131.565 1.89836L132.127 1.53508C132.632 1.21374 133.214 1.03145 133.827 1.05461L134.46 1.14836L135.585 1.45305C135.803 1.51227 136.015 1.53673 136.217 1.52336L137.342 1.45305C137.892 1.41726 138.44 1.46739 138.971 1.61711L139.534 1.78117L140.096 1.93352C140.321 1.99647 140.534 2.02559 140.741 2.01555L141.303 1.99211L141.866 1.95695C142.122 1.94431 142.383 1.90394 142.651 1.82805L143.213 1.66399L143.776 1.51164C144.532 1.29755 145.286 1.3908 145.967 1.72258L147.092 2.26164C147.241 2.33387 147.333 2.33901 147.397 2.33195L148.522 2.21477C148.963 2.16644 149.405 2.14455 149.846 2.15617L150.409 2.16789L150.971 2.19133C151.321 2.20072 151.676 2.1996 152.026 2.19133L153.151 2.16789C153.331 2.1636 153.528 2.11644 153.749 2.02727L154.874 1.58195C155.56 1.3044 156.29 1.264 157.006 1.4882L158.131 1.83977C158.368 1.91404 158.596 1.94464 158.811 1.94524H159.936C160.011 1.94536 160.131 1.9299 160.311 1.82805L160.874 1.49992L161.436 1.18352C162.029 0.84453 162.703 0.663034 163.417 0.714767ZM163.206 3.70305C163.171 3.70052 163.087 3.69976 162.936 3.78508L162.374 4.1132L161.811 4.42961C161.244 4.75342 160.61 4.94586 159.936 4.94524H158.811C158.278 4.94437 157.752 4.85956 157.241 4.69914L156.116 4.34758C156.092 4.34009 156.075 4.33582 156.069 4.33586C156.064 4.33608 156.041 4.34226 155.999 4.3593L155.436 4.58195L154.874 4.81633C154.344 5.03021 153.79 5.15443 153.221 5.16789L152.096 5.19133C151.698 5.20075 151.299 5.20193 150.901 5.19133L150.338 5.16789L149.776 5.15617C149.47 5.14796 149.158 5.15766 148.85 5.19133L148.288 5.26164L147.725 5.32024C147.04 5.39535 146.381 5.26103 145.78 4.96867L145.217 4.68742L144.655 4.41789C144.632 4.40683 144.617 4.39711 144.608 4.39445H144.596L144.034 4.55852L143.471 4.71086C142.991 4.8469 142.499 4.93299 142.006 4.95695L141.444 4.98039L140.881 5.01555C140.34 5.04158 139.8 4.97562 139.276 4.82805L138.713 4.66399L138.151 4.51164C137.935 4.45115 137.728 4.42826 137.53 4.44133L136.405 4.51164C135.86 4.54711 135.316 4.49151 134.788 4.34758L134.225 4.19524L133.733 4.05461L133.182 4.42961L132.62 4.78117C131.976 5.19069 131.208 5.3993 130.393 5.2382L129.831 5.12102L129.268 5.01555C129.091 4.98076 128.919 4.97838 128.741 5.01555L127.616 5.24992C126.966 5.38532 126.315 5.33661 125.694 5.12102L125.131 4.9218L124.569 4.7343C124.251 4.62385 123.932 4.53114 123.62 4.46477L122.495 4.23039C122.135 4.15384 121.776 4.07426 121.417 4.00774L120.854 3.90227L120.292 3.80852C120.104 3.77383 119.918 3.77167 119.729 3.80852L119.167 3.91399L118.604 4.03117C118.147 4.1212 117.683 4.17375 117.221 4.18352L116.096 4.20695C115.619 4.21679 115.139 4.17579 114.667 4.08977L113.542 3.87883C113.494 3.87039 113.426 3.87124 113.307 3.9257L112.182 4.44133C111.459 4.77206 110.669 4.81774 109.909 4.53508L109.346 4.32414L108.901 4.14836L108.397 4.46477L107.835 4.80461C107.232 5.16862 106.54 5.36798 105.795 5.2968L105.233 5.2382L104.67 5.19133C104.047 5.13092 103.458 4.91991 102.924 4.60539L102.362 4.27727L102.057 4.08977L101.729 4.33586L101.167 4.72258C100.774 4.99714 100.278 5.19737 99.7017 5.17961C99.1301 5.16179 98.6437 4.93539 98.272 4.65227L97.7095 4.23039L97.4869 4.05461L97.2759 4.23039L96.7134 4.65227C96.359 4.91989 95.9144 5.14195 95.3892 5.19133C94.8531 5.24169 94.3622 5.09836 93.9478 4.8632L92.8228 4.23039C92.6976 4.15923 92.6448 4.1585 92.6353 4.16008L92.0728 4.24211L91.5103 4.31242C91.28 4.34316 91.0318 4.41232 90.772 4.52336L90.2095 4.75774L89.647 5.00383C88.6928 5.41001 87.7569 5.17724 87.0337 4.62883L86.4712 4.20695L86.1548 3.96086L85.9087 4.12492L85.3462 4.46477C84.7768 4.81408 84.1328 5.028 83.4361 5.02727H82.3111C81.7646 5.02623 81.2253 4.93511 80.7056 4.75774L80.1431 4.55852L79.5806 4.37102L79.5572 4.3593C79.5519 4.3605 79.5292 4.36313 79.5103 4.37102L78.9478 4.60539L78.3853 4.85149C77.6261 5.16732 76.8221 5.1494 76.0767 4.81633L75.5142 4.55852L74.9517 4.31242C74.7751 4.23316 74.6328 4.21348 74.5181 4.21867L73.9556 4.24211L73.3931 4.27727C72.9292 4.30117 72.4608 4.27694 71.9986 4.21867L70.8736 4.07805C70.6475 4.04955 70.4231 4.06178 70.1939 4.10149L69.0689 4.28899C68.6868 4.35525 68.3026 4.41631 67.9205 4.47649L67.358 4.57024L66.7955 4.65227C66.4051 4.71372 66.0141 4.779 65.6236 4.82805L64.4986 4.96867C63.8434 5.05096 63.1982 4.94996 62.6001 4.69914L62.0376 4.45305L61.4751 4.21867C61.2853 4.13997 61.1245 4.11006 60.983 4.1132L60.4205 4.13664L59.858 4.14836C59.4105 4.16074 58.9564 4.14193 58.5103 4.08977L57.9478 4.01945L57.3853 3.96086C57.0337 3.91977 56.6819 3.88001 56.3306 3.85539L55.2056 3.78508C54.9206 3.76513 54.636 3.76591 54.3501 3.7968L53.2251 3.91399C52.9923 3.93925 52.7448 4.00078 52.4869 4.10149L51.3619 4.5468C50.6896 4.81039 49.9675 4.85583 49.2642 4.65227L48.1392 4.32414C47.8527 4.24151 47.5721 4.18619 47.2955 4.16008L46.733 4.1132L46.1705 4.05461C45.9818 4.03681 45.79 4.0574 45.5845 4.1132L44.4595 4.41789C43.946 4.55798 43.4185 4.62309 42.8892 4.60539L41.7642 4.55852C41.3636 4.54475 40.9575 4.52245 40.5572 4.4882L39.4322 4.39445C38.9594 4.35394 38.489 4.2676 38.0259 4.13664L37.4634 3.97258L36.9009 3.82024C36.7305 3.77222 36.5741 3.76049 36.4205 3.78508L35.2955 3.97258C34.9775 4.0236 34.6561 4.0843 34.3345 4.1718L33.772 4.32414L33.2095 4.4882C32.8166 4.59532 32.4193 4.68957 32.0259 4.78117L30.9009 5.03899C30.0624 5.23424 29.2723 5.03357 28.6158 4.60539L28.0533 4.23039L27.4908 3.86711C27.4075 3.81284 27.3454 3.79413 27.315 3.78508C27.2898 3.77799 27.2746 3.77299 27.2681 3.77336L26.1431 3.84367C26.0672 3.84873 25.9386 3.87289 25.7447 3.99602L25.1822 4.3593L24.6197 4.71086C24.2315 4.95817 23.7568 5.12913 23.2251 5.12102C22.6954 5.11281 22.2324 4.9283 21.854 4.6757L20.729 3.9257L20.7173 3.91399L20.2369 4.04289L19.6744 4.18352C19.351 4.26367 19.018 4.35822 18.69 4.47649L18.1275 4.6757L17.565 4.88664C16.8857 5.13016 16.1709 5.1419 15.479 4.9218L14.354 4.57024C14.1051 4.49112 13.8689 4.44916 13.6392 4.44133L13.0767 4.41789L12.5142 4.40617C12.1831 4.39525 11.8493 4.38926 11.5181 4.40617L10.9556 4.44133L10.3931 4.46477C9.98076 4.48601 9.56339 4.49788 9.15092 4.4882L8.02592 4.46477C7.80327 4.45954 7.57318 4.48076 7.33452 4.5468L6.77202 4.69914L6.20952 4.8632C5.65604 5.01595 5.09308 5.01785 4.53373 4.91008L4.41655 5.15617C4.3745 5.24184 4.36054 5.32964 4.36967 5.43742L4.46342 6.56242C4.51544 7.18 4.41671 7.78339 4.19389 8.35539L3.74858 9.48039C3.66353 9.69829 3.63459 9.89688 3.63139 10.078L3.60795 11.203C3.60306 11.5528 3.6078 11.908 3.61967 12.2577L3.66655 13.3827C3.67983 13.7722 3.67738 14.1652 3.67827 14.5546V15.1171L3.68998 15.6796C3.69078 16.0492 3.68544 16.4233 3.68998 16.7929L3.7017 17.3554V17.9179C3.70602 18.2691 3.72807 18.6212 3.74858 18.9726L3.77202 19.5351L3.80717 20.0976C3.81483 20.2286 3.86039 20.3935 3.97123 20.6015L4.2642 21.164L4.56889 21.7265C5.02085 22.5721 4.9843 23.503 4.5103 24.3163L4.18217 24.8788L3.90092 25.3593L4.10014 25.7929L4.33452 26.3554C4.51535 26.7807 4.67669 27.2122 4.80327 27.6445L5.13139 28.7695C5.30109 29.3512 5.33438 29.9503 5.23686 30.5507L5.15483 31.1132L5.06108 31.6757C4.98664 32.1324 4.87048 32.5876 4.72123 33.0351L4.34623 34.1601C4.30204 34.2925 4.30061 34.4045 4.3228 34.5116L4.55717 35.6366C4.64707 36.0717 4.71102 36.5107 4.74467 36.9491L4.77983 37.5116L4.8267 38.0741C4.85064 38.3851 4.89274 38.6976 4.95561 39.0116L5.0728 39.5741L5.17827 40.1366C5.28545 40.6701 5.3063 41.2147 5.23686 41.7538L5.09623 42.8788C5.04456 43.28 4.98184 43.6853 4.90873 44.0859L4.6978 45.2109C4.66804 45.3776 4.6803 45.5413 4.72123 45.7148L4.97905 46.8398C5.11063 47.3952 5.14308 47.9623 5.06108 48.5273L4.89702 49.6523C4.86908 49.8445 4.876 50.0385 4.92045 50.2382L5.04936 50.8007L5.16655 51.3632C5.2923 51.9286 5.31363 52.5035 5.21342 53.0741L5.10795 53.6366L5.04936 53.9413L5.29545 53.8476L5.85795 53.6132C6.52617 53.3332 7.24243 53.2662 7.95561 53.4609L9.08061 53.7655C9.3375 53.8358 9.58718 53.8792 9.83061 53.8827H10.3931L10.9556 53.8945C11.2552 53.8986 11.5564 53.8763 11.858 53.8359L12.4205 53.7655L12.983 53.6835C13.2284 53.6505 13.4882 53.5907 13.7564 53.4843L14.8814 53.039C15.4968 52.7945 16.1513 52.7134 16.815 52.828L17.94 53.0155C18.2493 53.0691 18.5593 53.1099 18.8658 53.121L19.4283 53.1327L19.9908 53.1562C20.2237 53.1646 20.4612 53.1451 20.7056 53.0859L21.8306 52.8046C22.4169 52.6621 23.0198 52.6503 23.6119 52.7695L24.7369 53.0038C25.1692 53.0911 25.599 53.2032 26.0259 53.3437L26.5884 53.5312L27.104 53.6952H27.1158L28.2408 53.1093C28.7983 52.8159 29.4035 52.6355 30.0455 52.6288H30.608L31.1705 52.6171C31.8879 52.6097 32.5421 52.8477 33.1158 53.2148L33.6783 53.5663L34.0181 53.7773L34.3462 53.5898L34.9087 53.2499C35.5562 52.8604 36.3157 52.689 37.1119 52.8515L37.6744 52.957L38.2369 53.0741C38.5815 53.1445 38.9243 53.2126 39.2681 53.2616L39.8306 53.332L40.3931 53.414C40.7231 53.461 41.0604 53.4914 41.3892 53.5077L41.9517 53.5429L42.5142 53.5663C42.9243 53.5868 43.3352 53.6216 43.7447 53.6718L44.8697 53.8124C45.1122 53.842 45.3528 53.8346 45.5962 53.8007L46.1587 53.7304L46.7212 53.6484C47.0296 53.6049 47.3452 53.5357 47.6587 53.4491L48.7837 53.1445C49.2683 53.0106 49.763 52.9258 50.2603 52.9101L50.8228 52.8984L51.3853 52.8749C52.086 52.8532 52.7401 53.0614 53.3189 53.4023L53.8814 53.7304L54.4439 54.0702C54.5034 54.1054 54.54 54.1149 54.5494 54.1171L55.1119 54.0116L55.6744 53.9179C55.9486 53.8696 56.2292 53.7824 56.5181 53.6718L57.6431 53.2499C58.1317 53.0624 58.6424 52.9298 59.1548 52.8749L60.2798 52.7577C60.8017 52.7022 61.322 52.7294 61.8384 52.828L62.9634 53.039C63.4148 53.1256 63.8684 53.2462 64.3111 53.4023L65.4361 53.8007C65.5658 53.8462 65.6654 53.8435 65.7642 53.8241L66.3267 53.7187L66.8892 53.6015C67.4101 53.4976 67.944 53.4759 68.4712 53.5312L69.5962 53.6484C69.9311 53.6834 70.2698 53.71 70.604 53.7187L71.729 53.7421C72.135 53.7527 72.5422 53.7757 72.9478 53.8124L73.5103 53.871L74.0728 53.9179C74.2788 53.9364 74.488 53.9231 74.7056 53.871L75.2681 53.7304L75.8306 53.6015C76.1597 53.5221 76.4942 53.4216 76.8267 53.3085L77.3892 53.121L77.9517 52.9218C78.472 52.7448 79.0105 52.6541 79.5572 52.6523H80.6822C81.373 52.6502 82.0109 52.8612 82.5806 53.203L83.1431 53.5312L83.7056 53.871C83.7507 53.8981 83.7852 53.9016 83.7994 53.9062L84.9244 53.7187C85.5091 53.6136 86.0948 53.6338 86.6705 53.7773L87.7955 54.0585C87.9192 54.0895 88.0423 54.0818 88.1705 54.0468L89.2955 53.7421C89.9695 53.559 90.6572 53.5946 91.3111 53.8241L91.8736 54.0234L92.3072 54.164L92.8228 53.8476L93.3853 53.496C93.7644 53.258 94.222 53.091 94.733 53.0859C94.9887 53.0834 95.2329 53.1235 95.4595 53.1913L96.0923 53.4726L96.6548 53.8241L97.2173 54.164C97.3757 54.26 97.4535 54.259 97.4751 54.2577L98.6001 54.1874C98.7386 54.1791 98.9081 54.1417 99.1158 54.0351L100.241 53.4491L100.874 53.2148C101.505 53.0602 102.157 53.1414 102.76 53.4609L103.323 53.7655L103.815 54.0116L104.272 53.8241L104.835 53.578C105.557 53.2623 106.337 53.2277 107.085 53.5077L107.647 53.7187L108.151 53.9062L108.678 53.6366L109.241 53.332C109.869 53.0036 110.572 52.8599 111.303 52.9804L112.428 53.1679C112.729 53.2179 113.032 53.2456 113.331 53.2499L114.456 53.2734C114.974 53.2807 115.489 53.3585 115.991 53.5077L117.116 53.8359C117.247 53.8747 117.361 53.8864 117.479 53.8593L118.042 53.7304L118.604 53.5898C119.078 53.481 119.563 53.4207 120.045 53.414H120.608L121.17 53.4023C121.732 53.3951 122.281 53.4945 122.811 53.6835L123.936 54.082C124.154 54.1599 124.358 54.1998 124.545 54.1991H125.108L125.67 54.1874C126.054 54.1848 126.448 54.1839 126.831 54.1874L127.393 54.1991H127.956C128.176 54.2006 128.409 54.1747 128.647 54.1054L129.772 53.7773C130.132 53.6724 130.49 53.5525 130.85 53.4374L131.975 53.0859C132.721 52.8478 133.482 52.9114 134.178 53.2265L134.741 53.4726L135.303 53.7304C135.57 53.8511 135.828 53.9248 136.065 53.9648L137.19 54.1523C137.446 54.1951 137.699 54.2174 137.952 54.1991L138.514 54.1523L139.077 54.1171C139.326 54.099 139.584 54.039 139.85 53.953L140.413 53.7773L140.975 53.5898C141.541 53.4072 142.128 53.3499 142.721 53.414L143.846 53.5312C144.064 53.5548 144.289 53.5422 144.514 53.496L145.077 53.3788L145.639 53.2734C146.128 53.1733 146.62 53.1254 147.116 53.1445L148.241 53.1913C148.699 53.2092 149.159 53.2617 149.612 53.3554L150.737 53.5898C150.994 53.643 151.249 53.6693 151.499 53.6601L152.624 53.6132C152.936 53.6012 153.258 53.5711 153.573 53.5195L154.698 53.332C155.24 53.2435 155.786 53.2466 156.327 53.3437L156.889 53.4491L157.452 53.5429C157.722 53.5914 157.995 53.6115 158.26 53.6015L158.823 53.578L159.385 53.5663C159.672 53.5552 159.96 53.5097 160.252 53.4491L161.377 53.2148C161.97 53.0917 162.571 53.1094 163.159 53.2499L163.721 53.3788L164.284 53.5195C164.681 53.6145 165.082 53.7099 165.479 53.8241L166.042 53.9882L166.288 54.0585L166.487 53.8476L166.639 53.6718L166.557 53.4609L166.323 52.8984C166.013 52.1619 166 51.3691 166.299 50.6249L166.522 50.0624L166.756 49.4999C166.828 49.3189 166.846 49.1661 166.838 49.0312L166.768 47.9062C166.738 47.4048 166.778 46.9013 166.874 46.4062L166.979 45.8437L167.085 45.3046L167.049 45.2109L166.37 44.0859C165.903 43.3155 165.808 42.4142 166.206 41.5546L166.721 40.4296L166.745 40.3827V40.371L166.569 39.8085L166.405 39.246C166.175 38.4761 166.269 37.6975 166.616 37.0077L167.178 35.8827C167.275 35.6902 167.306 35.5432 167.307 35.4257L167.319 34.8632V34.3007C167.319 34.2207 167.302 34.0945 167.202 33.914L166.569 32.789C166.219 32.1598 166.059 31.4424 166.182 30.6913L166.264 30.1288L166.358 29.5663C166.402 29.2955 166.418 29.0248 166.405 28.7577L166.381 28.1952L166.346 27.6327C166.324 27.1793 166.342 26.7256 166.393 26.2734L166.463 25.7109L166.522 25.1484C166.572 24.7082 166.649 24.2599 166.756 23.8241L167.038 22.6991C167.087 22.4965 167.094 22.3041 167.073 22.1132L167.014 21.5507L166.944 20.9882C166.888 20.5017 166.889 20.01 166.944 19.5234L167.014 18.9609L167.073 18.3984C167.085 18.2955 167.079 18.1689 167.014 18.0116L166.545 16.8866C166.284 16.2554 166.197 15.5783 166.335 14.8945L166.569 13.7695C166.603 13.6019 166.595 13.436 166.557 13.2655L166.44 12.703L166.311 12.1405C166.229 11.7735 166.142 11.4062 166.053 11.039L165.913 10.4765L165.784 9.91399C165.615 9.21375 165.677 8.51433 165.948 7.8632L166.417 6.7382C166.53 6.46651 166.612 6.20107 166.651 5.95305L166.733 5.39055L166.745 5.2968C166.503 5.15755 166.194 4.96184 165.842 4.72258L164.717 3.94914C164.522 3.81695 164.395 3.79081 164.331 3.78508L163.768 3.74992L163.206 3.70305ZM27.1158 53.707L27.1509 53.7187L27.1392 53.707H27.1158Z" fill="black"/>
</svg>
