<svg width="350" height="242" viewBox="0 0 350 242" fill="none" xmlns="http://www.w3.org/2000/svg">
<path d="M124.996 0.00279928C125.778 -0.0307326 126.476 0.239881 127.058 0.659049L127.621 1.06921L128.008 1.35046L128.336 1.19811L128.898 0.916862C129.564 0.588549 130.306 0.48179 131.055 0.670768L132.18 0.952018C132.428 1.01449 132.669 1.04872 132.906 1.04577L134.031 1.02233C134.303 1.01839 134.585 0.989909 134.863 0.928581L135.426 0.799674L135.988 0.682487C136.709 0.524259 137.415 0.62721 138.062 0.928581L138.625 1.18639L139.187 1.45592C139.347 1.53021 139.464 1.53334 139.551 1.52624L140.676 1.43249C141.079 1.39748 141.491 1.37423 141.894 1.36217L142.457 1.33874L143.019 1.32702C143.401 1.31565 143.786 1.3086 144.168 1.30358L144.73 1.29186H145.293C145.431 1.28946 145.597 1.2567 145.797 1.16296L146.922 0.623893C147.596 0.307658 148.336 0.232571 149.078 0.436393L150.203 0.741081C150.343 0.779565 150.471 0.781029 150.601 0.752799L151.164 0.623893L151.726 0.506706C152.519 0.330083 153.286 0.487297 153.941 0.869987L154.504 1.19811L154.949 1.47936L155.371 1.26842L155.933 1.01061C156.493 0.752469 157.091 0.609731 157.715 0.623893L158.277 0.635612L158.84 0.659049C159.413 0.672769 159.973 0.791989 160.504 1.01061L161.066 1.24499L161.547 1.44421L162.062 1.18639L162.625 0.893424C163.161 0.617381 163.745 0.500547 164.336 0.577018L164.933 0.717643L166.058 1.11608C166.27 1.19066 166.465 1.21496 166.644 1.20983L167.769 1.18639C168.211 1.17393 168.653 1.18563 169.094 1.23327L169.656 1.29186L170.219 1.36217C170.443 1.38643 170.669 1.37149 170.898 1.32702L171.461 1.22155L172.023 1.10436C172.466 1.01865 172.913 0.973691 173.359 0.952018L173.922 0.916862L174.484 0.893424C174.831 0.876664 175.18 0.846665 175.527 0.811393L176.09 0.752799L176.652 0.705924C176.926 0.678017 177.21 0.617221 177.496 0.530143L178.058 0.354362L178.621 0.190299C179.349 -0.0316881 180.091 0.0141961 180.777 0.307487L181.34 0.553581L181.902 0.787956C182.128 0.884267 182.328 0.930769 182.512 0.940299L183.074 0.975456L183.637 0.998893C183.799 1.00728 183.978 0.988824 184.176 0.916862L184.738 0.705924L185.301 0.506706L185.922 0.354362C186.544 0.280508 187.15 0.435389 187.691 0.752799L188.816 1.40905C188.873 1.44222 188.908 1.45248 188.922 1.45592H188.933L190.058 1.26842C190.362 1.21651 190.674 1.13271 190.984 1.03405L192.109 0.682487C192.732 0.485496 193.379 0.453844 194.019 0.600456L195.144 0.858268C195.512 0.942322 195.879 1.02595 196.246 1.10436L197.371 1.33874C197.602 1.3881 197.828 1.40418 198.051 1.38561L199.176 1.29186C199.705 1.2466 200.238 1.28118 200.758 1.39733L201.883 1.65514C202.093 1.70231 202.302 1.7033 202.504 1.67858L203.066 1.60827L203.629 1.54967C203.875 1.51929 204.135 1.45273 204.402 1.35046L204.965 1.1278L205.527 0.916862C206.273 0.632923 207.051 0.662045 207.777 0.975456L208.34 1.20983L208.902 1.45592C209.088 1.53636 209.241 1.5548 209.371 1.54967L209.933 1.52624L210.496 1.51452C210.878 1.49896 211.262 1.47788 211.644 1.46764L212.769 1.44421C213.136 1.43436 213.504 1.41293 213.871 1.39733L214.996 1.35046C215.092 1.34613 215.234 1.32305 215.43 1.20983L216.555 0.553581C217.132 0.218116 217.782 0.0194953 218.476 0.0379555L219.601 0.061393C220.171 0.0769054 220.725 0.208493 221.254 0.424674L221.816 0.659049L222.379 0.881706C222.703 1.01425 223.022 1.13162 223.34 1.22155L223.902 1.37389L224.465 1.53796C224.489 1.54476 224.506 1.53836 224.512 1.53796C224.522 1.53656 224.544 1.53101 224.582 1.51452L225.707 1.02233C226.396 0.722258 227.142 0.677996 227.875 0.905143L228.437 1.06921L229 1.24499C229.299 1.3378 229.6 1.40455 229.891 1.44421L230.453 1.52624L231.016 1.59655C231.208 1.62253 231.4 1.61842 231.601 1.57311L232.726 1.3153C233.212 1.20559 233.709 1.15793 234.203 1.16296H234.766L235.328 1.17467C235.771 1.17937 236.212 1.215 236.652 1.28014L237.777 1.44421C237.97 1.47279 238.163 1.46445 238.363 1.42077L238.926 1.30358L239.488 1.17467C240.038 1.05469 240.596 1.0331 241.152 1.11608L241.715 1.20983L242.277 1.29186C242.559 1.33417 242.842 1.3499 243.121 1.33874L244.246 1.29186C244.728 1.27235 245.21 1.30263 245.687 1.38561L246.25 1.49108L246.812 1.58483C247.015 1.62024 247.219 1.62087 247.422 1.58483L247.984 1.47936L248.547 1.38561C248.917 1.31992 249.29 1.25579 249.66 1.18639L253.035 0.553581C253.591 0.449847 254.155 0.439082 254.711 0.541862L255.836 0.752799C256.269 0.833001 256.697 0.948526 257.125 1.08092L257.687 1.24499L258.25 1.42077C258.494 1.49623 258.728 1.53428 258.953 1.53796L260.078 1.56139C260.317 1.56499 260.565 1.53135 260.816 1.46764L261.941 1.18639C262.276 1.10153 262.612 0.997096 262.949 0.881706L263.512 0.694206L264.074 0.494987C264.75 0.264219 265.454 0.254625 266.137 0.471549L266.699 0.659049L267.262 0.834831C267.65 0.958752 268.045 1.08564 268.433 1.22155L269.558 1.61999C269.666 1.65689 269.745 1.65154 269.828 1.63171L270.391 1.5028L270.953 1.36217C271.398 1.25456 271.85 1.17967 272.301 1.13952L273.426 1.04577C273.97 0.997293 274.512 1.03182 275.043 1.16296L276.168 1.44421H276.18C276.188 1.44239 276.212 1.43994 276.25 1.42077L276.812 1.1278L277.375 0.846549C277.988 0.534306 278.645 0.469718 279.273 0.635612L279.894 0.869987L281.019 1.47936C281.154 1.55055 281.227 1.55313 281.266 1.54967L281.828 1.49108L282.391 1.42077C282.772 1.3792 283.158 1.33992 283.539 1.30358L284.101 1.25671L284.664 1.19811C284.97 1.16896 285.279 1.11865 285.59 1.04577L286.715 0.787956C287.298 0.650864 287.896 0.63412 288.484 0.752799L289.609 0.987174C289.635 0.992161 289.684 0.989159 289.785 0.940299L290.91 0.401237L291.519 0.190299C291.937 0.0963329 292.361 0.094653 292.773 0.202018L293.371 0.436393L294.496 1.02233C294.737 1.14729 294.952 1.21831 295.141 1.24499L295.703 1.3153L296.266 1.39733C296.317 1.40455 296.4 1.40417 296.535 1.33874L297.66 0.799674L298.293 0.577018C298.726 0.486494 299.164 0.507696 299.582 0.635612L300.191 0.905143L301.316 1.56139C301.451 1.63889 301.511 1.63338 301.527 1.63171L302.652 1.51452C303.002 1.47825 303.356 1.42803 303.707 1.37389L304.832 1.20983C305.074 1.17236 305.327 1.0995 305.594 0.987174L306.156 0.741081L306.719 0.506706C307.483 0.182974 308.299 0.191493 309.051 0.530143L310.176 1.04577C310.192 1.05298 310.204 1.05553 310.211 1.05749H310.223L310.785 0.869987L311.348 0.694206C311.901 0.517131 312.478 0.446437 313.058 0.494987L314.183 0.588737C314.694 0.631423 315.195 0.742609 315.683 0.916862L316.246 1.11608L316.808 1.32702C316.933 1.37159 317.032 1.36928 317.125 1.35046L318.25 1.11608C318.579 1.04762 318.914 0.959816 319.246 0.858268L319.808 0.694206L320.371 0.518424C320.855 0.370655 321.349 0.278183 321.848 0.248893L322.973 0.178581C323.64 0.139805 324.278 0.295682 324.859 0.588737L325.422 0.881706L325.949 1.15124L326.476 0.963737L327.039 0.752799C327.784 0.476022 328.557 0.50007 329.277 0.811393L329.84 1.05749L330.367 1.29186L330.894 1.05749L331.457 0.811393L332.078 0.612174C332.497 0.535385 332.917 0.563212 333.32 0.682487L333.906 0.928581L334.469 1.23327L335.031 1.54967C335.059 1.56497 335.079 1.56966 335.09 1.57311L335.641 1.44421L336.203 1.30358C336.773 1.16464 337.358 1.1354 337.937 1.23327L338.5 1.33874L339.004 1.43249C339.017 1.42694 339.044 1.40237 339.086 1.37389L340.211 0.600456L340.832 0.284049C341.065 0.200676 341.321 0.148168 341.594 0.143424C341.865 0.139049 342.12 0.183785 342.355 0.260612L343 0.577018L343.551 0.940299L344.101 1.3153C344.319 1.46118 344.472 1.51329 344.558 1.52624L345.086 1.59655L345.613 1.67858C346.447 1.80339 347.114 2.28882 347.5 3.02624L347.758 3.50671L348.004 3.98717C348.16 4.2854 348.334 4.6074 348.531 4.94811L348.848 5.48717L349.152 6.02624C349.381 6.42309 349.518 6.88952 349.492 7.39733C349.466 7.89654 349.293 8.33771 349.058 8.69811L348.695 9.26061L348.32 9.82311L348.262 9.9403L348.402 11.0653C348.443 11.3837 348.501 11.7046 348.578 12.0262L348.719 12.5887L348.848 13.1512C348.94 13.5364 349.033 13.9261 349.117 14.3114L349.234 14.8739L349.363 15.4364C349.498 16.0605 349.473 16.6896 349.293 17.2997L349.129 17.8622L348.953 18.4247C348.916 18.5509 348.915 18.6614 348.941 18.7762L349.082 19.3387L349.211 19.9012C349.403 20.7109 349.234 21.49 348.836 22.1512L348.496 22.7137L348.273 23.077L348.484 23.4403L348.801 24.0028C349.176 24.6508 349.348 25.3999 349.187 26.1825L348.953 27.3075C348.9 27.5683 348.875 27.827 348.883 28.0809L348.906 28.6434L348.918 29.2059C348.929 29.5692 348.947 29.9325 348.965 30.2958L349 30.8583L349.023 31.4208C349.036 31.6784 349.076 31.9476 349.152 32.2176L349.316 32.7801L349.469 33.3426C349.713 34.2081 349.51 35.0335 349.058 35.7098L348.683 36.2723L348.391 36.6942L348.566 37.0575L348.824 37.62C349.174 38.3791 349.195 39.2044 348.859 39.9755L348.613 40.538L348.426 40.9481L348.707 41.4051L349.047 41.9676C349.392 42.537 349.61 43.1848 349.609 43.8778V45.0028C349.609 45.7388 349.344 46.4012 348.953 46.9715L348.566 47.534L348.191 48.0965C348.177 48.1171 348.152 48.1303 348.144 48.1434L348.238 48.6708L348.344 49.2333C348.44 49.7795 348.438 50.339 348.344 50.8856L348.25 51.4481L348.144 51.952C348.15 51.9651 348.167 51.9871 348.191 52.0223L348.965 53.1473C349.222 53.5213 349.418 53.9867 349.433 54.5184C349.449 55.0536 349.282 55.5323 349.035 55.9247L348.683 56.4872L348.32 57.0497C348.209 57.2264 348.203 57.3261 348.203 57.3661V57.9286L348.215 58.4911C348.215 58.5907 348.243 58.7243 348.344 58.913L348.637 59.4755L348.941 60.038C349.293 60.6942 349.43 61.4409 349.258 62.2059L349 63.3309C348.967 63.4786 348.975 63.6256 349.012 63.7762L349.152 64.3387L349.281 64.9012C349.456 65.6255 349.372 66.3421 349.07 66.9989L348.555 68.1239C348.438 68.3761 348.361 68.6121 348.332 68.827L348.262 69.3895L348.18 69.952C348.146 70.2028 348.151 70.4521 348.18 70.702L348.238 71.2645L348.308 71.827C348.358 72.259 348.379 72.6947 348.379 73.1278V74.2528C348.379 74.3268 348.403 74.4462 348.508 74.6278L348.824 75.1903L349.152 75.7528C349.554 76.4506 349.68 77.256 349.422 78.0731L349.07 79.1981C349.051 79.258 349.047 79.3055 349.07 79.3739L349.469 80.4989C349.68 81.1009 349.75 81.7382 349.644 82.3739L349.457 83.4989C349.379 83.9692 349.249 84.4363 349.082 84.8934L348.883 85.4559L348.672 86.0184C348.57 86.2987 348.498 86.5744 348.461 86.8387L348.391 87.4012L348.308 87.9637C348.304 87.9999 348.302 88.0701 348.367 88.1981L348.648 88.7606L348.941 89.3231C349.199 89.8286 349.379 90.3611 349.457 90.9169L349.621 92.0419C349.703 92.6256 349.661 93.2091 349.504 93.7762L349.34 94.3387L349.187 94.9012C349.073 95.3148 348.938 95.7327 348.789 96.1434L348.59 96.7059L348.379 97.2684C348.295 97.501 348.256 97.7204 348.25 97.9247L348.238 98.4872L348.215 99.0497C348.206 99.3297 348.229 99.6102 348.273 99.8934L348.355 100.456L348.449 101.018C348.526 101.516 348.533 102.018 348.484 102.518L348.426 103.081L348.379 103.643C348.364 103.791 348.375 103.954 348.437 104.136L348.637 104.698L348.824 105.261C349.072 105.977 349.051 106.716 348.777 107.417L348.566 107.979L348.344 108.518L348.601 109.081L348.848 109.643C349.072 110.147 349.223 110.671 349.281 111.214L349.398 112.339C349.441 112.739 349.472 113.145 349.492 113.546L349.527 114.108L349.551 114.671C349.587 115.392 349.379 116.064 349.023 116.651L348.344 117.776C348.232 117.961 348.205 118.081 348.203 118.151V118.714L348.191 119.276C348.186 119.523 348.213 119.781 348.273 120.038L348.531 121.163C348.605 121.479 348.697 121.802 348.812 122.124L349.012 122.686L349.223 123.249C349.404 123.757 349.506 124.284 349.527 124.819L349.574 125.944C349.595 126.472 349.534 127.001 349.398 127.515L349.246 128.077L349.105 128.64C349.077 128.747 349.073 128.842 349.105 128.956L349.433 130.081C349.581 130.591 349.649 131.112 349.644 131.64V132.765C349.639 133.332 349.522 133.886 349.316 134.417L348.871 135.542C348.855 135.582 348.859 135.607 348.859 135.612C348.859 135.619 348.862 135.633 348.871 135.659L349.058 136.222L349.234 136.784C349.486 137.553 349.414 138.331 349.07 139.034L348.789 139.597L348.519 140.159C348.47 140.26 348.468 140.302 348.473 140.323L348.707 141.448C348.823 142.015 348.829 142.591 348.719 143.159L348.601 143.722L348.496 144.284C348.498 144.294 348.513 144.327 348.543 144.378L348.859 144.94L349.187 145.503C349.632 146.272 349.713 147.158 349.328 147.999L349.058 148.561L348.801 149.124C348.663 149.424 348.559 149.718 348.484 150.003L348.344 150.565L348.191 151.128C348.176 151.186 348.179 151.246 348.215 151.339L348.426 151.901L348.648 152.464C348.896 153.105 348.958 153.787 348.801 154.468L348.672 155.03L348.531 155.581L348.566 155.651L348.871 156.214L349.187 156.776C349.499 157.346 349.678 157.983 349.668 158.651L349.644 159.776C349.635 160.378 349.495 160.955 349.246 161.499L348.73 162.624C348.661 162.776 348.652 162.883 348.66 162.964L348.777 164.089C348.806 164.355 348.863 164.63 348.953 164.909L349.328 166.034C349.524 166.638 349.562 167.268 349.445 167.897L349.34 168.46L349.246 169.022C349.198 169.279 349.173 169.533 349.187 169.784L349.258 170.909C349.283 171.344 349.285 171.786 349.258 172.222L349.211 172.784L349.176 173.347C349.143 173.864 349.044 174.374 348.871 174.87L348.473 175.995C348.461 176.027 348.461 176.049 348.461 176.054C348.461 176.062 348.473 176.082 348.484 176.112L348.683 176.675L348.894 177.237C349.052 177.667 349.181 178.101 349.281 178.538L349.539 179.663C349.716 180.442 349.566 181.198 349.199 181.854L348.883 182.417L348.59 182.932L348.766 183.401L348.988 183.964C349.252 184.658 349.262 185.399 349.023 186.108L348.648 187.233C348.573 187.458 348.543 187.667 348.543 187.866V188.991C348.544 189.26 348.578 189.536 348.637 189.811L348.871 190.936C349.002 191.549 348.989 192.173 348.824 192.776L348.672 193.339L348.508 193.901C348.474 194.029 348.478 194.142 348.508 194.265L348.648 194.827L348.777 195.39C348.927 196.002 348.931 196.63 348.777 197.241L348.496 198.366H348.484C348.485 198.368 348.496 198.391 348.519 198.436L349.105 199.561C349.427 200.184 349.568 200.878 349.457 201.6L349.363 202.163L349.281 202.725C349.25 202.928 349.213 203.132 349.174 203.335L348.93 204.507L348.801 205.069C348.739 205.349 348.712 205.628 348.707 205.901L348.683 207.026C348.68 207.23 348.717 207.444 348.789 207.671L349.141 208.796C349.391 209.582 349.295 210.37 348.93 211.069L348.625 211.632L348.332 212.194C348.217 212.414 348.169 212.605 348.156 212.757L348.062 213.882C348.055 213.974 348.071 214.096 348.144 214.257L348.66 215.382C348.888 215.88 349.048 216.404 349.117 216.94L349.258 218.065C349.348 218.779 349.191 219.458 348.871 220.069L348.578 220.632L348.344 221.065L348.566 221.511L348.859 222.073C349.272 222.889 349.25 223.781 348.824 224.581L348.531 225.143L348.32 225.518L348.566 225.917L348.894 226.479C349.266 227.102 349.463 227.823 349.351 228.589L349.187 229.714C349.131 230.095 349.062 230.481 349 230.862L348.918 231.425L348.824 231.987C348.813 232.058 348.814 232.148 348.871 232.28L349.117 232.843L349.351 233.405C349.528 233.813 349.61 234.276 349.539 234.765C349.468 235.247 349.263 235.661 349 235.995L348.601 236.511L348.191 237.015C347.927 237.349 347.705 237.645 347.512 237.893L347.207 238.268L346.914 238.655C346.664 238.977 346.373 239.294 346.047 239.604L345.18 240.425C344.637 240.94 343.952 241.235 343.187 241.257L342.625 241.28L342.051 241.292C341.681 241.302 341.313 241.321 340.949 241.339L340.387 241.362L339.824 241.397C339.308 241.423 338.795 241.373 338.289 241.257L337.164 240.999C336.789 240.912 336.414 240.816 336.039 240.729L334.914 240.472C334.598 240.398 334.277 240.34 333.965 240.307L332.84 240.19C332.824 240.189 332.769 240.197 332.641 240.272L331.516 240.929C330.749 241.379 329.855 241.464 329.008 241.081L327.883 240.565C327.663 240.466 327.465 240.421 327.297 240.413L326.172 240.366C325.816 240.349 325.461 240.337 325.105 240.331L323.98 240.307C323.883 240.306 323.741 240.33 323.558 240.425L322.996 240.718L322.433 240.999C321.902 241.273 321.332 241.457 320.734 241.503L320.172 241.55L319.609 241.585C318.894 241.638 318.223 241.456 317.629 241.116L317.066 240.788L316.68 240.565L316.293 240.788L315.73 241.104C315.08 241.469 314.337 241.621 313.562 241.456L312.437 241.222C312.256 241.183 312.077 241.176 311.898 241.21L311.336 241.327L310.773 241.432C310.246 241.531 309.711 241.537 309.18 241.468L308.055 241.327C307.513 241.256 306.985 241.093 306.484 240.858L305.922 240.6L305.535 240.413L305.113 240.694L304.551 241.046C303.904 241.454 303.138 241.647 302.324 241.479L301.199 241.245C300.954 241.194 300.71 241.183 300.473 241.198L299.348 241.268C298.978 241.292 298.604 241.323 298.234 241.35L297.672 241.386L297.109 241.432C296.747 241.459 296.382 241.491 296.019 241.526L295.457 241.573L294.894 241.632C294.383 241.682 293.867 241.663 293.359 241.573L292.797 241.479L292.234 241.374C291.855 241.307 291.477 241.236 291.098 241.163L289.973 240.952C289.798 240.919 289.623 240.914 289.445 240.952L288.883 241.081L288.32 241.198C287.728 241.327 287.129 241.323 286.539 241.186L285.414 240.929C285.009 240.835 284.599 240.732 284.195 240.612L283.633 240.448L283.07 240.272H283.047C283.044 240.272 283.021 240.276 282.976 240.296L281.851 240.788C281.102 241.115 280.298 241.119 279.543 240.8L278.98 240.565L278.418 240.319L277.879 240.554L277.316 240.776C276.817 240.979 276.299 241.111 275.769 241.163L274.644 241.28C274.024 241.34 273.416 241.243 272.84 241.022L272.277 240.811L271.715 240.589L270.59 241.081C269.754 241.44 268.884 241.361 268.129 240.929L267.566 240.6L267.004 240.284C266.792 240.162 266.625 240.118 266.5 240.108L265.375 240.015C265.296 240.009 265.192 240.021 265.035 240.097L263.91 240.636C263.226 240.968 262.464 241.066 261.707 240.847L261.144 240.682L260.594 240.518L260.57 240.53L260.008 240.835L259.445 241.128C258.732 241.502 257.931 241.59 257.137 241.315L256.574 241.128L256.012 240.929C255.657 240.806 255.299 240.694 254.945 240.589L253.82 240.261C253.601 240.196 253.398 240.169 253.199 240.179L252.074 240.225C251.816 240.238 251.547 240.29 251.277 240.366L250.715 240.518L250.152 240.682C249.782 240.787 249.41 240.893 249.039 240.999L248.476 241.151L247.914 241.315C247.352 241.477 246.773 241.527 246.191 241.456L245.066 241.315C244.711 241.272 244.355 241.24 244 241.21L242.875 241.116C242.566 241.09 242.257 241.078 241.949 241.093L241.387 241.128L240.824 241.151C240.414 241.171 240.004 241.172 239.594 241.163L238.469 241.14C237.875 241.127 237.298 240.994 236.758 240.753L236.195 240.495L235.82 240.331L235.387 240.624L234.824 240.999C234.103 241.475 233.224 241.641 232.34 241.304L231.777 241.093L231.215 240.87C231.036 240.802 230.882 240.788 230.746 240.8L229.621 240.893C229.211 240.927 228.801 240.948 228.391 240.952H227.266C226.668 240.957 226.09 240.833 225.543 240.6L224.418 240.132C224.397 240.123 224.378 240.11 224.371 240.108H224.359C224.357 240.109 224.349 240.116 224.336 240.12L223.773 240.296L223.211 240.483C222.589 240.684 221.942 240.719 221.301 240.577L220.176 240.319C219.854 240.248 219.533 240.201 219.215 240.167L218.09 240.05C217.838 240.023 217.582 240.026 217.328 240.061L216.766 240.132L216.203 240.214C215.704 240.283 215.203 240.295 214.703 240.237L213.578 240.097C213.385 240.074 213.185 240.093 212.98 240.143L211.855 240.425C211.269 240.569 210.667 240.58 210.074 240.46L209.512 240.343L208.949 240.237C208.936 240.243 208.917 240.257 208.891 240.272L208.328 240.6L207.766 240.94C207.155 241.301 206.45 241.494 205.703 241.409L205.141 241.339L204.578 241.28C204.055 241.221 203.548 241.075 203.055 240.87L202.492 240.636L201.93 240.413C201.909 240.404 201.891 240.391 201.883 240.39H201.859L201.836 240.401L201.273 240.577L200.711 240.765C200.08 240.968 199.425 240.991 198.777 240.835L198.215 240.694L197.652 240.565C197.532 240.536 197.417 240.541 197.289 240.577L196.726 240.729L196.164 240.893C195.749 241.011 195.328 241.107 194.91 241.186L193.785 241.397C193.079 241.531 192.38 241.43 191.746 241.14L190.621 240.624C190.346 240.498 190.085 240.416 189.836 240.366L188.769 240.143C188.757 240.15 188.743 240.164 188.723 240.179L187.598 240.952C187.236 241.2 186.79 241.386 186.285 241.421C185.776 241.455 185.304 241.324 184.902 241.104L183.777 240.495C183.751 240.481 183.739 240.463 183.73 240.46L183.191 240.612L182.629 240.753C182.174 240.87 181.708 240.949 181.246 240.987L180.121 241.081C179.481 241.133 178.861 241.015 178.281 240.765L177.719 240.518L177.226 240.296L176.723 240.554L176.16 240.835C175.489 241.163 174.742 241.255 173.992 241.057L173.43 240.917L172.867 240.765C172.6 240.694 172.338 240.656 172.082 240.647L171.519 240.636L170.957 240.612C170.799 240.607 170.618 240.639 170.418 240.718L169.855 240.929L169.293 241.151C168.741 241.367 168.164 241.479 167.57 241.456L166.445 241.409C165.892 241.387 165.347 241.272 164.828 241.069L163.703 240.624C163.53 240.556 163.385 240.542 163.258 240.554L162.695 240.6L162.133 240.659C161.696 240.699 161.258 240.711 160.82 240.694L159.695 240.647C159.481 240.639 159.259 240.665 159.027 240.729L158.465 240.882L157.902 241.046C157.395 241.187 156.878 241.252 156.355 241.245H155.793L155.23 241.233C154.577 241.224 153.962 241.037 153.402 240.729L152.84 240.425L152.277 240.108C152.125 240.025 152.038 240.023 151.996 240.026L150.871 240.12C150.573 240.145 150.272 240.201 149.969 240.272L148.844 240.53C148.275 240.664 147.697 240.689 147.121 240.589L146.558 240.483L145.996 240.39C145.922 240.376 145.83 240.373 145.703 240.425L144.578 240.893C143.986 241.139 143.35 241.237 142.703 241.163L142.141 241.104L141.578 241.034C141.333 241.006 141.086 241.01 140.84 241.046L140.277 241.14L139.715 241.222C139.192 241.298 138.666 241.291 138.144 241.21L137.582 241.116L137.019 241.034C136.733 240.989 136.448 240.97 136.164 240.975L135.039 240.999C134.523 241.01 134.006 240.953 133.504 240.823L132.941 240.671L132.332 240.518C132.321 240.52 132.295 240.533 132.25 240.554L131.125 241.069C130.368 241.415 129.55 241.425 128.781 241.093L128.219 240.847L127.726 240.624L127.211 240.87L126.648 241.14C126.021 241.439 125.33 241.565 124.621 241.444L124.058 241.339L123.496 241.245C123.161 241.188 122.822 241.146 122.488 241.116L121.363 241.022C120.948 240.985 120.535 240.919 120.121 240.847L118.996 240.659C118.745 240.615 118.492 240.593 118.246 240.612L117.121 240.706C116.567 240.749 116.016 240.69 115.48 240.542L114.355 240.237L114.344 240.225L114.332 240.237C114.323 240.24 114.306 240.239 114.285 240.249L113.723 240.53L113.16 240.8C112.484 241.128 111.732 241.216 110.98 241.011L109.855 240.706C109.681 240.658 109.522 240.658 109.363 240.682L108.801 240.765L108.238 240.858C107.557 240.966 106.886 240.859 106.269 240.589L105.707 240.343L105.203 240.12L104.699 240.354L104.137 240.624C103.431 240.955 102.657 241.02 101.898 240.765L101.336 240.577L100.891 240.413L100.375 240.753L99.8124 241.116C99.1376 241.546 98.324 241.733 97.4804 241.503L96.9179 241.35L96.3554 241.186C96.1245 241.123 95.902 241.107 95.6874 241.116L94.5624 241.163C94.2719 241.175 93.9788 241.207 93.6835 241.268L92.5585 241.503C91.8558 241.649 91.1586 241.562 90.5194 241.28L89.9569 241.022L89.3944 240.776C89.2082 240.694 89.0525 240.678 88.9257 240.682L88.3632 240.694L87.8007 240.718C87.2367 240.738 86.6834 240.653 86.1483 240.472L85.5858 240.284L85.0233 240.085C84.8513 240.026 84.6948 240.021 84.5546 240.038L83.9921 240.108L83.4296 240.167C83.1002 240.207 82.7648 240.272 82.4335 240.343L81.3085 240.577C80.8579 240.673 80.4048 240.731 79.9491 240.753L79.3866 240.788L78.8241 240.811C78.245 240.839 77.6712 240.746 77.1249 240.554L75.9999 240.155C75.9444 240.136 75.913 240.137 75.8593 240.155L75.2968 240.354L74.7343 240.542C74.248 240.708 73.7516 240.819 73.246 240.858L72.6835 240.893L72.121 240.94C71.7439 240.969 71.3614 240.996 70.9843 241.022L70.4218 241.069L69.8593 241.104C69.5185 241.128 69.1695 241.163 68.828 241.21L68.2655 241.292L67.703 241.362C67.1236 241.442 66.5441 241.409 65.9804 241.257L64.8554 240.952C64.5368 240.866 64.2206 240.8 63.9061 240.753L63.3436 240.659L62.7811 240.577C62.552 240.543 62.3186 240.543 62.0897 240.577L60.9647 240.741C60.5176 240.807 60.0665 240.836 59.6171 240.835H58.4921C58.0538 240.833 57.6162 240.799 57.1796 240.741L56.0546 240.6C55.7335 240.558 55.4134 240.526 55.0936 240.518L53.9686 240.495C53.7035 240.489 53.4311 240.513 53.16 240.565L52.5975 240.671L52.035 240.788C51.5881 240.875 51.1383 240.922 50.6874 240.94L49.5624 240.987C49.0719 241.007 48.5822 240.974 48.0975 240.882L47.535 240.776L46.9725 240.659L44.7225 240.237C44.6378 240.221 44.5448 240.224 44.4179 240.272L43.8554 240.495L43.2929 240.706C42.8036 240.895 42.2947 241.026 41.7811 241.081L40.6561 241.198C40.2423 241.242 39.8284 241.27 39.4139 241.28L38.8514 241.292L38.2889 241.315C37.9357 241.324 37.5759 241.338 37.2225 241.362L36.0975 241.432C35.66 241.462 35.2227 241.459 34.785 241.432L34.2225 241.409L33.66 241.374C33.3399 241.354 33.0191 241.348 32.6991 241.362L31.5741 241.409C31.2285 241.425 30.8771 241.456 30.5311 241.491L29.4061 241.608C28.9623 241.654 28.515 241.661 28.0702 241.643L27.5077 241.62L26.9452 241.608C26.2895 241.582 25.6706 241.368 25.1171 241.046L24.5546 240.729L24.2147 240.53L23.8749 240.765L23.3124 241.128C22.5143 241.643 21.5606 241.733 20.6757 241.268L20.1132 240.964L19.5507 240.671C19.4162 240.601 19.3438 240.596 19.3046 240.6L18.1796 240.741C17.5984 240.81 17.0179 240.752 16.4569 240.589L15.3319 240.261C15.1486 240.207 14.9798 240.193 14.8163 240.214L14.2538 240.296L13.6913 240.366C13.2937 240.417 12.8939 240.452 12.496 240.483L11.371 240.577C11.1723 240.592 10.9519 240.64 10.7147 240.741L10.1522 240.975L9.58973 241.222C8.80173 241.558 7.96747 241.516 7.21082 241.14L6.64832 240.87L6.09754 240.589C5.83868 240.46 5.61173 240.396 5.42957 240.366L4.90223 240.272L4.37488 240.19C3.63249 240.069 3.00577 239.678 2.55848 239.089L1.90223 238.222C1.58936 237.809 1.33827 237.351 1.15223 236.862L0.94129 236.323L0.730352 235.772C0.480853 235.115 0.45257 234.423 0.636602 233.745L0.94129 232.62C0.953941 232.574 0.962192 232.527 0.929571 232.444L0.695196 231.882L0.47254 231.319C0.265845 230.803 0.138618 230.265 0.109259 229.714L0.0858211 229.151L0.0506648 228.589C0.0109301 227.84 0.242304 227.15 0.624884 226.561L0.999884 225.999L1.36316 225.436C1.40714 225.368 1.41992 225.326 1.42176 225.319L1.33973 224.78L1.26941 224.218C1.20794 223.768 1.18025 223.31 1.18738 222.858L1.1991 222.296V221.733C1.20398 221.419 1.19653 221.1 1.16395 220.784L1.04676 219.659C1.02366 219.44 0.962436 219.206 0.859259 218.956L0.624884 218.393L0.402227 217.831C0.0526421 216.984 0.148829 216.115 0.589727 215.37L0.929571 214.807L1.18738 214.374L0.988165 213.975L0.718634 213.413C0.398403 212.755 0.286466 212.031 0.460821 211.292L0.589727 210.729L0.730352 210.167C0.760955 210.038 0.754164 209.915 0.718634 209.78L0.413946 208.655C0.27569 208.142 0.220484 207.613 0.238165 207.085L0.249884 206.522L0.273321 205.96C0.292522 205.388 0.426849 204.836 0.648321 204.307L1.11707 203.182C1.15417 203.094 1.15073 203.048 1.14051 203.007L0.988165 202.444L0.84754 201.882C0.754519 201.516 0.666607 201.146 0.56629 200.78L0.402227 200.218L0.249884 199.655C0.0436772 198.902 0.142285 198.152 0.47254 197.475L0.742071 196.913L1.02332 196.35C1.12935 196.133 1.17659 195.947 1.18738 195.788L1.2577 194.663C1.26321 194.579 1.24569 194.466 1.16395 194.3L0.894415 193.737L0.613165 193.175C0.324193 192.588 0.178084 191.946 0.226446 191.276L0.273321 190.714L0.308477 190.151C0.352354 189.544 0.529319 188.964 0.812384 188.429L1.35145 187.432L1.11707 187.011L0.835821 186.448C0.513426 185.825 0.362823 185.132 0.47254 184.409L0.554571 183.847L0.648321 183.284C0.728568 182.756 0.887357 182.242 1.11707 181.749L1.37488 181.186L1.6327 180.647L1.42176 180.12L1.21082 179.557C0.932647 178.845 0.911848 178.087 1.17566 177.366L1.3866 176.804L1.58582 176.241C1.65073 176.063 1.66925 175.912 1.65613 175.772L1.60926 175.21L1.55066 174.647C1.52323 174.358 1.47563 174.065 1.39832 173.768L1.24598 173.206L1.10535 172.643C0.953938 172.065 0.921493 171.464 1.02332 170.874L1.11707 170.311L1.22254 169.749C1.23495 169.672 1.22702 169.583 1.17566 169.456L0.94129 168.893L0.718634 168.331C0.45358 167.683 0.379257 166.986 0.542852 166.292L0.683477 165.729L0.812384 165.167C0.837006 165.063 0.83944 164.96 0.800665 164.839L0.613165 164.276L0.437384 163.714C0.231878 163.069 0.214082 162.401 0.390509 161.745L0.695196 160.62C0.741399 160.448 0.74491 160.287 0.718634 160.128L0.531134 159.003C0.464653 158.601 0.409413 158.198 0.367071 157.796L0.249884 156.671C0.19723 156.169 0.210048 155.659 0.28504 155.159L0.449102 154.034C0.49435 153.732 0.518461 153.432 0.519415 153.132V152.007L0.495977 150.964L0.460821 150.401L0.437384 149.839C0.4041 149.229 0.515297 148.631 0.742071 148.069L1.18738 146.944C1.25072 146.786 1.27027 146.665 1.2577 146.557L1.11707 145.432C1.05816 144.929 1.0672 144.423 1.14051 143.921L1.30457 142.796C1.34506 142.52 1.36682 142.237 1.35145 141.964L1.28113 140.839C1.26858 140.625 1.21865 140.4 1.12879 140.159L0.929571 139.597L0.718634 139.034C0.548841 138.578 0.414305 138.109 0.331915 137.64L0.238165 137.077L0.132696 136.515C0.0172591 135.851 0.0987518 135.195 0.343634 134.581L0.578009 134.018L0.800665 133.456C0.907837 133.188 0.978801 132.927 1.0116 132.682L1.15223 131.557L1.4452 129.8L1.55066 129.237C1.60717 128.927 1.64003 128.619 1.65613 128.311L1.69129 127.749L1.71473 127.186C1.72036 127.078 1.70219 126.941 1.62098 126.765L1.10535 125.64C0.809664 124.998 0.711916 124.291 0.859259 123.577L1.09363 122.452C1.15666 122.146 1.19136 121.84 1.21082 121.538L1.28113 120.413C1.304 120.057 1.31896 119.702 1.32801 119.347L1.35145 118.784L1.36316 118.222C1.36883 117.999 1.34644 117.769 1.28113 117.53L1.11707 116.968L0.964727 116.405C0.770512 115.696 0.830308 114.975 1.10535 114.307L1.33973 113.745L1.55066 113.218L1.30457 112.702L1.04676 112.14C0.714245 111.418 0.673942 110.627 0.953009 109.866L1.15223 109.304L1.35145 108.8L1.05848 108.261L0.765509 107.698C0.42046 107.035 0.299197 106.292 0.484259 105.53L0.613165 104.968L0.75379 104.405C0.782082 104.288 0.778822 104.18 0.742071 104.054L0.413946 102.929C0.219399 102.26 0.232843 101.572 0.449102 100.913L0.824102 99.788C0.837548 99.7458 0.834359 99.7175 0.812384 99.659L0.390509 98.534C0.0495297 97.6243 0.254341 96.7381 0.75379 96.0262L1.15223 95.4637L1.53895 94.9012C1.597 94.8186 1.62458 94.7617 1.6327 94.7372C1.63777 94.7215 1.63285 94.713 1.6327 94.7137L1.60926 94.1512L1.5741 93.5887C1.56425 93.4171 1.5216 93.2234 1.42176 93.0028L0.906134 91.8778C0.640618 91.2909 0.520505 90.6577 0.578009 90.0028L0.671759 88.8778C0.71661 88.3671 0.835021 87.8667 1.0116 87.3778L1.21082 86.8153L1.41004 86.288L1.12879 85.7372L0.859259 85.1747C0.522157 84.4882 0.424833 83.7212 0.648321 82.9598L0.824102 82.3973L0.988165 81.8348L0.683477 81.2372L0.413946 80.6747C0.130197 80.0986 -0.0268717 79.4674 0.00378984 78.8114L0.0389461 78.2489L0.0623836 77.6864C0.096277 76.9752 0.356064 76.3318 0.742071 75.7762L1.14051 75.2137L1.52723 74.6512C1.65393 74.4682 1.65584 74.3763 1.65613 74.3583L1.67957 73.2333C1.68134 73.1115 1.65073 72.9643 1.56238 72.7762L1.29285 72.2137L1.03504 71.6512C0.777222 71.104 0.622772 70.5146 0.613165 69.9051V69.3426L0.601446 68.7801C0.592448 68.1833 0.712546 67.6058 0.94129 67.0575L1.17566 66.495L1.36316 66.0614L1.0702 65.5926L0.730352 65.0301C0.269955 64.2627 0.176266 63.3663 0.56629 62.5106L1.08191 61.3856C1.20145 61.1232 1.2794 60.8781 1.31629 60.6473L1.39832 60.0848L1.49207 59.5223C1.53296 59.2664 1.54833 59.0132 1.52723 58.7606L1.48035 58.1981L1.42176 57.6356C1.39464 57.3125 1.35388 56.9881 1.29285 56.663L1.08191 55.538C1.0184 55.1998 0.947847 54.8582 0.859259 54.5184L0.706915 53.9559L0.56629 53.3934C0.402422 52.766 0.397782 52.1208 0.56629 51.495L0.870977 50.37C0.976359 49.9794 1.09177 49.5883 1.21082 49.1981L1.37488 48.6356L1.51551 48.2137L1.12879 47.6981L0.730352 47.1356C0.242412 46.453 0.0138145 45.5913 0.296759 44.6864L0.648321 43.5614C0.759055 43.2072 0.859169 42.8484 0.953009 42.495L1.2577 41.37C1.29329 41.2328 1.28854 41.1036 1.2577 40.9715L0.999884 39.8465C0.891416 39.3813 0.818193 38.9129 0.800665 38.4403L0.788946 37.8778L0.765509 37.3153C0.757049 37.087 0.7172 36.849 0.636602 36.6005L0.261602 35.4755C-0.0305325 34.5778 0.189774 33.7161 0.671759 33.0262L1.46863 31.9012C1.47826 31.8875 1.48631 31.8757 1.49207 31.8661L1.3866 31.3739L1.26941 30.8114C1.18716 30.4171 1.11195 30.0226 1.04676 29.6278L0.859259 28.5028C0.752937 27.8582 0.823101 27.2214 1.04676 26.6161L1.46863 25.4911C1.55764 25.2506 1.59834 25.0239 1.60926 24.8114L1.6327 24.2489L1.66785 23.6864C1.6754 23.5362 1.64872 23.3636 1.5741 23.1708L1.35145 22.6083L1.14051 22.0458C0.98102 21.6333 0.839581 21.2196 0.718634 20.8036L0.390509 19.6786C0.211775 19.0636 0.189184 18.4301 0.331915 17.8036L0.84754 15.5536L0.964727 14.9911L1.09363 14.4286C1.17503 14.0655 1.25549 13.7016 1.32801 13.3387L1.4452 12.7762L1.55066 12.2137C1.57946 12.0687 1.58057 11.9238 1.53895 11.7684L1.23426 10.6434C1.08657 10.0901 1.04837 9.52479 1.11707 8.95592L1.17566 8.39342L1.24598 7.83092C1.29764 7.40404 1.37345 6.9851 1.46863 6.58874L1.58582 6.08483L1.71473 5.59264C1.80944 5.19826 1.92598 4.81037 2.06629 4.44421L2.23035 3.99889L2.40613 3.54186C2.66952 2.85449 3.17815 2.34371 3.83582 2.05358L4.74988 1.65514C4.88058 1.59744 4.96543 1.54344 5.01941 1.51452H5.03113L5.12488 1.43249L5.26551 1.3153L5.89832 0.952018C6.07419 0.878809 6.27516 0.805938 6.48426 0.741081L7.60926 0.389518L8.24207 0.272331C8.8579 0.228444 9.44639 0.399501 9.96473 0.717643L10.5272 1.06921L11.0897 1.40905C11.1632 1.4543 11.2132 1.47512 11.2304 1.47936C11.2443 1.48274 11.2514 1.47965 11.2538 1.47936L12.3788 1.33874C12.7059 1.29863 13.0341 1.24527 13.3632 1.17467L13.9257 1.05749L14.4882 0.928581C14.8924 0.841671 15.3017 0.767191 15.7069 0.705924L16.8319 0.541862C17.3245 0.467436 17.8249 0.45056 18.3202 0.494987L19.4452 0.588737C19.7813 0.618835 20.1173 0.643103 20.453 0.647331H21.0155L21.578 0.659049C21.9648 0.663926 22.3514 0.680013 22.7382 0.694206L23.3007 0.705924L23.8632 0.729362C24.1054 0.738249 24.3503 0.714677 24.6014 0.659049L25.1639 0.530143L25.7264 0.412956C26.2941 0.286267 26.8764 0.275085 27.4491 0.377799L28.0116 0.471549L28.5741 0.577018C28.8522 0.626792 29.1327 0.641509 29.4061 0.635612L30.5311 0.612174C31.0992 0.600566 31.6598 0.701182 32.1952 0.893424L33.3202 1.29186C33.4744 1.34682 33.6006 1.35602 33.7186 1.33874L34.8436 1.17467C35.3534 1.10031 35.8681 1.09661 36.3788 1.16296L36.9413 1.24499L37.5038 1.3153C37.5077 1.31569 37.5152 1.31814 37.5272 1.3153C37.5447 1.31107 37.5848 1.28801 37.6561 1.24499L38.7811 0.565299L39.3554 0.295768C39.9523 0.0897562 40.6019 0.0961618 41.2421 0.354362L41.8046 0.577018L42.3671 0.811393C42.4775 0.856047 42.5494 0.848082 42.6132 0.834831L43.7382 0.600456C44.1117 0.519927 44.4896 0.434689 44.8632 0.354362L45.4257 0.237174L45.9882 0.108268L46.5858 0.0496743C47.1714 0.0462291 47.7252 0.220587 48.2147 0.518424L48.7772 0.858268L49.1991 1.11608L49.5858 0.928581L50.1483 0.659049C50.6574 0.411819 51.1974 0.245381 51.7538 0.178581L52.8788 0.0379555C53.6257 -0.0514475 54.3286 0.13669 54.9413 0.494987L56.0663 1.15124V1.16296L56.5585 1.01061L57.121 0.834831C57.6142 0.686569 58.123 0.604818 58.6327 0.588737L59.1952 0.565299L59.7577 0.553581C60.3607 0.535063 60.9496 0.653063 61.5038 0.881706L62.6288 1.35046C62.8549 1.44383 63.0638 1.48329 63.2499 1.49108L66.6249 1.63171C66.8927 1.64329 67.1617 1.62981 67.4335 1.58483L68.5585 1.39733C68.7855 1.35953 69.0354 1.28621 69.2968 1.16296L70.4218 0.623893L71.0311 0.424674C71.4455 0.334566 71.8649 0.341517 72.2733 0.448112L72.871 0.670768L73.996 1.25671C74.215 1.36885 74.4008 1.41794 74.5585 1.43249L75.6835 1.52624C75.7953 1.53602 75.9369 1.52705 76.1054 1.45592L76.6679 1.22155L77.2304 0.975456C77.7287 0.765672 78.2463 0.632872 78.7772 0.577018L79.9022 0.459831C80.4015 0.407316 80.9048 0.411343 81.4022 0.483268L82.5272 0.647331C82.9503 0.708643 83.3727 0.78866 83.7929 0.893424L84.9179 1.17467C85.0951 1.21895 85.2662 1.22654 85.4335 1.19811L86.5585 1.01061C86.9454 0.94488 87.3316 0.878937 87.7186 0.823112L88.8436 0.659049C89.3568 0.585031 89.8769 0.588819 90.3905 0.659049L90.953 0.729362L91.5155 0.811393C91.8815 0.861412 92.2511 0.907861 92.6171 0.952018L93.7421 1.09264C94.185 1.14629 94.6285 1.22404 95.0663 1.33874L96.1913 1.64342C96.4399 1.70823 96.6819 1.73842 96.9179 1.73717L97.4804 1.72546H98.0429C98.2276 1.72414 98.4325 1.69137 98.6522 1.60827L99.2147 1.38561L99.7772 1.17467C100.408 0.935864 101.077 0.878641 101.746 1.02233L102.308 1.13952L102.871 1.26842C103.217 1.34324 103.568 1.4011 103.914 1.45592L105.039 1.64342C105.289 1.6831 105.541 1.68971 105.789 1.66686L106.351 1.60827L106.914 1.56139C107.096 1.54434 107.303 1.48489 107.535 1.37389L108.66 0.834831L109.269 0.623893C109.682 0.531196 110.103 0.532895 110.512 0.635612L111.109 0.869987L112.234 1.43249C112.349 1.49045 112.4 1.48331 112.422 1.47936L112.984 1.37389L113.547 1.28014C114.052 1.18929 114.56 1.16193 115.07 1.20983L115.633 1.26842L116.195 1.3153C116.326 1.32772 116.478 1.31133 116.652 1.24499L117.777 0.823112C118.359 0.601932 118.969 0.508932 119.594 0.577018L120.156 0.635612L120.719 0.705924C120.884 0.724094 121.058 0.704121 121.246 0.647331L121.808 0.483268L122.371 0.307487C122.861 0.158927 123.365 0.0718943 123.871 0.0496743L124.996 0.00279928ZM124.562 3.02624L124 3.04967C123.756 3.06041 123.498 3.09965 123.238 3.17858L122.676 3.34264L122.113 3.51842C121.553 3.68749 120.973 3.74658 120.391 3.68249L119.266 3.5653C119.143 3.5523 119.009 3.56104 118.844 3.62389L117.719 4.04577C117.143 4.26494 116.533 4.36226 115.914 4.30358L115.351 4.24499L114.789 4.19811C114.553 4.17596 114.315 4.18975 114.074 4.23327L113.512 4.32702L112.949 4.43249C112.223 4.56331 111.52 4.43407 110.887 4.11608L110.324 3.82311L109.855 3.58874L109.398 3.81139L108.836 4.08092C108.318 4.3287 107.763 4.49633 107.195 4.54967L106.633 4.59655L106.07 4.65514C105.571 4.70172 105.067 4.68692 104.57 4.60827L103.445 4.42077C103.044 4.35713 102.639 4.28461 102.238 4.19811L101.676 4.08092L101.113 3.95202C101.036 3.93601 100.958 3.94432 100.844 3.98717L99.7186 4.40905C99.1888 4.60976 98.6313 4.72143 98.0663 4.72546H97.5038L96.9413 4.73717C96.4313 4.74055 95.9266 4.66812 95.4296 4.53796L94.8671 4.39733L94.3046 4.24499C93.9938 4.16356 93.6844 4.10609 93.3788 4.06921L92.2538 3.92858C91.8713 3.88242 91.4878 3.84025 91.1054 3.78796L90.5429 3.70592L89.9804 3.63561C89.7454 3.60349 89.5126 3.60206 89.2772 3.63561L88.1522 3.79967C87.7907 3.85182 87.4241 3.90231 87.0624 3.96374L86.4999 4.05749L85.9374 4.16296C85.3547 4.26196 84.764 4.23569 84.1913 4.09264L83.0663 3.81139C82.7403 3.73007 82.4167 3.65888 82.0936 3.61217L80.9686 3.44811C80.7175 3.41188 80.4679 3.41044 80.2186 3.43639L79.0936 3.55358C78.8766 3.57641 78.6403 3.63562 78.3905 3.74108L77.828 3.97546L77.2655 4.22155C76.6847 4.46634 76.0629 4.57023 75.4257 4.51452L74.3007 4.42077C73.711 4.36891 73.1514 4.18734 72.6249 3.91686L72.0624 3.63561L71.5936 3.38952L71.1366 3.61217L70.5741 3.86999C70.0854 4.10047 69.5736 4.2634 69.0507 4.35046L67.9257 4.53796C67.4511 4.61674 66.9745 4.65235 66.496 4.63171L63.121 4.49108C62.5571 4.46748 62.0043 4.33249 61.4804 4.11608L60.9179 3.88171L60.3554 3.65905C60.1614 3.57936 59.997 3.54911 59.8514 3.55358L59.2889 3.5653L58.7264 3.58874C58.4888 3.59631 58.2422 3.62956 57.9882 3.70592L57.4257 3.88171L56.8632 4.04577C56.0438 4.29165 55.2449 4.14494 54.5546 3.74108L53.4296 3.08483C53.3139 3.01712 53.2574 3.02486 53.2421 3.02624L52.6796 3.08483L52.1171 3.15514C51.924 3.17825 51.7012 3.23762 51.4608 3.35436L50.8983 3.62389L50.3358 3.90514C49.4752 4.32159 48.5626 4.23939 47.7811 3.76452L46.6561 3.08483C46.6222 3.06417 46.5965 3.05362 46.5858 3.04967L46.0585 3.16686L45.496 3.28405C45.122 3.36446 44.745 3.44953 44.371 3.53014L43.8085 3.64733L43.246 3.77624C42.5623 3.92264 41.8782 3.84602 41.2421 3.58874L40.6796 3.36608L40.246 3.17858L39.7655 3.48327L39.203 3.82311C38.5877 4.19284 37.8769 4.38999 37.1171 4.29186L36.5546 4.20983L35.9921 4.13952C35.754 4.10859 35.5162 4.11632 35.2772 4.15124L34.1522 4.3153C33.5209 4.40775 32.8952 4.32955 32.3007 4.11608L31.1757 3.71764C30.9628 3.64126 30.7698 3.60829 30.5897 3.61217L29.4647 3.63561C28.9901 3.64578 28.5167 3.61419 28.0468 3.53014L26.9218 3.31921C26.7445 3.28742 26.565 3.30196 26.3827 3.34264L25.8202 3.45983L25.2577 3.58874C24.7627 3.69899 24.2617 3.74749 23.7577 3.72936L22.6327 3.68249C22.2708 3.66921 21.9047 3.66363 21.5429 3.65905L20.9804 3.64733H20.4179C20.0045 3.64212 19.5886 3.61404 19.1757 3.57702L18.0507 3.48327C17.7959 3.46041 17.5346 3.46782 17.2772 3.50671L16.1522 3.67077C15.9808 3.69672 15.8088 3.72844 15.6366 3.76256L13.996 4.10436C13.579 4.19395 13.1611 4.26397 12.7421 4.3153L11.6171 4.45592C10.8502 4.54976 10.1338 4.34223 9.51941 3.96374L8.95691 3.62389L8.40613 3.28405L7.93738 3.43639L7.37488 3.60046C7.23608 3.64344 7.14241 3.68223 7.08191 3.70592L7.05848 3.72936L6.91785 3.84655C6.63667 4.08329 6.24196 4.27159 5.95691 4.39733L5.49988 4.59655L5.14832 4.73717L5.03113 5.0653L4.86707 5.52233C4.77686 5.75789 4.68711 6.00914 4.62098 6.28405L4.3866 7.29186C4.32073 7.56615 4.26165 7.87108 4.22254 8.19421L4.16395 8.75671L4.09363 9.31921C4.07268 9.49662 4.07742 9.67719 4.12879 9.86999L4.43348 10.995C4.59234 11.5881 4.6122 12.1961 4.49207 12.7997L4.3866 13.3622L4.26941 13.9247C4.19234 14.3103 4.10975 14.6994 4.02332 15.0848L3.76551 16.2098C3.68092 16.587 3.60577 16.9694 3.51941 17.3465L3.2616 18.4715C3.23395 18.5933 3.23461 18.7134 3.27332 18.8465L3.60145 19.9715C3.69761 20.3017 3.81216 20.6339 3.94129 20.9676L4.15223 21.5301L4.37488 22.0926C4.59032 22.6496 4.68627 23.2391 4.65613 23.8387L4.60926 24.9637C4.58194 25.4992 4.46893 26.0266 4.28113 26.534L3.85926 27.659C3.80816 27.7988 3.79632 27.9086 3.81238 28.0106L3.99988 29.1356C4.05827 29.4892 4.12521 29.848 4.1991 30.202L4.43348 31.327C4.61276 32.1859 4.368 32.9813 3.91785 33.6239L3.53113 34.1864L3.15613 34.6903L3.48426 35.6747C3.6458 36.1722 3.7458 36.6805 3.76551 37.1981L3.77723 37.7606L3.80066 38.3231C3.81089 38.599 3.85177 38.8836 3.91785 39.1669L4.17566 40.2919C4.31949 40.9077 4.31411 41.5331 4.15223 42.1434L3.84754 43.2684C3.74271 43.6632 3.63083 44.058 3.5077 44.452L3.33191 45.0145L3.19129 45.4247L3.57801 45.952L3.97645 46.5145C4.46136 47.1937 4.69703 48.0499 4.42176 48.952L4.24598 49.5145L4.08191 50.077C3.9726 50.4354 3.86207 50.7972 3.76551 51.1551L3.46082 52.2801C3.429 52.4014 3.42947 52.5116 3.46082 52.6317L3.61316 53.1942L3.75379 53.7567C3.86035 54.1648 3.9581 54.5775 4.03504 54.9872L4.24598 56.1122C4.3252 56.5349 4.3861 56.9647 4.42176 57.3895L4.51551 58.5145C4.55643 59.0078 4.53481 59.5011 4.45691 59.9911L4.36316 60.5536L4.28113 61.1161C4.19836 61.634 4.03382 62.1414 3.81238 62.6278L3.55457 63.1903L3.35535 63.5887L3.6366 64.0458L3.97645 64.6083C4.42508 65.3556 4.5315 66.24 4.17566 67.0926L3.70691 68.2176C3.62539 68.4149 3.59941 68.5833 3.60145 68.7333L3.61316 69.2958V69.8583C3.61538 69.9988 3.64658 70.1712 3.74207 70.3739L4.28113 71.4989C4.54323 72.0568 4.68918 72.6557 4.67957 73.2801L4.65613 74.4051C4.64414 75.1364 4.38067 75.7968 3.98816 76.3622L3.60145 76.9247L3.20301 77.4872C3.07164 77.6763 3.0647 77.7872 3.06238 77.827L3.02723 78.3895L3.00379 78.952C2.9994 79.046 3.01189 79.1766 3.09754 79.3505L3.66004 80.4755C3.99615 81.1603 4.08175 81.9187 3.85926 82.6786L3.53113 83.8036C3.53319 83.8106 3.54342 83.8277 3.55457 83.8505L3.8241 84.413L4.10535 84.9755C4.45827 85.6959 4.51539 86.4954 4.23426 87.2723L3.83582 88.3973C3.74264 88.6552 3.6812 88.8994 3.66004 89.1356L3.56629 90.2606C3.55809 90.3539 3.56537 90.4761 3.6366 90.6356L4.15223 91.7606C4.39106 92.2879 4.54208 92.8479 4.5741 93.4247L4.59754 93.9872L4.6327 94.5497C4.67568 95.33 4.41303 96.0358 3.99988 96.6239L3.60145 97.1864L3.2616 97.6551L3.41395 98.0419L3.62488 98.6044C3.88411 99.2934 3.90252 100.021 3.67176 100.725L3.29676 101.85C3.26751 101.94 3.27438 102.006 3.29676 102.085L3.62488 103.21C3.80593 103.832 3.82405 104.477 3.67176 105.108L3.39051 106.233C3.39057 106.234 3.3984 106.245 3.40223 106.257C3.40619 106.269 3.41182 106.289 3.42566 106.315L4.0116 107.44C4.38913 108.164 4.46673 108.976 4.17566 109.772L3.96473 110.335L3.76551 110.897L4.03504 111.448L4.29285 112.011C4.63467 112.756 4.65576 113.564 4.33973 114.331L4.10535 114.893L3.8827 115.456C3.85012 115.535 3.84913 115.57 3.85926 115.608L4.16395 116.733C4.30366 117.243 4.37596 117.767 4.36316 118.292L4.35145 118.854L4.32801 119.417C4.31802 119.81 4.30632 120.208 4.28113 120.6L4.21082 121.725C4.18215 122.171 4.11451 122.62 4.02332 123.061L3.90613 123.624L3.80066 124.186C3.79319 124.223 3.78598 124.277 3.83582 124.386L4.35145 125.511C4.61434 126.083 4.74781 126.699 4.71473 127.339L4.69129 127.901L4.65613 128.464C4.63335 128.903 4.58327 129.34 4.50379 129.776L4.29285 130.901C4.22876 131.252 4.17589 131.605 4.12879 131.956L4.05848 132.518L3.97645 133.081C3.90857 133.587 3.7827 134.087 3.58973 134.569L3.35535 135.132L3.1327 135.694C3.08084 135.825 3.0831 135.916 3.09754 135.999L3.28504 137.124C3.3343 137.405 3.42182 137.697 3.53113 137.991L3.73035 138.554L3.94129 139.116C4.12917 139.622 4.25109 140.141 4.28113 140.675L4.30457 141.237L4.33973 141.8C4.36656 142.276 4.3507 142.755 4.28113 143.229L4.11707 144.354C4.08141 144.598 4.07719 144.839 4.10535 145.081L4.16395 145.643L4.23426 146.206C4.30952 146.847 4.21426 147.479 3.97645 148.069L3.74207 148.632L3.51941 149.194C3.44448 149.38 3.41829 149.537 3.42566 149.675L3.49598 150.8C3.51838 151.204 3.52059 151.614 3.51941 152.018V153.143C3.51789 153.59 3.48053 154.035 3.41395 154.479L3.24988 155.604C3.21234 155.855 3.21214 156.106 3.23816 156.354L3.35535 157.479C3.39143 157.823 3.43909 158.166 3.49598 158.511L3.68348 159.636C3.78093 160.225 3.74362 160.818 3.58973 161.393L3.28504 162.518C3.26022 162.611 3.26411 162.696 3.29676 162.8L3.64832 163.925C3.84894 164.553 3.88314 165.212 3.73035 165.858L3.60145 166.421L3.46082 166.983C3.44885 167.036 3.45563 167.096 3.49598 167.194L3.71863 167.757L3.95301 168.319C4.2048 168.936 4.29111 169.595 4.17566 170.265L4.08191 170.827L3.97645 171.39C3.94901 171.549 3.95499 171.71 3.99988 171.882L4.15223 172.444L4.29285 173.007C4.41061 173.457 4.49576 173.909 4.53895 174.366L4.59754 174.929L4.64441 175.491C4.70184 176.101 4.6185 176.701 4.41004 177.272L4.1991 177.835L3.99988 178.397L3.98816 178.421C3.98904 178.425 3.99321 178.451 3.99988 178.468L4.22254 179.03L4.43348 179.593C4.73232 180.359 4.7035 181.156 4.36316 181.89L4.09363 182.452L3.83582 183.015C3.71696 183.269 3.64705 183.51 3.61316 183.729L3.51941 184.292L3.43738 184.854C3.43337 184.881 3.43179 184.94 3.49598 185.065L4.08191 186.19C4.50325 187.004 4.48536 187.903 4.05848 188.71L3.47254 189.835C3.36024 190.047 3.3077 190.221 3.29676 190.362L3.2616 190.925L3.21473 191.487C3.20893 191.567 3.228 191.687 3.30848 191.85L3.57801 192.413L3.85926 192.975C4.14603 193.559 4.28986 194.197 4.24598 194.862L4.17566 195.987C4.13639 196.574 3.97586 197.135 3.71863 197.663L3.43738 198.225L3.16785 198.788C3.15589 198.812 3.14728 198.837 3.14441 198.847V198.858L3.4491 199.983C3.55437 200.367 3.65612 200.759 3.75379 201.143L3.90613 201.706L4.04676 202.268C4.22538 202.975 4.15838 203.685 3.8827 204.343L3.41395 205.468C3.32176 205.688 3.2793 205.887 3.27332 206.065L3.24988 206.628L3.23816 207.19C3.23133 207.41 3.25699 207.635 3.3202 207.87L3.47254 208.432L3.61316 208.995C3.7785 209.609 3.79518 210.239 3.64832 210.858L3.51941 211.421L3.37879 211.983V212.007C3.37977 212.015 3.38748 212.046 3.41395 212.1L3.95301 213.225C4.3679 214.077 4.30032 214.983 3.83582 215.768L3.5077 216.331L3.21473 216.811L3.40223 217.245L3.6366 217.807C3.8424 218.306 3.98034 218.825 4.03504 219.354L4.15223 220.479C4.19694 220.912 4.20584 221.346 4.1991 221.78V222.343L4.18738 222.905C4.18267 223.204 4.19316 223.507 4.23426 223.807L4.39832 224.932C4.50618 225.725 4.28369 226.459 3.8827 227.077L3.5077 227.64L3.14441 228.202C3.05585 228.339 3.05062 228.407 3.05066 228.425L3.08582 228.987L3.10926 229.55C3.11986 229.749 3.16783 229.972 3.2616 230.206L3.70691 231.331C3.97267 231.996 4.02754 232.703 3.83582 233.405L3.53113 234.53C3.51251 234.599 3.51799 234.641 3.54285 234.706L3.74207 235.257L3.95301 235.796C4.04303 236.032 4.1517 236.234 4.28113 236.405L4.62098 236.839L4.90223 237.225L5.3827 237.319L5.92176 237.401C6.44317 237.487 6.94962 237.664 7.43348 237.905L7.98426 238.186L8.47645 238.421L8.96863 238.222L9.53113 237.975C10.044 237.756 10.5853 237.62 11.1366 237.577L11.6991 237.542L12.2616 237.495C12.6114 237.468 12.9661 237.434 13.3163 237.39L14.4413 237.249C15.0233 237.176 15.6017 237.215 16.1639 237.378L17.2889 237.706C17.4779 237.761 17.6592 237.773 17.828 237.753L18.3905 237.694L18.953 237.624C19.6617 237.541 20.3382 237.693 20.9452 238.011L21.5077 238.315L21.8475 238.491L22.246 238.245L22.8085 237.882L23.4179 237.577C23.6395 237.501 23.8791 237.457 24.1327 237.448C24.6427 237.431 25.1121 237.572 25.5038 237.8L26.6288 238.456C26.8252 238.57 26.9681 238.605 27.0624 238.608L28.1874 238.655C28.4903 238.667 28.7976 238.651 29.1014 238.62L30.2264 238.503C30.6281 238.462 31.0315 238.439 31.4335 238.421L31.996 238.386L32.5585 238.362C32.9842 238.343 33.4102 238.348 33.8358 238.374L34.9608 238.444C35.2714 238.463 35.5877 238.465 35.8983 238.444L36.4608 238.397L37.0233 238.362C37.42 238.335 37.8218 238.325 38.2186 238.315L38.7811 238.292L39.3436 238.28C39.6752 238.272 40.0075 238.257 40.3397 238.222L40.9022 238.163L41.4647 238.093C41.7011 238.067 41.954 238.018 42.2147 237.917L42.7772 237.694L43.3397 237.483C43.9586 237.245 44.6113 237.172 45.2733 237.296L46.3983 237.507C46.7747 237.578 47.1586 237.646 47.535 237.718L48.66 237.929C48.9215 237.978 49.1778 237.997 49.4335 237.987L49.996 237.964L50.5585 237.952C50.8559 237.94 51.1594 237.893 51.4608 237.835L52.5858 237.624C53.0648 237.531 53.5541 237.484 54.0389 237.495L55.1639 237.518C55.5904 237.529 56.0161 237.568 56.4413 237.624L57.0038 237.694L57.5663 237.776C57.8781 237.817 58.1936 237.834 58.5038 237.835H59.6288C59.9277 237.836 60.2298 237.82 60.5311 237.776L61.6561 237.612C62.1772 237.536 62.7056 237.534 63.2264 237.612L64.3514 237.776C64.7838 237.841 65.2123 237.941 65.6405 238.057L66.7655 238.362C66.9502 238.412 67.1237 238.42 67.2929 238.397L68.4179 238.233C68.8263 238.177 69.2391 238.145 69.6483 238.116L70.2108 238.069L70.7733 238.034C71.1438 238.008 71.5161 237.981 71.8866 237.952L72.4491 237.905L73.0116 237.87C73.2525 237.851 73.5014 237.795 73.7616 237.706L74.3241 237.507L74.8866 237.319C75.5812 237.081 76.3043 237.088 76.996 237.331L78.121 237.729C78.3247 237.801 78.5126 237.819 78.6835 237.811L79.8085 237.765C80.0988 237.751 80.3919 237.711 80.6874 237.647L81.2499 237.53L81.8124 237.401C82.2293 237.312 82.6474 237.242 83.0663 237.19L83.6288 237.12L84.1913 237.061C84.801 236.987 85.4063 237.052 85.9843 237.249L87.1093 237.624C87.3207 237.696 87.5131 237.724 87.6952 237.718L88.2577 237.706L88.8202 237.682C89.4414 237.659 90.0393 237.786 90.6014 238.034L91.7264 238.526C91.8366 238.575 91.9027 238.571 91.9491 238.561L92.5116 238.444L93.0741 238.339C93.5251 238.245 93.9777 238.182 94.4335 238.163L95.5585 238.116C96.0914 238.094 96.6236 238.151 97.1405 238.292L97.703 238.456L98.1952 238.585L98.7577 238.222L99.3202 237.87L99.871 237.589C100.255 237.439 100.666 237.364 101.09 237.401L101.734 237.542L102.297 237.729L102.836 237.905H102.859L103.422 237.647L103.984 237.378C104.745 237.02 105.575 237.003 106.351 237.343L106.914 237.589L107.476 237.847C107.61 237.905 107.701 237.904 107.769 237.893L108.332 237.8L108.894 237.718C109.482 237.625 110.068 237.656 110.641 237.811L111.766 238.116L111.777 238.128L111.789 238.116C111.799 238.113 111.823 238.116 111.848 238.104L112.41 237.823L112.973 237.554C113.65 237.226 114.4 237.135 115.152 237.343L116.277 237.647C116.49 237.706 116.692 237.733 116.887 237.718L118.012 237.624C118.513 237.585 119.015 237.607 119.512 237.694L120.074 237.8L120.637 237.893C120.97 237.952 121.301 238.004 121.633 238.034L122.758 238.128C123.172 238.165 123.587 238.221 124 238.292L125.125 238.479C125.166 238.486 125.237 238.491 125.359 238.432L126.484 237.893C127.242 237.534 128.073 237.509 128.851 237.847L129.414 238.093L129.918 238.304L130.433 238.081L130.996 237.823C131.663 237.518 132.397 237.434 133.129 237.624L133.691 237.765L134.254 237.917C134.499 237.98 134.737 238.004 134.969 237.999L136.094 237.975C136.556 237.965 137.017 237.998 137.476 238.069L138.039 238.163L138.601 238.245C138.828 238.28 139.056 238.278 139.281 238.245L140.406 238.081C140.908 238.007 141.414 238 141.918 238.057L142.48 238.128L143.043 238.186C143.146 238.198 143.272 238.193 143.43 238.128L144.555 237.659C145.174 237.403 145.838 237.318 146.512 237.436L147.637 237.624C147.807 237.654 147.974 237.654 148.152 237.612L148.715 237.483L149.277 237.343C149.722 237.238 150.174 237.169 150.625 237.132L151.75 237.038C152.457 236.979 153.122 237.156 153.719 237.483L154.281 237.788L154.844 238.104C155.034 238.209 155.18 238.232 155.277 238.233L155.84 238.245H156.402C156.626 238.248 156.854 238.218 157.094 238.151L157.656 237.999L158.219 237.835C158.735 237.691 159.267 237.628 159.801 237.647L160.926 237.694C161.236 237.706 161.552 237.699 161.863 237.671L162.426 237.612L162.988 237.565C163.61 237.508 164.217 237.61 164.793 237.835L165.355 238.046L165.918 238.268C166.149 238.359 166.366 238.401 166.562 238.409L167.687 238.456C167.84 238.462 168.008 238.438 168.203 238.362L169.328 237.917C169.878 237.702 170.459 237.594 171.051 237.612L171.613 237.636L172.176 237.647C172.665 237.663 173.151 237.733 173.629 237.858L174.754 238.163H174.789L175.398 237.858L175.961 237.589L176.547 237.366C177.136 237.218 177.751 237.266 178.34 237.518L179.465 238.011C179.632 238.083 179.766 238.101 179.875 238.093L181 237.999C181.288 237.975 181.584 237.922 181.879 237.847L182.441 237.706L183.004 237.554L183.59 237.472C184.164 237.443 184.717 237.584 185.219 237.858L185.781 238.163L186.098 238.339L186.461 238.093L187.023 237.706C187.504 237.376 188.069 237.159 188.676 237.143L189.297 237.19L189.859 237.307L190.422 237.413C190.919 237.512 191.403 237.677 191.875 237.893L193 238.409C193.116 238.462 193.178 238.464 193.223 238.456L194.348 238.245C194.678 238.182 195.011 238.093 195.344 237.999L195.906 237.847L196.469 237.682C197.089 237.507 197.727 237.495 198.355 237.647L198.918 237.788L199.48 237.917C199.579 237.941 199.67 237.942 199.785 237.905L200.348 237.729L200.91 237.542C201.636 237.307 202.384 237.348 203.078 237.636L204.203 238.104C204.456 238.209 204.694 238.266 204.918 238.292L205.48 238.362L206.043 238.421C206.046 238.421 206.103 238.433 206.242 238.35L207.367 237.694C207.851 237.409 208.389 237.238 208.961 237.237L209.547 237.296L210.109 237.401L210.672 237.518C210.827 237.55 210.979 237.547 211.141 237.507L212.266 237.225C212.808 237.091 213.363 237.057 213.918 237.12L214.48 237.19L215.043 237.249C215.291 237.278 215.543 237.272 215.793 237.237L216.355 237.167L216.918 237.085C217.413 237.016 217.91 237.009 218.406 237.061L219.531 237.179C219.963 237.225 220.403 237.294 220.832 237.39L221.957 237.647C222.061 237.67 222.161 237.663 222.285 237.624L222.848 237.448L223.41 237.261C224.141 237.024 224.895 237.071 225.59 237.366L226.152 237.6L226.715 237.847C226.915 237.931 227.091 237.953 227.242 237.952H228.367C228.703 237.949 229.039 237.933 229.375 237.905L230.5 237.811C231.112 237.761 231.712 237.852 232.281 238.069L232.844 238.28L233.242 238.432L233.734 238.116L234.297 237.753L234.894 237.448C235.307 237.294 235.747 237.236 236.195 237.307L236.863 237.507L237.426 237.765L237.988 238.011C238.195 238.103 238.372 238.135 238.527 238.14L239.652 238.163C239.99 238.17 240.334 238.168 240.672 238.151L241.797 238.104C242.237 238.083 242.682 238.091 243.121 238.128L244.246 238.222C244.639 238.255 245.037 238.291 245.43 238.339L246.555 238.479C246.722 238.5 246.896 238.485 247.082 238.432L247.644 238.268L248.207 238.116C248.584 238.008 248.966 237.894 249.344 237.788L249.906 237.636L250.469 237.472C250.948 237.337 251.441 237.261 251.933 237.237L252.496 237.202L253.058 237.179C253.607 237.153 254.148 237.221 254.676 237.378L255.238 237.542L255.801 237.718C256.197 237.835 256.6 237.956 256.996 238.093L257.558 238.292L258.062 238.456L258.613 238.175L259.176 237.882C259.692 237.61 260.259 237.481 260.84 237.53L261.414 237.636L262.539 237.964C262.547 237.962 262.575 237.951 262.598 237.94L263.723 237.401C264.312 237.115 264.951 236.972 265.621 237.026L266.746 237.12C267.371 237.171 267.954 237.374 268.492 237.682L269.055 237.999L269.523 238.268L269.969 238.081L270.531 237.835C271.258 237.521 272.046 237.502 272.793 237.788L273.355 237.999L273.918 238.222C274.086 238.285 274.225 238.304 274.351 238.292L275.476 238.175C275.696 238.153 275.931 238.1 276.18 237.999L276.742 237.765L277.305 237.542C278.051 237.238 278.85 237.24 279.59 237.554L280.152 237.8L280.668 238.011L281.207 237.788L281.769 237.542C282.452 237.244 283.195 237.185 283.926 237.401L285.051 237.729C285.397 237.832 285.749 237.931 286.094 238.011L287.219 238.268C287.376 238.304 287.531 238.302 287.687 238.268L288.25 238.151L288.812 238.022C289.382 237.899 289.962 237.889 290.535 237.999L291.098 238.104L291.66 238.222C292.027 238.292 292.395 238.356 292.762 238.421L293.324 238.526L293.887 238.62C294.128 238.663 294.365 238.667 294.601 238.643L295.164 238.597L295.726 238.538C296.113 238.5 296.5 238.461 296.887 238.432L297.449 238.397L298.012 238.35C298.392 238.322 298.78 238.304 299.16 238.28L299.723 238.233L300.285 238.198C300.795 238.166 301.306 238.211 301.808 238.315L302.371 238.432L302.887 238.538C302.899 238.533 302.917 238.521 302.945 238.503L304.07 237.8L304.68 237.507C305.302 237.292 305.981 237.306 306.637 237.612L307.199 237.882L307.762 238.14C308.009 238.255 308.234 238.323 308.441 238.35L309.004 238.421L309.566 238.503C309.783 238.531 310.001 238.521 310.223 238.479L311.348 238.268C311.917 238.161 312.491 238.172 313.058 238.292L314.183 238.526H314.195C314.209 238.521 314.236 238.508 314.266 238.491L315.391 237.858L316.035 237.589C316.473 237.473 316.923 237.479 317.359 237.6L317.992 237.87L318.555 238.186L319.117 238.515C319.271 238.603 319.353 238.599 319.387 238.597L319.949 238.55L320.512 238.515C320.663 238.503 320.844 238.451 321.062 238.339L322.187 237.753C322.754 237.461 323.376 237.297 324.027 237.307L325.152 237.331C325.543 237.337 325.934 237.347 326.324 237.366L326.887 237.39L327.449 237.425C328.03 237.453 328.595 237.594 329.125 237.835L329.687 238.093L330.098 238.268L330.555 238.011L331.117 237.682C331.724 237.326 332.415 237.136 333.156 237.214L334.281 237.331C334.719 237.377 335.16 237.453 335.594 237.554L338.969 238.327C339.209 238.382 339.441 238.408 339.672 238.397L340.234 238.374L340.797 238.339C341.182 238.32 341.578 238.303 341.969 238.292L343.105 238.268H343.094C343.097 238.266 343.108 238.266 343.117 238.257L343.539 237.847L343.973 237.436C344.215 237.205 344.405 236.997 344.547 236.815L344.84 236.429L345.144 236.054C345.344 235.797 345.568 235.491 345.836 235.151L346.246 234.647L346.48 234.331L346.363 234.038L346.117 233.475C345.85 232.858 345.748 232.186 345.859 231.507L346.047 230.382C346.107 230.015 346.157 229.646 346.211 229.28L346.375 228.155V228.143C346.372 228.13 346.369 228.084 346.328 228.015L345.648 226.89C345.168 226.081 345.126 225.151 345.578 224.3L345.883 223.737L346.105 223.292L345.613 222.307C345.202 221.496 345.205 220.601 345.625 219.8L345.918 219.237L346.223 218.675C346.291 218.542 346.285 218.474 346.281 218.44L346.141 217.315C346.113 217.103 346.044 216.874 345.93 216.624L345.414 215.499C345.146 214.913 345.019 214.28 345.074 213.624L345.168 212.499C345.218 211.901 345.405 211.33 345.683 210.8L346.269 209.675L346.105 209.147L345.93 208.585C345.763 208.064 345.674 207.524 345.683 206.979L345.707 205.854C345.715 205.378 345.768 204.894 345.871 204.425L346 203.862L346.117 203.3C346.193 202.956 346.263 202.611 346.316 202.268L346.398 201.706L346.492 201.143C346.496 201.118 346.496 201.065 346.433 200.944L346.141 200.382L345.859 199.819C345.514 199.153 345.387 198.402 345.578 197.64L345.719 197.077L345.871 196.515C345.906 196.376 345.904 196.241 345.871 196.104L345.59 194.979C345.438 194.356 345.444 193.722 345.613 193.104L345.777 192.542L345.93 191.979C345.969 191.835 345.969 191.704 345.941 191.569L345.824 191.007L345.695 190.444C345.594 189.97 345.544 189.484 345.543 189.003V187.878C345.541 187.331 345.637 186.794 345.812 186.272L346.187 185.147C346.196 185.122 346.199 185.108 346.199 185.1C346.199 185.096 346.19 185.069 346.176 185.03L345.754 183.905C345.442 183.083 345.543 182.245 345.953 181.515L346.269 180.952L346.574 180.39C346.596 180.35 346.607 180.328 346.609 180.319L346.48 179.768L346.351 179.206C346.281 178.897 346.186 178.585 346.07 178.268L345.871 177.706L345.66 177.143C345.404 176.446 345.404 175.715 345.648 175.011L345.836 174.448L346.035 173.886C346.123 173.633 346.173 173.39 346.187 173.159L346.258 172.034C346.278 171.719 346.276 171.4 346.258 171.085L346.223 170.522L346.199 169.96C346.171 169.463 346.202 168.963 346.293 168.472L346.504 167.347C346.525 167.228 346.515 167.103 346.469 166.96L346.293 166.397L346.105 165.835C345.954 165.367 345.852 164.887 345.801 164.405L345.742 163.843L345.672 163.28C345.602 162.613 345.726 161.965 346 161.37L346.516 160.245C346.609 160.042 346.654 159.875 346.656 159.729V159.167L346.668 158.604C346.669 158.523 346.649 158.397 346.551 158.218L345.941 157.093C345.581 156.433 345.434 155.687 345.613 154.913L345.871 153.788C345.887 153.72 345.889 153.649 345.848 153.542L345.637 152.979L345.414 152.417C345.16 151.76 345.116 151.058 345.297 150.366L345.437 149.804L345.59 149.241C345.711 148.778 345.876 148.318 346.082 147.87L346.34 147.307L346.527 146.886L346.269 146.44L345.941 145.878C345.568 145.234 345.403 144.489 345.555 143.71L345.766 142.585C345.8 142.405 345.802 142.226 345.766 142.046L345.648 141.483L345.543 140.921C345.395 140.192 345.509 139.478 345.824 138.835L346.094 138.272L346.375 137.71L346.199 137.159L346.012 136.597C345.779 135.885 345.813 135.143 346.082 134.452L346.293 133.89L346.516 133.327C346.599 133.112 346.642 132.92 346.644 132.741V131.616C346.647 131.395 346.619 131.163 346.551 130.925L346.223 129.8C346.038 129.165 346.03 128.506 346.199 127.866L346.351 127.304L346.492 126.741C346.554 126.506 346.583 126.282 346.574 126.061L346.527 124.936C346.519 124.723 346.484 124.496 346.398 124.257L346.187 123.694L345.988 123.132C345.836 122.705 345.714 122.274 345.613 121.843L345.473 121.28L345.344 120.718C345.228 120.225 345.182 119.721 345.191 119.218L345.203 118.655V118.093C345.217 117.415 345.439 116.79 345.777 116.229L346.457 115.104C346.556 114.941 346.552 114.852 346.551 114.823L346.504 113.698C346.486 113.352 346.458 113.002 346.422 112.655L346.305 111.53C346.283 111.326 346.214 111.105 346.105 110.862L345.859 110.3L345.601 109.737C345.274 109.004 345.247 108.209 345.543 107.452L345.988 106.327C345.995 106.31 345.998 106.299 346 106.292V106.268C345.999 106.263 345.992 106.257 345.988 106.245L345.801 105.682L345.601 105.12C345.405 104.551 345.331 103.953 345.391 103.35L345.449 102.788L345.496 102.225C345.52 101.978 345.523 101.726 345.484 101.475L345.391 100.913L345.308 100.35C345.237 99.8872 345.2 99.4223 345.215 98.9559L345.238 98.3934L345.25 97.8309C345.267 97.2871 345.379 96.7522 345.566 96.2372L345.766 95.6747L345.976 95.1122C346.099 94.7754 346.2 94.4383 346.293 94.1044L346.457 93.5419L346.609 92.9794C346.659 92.7983 346.667 92.6284 346.644 92.4637L346.562 91.9012L346.492 91.3387C346.465 91.1461 346.394 90.9257 346.269 90.6825L345.976 90.12L345.695 89.5575C345.38 88.9402 345.232 88.2559 345.332 87.5419L345.496 86.4169C345.564 85.9324 345.688 85.4556 345.859 84.9872L346.058 84.4247L346.269 83.8622C346.376 83.5708 346.446 83.285 346.492 83.0067L346.68 81.8817C346.699 81.7674 346.696 81.643 346.644 81.495L346.246 80.37C346.008 79.6925 345.993 78.9834 346.211 78.2958L346.387 77.7333L346.539 77.2294L346.223 76.6903L345.906 76.1278C345.58 75.5613 345.379 74.9277 345.379 74.2528V73.1278C345.379 72.8109 345.369 72.4849 345.332 72.1669L345.191 71.0419C345.135 70.5458 345.148 70.0487 345.215 69.5536L345.285 68.9911L345.367 68.4286C345.44 67.8935 345.595 67.3678 345.824 66.87L346.34 65.745C346.38 65.6559 346.38 65.6266 346.375 65.6044L346.094 64.4794C345.948 63.882 345.947 63.2749 346.082 62.6747L346.199 62.1122L346.328 61.5497C346.328 61.5484 346.323 61.5121 346.293 61.4559L346 60.8934L345.695 60.3309C345.396 59.772 345.22 59.1622 345.215 58.5145L345.203 57.952V57.3895C345.199 56.6806 345.429 56.0278 345.789 55.4559L346.141 54.8934L346.316 54.6005L346.105 54.284L345.719 53.7215C345.287 53.0921 345.047 52.3276 345.191 51.495L345.285 50.9325L345.391 50.37C345.426 50.1666 345.427 49.9643 345.391 49.7606L345.285 49.1981L345.191 48.6356C345.044 47.8006 345.274 47.0292 345.707 46.3973L346.48 45.2723C346.595 45.1044 346.609 45.0226 346.609 45.0028V43.8778C346.609 43.8208 346.59 43.7069 346.48 43.5262L345.801 42.4012C345.343 41.6457 345.241 40.7617 345.613 39.9051L345.859 39.3426L346.082 38.827L345.848 38.3114L345.59 37.7489C345.177 36.8521 345.306 35.931 345.812 35.1708L346.187 34.6083L346.551 34.0458L346.422 33.6005L346.269 33.038C346.134 32.5583 346.048 32.0652 346.023 31.5731L346 31.0106L345.965 30.4481C345.946 30.0655 345.942 29.6823 345.93 29.2997L345.906 28.7372L345.894 28.1747C345.879 27.6804 345.912 27.1853 346.012 26.6981L346.246 25.5731L346.211 25.5028L345.555 24.3778C345.332 23.9936 345.185 23.5388 345.191 23.0419C345.198 22.5469 345.363 22.1058 345.59 21.7294L345.93 21.1669L346.258 20.6044L346.281 20.5575L346.164 20.0301L346.023 19.4676C345.875 18.8375 345.9 18.1998 346.082 17.5809L346.41 16.4559C346.451 16.3182 346.46 16.1928 346.433 16.0692L346.305 15.5067L346.187 14.9442C346.108 14.5804 346.017 14.2183 345.93 13.8544L345.801 13.2919L345.66 12.7294C345.557 12.3023 345.48 11.8707 345.426 11.4403L345.285 10.3153C345.185 9.5252 345.412 8.79789 345.812 8.18249L346.176 7.61999L346.398 7.25671L345.941 6.44811C345.726 6.07537 345.522 5.72245 345.344 5.38171L345.098 4.90124L344.933 4.59655L344.641 4.56139L344.113 4.49108C343.494 4.39857 342.921 4.14216 342.414 3.79967L341.875 3.43639L341.617 3.26061L341.348 3.45983L340.785 3.84655C340.156 4.27946 339.392 4.52647 338.558 4.38561L337.433 4.19811C337.263 4.16939 337.097 4.17834 336.918 4.22155L336.355 4.35046L335.793 4.49108C335.014 4.68098 334.254 4.53927 333.59 4.17467L333.027 3.86999L332.547 3.60046L332.101 3.79967L331.539 4.04577C330.783 4.37687 329.965 4.38567 329.207 4.05749L328.082 3.5653L327.519 3.76452L326.957 3.97546C326.169 4.26882 325.363 4.20117 324.637 3.83483L323.512 3.27233C323.346 3.18853 323.229 3.17415 323.148 3.17858L322.023 3.24889C321.773 3.26359 321.515 3.30858 321.25 3.38952L320.687 3.55358L320.125 3.72936C319.707 3.85704 319.28 3.96995 318.859 4.05749L317.734 4.29186C317.08 4.42698 316.423 4.37385 315.801 4.15124L315.238 3.95202L314.676 3.74108C314.419 3.64953 314.173 3.59708 313.937 3.57702L312.812 3.48327C312.643 3.46908 312.458 3.49089 312.262 3.55358L311.699 3.72936L311.137 3.91686C310.394 4.15295 309.639 4.08851 308.945 3.77624L308.383 3.51842L307.844 3.28405L307.328 3.50671L306.766 3.74108C306.285 3.94429 305.794 4.09657 305.289 4.17467L304.164 4.33874C303.766 4.4002 303.367 4.46144 302.969 4.5028L301.844 4.61999C301.107 4.69634 300.411 4.50388 299.805 4.15124L299.242 3.82311L298.797 3.5653L297.836 4.04577C297.224 4.34126 296.551 4.47033 295.855 4.37389L294.73 4.20983C294.169 4.13091 293.621 3.9458 293.113 3.68249L292.551 3.38952L292.094 3.15514L291.648 3.3778L291.086 3.64733C290.444 3.95691 289.736 4.06305 289.012 3.91686L288.449 3.81139L287.887 3.69421C287.726 3.66183 287.571 3.66771 287.406 3.70592L286.281 3.96374C285.842 4.06701 285.389 4.14407 284.945 4.18639L284.383 4.24499L283.82 4.29186C283.454 4.32681 283.085 4.36909 282.719 4.40905L281.594 4.52624C280.882 4.60342 280.207 4.4401 279.601 4.11608L279.039 3.82311L278.594 3.57702L278.172 3.79967L277.609 4.09264C276.947 4.429 276.207 4.54723 275.453 4.36217L274.328 4.08092C274.111 4.02728 273.9 4.01619 273.695 4.03405L272.57 4.1278C272.271 4.15447 271.961 4.20651 271.656 4.28014L271.094 4.42077L270.531 4.54967C269.868 4.70916 269.2 4.66756 268.562 4.44421L268 4.25671L267.437 4.05749L265.785 3.50671L265.223 3.33092C265.16 3.3118 265.115 3.30805 265.047 3.33092L264.484 3.53014L263.922 3.71764C263.51 3.85854 263.094 3.9874 262.68 4.09264L261.555 4.37389C261.056 4.5004 260.542 4.56908 260.031 4.56139L258.906 4.53796C258.386 4.52966 257.872 4.44643 257.371 4.29186L256.246 3.9403C255.925 3.84111 255.601 3.76429 255.285 3.70592L254.16 3.49499C253.967 3.45952 253.779 3.45921 253.586 3.49499L250.211 4.1278C249.832 4.19878 249.453 4.27153 249.074 4.33874L248.512 4.43249L247.949 4.53796C247.402 4.63499 246.844 4.63344 246.297 4.53796L245.734 4.44421L245.172 4.33874C244.904 4.29229 244.638 4.28158 244.375 4.29186L243.25 4.33874C242.779 4.35781 242.3 4.32703 241.832 4.25671L240.707 4.09264C240.517 4.06448 240.329 4.06207 240.133 4.10436L239.57 4.23327L239.008 4.35046C238.459 4.47033 237.899 4.49075 237.344 4.40905L236.219 4.24499C235.911 4.19939 235.599 4.17778 235.293 4.17467L234.73 4.16296H234.168C233.914 4.1604 233.657 4.18611 233.394 4.24499L232.269 4.5028C231.722 4.62644 231.161 4.64906 230.605 4.57311L230.043 4.49108L229.48 4.42077C229.021 4.35792 228.56 4.25604 228.109 4.11608L226.984 3.76452H226.949C226.94 3.76687 226.921 3.76791 226.902 3.77624L225.777 4.26842C225.104 4.56036 224.379 4.62389 223.656 4.42077L223.094 4.26842L222.531 4.10436C222.1 3.98249 221.667 3.8328 221.242 3.65905L220.68 3.42467L220.117 3.20202C219.897 3.11187 219.699 3.06625 219.519 3.06139L218.394 3.03796C218.339 3.03649 218.237 3.04522 218.066 3.14342L216.941 3.79967C216.39 4.12019 215.777 4.32224 215.125 4.35046L214 4.39733C213.618 4.41357 213.233 4.43395 212.851 4.44421L211.726 4.46764C211.36 4.47746 210.991 4.48791 210.625 4.5028L209.5 4.54967C208.882 4.57484 208.281 4.45194 207.719 4.20983L207.156 3.96374L206.594 3.72936L206.57 3.71764L206.031 3.9403L205.469 4.15124C204.987 4.3351 204.495 4.46455 203.992 4.52624L203.43 4.59655L202.867 4.65514C202.319 4.72237 201.766 4.69407 201.226 4.57311L200.664 4.45592L200.101 4.32702C199.874 4.27639 199.651 4.26151 199.433 4.28014L198.308 4.37389C197.786 4.4183 197.264 4.38943 196.75 4.28014L196.187 4.15124L195.625 4.03405C195.243 3.95255 194.858 3.86357 194.476 3.77624L193.351 3.51842C193.244 3.49377 193.137 3.50189 193.012 3.54186L191.887 3.89342C191.448 4.03259 191.007 4.14555 190.562 4.22155L189.437 4.40905C188.667 4.54048 187.937 4.36857 187.305 3.99889L186.742 3.67077L186.226 3.35436L185.758 3.53014L185.195 3.72936C184.645 3.92935 184.071 4.02884 183.484 3.99889L182.922 3.96374L182.359 3.9403C181.794 3.91094 181.242 3.77705 180.719 3.55358L180.156 3.30749L179.594 3.07311C179.562 3.05978 179.544 3.05102 179.535 3.04967H179.523C179.52 3.05011 179.512 3.0578 179.5 3.06139L178.937 3.22546L178.375 3.40124C177.91 3.54289 177.433 3.63408 176.957 3.68249L175.832 3.79967C175.434 3.84015 175.035 3.87407 174.637 3.89342L173.512 3.9403C173.21 3.95485 172.902 3.99864 172.598 4.05749L171.473 4.26842C170.954 4.36879 170.426 4.39495 169.902 4.33874L168.777 4.22155C168.47 4.18826 168.158 4.17764 167.851 4.18639L166.726 4.20983C166.157 4.22611 165.6 4.13007 165.062 3.9403L164.5 3.74108L163.973 3.5653L162.871 4.13952C162.123 4.52498 161.292 4.57393 160.492 4.24499L159.93 4.02233L159.367 3.78796C159.148 3.69774 158.946 3.66327 158.769 3.65905L158.207 3.63561L157.644 3.62389C157.523 3.62146 157.373 3.64331 157.187 3.72936L156.625 3.99889L156.062 4.25671C155.218 4.64752 154.326 4.57715 153.555 4.1278L152.992 3.78796L152.43 3.45983C152.396 3.44021 152.37 3.44007 152.359 3.43639L151.82 3.55358L151.258 3.68249C150.641 3.81955 150.014 3.80314 149.406 3.63561L148.844 3.48327L148.281 3.31921H148.269C148.269 3.31924 148.245 3.3214 148.199 3.34264L147.637 3.61217L147.074 3.86999C146.526 4.1277 145.938 4.28383 145.328 4.29186H144.766L144.203 4.30358C143.836 4.3084 143.468 4.31606 143.101 4.32702L142.539 4.33874L141.976 4.36217C141.631 4.37255 141.28 4.39071 140.933 4.42077L139.808 4.51452C139.147 4.57108 138.509 4.44889 137.922 4.17467L137.359 3.90514L136.797 3.64733C136.698 3.60141 136.66 3.60619 136.633 3.61217L136.07 3.72936L135.508 3.85827C135.036 3.96208 134.557 4.01539 134.078 4.02233L132.953 4.04577C132.444 4.05295 131.939 3.98374 131.441 3.85827L130.316 3.57702H130.305C130.303 3.57724 130.273 3.57553 130.223 3.60046L129.098 4.16296C128.682 4.36843 128.206 4.47747 127.703 4.42077C127.208 4.36468 126.775 4.15731 126.426 3.90514L125.863 3.49499L125.301 3.09655C125.216 3.03596 125.161 3.01102 125.137 3.0028C125.118 2.99658 125.117 2.99142 125.125 2.99108L124.562 3.02624Z" fill="black"/>
</svg>
