<svg width="306.00000000000006" height="58" xmlns="http://www.w3.org/2000/svg" fill="none">
 <g>
  <title>Layer 1</title>
  <path id="svg_1" fill="#9b9b9b" d="m300,0.6797c0.641,-0.07838 1.272,0.02297 1.863,0.25781l1.125,0.44532c0.181,0.07174 0.31,0.11376 0.387,0.14062l0,0.01172c0.76,0.0665 1.121,0.62186 1.183,0.72656c0.112,0.18873 0.176,0.37115 0.2,0.45703c0.054,0.19463 0.082,0.41199 0.105,0.59766l0.059,0.50391l0.07,0.49218c0.042,0.34114 0.076,0.70866 0.117,1.08985l0.059,0.5625l0.07,0.5625c0.064,0.58835 0.001,1.17138 -0.176,1.73437l-0.351,1.125c-0.086,0.27228 -0.144,0.53918 -0.164,0.79687l-0.047,0.5625l-0.035,0.5625c-0.038,0.4737 -0.128,0.9425 -0.258,1.4063l-0.152,0.5625l-0.164,0.5625c0.002,0.0082 0.014,0.0181 0.023,0.0351l0.281,0.5625l0.293,0.5625c0.314,0.6128 0.456,1.2944 0.363,2.0039l-0.14,1.125c-0.028,0.2128 -0.018,0.4272 0.023,0.6446l0.211,1.125c0.131,0.6768 0.055,1.3535 -0.199,1.9804l-0.234,0.5625l-0.223,0.5625c-0.09,0.2221 -0.135,0.4265 -0.141,0.6094l-0.011,0.5625l-0.024,0.5625c-0.002,0.1087 0.031,0.2426 0.117,0.4219l0.539,1.125c0.279,0.5788 0.414,1.208 0.375,1.8633l-0.023,0.5625l-0.035,0.5625c-0.037,0.6155 -0.218,1.2059 -0.504,1.746l-0.305,0.5625l-0.293,0.5625c-0.077,0.148 -0.086,0.2318 -0.082,0.2813l0.059,0.5625l0.047,0.5625c0.013,0.1476 0.057,0.3311 0.175,0.5508l0.61,1.125c0.308,0.5701 0.492,1.1974 0.48,1.8633l-0.023,1.125c-0.012,0.6586 -0.2,1.2804 -0.516,1.8398l-0.633,1.125c-0.032,0.0587 -0.055,0.0901 -0.058,0.1055l0,0.0234l0.094,0.5625l0.105,0.5625c0.07,0.4107 0.113,0.8304 0.152,1.2422l0.118,1.125c0.054,0.5794 -0.015,1.1561 -0.188,1.7109l-0.176,0.5625l-0.14,0.4336l0.351,0.5391l0.375,0.5625c0.44,0.6679 0.645,1.4793 0.422,2.332l-0.152,0.5625l-0.141,0.5625c-0.096,0.3694 -0.189,0.744 -0.281,1.1133l-0.281,1.125c-0.154,0.6131 -0.512,1.31 -1.254,1.7109l-0.364,0.1993l-0.363,0.1875c-0.87,0.469 -1.75,0.2211 -2.32,-0.0704l-0.563,-0.2812l-0.433,-0.2344l-0.434,0.2344l-0.562,0.293c-0.682,0.3547 -1.452,0.463 -2.227,0.2461l-0.562,-0.1524l-0.563,-0.164c-0.282,-0.0788 -0.56,-0.1201 -0.832,-0.1407l-1.125,-0.0937c-0.157,-0.0118 -0.325,0.0157 -0.516,0.082l-0.562,0.1992l-0.563,0.1875c-0.447,0.1561 -0.901,0.2829 -1.359,0.3633l-0.562,0.0938l-0.563,0.1054c-0.423,0.0742 -0.853,0.1201 -1.277,0.1524l-0.563,0.0468l-0.562,0.0352c-0.808,0.0603 -1.53,-0.2118 -2.121,-0.6445l-0.563,-0.4219l-0.48,-0.3516l-0.364,0.1407l-0.562,0.2109c-0.533,0.1968 -1.086,0.2963 -1.652,0.293l-1.125,0c-0.338,-0.0021 -0.682,0.0121 -1.02,0.0351l-1.125,0.0703c-0.538,0.0361 -1.07,-0.0182 -1.594,-0.1523l-1.125,-0.2813c-0.175,-0.0447 -0.34,-0.0513 -0.504,-0.0234l-1.125,0.1875c-0.362,0.0618 -0.727,0.1285 -1.089,0.1992l-0.563,0.1172l-0.562,0.1055c-0.698,0.1355 -1.383,0.0339 -2.016,-0.2461l-0.563,-0.2461l-0.515,-0.2344l-0.516,0.2461l-0.562,0.2461c-0.616,0.2757 -1.285,0.3858 -1.969,0.2813l-0.563,-0.0821l-0.562,-0.0937c-0.456,-0.0699 -0.913,-0.1724 -1.359,-0.3164l-0.563,-0.1875l-0.562,-0.1758c-0.068,-0.0214 -0.116,-0.0239 -0.188,0l-1.125,0.375c-0.496,0.1652 -1.007,0.2662 -1.523,0.293l-0.563,0.0234l-0.562,0.0351c-0.539,0.0275 -1.073,-0.0322 -1.594,-0.1757l-0.563,-0.1641l-0.562,-0.1523c-0.113,-0.0312 -0.216,-0.0306 -0.328,0l-0.563,0.1523l-0.562,0.1641c-0.746,0.2061 -1.492,0.1097 -2.168,-0.211l-0.563,-0.2578l-0.562,-0.2695c-0.023,-0.0107 -0.039,-0.0213 -0.047,-0.0235l-0.012,0l-0.562,0.1758l-0.563,0.1641c-0.383,0.1133 -0.765,0.2225 -1.148,0.3281l-1.125,0.3047c-0.591,0.1629 -1.201,0.1969 -1.805,0.082l-0.562,-0.1172l-0.563,-0.1054c-0.156,-0.0299 -0.316,-0.0184 -0.48,0.0234l-1.125,0.2813c-0.641,0.1626 -1.291,0.1429 -1.922,-0.0469l-0.563,-0.1641l-0.562,-0.1758c-0.165,-0.0494 -0.314,-0.0571 -0.457,-0.0351l-1.125,0.1875c-0.711,0.1123 -1.404,-0.0219 -2.028,-0.3281l-0.562,-0.2813l-0.328,-0.1523l-0.387,0.2812l-0.563,0.3985c-0.665,0.4744 -1.499,0.722 -2.39,0.4804l-1.125,-0.3047c-0.122,-0.0329 -0.231,-0.0316 -0.352,0l-0.562,0.1407l-0.563,0.1523c-0.665,0.1743 -1.345,0.138 -1.992,-0.082l-1.125,-0.375c-0.077,-0.0258 -0.13,-0.033 -0.199,-0.0117l-1.125,0.3515c-0.867,0.2652 -1.704,0.0664 -2.391,-0.3867l-0.562,-0.3633l-0.563,-0.375c-0.191,-0.1253 -0.31,-0.1385 -0.363,-0.1406l-1.125,-0.0469c-0.268,-0.0104 -0.537,0.0009 -0.809,0.0469l-1.125,0.1875c-0.313,0.0532 -0.63,0.1284 -0.949,0.2227l-0.562,0.1757l-0.563,0.1641c-0.401,0.1188 -0.804,0.223 -1.207,0.3164l-1.125,0.2578c-0.459,0.1064 -0.928,0.1765 -1.394,0.1992l-0.563,0.0235l-0.562,0.0351c-0.499,0.0243 -0.997,-0.0203 -1.489,-0.1172l-0.562,-0.1054l-0.563,-0.1172c-0.317,-0.0626 -0.634,-0.1041 -0.949,-0.1289l-1.125,-0.0938c-0.263,-0.0207 -0.531,-0.0029 -0.797,0.0352l-0.562,0.082l-0.563,0.0703c-0.701,0.1006 -1.376,-0.0288 -1.992,-0.3281l-1.125,-0.5391l-0.516,0.1993l-0.562,0.2109c-0.46,0.1711 -0.932,0.2973 -1.406,0.375l-1.125,0.1875c-0.64,0.104 -1.274,0.0323 -1.875,-0.1875l-0.563,-0.2109l-0.562,-0.1993c-0.168,-0.0615 -0.317,-0.0735 -0.446,-0.0586l-0.562,0.0586l-0.563,0.0704c-0.351,0.0409 -0.703,0.0838 -1.054,0.1406l-1.125,0.1875c-0.496,0.08 -1.001,0.1024 -1.5,0.0586l-0.563,-0.0586l-0.562,-0.0469c-0.187,-0.0157 -0.382,0.001 -0.586,0.0586l-0.563,0.1641l-0.562,0.1523c-0.762,0.2134 -1.523,0.1168 -2.203,-0.2227l-1.125,-0.5625c-0.267,-0.1325 -0.517,-0.2222 -0.75,-0.2695l-0.563,-0.1055l-0.562,-0.1171c-0.052,-0.0103 -0.113,-0.0121 -0.223,0.0351l-1.125,0.4922c-0.658,0.2855 -1.373,0.3527 -2.086,0.1758l-1.125,-0.2813c-0.206,-0.0512 -0.404,-0.0559 -0.598,-0.0351l-1.125,0.1172c-0.468,0.0513 -0.948,0.0609 -1.418,0.0234l-1.125,-0.0937c-0.136,-0.0101 -0.29,0.0139 -0.468,0.082l-0.563,0.2109l-0.562,0.2227c-0.494,0.1883 -1.004,0.3068 -1.524,0.3515l-1.125,0.0938c-0.618,0.0526 -1.231,-0.0466 -1.804,-0.2695l-0.563,-0.211l-0.562,-0.2226c-0.317,-0.1228 -0.63,-0.229 -0.938,-0.3047l-0.562,-0.1289l-0.563,-0.1407c-0.263,-0.0645 -0.52,-0.1027 -0.773,-0.1054l-1.125,0c-0.17,-0.0015 -0.365,0.0234 -0.575,0.1054l-1.125,0.4454c-0.653,0.2545 -1.349,0.3057 -2.039,0.1289l-0.562,-0.1524l-0.563,-0.1406c-0.283,-0.073 -0.568,-0.1131 -0.843,-0.1289l-1.125,-0.0703c-0.114,-0.006 -0.249,0.0172 -0.422,0.0937l-0.563,0.2461l-0.562,0.2578c-0.833,0.3699 -1.709,0.2904 -2.473,-0.1406l-0.562,-0.3164l-0.551,-0.3047l-0.481,0.1641l-0.562,0.1992c-0.496,0.1681 -1.007,0.2644 -1.524,0.293l-0.562,0.0351l-0.563,0.0235c-0.411,0.0224 -0.83,0.0314 -1.242,0.0234l-1.125,-0.0234c-0.213,-0.0039 -0.436,0.0361 -0.668,0.1054l-1.125,0.3282c-0.729,0.2169 -1.462,0.1556 -2.144,-0.1407l-1.125,-0.4922c-0.199,-0.0866 -0.371,-0.1067 -0.516,-0.1054l-0.562,0l-0.563,0.0117c-0.134,0.0013 -0.293,0.0341 -0.492,0.1289l-0.563,0.2578l-0.562,0.2695c-0.556,0.2652 -1.158,0.4127 -1.781,0.4102l-1.125,0c-0.547,-0.0024 -1.086,-0.0918 -1.606,-0.2695l-0.562,-0.1993l-0.563,-0.1875c-0.378,-0.1291 -0.759,-0.2661 -1.137,-0.3984l-0.562,-0.1992l-0.563,-0.1875l-0.55,0.2695l-0.563,0.2696c-0.686,0.3221 -1.442,0.3998 -2.191,0.1757l-0.563,-0.1757l-0.562,-0.1641c-0.21,-0.0629 -0.41,-0.0831 -0.598,-0.0703l-1.125,0.0703c-0.528,0.0355 -1.054,-0.0064 -1.57,-0.1289l-0.563,-0.1289l-0.562,-0.1406c-0.161,-0.0379 -0.312,-0.0328 -0.469,0l-1.125,0.2343c-0.542,0.1133 -1.093,0.1248 -1.641,0.0469l-0.562,-0.082l-0.563,-0.0703c-0.3,-0.043 -0.604,-0.0722 -0.902,-0.0704l-0.562,0.0118l-0.563,0c-0.144,0.001 -0.314,0.0382 -0.516,0.1289l-0.562,0.2461l-0.563,0.2578c-0.517,0.2346 -1.066,0.3883 -1.629,0.4336l-0.562,0.0468l-0.563,0.0352c-0.61,0.0489 -1.212,-0.0429 -1.781,-0.2578l-1.125,-0.4219c-0.038,-0.014 -0.062,-0.0115 -0.07,-0.0117c-0.009,0.0002 -0.031,-0.0091 -0.059,0l-1.125,0.375c-0.525,0.1711 -1.066,0.2588 -1.617,0.2461l-0.5624,-0.0117l-0.5625,-0.0235c-0.4008,-0.0096 -0.8064,-0.0273 -1.207,-0.0586l-0.5625,-0.0468l-0.5625,-0.0352c-0.5557,-0.0435 -1.1024,-0.1854 -1.6172,-0.4101l-1.125,-0.4922c-0.1933,-0.084 -0.3538,-0.12 -0.4922,-0.1172l-1.125,0.0234c-0.3033,0.0063 -0.6082,0.0335 -0.914,0.082l-1.125,0.1875c-0.4774,0.076 -0.9606,0.0952 -1.4414,0.0704l-0.5625,-0.0235l-0.5625,-0.0351c-0.2471,-0.0127 -0.4962,0.0078 -0.75,0.0586l-0.5625,0.1171l-0.5625,0.1055c-0.5304,0.1063 -1.0693,0.1364 -1.6055,0.0703l-1.125,-0.1406c-0.2569,-0.0317 -0.5169,-0.0414 -0.7735,-0.0117l-1.125,0.1406c-0.5498,0.063 -1.1014,0.0219 -1.6406,-0.1055l-1.125,-0.2578c-0.1025,-0.024 -0.197,-0.0258 -0.3164,0.0117l-0.5625,0.1758l-0.5625,0.1875c-0.4702,0.1502 -0.9578,0.2444 -1.4414,0.293l-1.125,0.1172c-0.6714,0.0663 -1.3167,-0.0696 -1.9101,-0.3516l-0.5625,-0.2695l-0.5508,-0.2695l-0.5274,0.2109l-0.5625,0.2109c-0.4505,0.1703 -0.9085,0.2977 -1.3711,0.3868l-0.5625,0.1054l-0.5625,0.1172c-0.7728,0.1485 -1.5136,-0.0197 -2.1562,-0.3867l-0.5625,-0.3281l-0.3281,-0.1875l-0.9141,0.6093c-0.6356,0.4156 -1.3974,0.6281 -2.2148,0.4805l-0.5625,-0.0937l-0.5625,-0.1055c-0.5465,-0.0988 -1.0729,-0.2956 -1.5704,-0.5625l-0.5625,-0.293l-0.5273,-0.2929l-0.4805,0.1875l-0.5625,0.2226c-0.4894,0.1865 -0.998,0.3117 -1.5117,0.3633l-0.5625,0.0586l-0.5625,0.0469c-0.3098,0.0313 -0.6239,0.0921 -0.9375,0.164l-1.125,0.2578c-0.9163,0.2087 -1.7413,-0.0998 -2.3789,-0.5976l-0.5625,-0.4336l-0.3164,-0.2578l-0.2461,0.1523l-0.5625,0.3399c-0.7633,0.4544 -1.6555,0.5462 -2.5078,0.164l-0.5625,-0.2578l-0.3867,-0.1758l-0.4336,0.293l-0.5625,0.3633c-0.6937,0.4457 -1.5309,0.6232 -2.3906,0.3515l-0.5625,-0.1757l-0.5625,-0.1875c-0.262,-0.0826 -0.516,-0.1251 -0.7618,-0.1407l-1.125,-0.0703c-0.3934,-0.0245 -0.7903,-0.0542 -1.1836,-0.0937l-1.125,-0.1172c-0.145,-0.0146 -0.301,0.0075 -0.4804,0.0703l-0.5625,0.1875l-0.5625,0.1992c-0.5873,0.2054 -1.2066,0.2721 -1.8281,0.1875l-0.5625,-0.0703l-0.5625,-0.082c-0.4356,-0.0596 -0.8699,-0.1427 -1.3008,-0.2578l-1.125,-0.3047c-0.009,0.0028 -0.0337,0.0105 -0.0586,0.0234l-1.125,0.5859c-0.8067,0.4142 -1.6922,0.4055 -2.4961,-0.0117l-0.5625,-0.2929l-0.5039,-0.2579l-0.4688,0.1993l-0.5625,0.2461c-0.5196,0.2205 -1.0687,0.3536 -1.6289,0.3867l-1.125,0.0703c-0.5854,0.0342 -1.1594,-0.0627 -1.7109,-0.2578l-1.125,-0.3985c-0.3258,-0.1152 -0.6518,-0.2051 -0.9727,-0.2812l-0.5625,-0.1406l-0.5625,-0.1289c-0.2775,-0.0657 -0.5507,-0.0966 -0.8203,-0.1055l-1.125,-0.0469l-1.6289,0l-0.5625,0.0117c-0.221,0.0033 -0.4503,0.0415 -0.6914,0.1172l-1.125,0.3516c-0.65074,0.2043 -1.3226,0.21 -1.98047,0.0234l-0.5625,-0.1523l-0.51562,-0.1524l-0.01172,0.0118l-1.125,0.6562c-0.40594,0.2361 -0.90853,0.3874 -1.46485,0.3281c-0.55051,-0.059 -1.00435,-0.314 -1.34765,-0.6093l-0.51563,-0.4336l-0.51562,-0.4454c-0.67185,-0.5788 -1.09564,-1.4513 -0.86719,-2.4726l0.12891,-0.5625l0.11718,-0.5625c0.03946,-0.1764 0.04385,-0.3435 0.01172,-0.5156l-0.21093,-1.125c-0.15592,-0.8261 0.06986,-1.5999 0.49218,-2.2383l0.36328,-0.5625l0.375,-0.5625c0.0313,-0.0476 0.04395,-0.0736 0.04688,-0.082l-0.09375,-0.5157l-0.10547,-0.5625c-0.10087,-0.5707 -0.09143,-1.1455 0.03516,-1.7109l0.25781,-1.125c0.04659,-0.208 0.06054,-0.4099 0.03515,-0.6094l-0.08203,-0.5625l-0.07031,-0.5625c-0.04996,-0.3927 -0.09378,-0.7906 -0.12891,-1.1836l-0.09375,-1.125c-0.02348,-0.259 -0.07817,-0.5242 -0.16406,-0.7969l-0.17578,-0.5625l-0.1875,-0.5625c-0.14372,-0.4543 -0.24277,-0.9186 -0.30469,-1.3828l-0.07031,-0.5625l-0.08203,-0.5625c-0.07345,-0.5512 -0.04945,-1.1089 0.07031,-1.6523l0.12891,-0.5625l0.11719,-0.5625c0.05501,-0.2512 0.07986,-0.4958 0.07031,-0.7383l-0.04688,-1.125c-0.0189,-0.481 0.02354,-0.9647 0.10547,-1.4414l0.1875,-1.125c0.04221,-0.2474 0.0568,-0.495 0.03516,-0.7383l-0.0586,-0.5625l-0.04687,-0.5625c-0.03625,-0.4087 -0.05122,-0.8213 -0.05859,-1.2304l-0.02344,-1.125c-0.0088,-0.5048 0.04501,-1.0059 0.16406,-1.5l0.14063,-0.5625l0.1289,-0.5625c0.07139,-0.2964 0.11962,-0.5889 0.14063,-0.879l0.03515,-0.5625l0.04688,-0.5625c0.0224,-0.3111 0.01751,-0.6265 0,-0.9375l-0.02344,-0.5625l-0.03516,-0.5625c-0.01694,-0.2987 -0.05492,-0.5994 -0.11718,-0.9023l-0.23438,-1.125c-0.13587,-0.6597 -0.07597,-1.3205 0.15235,-1.9453l0.19921,-0.5625l0.17579,-0.4688l-0.64454,-1.0664c-0.44251,-0.74667 -0.54088,-1.61364 -0.1875,-2.4609l0.23438,-0.5625l0.21094,-0.48047l-0.26953,-0.51563l-0.29297,-0.5625c-0.17315,-0.34075 -0.32361,-0.79701 -0.28125,-1.3125c0.04645,-0.55407 0.30587,-1.01918 0.66797,-1.35937l0.72656,-0.67969l0.46875,-0.35156c0.49302,-0.2855 1.04812,-0.38348 1.59375,-0.33985l1.125,0.09375c0.44897,0.03659 0.90353,0.10863 1.34765,0.21094l0.5625,0.12891l0.53907,0.1289c0.01092,-0.00423 0.03162,-0.01948 0.05859,-0.03515l1.125,-0.65625l0.5625,-0.25782c0.39002,-0.13003 0.80272,-0.17276 1.21872,-0.11718l0.6328,0.16406l0.5625,0.22266l0.5625,0.21093c0.2489,0.09558 0.4822,0.14678 0.7032,0.16407l1.125,0.09375c0.2466,0.01923 0.4986,-0.0023 0.75,-0.04688l0.5625,-0.09375l0.5625,-0.10547c0.5085,-0.08975 1.0223,-0.11098 1.5351,-0.05859l1.125,0.11719c0.194,0.01984 0.3901,0.00556 0.5977,-0.04688l1.125,-0.28125c0.5644,-0.14377 1.1461,-0.18073 1.7226,-0.09375l0.5625,0.09375l0.5625,0.08203c0.2311,0.035 0.4611,0.03194 0.6914,0l0.5625,-0.07031l0.5625,-0.08203c0.2963,-0.04143 0.599,-0.10913 0.9024,-0.19922l0.5625,-0.16406l0.5625,-0.17578c0.5151,-0.15342 1.0477,-0.23134 1.582,-0.22266l1.125,0.02344c0.6957,0.01149 1.3347,0.24181 1.8985,0.59765l0.5625,0.35157l0.5625,0.36328l0.0351,0.01172l0.5156,-0.11719l0.5625,-0.12891c0.3537,-0.08352 0.7121,-0.18223 1.0664,-0.28125l0.5625,-0.15234l0.5625,-0.16406c0.5916,-0.16433 1.1998,-0.18663 1.8047,-0.07032l1.125,0.21094c0.4575,0.0883 0.9124,0.22253 1.3594,0.38672l0.5625,0.21094l0.5625,0.19922c0.0711,0.02612 0.1116,0.02711 0.1641,0.01171l1.125,-0.35156c0.5067,-0.1553 1.0327,-0.22956 1.5586,-0.23437l0.5625,-0.01172l0.5625,0c0.2489,-0.00244 0.5016,-0.03934 0.7617,-0.10547l1.125,-0.28125c0.7722,-0.19718 1.5331,-0.07357 2.2031,0.28125l1.125,0.58594c0.1192,0.06311 0.1636,0.06064 0.1758,0.05859l1.125,-0.1875c0.4691,-0.07877 0.9449,-0.11869 1.418,-0.10547l0.5625,0.01172l0.5625,0.02344c0.1952,0.00489 0.4016,-0.02316 0.6211,-0.09375l0.5625,-0.1875l0.5625,-0.17578c0.4222,-0.13573 0.851,-0.24993 1.2773,-0.33985l1.125,-0.23437c0.7328,-0.15358 1.4516,-0.03723 2.0977,0.28125l0.5625,0.26953l0.5625,0.28125c0.2113,0.10368 0.3879,0.14293 0.539,0.15234l1.125,0.07032c0.3189,0.01843 0.6421,0.01695 0.9609,0l0.5625,-0.02344l0.5625,-0.03516c0.325,-0.01735 0.658,-0.05526 0.9844,-0.10547l1.125,-0.16406c0.5268,-0.08054 1.0557,-0.08418 1.5821,0l1.125,0.1875c0.401,0.06445 0.8067,0.13668 1.207,0.22266l1.125,0.23437c0.2435,0.05228 0.4797,0.07212 0.7148,0.0586l0.5625,-0.03516l0.5625,-0.02344c0.1909,-0.01132 0.4021,-0.06668 0.6328,-0.16406l1.125,-0.46875c0.4785,-0.20207 0.9739,-0.35351 1.4766,-0.43359l0.5625,-0.08204l0.5625,-0.09375c0.5551,-0.08822 1.1136,-0.07899 1.6641,0.03516l1.125,0.23438c0.4964,0.1031 0.9818,0.27317 1.4531,0.49218l0.5625,0.25782l0.4687,0.22265l0.4922,-0.23437l0.5625,-0.26953c0.6119,-0.29739 1.2839,-0.4328 1.9805,-0.33985l0.5625,0.08203l0.5625,0.07032c0.4795,0.06404 0.9527,0.17796 1.418,0.33984l0.5625,0.19922l0.4101,0.14062l0.5039,-0.33984l0.5625,-0.375c0.5373,-0.3622 1.1716,-0.55971 1.8282,-0.49219l0.6679,0.16406l1.125,0.42188c0.2918,0.11009 0.5775,0.19687 0.8555,0.24609l1.125,0.1875c0.2236,0.03948 0.4473,0.05322 0.668,0.02344l0.5625,-0.08203l0.5625,-0.07031c0.5538,-0.07458 1.1068,-0.05164 1.6528,0.07031l0.562,0.12891l0.563,0.11718c0.103,0.02323 0.204,0.02804 0.328,-0.01172l1.125,-0.375c0.604,-0.19692 1.234,-0.23358 1.863,-0.11718l0.562,0.09375l0.563,0.10547c0.026,0.0048 0.078,0.01786 0.187,-0.03516l1.125,-0.5625l0.622,-0.21094c0.412,-0.09603 0.832,-0.1015 1.242,0l0.609,0.23438l1.125,0.5625c0.139,0.06974 0.218,0.07547 0.27,0.07031l0.562,-0.05859l0.563,-0.07032c0.465,-0.05334 0.939,-0.06771 1.406,-0.03515l0.562,0.04687l0.563,0.03516c0.326,0.02272 0.658,0.03229 0.984,0.02344l0.563,-0.01172l0.562,-0.02344c0.348,-0.00952 0.696,-0.01976 1.043,-0.04688l1.125,-0.09375c0.275,-0.02147 0.559,-0.07304 0.844,-0.15234l1.125,-0.30469c0.417,-0.11598 0.834,-0.21628 1.254,-0.29297l1.125,-0.21093c0.712,-0.13006 1.406,-0.00799 2.039,0.29297l0.562,0.25781l0.563,0.26953c0.082,0.03884 0.112,0.03921 0.129,0.03516l0.562,-0.14063l0.563,-0.12891c0.711,-0.16838 1.422,-0.08585 2.074,0.19922l0.563,0.2461l0.421,0.1875l0.469,-0.26953l0.563,-0.32813c0.392,-0.23022 0.858,-0.37937 1.371,-0.36328c0.254,0.00797 0.492,0.05342 0.715,0.12891l0.621,0.30468l0.562,0.36328l0.422,0.28125l0.375,-0.17578l0.563,-0.26953c0.55,-0.25577 1.139,-0.33354 1.722,-0.23437l0.574,0.15234l0.563,0.22266l0.562,0.21093c0.147,0.0568 0.262,0.07383 0.364,0.0586l0.562,-0.09375l0.563,-0.08203c0.273,-0.04117 0.556,-0.10782 0.843,-0.21094l0.563,-0.19922l0.562,-0.21094c0.712,-0.25417 1.453,-0.24249 2.157,0.02344l0.562,0.21094l0.563,0.22265c0.137,0.05206 0.244,0.05178 0.34,0.03516l0.562,-0.09375l0.563,-0.10547c0.394,-0.06883 0.789,-0.12338 1.183,-0.17578l0.563,-0.08203l0.562,-0.07031c0.682,-0.09051 1.349,0.02459 1.957,0.30468l1.125,0.51563c0.232,0.10637 0.435,0.17058 0.621,0.1875l0.563,0.04687l0.527,0.04688c0.009,-0.00281 0.06,-0.02203 0.141,-0.08203l0.562,-0.41016l0.563,-0.42187c0.457,-0.33824 0.996,-0.57909 1.594,-0.63282l0.621,0.01172l0.562,0.07032l0.563,0.08203c0.229,0.03047 0.46,0.02539 0.691,-0.01172l0.563,-0.09375l0.562,-0.08203c0.782,-0.12505 1.516,0.0606 2.145,0.44531l0.562,0.35156l0.563,0.33985c0.154,0.09465 0.222,0.09462 0.234,0.09375l0.562,-0.04688l0.563,-0.03516c0.199,-0.01445 0.42,-0.065 0.656,-0.16406l1.125,-0.46875l0.574,-0.1875c0.386,-0.07592 0.777,-0.06169 1.161,0.02344l0.574,0.1875l1.125,0.49219c0.248,0.11002 0.48,0.17511 0.691,0.19922l0.563,0.07031l0.562,0.05859c0.208,0.02312 0.417,0.01156 0.633,-0.03515l0.562,-0.11719l0.563,-0.12891c0.313,-0.06791 0.631,-0.14894 0.949,-0.25781l0.563,-0.19922l0.562,-0.1875c0.728,-0.24955 1.488,-0.21902 2.192,0.07031l0.562,0.22266l0.563,0.23437c0.017,0.00715 0.029,0.01042 0.035,0.01172l0.035,0l0.562,-0.19922l0.563,-0.1875c0.67,-0.2275 1.372,-0.2443 2.051,-0.03515l1.125,0.35156c0.363,0.11197 0.726,0.22356 1.09,0.32813l0.562,0.16406l0.563,0.15234c0.096,0.02788 0.181,0.02973 0.281,0l0.562,-0.16406l0.563,-0.17578c0.526,-0.15785 1.07,-0.23106 1.617,-0.21094l1.125,0.04688c0.251,0.00894 0.504,-0.01675 0.762,-0.07032l1.125,-0.23437c0.486,-0.10085 0.983,-0.14246 1.476,-0.12891l0.563,0.01172l0.562,0.02344c0.494,0.01402 0.983,0.08175 1.465,0.21094l1.125,0.30468c0.138,0.03717 0.266,0.04258 0.399,0.01172l0.562,-0.1289l0.563,-0.14063c0.486,-0.11352 0.98,-0.16913 1.476,-0.16406l0.563,0.01172l0.562,0c0.37,0.00406 0.744,0.01149 1.113,0.01172l1.125,0c0.43,0.00026 0.861,0.02262 1.289,0.07031l0.563,0.07031l0.562,0.05859c0.094,0.01042 0.208,-0.0028 0.364,-0.07031l0.562,-0.24609l0.563,-0.23438c0.686,-0.29763 1.377,-0.28266 1.992,-0.03515l0.586,0.3164l0.562,0.39844l0.516,0.36328l0.984,-0.32812c0.64,-0.20593 1.304,-0.22801 1.957,-0.0586l0.563,0.15235l0.562,0.14062c0.009,-0.0029 0.024,-0.01179 0.047,-0.02344l0.563,-0.29296l0.562,-0.30469l0.621,-0.23438c0.413,-0.10664 0.838,-0.10873 1.254,-0.01172l0.621,0.22266l1.125,0.5625c0.146,0.07264 0.235,0.07634 0.293,0.07031l0.563,-0.05859l0.562,-0.07031c0.317,-0.03447 0.641,-0.0797 0.961,-0.15235l1.125,-0.25781c0.395,-0.08949 0.789,-0.17485 1.184,-0.24609l0.562,-0.09375l0.563,-0.10547c0.669,-0.12061 1.337,-0.03791 1.957,0.21094l1.125,0.44531c0.179,0.0717 0.325,0.09088 0.457,0.08203l1.125,-0.07031c0.423,-0.02925 0.854,-0.04681 1.277,-0.03516l0.563,0.02344l0.562,0.01172c0.427,0.01193 0.853,0.04763 1.278,0.10547l0.562,0.08203l0.563,0.07031c0.03,0.00414 0.101,0.01115 0.234,-0.05859l1.125,-0.58594c0.587,-0.30711 1.238,-0.46761 1.922,-0.42188l1.125,0.07032c0.575,0.03917 1.128,0.1902 1.652,0.43359l0.563,0.25781l0.398,0.19922l1.008,-0.60937l0.609,-0.28125c0.425,-0.13515 0.871,-0.16552 1.313,-0.07032l0.656,0.23438l1.125,0.5625c0.186,0.09337 0.326,0.11829 0.434,0.11719l0.562,0l0.563,-0.01172c0.134,-0.00194 0.296,-0.02534 0.492,-0.11719l1.125,-0.53906c0.646,-0.30535 1.363,-0.41214 2.086,-0.25782l0.562,0.12891l0.563,0.11719c0.219,0.04644 0.433,0.05789 0.644,0.03515l0.563,-0.05859l0.562,-0.07031c0.623,-0.06761 1.236,0.02796 1.817,0.24609l0.562,0.21094l0.528,0.19922l0.562,-0.25781l0.563,-0.26954l0.656,-0.21093c0.442,-0.08091 0.884,-0.03819 1.301,0.10547l0.597,0.28125l1.125,0.70312c0.015,0.00902 0.026,0.01864 0.035,0.02344l0.516,-0.11719l0.563,-0.12891c0.371,-0.08716 0.742,-0.17972 1.113,-0.26953l0.562,-0.14062l0.563,-0.12891c0.453,-0.1097 0.911,-0.18958 1.371,-0.22265l0.562,-0.03516l0.563,-0.04688c0.744,-0.05291 1.432,0.16792 2.027,0.53907l0.563,0.35156l0.504,0.32812l0.457,-0.16406l0.562,-0.1875c0.453,-0.15559 0.919,-0.27777 1.383,-0.35156l0.563,-0.08203l0.562,-0.09375c0.569,-0.09029 1.139,-0.06157 1.699,0.07031l1.125,0.25781l0.024,0.01172c0.004,-0.00064 0.039,-0.00777 0.093,-0.03515l1.125,-0.5625l0.598,-0.23438c0.405,-0.10047 0.822,-0.1033 1.231,-0.01172l0.609,0.21094l0.562,0.28125l0.481,0.23437l0.48,-0.23437l0.563,-0.26953c0.613,-0.29207 1.287,-0.42396 1.98,-0.32813l1.125,0.16407c0.383,0.0529 0.766,0.10223 1.149,0.16406l1.125,0.1875c0.127,0.02058 0.266,0.01631 0.422,-0.03516l1.125,-0.375l0.679,-0.1289c0.445,-0.02411 0.869,0.06782 1.254,0.24609l0.551,0.32812l0.563,0.42188l0.304,0.23437l0.27,-0.17578l0.562,-0.33984c0.527,-0.32512 1.102,-0.55609 1.723,-0.63281l1.125,-0.14063zm0.375,2.98828l-0.563,0.0586l-0.562,0.07031c-0.127,0.01557 -0.306,0.07439 -0.527,0.21094l-0.563,0.33984l-0.562,0.35156c-0.404,0.24864 -0.896,0.40858 -1.442,0.375c-0.538,-0.03351 -0.996,-0.24682 -1.359,-0.51562l-0.563,-0.42188l-0.504,-0.375l-0.386,0.14063l-0.563,0.1875c-0.592,0.1954 -1.208,0.25169 -1.828,0.15234l-1.125,-0.1875c-0.364,-0.05884 -0.738,-0.11382 -1.102,-0.16406l-0.562,-0.07031l-0.563,-0.08203c-0.056,-0.00698 -0.136,-0.00474 -0.269,0.05859l-1.125,0.53906c-0.784,0.37301 -1.632,0.36317 -2.414,-0.01172l-0.563,-0.26953l-0.468,-0.23437l-0.469,0.24609l-0.563,0.29297c-0.656,0.32813 -1.388,0.44395 -2.132,0.26953l-0.563,-0.14062l-0.562,-0.12891c-0.188,-0.04433 -0.372,-0.05191 -0.551,-0.02344l-0.563,0.09375l-0.562,0.08203c-0.284,0.04522 -0.573,0.12172 -0.867,0.22266l-0.563,0.1875l-0.562,0.19922c-0.855,0.29344 -1.706,0.13726 -2.414,-0.30469l-1.125,-0.70312c-0.153,-0.09457 -0.218,-0.08243 -0.223,-0.08204l-0.563,0.03516l-0.562,0.04688c-0.29,0.02096 -0.583,0.05734 -0.879,0.1289l-1.125,0.28125c-0.378,0.09135 -0.759,0.18086 -1.137,0.26953l-1.125,0.25782c-0.822,0.19242 -1.603,0.00209 -2.261,-0.41016l-0.563,-0.35156l-0.434,-0.26953l-0.386,0.1875l-0.563,0.25781c-0.726,0.33896 -1.519,0.38146 -2.285,0.09375l-1.125,-0.42188c-0.168,-0.06291 -0.307,-0.07202 -0.434,-0.05859l-1.125,0.11719c-0.536,0.05821 -1.077,0.03071 -1.605,-0.08203l-1.125,-0.23438c-0.027,-0.0056 -0.065,-0.01138 -0.164,0.03516l-0.563,0.25781l-0.562,0.26953c-0.55,0.25968 -1.145,0.40384 -1.758,0.41016l-0.562,0.01172l-0.563,0c-0.641,0.00595 -1.254,-0.15059 -1.816,-0.4336l-0.563,-0.28125l-0.387,-0.19922l-0.41,0.25782l-0.562,0.33984c-0.772,0.46444 -1.674,0.55062 -2.531,0.15234l-0.563,-0.25781l-0.562,-0.26953c-0.224,-0.10359 -0.425,-0.1525 -0.598,-0.16406l-1.125,-0.07032c-0.066,-0.00356 -0.171,0.01123 -0.328,0.09375l-1.125,0.58594c-0.615,0.32087 -1.299,0.47192 -2.016,0.375l-0.562,-0.08203l-0.563,-0.07031c-0.322,-0.04391 -0.652,-0.07322 -0.972,-0.08203l-0.563,-0.01172l-0.562,-0.02344c-0.325,-0.00873 -0.649,0.00108 -0.973,0.02344l-0.563,0.03515l-0.562,0.04688c-0.618,0.04269 -1.224,-0.0646 -1.793,-0.29297l-0.563,-0.22266l-0.562,-0.23437c-0.126,-0.04965 -0.214,-0.04885 -0.293,-0.03516l-0.563,0.10547l-0.562,0.09375c-0.353,0.06355 -0.713,0.14248 -1.066,0.22266l-0.563,0.1289l-0.562,0.11719c-0.429,0.09714 -0.858,0.17563 -1.29,0.22266l-1.125,0.11719c-0.691,0.0752 -1.354,-0.06313 -1.957,-0.36329l-1.007,-0.5039l-0.996,0.53906c-0.672,0.35241 -1.434,0.46893 -2.204,0.26953l-0.562,-0.15234l-0.563,-0.14063c-0.093,-0.02429 -0.184,-0.02334 -0.293,0.01172l-0.562,0.17578l-0.563,0.1875c-0.894,0.28779 -1.748,0.06942 -2.437,-0.41015l-0.563,-0.38672l-0.445,-0.31641l-0.351,0.16406l-0.563,0.2461c-0.594,0.25765 -1.231,0.36574 -1.887,0.29297l-1.125,-0.11719c-0.32,-0.03567 -0.641,-0.05837 -0.961,-0.05859l-1.125,0c-0.378,-0.00024 -0.758,-0.00757 -1.136,-0.01172l-0.563,0l-0.562,-0.01172c-0.252,-0.00277 -0.513,0.0328 -0.774,0.09375l-1.125,0.25781c-0.617,0.14396 -1.24,0.12881 -1.851,-0.03516l-0.563,-0.15234l-0.562,-0.14062c-0.266,-0.07132 -0.532,-0.11023 -0.785,-0.11719l-0.563,-0.02344l-0.562,-0.01172c-0.255,-0.00655 -0.512,0.01597 -0.774,0.07031l-1.125,0.23438c-0.491,0.10193 -0.99,0.14725 -1.488,0.12891l-1.125,-0.04688c-0.202,-0.00705 -0.41,0.02697 -0.633,0.09375l-1.125,0.32813c-0.649,0.19478 -1.317,0.1986 -1.969,0.01171l-0.562,-0.15234l-0.563,-0.16406c-0.384,-0.11045 -0.776,-0.22162 -1.16,-0.33985l-1.125,-0.35156c-0.068,-0.02048 -0.122,-0.02641 -0.199,0l-0.563,0.19922l-0.562,0.1875c-0.727,0.24676 -1.479,0.21819 -2.18,-0.07031l-1.125,-0.46875l-0.035,-0.01172l-0.023,0.01172l-0.563,0.1875l-0.562,0.19922c-0.429,0.14685 -0.867,0.26926 -1.301,0.36328l-1.125,0.23437c-0.533,0.1153 -1.077,0.14376 -1.617,0.08203l-0.563,-0.05859l-0.562,-0.07031c-0.537,-0.06197 -1.059,-0.2115 -1.559,-0.4336l-0.562,-0.24609l-0.54,-0.23437l-0.515,0.22265l-0.563,0.23438c-0.513,0.21519 -1.055,0.34725 -1.605,0.38672l-0.563,0.04687l-0.562,0.03516c-0.737,0.05238 -1.421,-0.15181 -2.016,-0.51563l-0.562,-0.35156l-0.563,-0.33984l-0.105,-0.0586l-1.125,0.1875c-0.518,0.08283 -1.04,0.09276 -1.559,0.02344l-0.562,-0.08203l-0.528,-0.07031c-0.017,0.00975 -0.039,0.03574 -0.07,0.05859l-0.562,0.41016l-0.563,0.42187c-0.595,0.44105 -1.324,0.72807 -2.145,0.65625l-1.125,-0.09375c-0.562,-0.04984 -1.112,-0.20762 -1.628,-0.44531l-1.125,-0.51563c-0.139,-0.06334 -0.226,-0.06736 -0.293,-0.05859l-1.125,0.14062c-0.355,0.04706 -0.712,0.10209 -1.067,0.16407l-0.562,0.10547l-0.563,0.09375c-0.653,0.11412 -1.298,0.04369 -1.91,-0.1875l-0.562,-0.21094l-0.563,-0.22266c-0.013,-0.00489 -0.028,0.00167 -0.035,0l-0.012,-0.01172l-0.012,0.01172c-0.005,0.00095 -0.019,-0.00575 -0.035,0l-0.562,0.21094l-0.563,0.19922c-0.461,0.16517 -0.931,0.28012 -1.406,0.35156l-0.562,0.08203l-0.563,0.09375c-0.648,0.0972 -1.284,0.00992 -1.887,-0.22265l-0.562,-0.21094l-0.528,-0.21094l-0.55,0.25781l-0.563,0.25782c-0.888,0.41368 -1.811,0.29907 -2.578,-0.19922l-0.562,-0.375l-0.352,-0.22266l-0.316,0.19922l-0.563,0.32812c-0.758,0.44532 -1.639,0.53285 -2.484,0.16407l-1.125,-0.49219c-0.092,-0.04009 -0.14,-0.0431 -0.176,-0.03516l-0.563,0.14063l-0.562,0.1289c-0.734,0.17387 -1.463,0.06694 -2.121,-0.24609l-0.563,-0.25781l-0.562,-0.26953c-0.117,-0.05578 -0.174,-0.05366 -0.211,-0.04688l-1.125,0.21094c-0.329,0.06015 -0.664,0.13028 -0.996,0.22266l-0.563,0.15234l-0.562,0.16406c-0.464,0.12874 -0.933,0.20911 -1.406,0.2461l-1.125,0.09375c-0.401,0.03123 -0.807,0.04772 -1.207,0.05859l-0.563,0.01172l-0.562,0.02344c-0.422,0.01125 -0.845,-0.00579 -1.266,-0.03516l-1.125,-0.07031c-0.281,-0.01952 -0.562,-0.02023 -0.844,0.01172l-0.562,0.07031l-0.563,0.05859c-0.698,0.07999 -1.374,-0.05707 -1.98,-0.36328l-0.563,-0.29297l-0.457,-0.23437l-0.445,0.23437l-0.563,0.26953c-0.634,0.31233 -1.34,0.43799 -2.062,0.30469l-1.125,-0.21094c-0.119,-0.02214 -0.243,-0.01131 -0.387,0.03516l-0.562,0.17578l-0.563,0.1875c-0.624,0.20344 -1.277,0.238 -1.922,0.09375l-0.562,-0.12891l-0.563,-0.11718c-0.204,-0.04572 -0.401,-0.06165 -0.597,-0.03516l-0.5629,0.08203l-0.5625,0.07031c-0.5279,0.07117 -1.0571,0.06887 -1.582,-0.02343l-0.5625,-0.10547l-0.5625,-0.09375c-0.4704,-0.08305 -0.9379,-0.2146 -1.3946,-0.38672l-0.5625,-0.21094l-0.4101,-0.15234l-0.4688,0.32812l-0.5625,0.375c-0.7046,0.47498 -1.5732,0.66057 -2.4609,0.35157l-0.5625,-0.1875l-0.5625,-0.19922c-0.2841,-0.09889 -0.5622,-0.16322 -0.832,-0.19922l-0.5625,-0.08203l-0.5625,-0.07032c-0.0533,-0.00702 -0.1325,-0.00788 -0.2696,0.0586l-0.5625,0.26953l-0.5625,0.28125c-0.7764,0.37709 -1.6264,0.3892 -2.414,0.02344l-0.5625,-0.26953l-0.5625,-0.25782c-0.2783,-0.12925 -0.5437,-0.21692 -0.7969,-0.26953l-1.125,-0.23437c-0.1985,-0.04123 -0.3921,-0.0426 -0.5859,-0.01172l-0.5625,0.09375l-0.5625,0.08203c-0.2469,0.03943 -0.5025,0.11997 -0.7735,0.23437l-1.125,0.46875c-0.5174,0.21854 -1.06,0.35306 -1.6172,0.38672l-1.125,0.07032c-0.5132,0.03045 -1.0303,-0.00877 -1.5351,-0.11719l-0.5625,-0.12891l-0.5625,-0.11719c-0.3482,-0.07476 -0.6956,-0.14333 -1.043,-0.19921l-0.5625,-0.08204l-0.5625,-0.09375c-0.2208,-0.03549 -0.4476,-0.03389 -0.668,0l-1.125,0.16407c-0.4214,0.06468 -0.8426,0.11797 -1.2656,0.14062l-0.5625,0.02344l-0.5625,0.03516c-0.4289,0.0229 -0.8602,0.02461 -1.289,0l-1.125,-0.07032c-0.597,-0.0345 -1.1763,-0.19345 -1.711,-0.45703l-1.125,-0.5625c-0.0986,-0.04766 -0.1369,-0.03842 -0.1523,-0.03515l-1.125,0.23437c-0.3219,0.06802 -0.6467,0.16469 -0.9727,0.26953l-0.5625,0.17578l-0.5625,0.1875c-0.5275,0.16921 -1.0769,0.24981 -1.6289,0.23438l-0.5625,-0.02344l-0.5625,-0.01172c-0.2747,-0.00735 -0.5534,0.01174 -0.832,0.0586l-1.125,0.1875c-0.7368,0.12336 -1.4442,-0.01803 -2.0742,-0.35157l-0.5625,-0.30468l-0.5625,-0.29297l-0.0469,-0.02344l-1.125,0.28125c-0.4881,0.12463 -0.9889,0.19465 -1.4883,0.19922l-0.5625,0l-0.5625,0.01172c-0.2217,0.00222 -0.451,0.03236 -0.6914,0.10547l-1.125,0.35156c-0.6945,0.21288 -1.4096,0.17826 -2.0859,-0.07031l-0.5625,-0.19922l-0.5625,-0.21094c-0.3015,-0.1108 -0.5996,-0.18973 -0.8907,-0.24609l-0.5625,-0.10547l-0.5625,-0.11719c-0.142,-0.02741 -0.2898,-0.02002 -0.4453,0.02344l-0.5625,0.15234l-0.5625,0.16406c-0.3926,0.10967 -0.7903,0.21189 -1.1836,0.30469l-0.5625,0.12891l-0.5625,0.14062c-0.8245,0.19288 -1.6042,-0.00686 -2.2617,-0.42187l-0.5625,-0.35157l-0.5625,-0.36328c-0.1837,-0.11622 -0.2984,-0.1278 -0.3516,-0.1289l-1.125,-0.02344c-0.214,-0.00354 -0.4349,0.03645 -0.6679,0.10547l-1.125,0.32812c-0.4436,0.13212 -0.8969,0.22975 -1.3477,0.29297l-1.125,0.16406c-0.5181,0.07244 -1.0412,0.06647 -1.5586,-0.01171l-0.5625,-0.08204l-0.5625,-0.09375c-0.1713,-0.02595 -0.3442,-0.01094 -0.5273,0.03516l-1.125,0.28125c-0.541,0.13779 -1.0976,0.18562 -1.6524,0.12891l-1.125,-0.11719c-0.2353,-0.02408 -0.4752,-0.01906 -0.7148,0.02344l-0.5625,0.10547l-0.5625,0.09375c-0.4974,0.08795 -0.9979,0.1213 -1.5,0.08203l-1.125,-0.09375c-0.5286,-0.0414 -1.0461,-0.15907 -1.5469,-0.35157l-0.5625,-0.21093l-0.457,-0.1875l-0.5039,0.30468l-0.56252,0.31641c-0.65907,0.38296 -1.42073,0.54622 -2.21484,0.36328l-1.125,-0.25781c-0.30313,-0.06965 -0.60399,-0.11609 -0.90235,-0.14063l-0.5625,-0.04687l-0.46875,-0.04688l-0.14062,0.12891l0.07031,0.12891l0.28125,0.5625c0.38197,0.75003 0.4367,1.5826 0.10547,2.3789l-0.23438,0.5625l-0.1875,0.4336l0.29297,0.48047l0.32813,0.5625c0.42792,0.721 0.55314,1.562 0.24609,2.4023l-0.19922,0.5625l-0.21093,0.5625c-0.04469,0.1233 -0.04154,0.2155 -0.02344,0.3047l0.23437,1.125c0.09176,0.4456 0.15046,0.8979 0.17578,1.3477l0.02344,0.5625l0.03516,0.5625c0.02455,0.4376 0.01968,0.8751 -0.01172,1.3125l-0.03516,0.5625l-0.04687,0.5625c-0.03306,0.4592 -0.10182,0.9181 -0.21094,1.3711l-0.14062,0.5625l-0.12891,0.5625c-0.06136,0.2547 -0.08643,0.5059 -0.08203,0.75l0.01172,0.5625l0,0.5625c0.00618,0.3383 0.02846,0.6807 0.05859,1.0195l0.04688,0.5625l0.05859,0.5625c0.04446,0.5041 0.01562,1.0118 -0.07031,1.5117l-0.1875,1.125c-0.04651,0.272 -0.06914,0.541 -0.0586,0.8086l0.04688,1.125c0.01989,0.5061 -0.03104,1.0145 -0.14063,1.5117l-0.11718,0.5625l-0.12891,0.5625c-0.04436,0.2042 -0.04952,0.4011 -0.02344,0.5977l0.07031,0.5625l0.08204,0.5625c0.03777,0.2835 0.09507,0.5739 0.1875,0.8672l0.1875,0.5625l0.17578,0.5625c0.14995,0.474 0.24934,0.9651 0.29297,1.4531l0.09375,1.125c0.03177,0.3549 0.07199,0.7113 0.11718,1.0664l0.14063,1.125c0.06984,0.5499 0.05094,1.0993 -0.07031,1.6406l-0.25782,1.125c-0.04081,0.1825 -0.04323,0.3619 -0.01172,0.5391l0.10547,0.5625l0.09375,0.5625c0.14453,0.8195 -0.07339,1.5818 -0.49218,2.2148l-0.75,1.125c-0.01056,0.0162 -0.02913,0.0241 -0.03516,0.0352l0.10547,0.5391l0.10547,0.5625c0.10888,0.5769 0.09294,1.1617 -0.03516,1.7343l-0.12891,0.5625l-0.05859,0.2461l0.35156,0.3047l0.21094,0.1758l0.21094,-0.1055l0.5625,-0.3281c0.51251,-0.2989 1.089,-0.4592 1.6875,-0.4219l0.60937,0.1055l0.5625,0.1523l0.5625,0.1641c0.08818,0.0247 0.16305,0.0291 0.25782,0l0.5625,-0.1758l0.5625,-0.1875c0.50754,-0.1594 1.03084,-0.2392 1.55854,-0.2461l0.5625,-0.0117l0.5625,0c0.3975,-0.0052 0.7979,-0.0009 1.1954,0.0117l0.5625,0.0118l0.5625,0.0234c0.4764,0.0154 0.9495,0.0766 1.4179,0.1875l0.5625,0.1289l0.8828,0.2207c0.3204,0.0847 0.6399,0.1828 0.9571,0.2949l1.125,0.3985c0.197,0.0697 0.3759,0.0915 0.539,0.082l1.125,-0.0703c0.1898,-0.0112 0.4025,-0.0546 0.6329,-0.1524l0.5625,-0.2343l0.5625,-0.2461l0.6093,-0.1758c0.4068,-0.0731 0.8127,-0.0507 1.2071,0.0586l0.5859,0.2226l0.5625,0.293l0.4336,0.2227l0.4336,-0.2227l0.5625,-0.2812c0.6752,-0.3484 1.435,-0.4634 2.2031,-0.2579l0.5625,0.1524l0.5625,0.1406c0.3152,0.0843 0.627,0.157 0.9375,0.1992l0.5625,0.0703l0.5625,0.0821c0.1274,0.0171 0.2607,-0.0026 0.4219,-0.0586l0.5625,-0.1875l0.5625,-0.1992c0.5686,-0.1989 1.1667,-0.2825 1.7695,-0.2227l1.125,0.1172c0.3561,0.0358 0.7223,0.0716 1.0781,0.0937l0.5625,0.0235l0.5625,0.0351c0.4998,0.0315 0.9931,0.1288 1.4766,0.2813l0.5625,0.1758l0.4453,0.1406l0.5391,-0.3281l0.5625,-0.3633l0.5976,-0.3047c0.6166,-0.2219 1.2958,-0.2141 1.9571,0.082l0.5625,0.2578l0.4101,0.1758l0.4571,-0.2695l0.5625,-0.3281l0.6796,-0.293c0.2457,-0.0625 0.5097,-0.0834 0.7852,-0.0586c0.2717,0.025 0.5239,0.1001 0.75,0.1992l0.5977,0.3633l0.5625,0.4336l0.5507,0.4336l0.4453,-0.0938l0.5625,-0.1289c0.4348,-0.0996 0.874,-0.1668 1.3125,-0.2109l1.125,-0.1172c0.234,-0.0237 0.4802,-0.0774 0.7383,-0.1758l0.5625,-0.2226l0.5625,-0.211c0.8077,-0.3083 1.6356,-0.2275 2.3672,0.1641l1.125,0.6094c0.2505,0.1344 0.4774,0.2089 0.6797,0.2461l0.5625,0.1054l0.5273,0.0821c0.0142,-0.0061 0.0475,-0.0126 0.0821,-0.0352l1.125,-0.7266l0.6094,-0.3046c0.2186,-0.0758 0.453,-0.1299 0.7031,-0.1407c0.2528,-0.0104 0.499,0.0222 0.7265,0.0821l0.6446,0.2695l0.5625,0.3164l0.5625,0.3281c0.0614,0.035 0.1012,0.0344 0.1054,0.0352l1.125,-0.211c0.2842,-0.0549 0.5712,-0.146 0.8672,-0.2578l1.125,-0.4218c0.7726,-0.2921 1.5797,-0.242 2.3086,0.1054l1.125,0.5391c0.1517,0.0717 0.2539,0.0778 0.3281,0.0703l1.125,-0.1172c0.2659,-0.0268 0.5412,-0.0749 0.8204,-0.164l0.5625,-0.1875l0.5625,-0.1758c0.6268,-0.1997 1.2776,-0.2339 1.9218,-0.0821l0.5625,0.1407l0.5625,0.1289c0.2092,0.0494 0.4109,0.0581 0.6094,0.0351l0.5625,-0.0586l0.5625,-0.0703c0.4921,-0.0569 0.9848,-0.0486 1.4766,0.0117l0.5625,0.0704l0.5625,0.0585c0.2136,0.0264 0.4368,0.0206 0.6562,-0.0234l0.5625,-0.1055l0.5625,-0.1171c0.4924,-0.0983 0.9891,-0.1311 1.4883,-0.1055l0.5625,0.0234l0.5625,0.0352c0.2691,0.0139 0.5477,-0.0035 0.8203,-0.0469l0.5625,-0.0937l0.5625,-0.0821c0.4404,-0.0699 0.8813,-0.1199 1.3242,-0.1289l1.125,-0.0234c0.6109,-0.0124 1.2024,0.1207 1.7578,0.3633l1.125,0.4921c0.2348,0.1024 0.4506,0.1489 0.6446,0.1641l1.125,0.0938c0.3467,0.027 0.6964,0.0385 1.0429,0.0468l0.5625,0.0235l0.5621,0.0117c0.195,0.0043 0.401,-0.0219 0.622,-0.0938l1.125,-0.375c0.705,-0.2301 1.432,-0.2017 2.121,0.0586l1.125,0.4219c0.179,0.0674 0.33,0.0807 0.468,0.0703l0.563,-0.0469l0.562,-0.0351c0.187,-0.015 0.401,-0.0706 0.633,-0.1758l1.125,-0.5156c0.547,-0.2471 1.131,-0.3825 1.735,-0.3867l0.562,0l0.563,-0.0118c0.449,-0.003 0.9,0.0298 1.347,0.0938l1.125,0.1641c0.198,0.028 0.394,0.0184 0.598,-0.0235l1.125,-0.2344c0.591,-0.1235 1.194,-0.1154 1.781,0.0235l0.563,0.1406l0.562,0.1289c0.232,0.0551 0.459,0.0736 0.68,0.0586l0.562,-0.0351l0.563,-0.0469c0.561,-0.0381 1.113,0.0379 1.652,0.1992l1.125,0.3281l0.012,0.0117l0,-0.0117c0.007,-0.002 0.025,-0.0017 0.047,-0.0117l0.562,-0.2695l0.563,-0.2578c0.535,-0.2522 1.111,-0.3506 1.687,-0.2696l0.574,0.1407l1.125,0.3984c0.371,0.1295 0.744,0.2485 1.114,0.375l0.562,0.1992l0.563,0.1875c0.228,0.0782 0.442,0.1161 0.644,0.1172l1.125,0c0.127,0.0005 0.287,-0.0249 0.481,-0.1172l1.125,-0.5391c0.547,-0.26 1.134,-0.4034 1.746,-0.4101l0.562,-0.0117l0.563,0c0.604,-0.0059 1.195,0.1233 1.746,0.3633l1.125,0.4921c0.03,0.0128 0.05,0.0104 0.059,0.0118l0.035,0l0.562,-0.1641l0.563,-0.1758c0.516,-0.1541 1.046,-0.2211 1.582,-0.2109l0.562,0l0.563,0.0117c0.338,0.0065 0.681,0.0067 1.019,-0.0117l0.563,-0.0352l0.562,-0.0234c0.231,-0.0129 0.475,-0.067 0.727,-0.1524l1.125,-0.375l0.609,-0.1406c0.405,-0.0429 0.806,0.0025 1.184,0.1289l0.551,0.2461l0.562,0.3164l0.469,0.2578l0.433,-0.1875l0.563,-0.2461c0.572,-0.2535 1.182,-0.3763 1.816,-0.3398l0.563,0.0234l0.562,0.0352c0.475,0.0274 0.952,0.1027 1.418,0.2226l0.563,0.1524l0.562,0.1406c0.056,0.0136 0.108,0.0123 0.2,-0.0234l0.562,-0.2227l0.563,-0.2109c0.54,-0.2111 1.107,-0.3216 1.687,-0.3164l1.125,0c0.493,0.0046 0.982,0.0692 1.465,0.1875l1.125,0.2812c0.44,0.1081 0.88,0.2421 1.312,0.4102l1.125,0.4453c0.177,0.0686 0.326,0.0815 0.457,0.0703l1.125,-0.0937c0.226,-0.0194 0.463,-0.0795 0.715,-0.1758l1.125,-0.4219c0.57,-0.2178 1.169,-0.3185 1.781,-0.2695l1.125,0.0937c0.28,0.0223 0.563,0.0191 0.844,-0.0117l0.563,-0.0703l0.562,-0.0586c0.554,-0.0603 1.111,-0.0173 1.653,0.1172l1.125,0.2812c0.034,0.0081 0.077,0.0142 0.164,-0.0234l1.125,-0.4922c0.635,-0.2751 1.32,-0.3635 2.015,-0.2226l0.563,0.1171l0.562,0.1055c0.516,0.1046 1.019,0.2869 1.5,0.5274l1.172,0.5859l0.563,-0.1641l0.562,-0.1523c0.544,-0.153 1.102,-0.2134 1.664,-0.1641l1.125,0.0938c0.249,0.0217 0.498,0.0171 0.75,-0.0235l0.563,-0.0937l0.562,-0.082c0.397,-0.0641 0.798,-0.1296 1.196,-0.1758l0.562,-0.0586l0.563,-0.0703c0.621,-0.072 1.234,0.0093 1.816,0.2226l0.562,0.211l0.563,0.1992c0.145,0.053 0.257,0.0643 0.363,0.0469l1.125,-0.1875c0.274,-0.045 0.556,-0.1153 0.844,-0.2227l1.125,-0.4219l0.586,-0.1523c0.587,-0.0894 1.178,0.0164 1.723,0.2812l1.125,0.5391c0.127,0.0614 0.197,0.0647 0.246,0.0586l1.125,-0.1641c0.483,-0.0694 0.979,-0.085 1.464,-0.0469l1.125,0.0938c0.431,0.034 0.861,0.0916 1.29,0.1758l0.562,0.1172l0.563,0.1054c0.255,0.0505 0.512,0.0703 0.761,0.0586l0.563,-0.0351l0.562,-0.0235c0.284,-0.0137 0.577,-0.05 0.867,-0.1172l1.125,-0.2578c0.344,-0.0796 0.686,-0.1791 1.032,-0.2812l1.125,-0.3281c0.43,-0.1273 0.866,-0.2309 1.3,-0.3047l1.125,-0.1875c0.477,-0.0808 0.961,-0.1132 1.442,-0.0938l1.125,0.0469c0.695,0.0285 1.33,0.2666 1.887,0.6328l1.089,0.7266l0.457,-0.1407l0.563,-0.164c0.68,-0.2089 1.38,-0.2047 2.051,0.0234l0.562,0.1992l0.563,0.1875c0.101,0.0345 0.175,0.0334 0.258,0.0118l0.562,-0.1407l0.563,-0.1523c0.629,-0.1654 1.27,-0.1584 1.898,0.0117l0.996,0.2695l0.551,-0.3867l0.562,-0.4101c0.351,-0.2497 0.785,-0.4377 1.278,-0.4922c0.499,-0.0544 0.969,0.043 1.383,0.2461l0.562,0.2812l0.563,0.2696c0.126,0.0623 0.195,0.0647 0.234,0.0585l1.125,-0.1875c0.603,-0.0946 1.21,-0.0465 1.793,0.129l0.562,0.1757l0.563,0.1641c0.115,0.034 0.211,0.0384 0.316,0.0117l0.563,-0.1406l0.562,-0.1524c0.586,-0.1488 1.187,-0.1609 1.782,-0.0468l1.125,0.2109c0.143,0.0274 0.288,0.0315 0.445,-0.0117l0.562,-0.1641l0.563,-0.1523c0.363,-0.1003 0.726,-0.2088 1.09,-0.3164l1.125,-0.3281c0.749,-0.2219 1.506,-0.1468 2.191,0.1757l1.125,0.5391c0.025,0.0116 0.048,0.0205 0.059,0.0234l0.035,0l0.562,-0.164l0.563,-0.1524c0.635,-0.1744 1.287,-0.1755 1.922,0l0.562,0.1641l0.563,0.1523c0.224,0.0617 0.437,0.081 0.644,0.0703l0.563,-0.0234l0.562,-0.0351c0.233,-0.0121 0.474,-0.0565 0.727,-0.1407l1.125,-0.375c0.677,-0.2258 1.382,-0.2309 2.062,-0.0117l0.563,0.1875l0.562,0.1758c0.302,0.0971 0.598,0.1662 0.891,0.2109l0.562,0.0938l0.563,0.082c0.066,0.01 0.148,0.001 0.281,-0.0586l0.563,-0.2461l0.562,-0.2578c0.573,-0.2565 1.18,-0.3142 1.77,-0.1875l0.574,0.1875l1.125,0.4922c0.114,0.0503 0.183,0.0564 0.234,0.0469l0.563,-0.1172l0.562,-0.1055c0.386,-0.0752 0.775,-0.1452 1.16,-0.2109l0.563,-0.0938l0.562,-0.1054c0.585,-0.0997 1.173,-0.0644 1.747,0.082l1.125,0.2812c0.225,0.0577 0.445,0.0847 0.656,0.0704l0.562,-0.0469l0.563,-0.0352c0.41,-0.0278 0.82,-0.0375 1.23,-0.0351l1.125,0c0.182,0.0011 0.382,-0.0262 0.598,-0.1055l1.125,-0.4219c0.697,-0.2575 1.376,-0.1832 1.969,0.0821l0.562,0.3281l1.125,0.8203c0.068,0.0493 0.119,0.0617 0.141,0.0703l0.551,-0.0234l0.562,-0.0469c0.326,-0.0248 0.657,-0.0715 0.984,-0.1289l1.125,-0.1875c0.291,-0.0513 0.591,-0.1296 0.891,-0.2344l1.125,-0.3984c0.556,-0.1931 1.134,-0.2784 1.723,-0.2344l0.562,0.0469l0.563,0.0351c0.476,0.036 0.951,0.1274 1.418,0.2578l0.562,0.1524l0.551,0.1523c0.008,-0.0031 0.029,-0.0023 0.047,-0.0117l1.125,-0.5859l0.609,-0.2344c0.418,-0.1061 0.847,-0.1136 1.266,-0.0117l0.621,0.2344l0.562,0.2929l0.422,0.211l0.036,-0.0118l0.128,-0.082l0.129,-0.4805l0.141,-0.5625c0.095,-0.3807 0.194,-0.7678 0.293,-1.1484l0.152,-0.5625l0.117,-0.4805l-0.375,-0.5625l-0.363,-0.5625c-0.454,-0.6891 -0.644,-1.523 -0.375,-2.3906l0.352,-1.125c0.06,-0.1923 0.074,-0.3712 0.058,-0.5391l-0.058,-0.5625l-0.047,-0.5625c-0.032,-0.3382 -0.083,-0.6802 -0.141,-1.0195l-0.187,-1.125c-0.129,-0.7586 0.041,-1.4766 0.398,-2.1094l0.633,-1.125c0.107,-0.19 0.127,-0.3312 0.129,-0.4218l0.023,-1.125c0.001,-0.0831 -0.024,-0.2017 -0.117,-0.375l-0.609,-1.125c-0.287,-0.5302 -0.473,-1.1087 -0.528,-1.711l-0.046,-0.5625l-0.059,-0.5625c-0.063,-0.6989 0.106,-1.3597 0.422,-1.957l0.293,-0.5625l0.304,-0.5625c0.111,-0.2097 0.145,-0.3813 0.153,-0.5156l0.07,-1.125c0.005,-0.0937 -0.012,-0.2171 -0.094,-0.3867l-0.539,-1.125c-0.272,-0.5669 -0.417,-1.1769 -0.398,-1.8165l0.023,-1.125c0.017,-0.5653 0.151,-1.1145 0.364,-1.6406l0.222,-0.5625l0.235,-0.5625c0.049,-0.1223 0.049,-0.2084 0.035,-0.2812l-0.117,-0.5625l-0.106,-0.5625c-0.103,-0.5315 -0.117,-1.0693 -0.047,-1.6055l0.071,-0.5625l0.082,-0.5625c0.005,-0.0396 -0.001,-0.1108 -0.071,-0.2461l-0.281,-0.5625l-0.293,-0.5625c-0.349,-0.6809 -0.45,-1.4452 -0.234,-2.2148l0.304,-1.125c0.08,-0.2829 0.131,-0.559 0.153,-0.8321l0.093,-1.12497c0.04,-0.4923 0.132,-0.98712 0.282,-1.46484l0.176,-0.5625l0.187,-0.5625c0.057,-0.18192 0.063,-0.34652 0.047,-0.50391l-0.117,-1.125c-0.04,-0.36768 -0.089,-0.7183 -0.129,-1.04297l-0.059,-0.5039c-0.018,-0.00711 -0.04,-0.00439 -0.058,-0.01172l-1.125,-0.44531c-0.156,-0.06185 -0.28,-0.071 -0.387,-0.0586z"/>
 </g>

</svg>