<svg width="79" height="43" viewBox="0 0 79 43" fill="none" xmlns="http://www.w3.org/2000/svg">
<g filter="url(#filter0_g_90_1383)">
<path d="M21.3975 32.3438L20.9287 31.9375L20.96 29.9062L20.8662 29.875C20.2412 30.75 19.5954 31.3646 18.9287 31.7188C18.2829 32.0729 17.5954 32.25 16.8662 32.25C15.6787 32.25 14.6162 31.9792 13.6787 31.4375C12.7621 30.875 12.0329 30.1042 11.4912 29.125C10.9496 28.1458 10.6787 27.0208 10.6787 25.75C10.6787 24.6458 10.8662 23.6354 11.2412 22.7188C11.6162 21.8021 12.1267 21.0208 12.7725 20.375C13.4392 19.7083 14.1892 19.1979 15.0225 18.8438C15.8558 18.4896 16.7204 18.3125 17.6162 18.3125C18.1996 18.3125 18.7933 18.3854 19.3975 18.5312C20.0017 18.6771 20.5121 18.9062 20.9287 19.2188C20.9287 18.8438 20.9183 18.3542 20.8975 17.75C20.8975 17.1458 20.8871 16.5208 20.8662 15.875C20.8662 15.2083 20.8558 14.625 20.835 14.125C20.835 13.6042 20.8246 13.25 20.8037 13.0625L18.3662 12.625L18.3037 11.5938L22.8975 10.3125L23.46 10.75C23.4183 12.0417 23.3871 13.2917 23.3662 14.5C23.3454 15.7083 23.335 16.9688 23.335 18.2812L23.3037 25.4688C23.3037 26.5312 23.3246 27.4479 23.3662 28.2188C23.4287 28.9688 23.4704 29.5 23.4912 29.8125L25.4912 30.3125V31.3438L21.3975 32.3438ZM17.6475 30.1562C18.2517 30.1562 18.8142 30.0312 19.335 29.7812C19.8558 29.5104 20.3871 29.0417 20.9287 28.375V21.6562C20.5329 20.9479 20.0329 20.4479 19.4287 20.1562C18.8246 19.8646 18.2204 19.7188 17.6162 19.7188C16.3037 19.7188 15.2725 20.2083 14.5225 21.1875C13.7933 22.1458 13.4287 23.3958 13.4287 24.9375C13.4287 26.5833 13.835 27.8646 14.6475 28.7812C15.4808 29.6979 16.4808 30.1562 17.6475 30.1562ZM26.6362 32L26.5737 30.8438L28.6675 30.4062C28.6883 30.3229 28.6987 30.1771 28.6987 29.9688C28.7196 29.7604 28.7404 29.4271 28.7612 28.9688C28.7821 28.5104 28.7925 27.875 28.7925 27.0625V25C28.7925 24.1458 28.7717 23.3646 28.73 22.6562C28.6883 21.9479 28.6362 21.3958 28.5737 21L26.48 20.5625V19.5312L30.9175 18.375L31.3862 18.8125C31.3237 19.4583 31.2717 20.0938 31.23 20.7188C31.2092 21.3438 31.1987 22.0729 31.1987 22.9062V26.8438C31.1987 27.8021 31.2092 28.5938 31.23 29.2188C31.2717 29.8438 31.3133 30.2396 31.355 30.4062L33.4487 30.8438L33.3862 32H26.6362ZM30.0112 14.8438C29.4904 14.8438 29.0321 14.6667 28.6362 14.3125C28.2612 13.9583 28.0737 13.5208 28.0737 13C28.0737 12.4792 28.2612 12.0417 28.6362 11.6875C29.0321 11.3333 29.4904 11.1562 30.0112 11.1562C30.5529 11.1562 31.0008 11.3333 31.355 11.6875C31.7092 12.0417 31.8862 12.4792 31.8862 13C31.8862 13.5208 31.7092 13.9583 31.355 14.3125C31.0008 14.6667 30.5529 14.8438 30.0112 14.8438ZM44.4688 30.0625C44.0729 30.75 43.5312 31.2917 42.8438 31.6875C42.1562 32.0625 41.4375 32.25 40.6875 32.25C39.4167 32.25 38.375 31.8646 37.5625 31.0938C36.75 30.3229 36.3438 29.1667 36.3438 27.625L36.4375 20.1562H34.25V19.5L38.2812 15.8438H38.875L38.8125 19.4375L38.7812 27.125C38.7812 28.2083 39.0104 29.0104 39.4688 29.5312C39.9479 30.0521 40.6146 30.3125 41.4688 30.3125C41.9479 30.3125 42.3854 30.2188 42.7812 30.0312C43.1979 29.8438 43.5729 29.5938 43.9062 29.2812L44.4688 30.0625ZM37.6875 20.1562V18.5938H43.5312V20.1562H37.6875ZM54.5825 30.0625C54.1867 30.75 53.645 31.2917 52.9575 31.6875C52.27 32.0625 51.5513 32.25 50.8013 32.25C49.5304 32.25 48.4888 31.8646 47.6763 31.0938C46.8638 30.3229 46.4575 29.1667 46.4575 27.625L46.5513 20.1562H44.3638V19.5L48.395 15.8438H48.9888L48.9263 19.4375L48.895 27.125C48.895 28.2083 49.1242 29.0104 49.5825 29.5312C50.0617 30.0521 50.7283 30.3125 51.5825 30.3125C52.0617 30.3125 52.4992 30.2188 52.895 30.0312C53.3117 29.8438 53.6867 29.5938 54.02 29.2812L54.5825 30.0625ZM47.8013 20.1562V18.5938H53.645V20.1562H47.8013ZM61.7275 32.25C60.3733 32.25 59.1858 31.9583 58.165 31.375C57.165 30.7917 56.3838 29.9792 55.8213 28.9375C55.2588 27.875 54.9775 26.6667 54.9775 25.3125C54.9775 23.8958 55.29 22.6667 55.915 21.625C56.54 20.5833 57.3733 19.7708 58.415 19.1875C59.4567 18.6042 60.6025 18.3125 61.8525 18.3125C63.1442 18.3125 64.2692 18.6042 65.2275 19.1875C66.2067 19.75 66.9567 20.5521 67.4775 21.5938C68.0192 22.6146 68.29 23.8125 68.29 25.1875C68.29 26.5 67.9983 27.6875 67.415 28.75C66.8317 29.8125 66.04 30.6667 65.04 31.3125C64.0608 31.9375 62.9567 32.25 61.7275 32.25ZM62.04 30.7812C62.7483 30.7812 63.3629 30.5729 63.8838 30.1562C64.4046 29.7188 64.8108 29.125 65.1025 28.375C65.3942 27.6042 65.54 26.7292 65.54 25.75C65.54 23.9583 65.165 22.5104 64.415 21.4062C63.6858 20.2812 62.7171 19.7188 61.5088 19.7188C60.3838 19.7188 59.4775 20.1875 58.79 21.125C58.1233 22.0625 57.79 23.3021 57.79 24.8438C57.79 26.0104 57.9671 27.0417 58.3213 27.9375C58.6963 28.8333 59.2067 29.5312 59.8525 30.0312C60.4983 30.5312 61.2275 30.7812 62.04 30.7812Z" fill="black"/>
</g>
<defs>
<filter id="filter0_g_90_1383" x="0.679688" y="0.3125" width="77.6094" height="42.0312" filterUnits="userSpaceOnUse" color-interpolation-filters="sRGB">
<feFlood flood-opacity="0" result="BackgroundImageFix"/>
<feBlend mode="normal" in="SourceGraphic" in2="BackgroundImageFix" result="shape"/>
<feTurbulence type="fractalNoise" baseFrequency="2 2" numOctaves="3" seed="9964" />
<feDisplacementMap in="shape" scale="20" xChannelSelector="R" yChannelSelector="G" result="displacedImage" width="100%" height="100%" />
<feMerge result="effect1_texture_90_1383">
<feMergeNode in="displacedImage"/>
</feMerge>
</filter>
</defs>
</svg>
