<svg width="10" height="18" viewBox="0 0 10 18" fill="none" xmlns="http://www.w3.org/2000/svg">
<path d="M8.29289 17.2071C8.68342 17.5976 9.31658 17.5976 9.70711 17.2071C10.0976 16.8166 10.0976 16.1834 9.70711 15.7929L9 16.5L8.29289 17.2071ZM8.92929 16.4293L9.6364 15.7222L9.57549 15.6613L9.50508 15.6117L8.92929 16.4293ZM8.34842 16.0202L7.77263 16.8378L8.34842 16.0202ZM7.61155 15.2368L8.53461 14.8521L7.61155 15.2368ZM7.29956 14.4881L6.3765 14.8728L7.29956 14.4881ZM6.77768 13.9493L7.18764 13.0372L6.77768 13.9493ZM6.4118 13.7849L6.82176 12.8728L6.4118 13.7849ZM6.04593 13.6204L5.63596 14.5325L6.04593 13.6204ZM5.37308 13.2326L5.96146 12.424L5.37308 13.2326ZM4.75915 12.7859L4.17078 13.5945L4.75915 12.7859ZM3.8986 11.5251L3.01636 11.9959L3.8986 11.5251ZM3.45249 10.9106L2.7359 11.6081L3.45249 10.9106ZM2.92933 10.3731L3.64593 9.67559L2.92933 10.3731ZM2.32812 9.91363L2.81771 9.04168L2.32812 9.91363ZM1.98849 9.72293L1.4989 10.5949L1.98849 9.72293ZM1.64886 9.53223L2.13844 8.66028L1.64886 9.53223ZM1.56593 8.97253L2.38683 9.5436L1.56593 8.97253ZM2.07935 8.23451L1.25845 7.66343L2.07935 8.23451ZM2.72393 7.72304L3.06869 8.66173L2.72393 7.72304ZM3.49968 7.43813L3.15493 6.49944L3.49968 7.43813ZM3.98231 6.8601L3.00517 6.64753L3.98231 6.8601ZM4.07707 6.42453L3.09992 6.21196L4.07707 6.42453ZM4.17182 5.98895L5.14897 6.20152L4.17182 5.98895ZM5.22682 4.92263L4.6778 4.08681L5.22682 4.92263ZM5.74424 4.37939L6.60452 4.88922L5.74424 4.37939ZM5.94158 4.0464L5.08131 3.53657L5.94158 4.0464ZM6.13892 3.71341L6.9992 4.22324L6.13892 3.71341ZM6.72799 3.24182L6.39444 2.29909L6.72799 3.24182ZM8.13433 2.52684L8.92567 3.13822L8.13433 2.52684ZM8.59663 1.92847L7.80529 1.31709L8.59663 1.92847ZM8.91389 1.56464L9.28036 0.634214L8.76043 0.429431L8.31354 0.764905L8.91389 1.56464ZM8.92929 1.57071L8.56282 2.50114L9.17281 2.7414L9.6364 2.27782L8.92929 1.57071ZM9.70711 2.20711C10.0976 1.81658 10.0976 1.18342 9.70711 0.792893C9.31658 0.402369 8.68342 0.402369 8.29289 0.792893L9 1.5L9.70711 2.20711ZM9 16.5L9.70711 15.7929L9.6364 15.7222L8.92929 16.4293L8.22218 17.1364L8.29289 17.2071L9 16.5ZM8.92929 16.4293L9.50508 15.6117L8.9242 15.2026L8.34842 16.0202L7.77263 16.8378L8.3535 17.2469L8.92929 16.4293ZM8.34842 16.0202L8.9242 15.2026C8.76933 15.0935 8.66671 15.0033 8.60218 14.9347C8.53646 14.8648 8.52797 14.8362 8.53461 14.8521L7.61155 15.2368L6.68849 15.6215C6.90135 16.1322 7.33254 16.5279 7.77263 16.8378L8.34842 16.0202ZM7.61155 15.2368L8.53461 14.8521L8.37861 14.4778L7.45555 14.8625L6.5325 15.2471L6.68849 15.6215L7.61155 15.2368ZM7.45555 14.8625L8.37861 14.4778L8.22262 14.1035L7.29956 14.4881L6.3765 14.8728L6.5325 15.2471L7.45555 14.8625ZM7.29956 14.4881L8.22262 14.1035C8.02203 13.6221 7.66623 13.2524 7.18764 13.0372L6.77768 13.9493L6.36772 14.8614C6.37592 14.8651 6.3789 14.8673 6.37839 14.8669C6.37776 14.8665 6.37552 14.8648 6.3728 14.862C6.37009 14.8592 6.36888 14.8573 6.36911 14.8577C6.36942 14.8582 6.37227 14.8626 6.3765 14.8728L7.29956 14.4881ZM6.77768 13.9493L7.18764 13.0372L6.82176 12.8728L6.4118 13.7849L6.00184 14.697L6.36772 14.8614L6.77768 13.9493ZM6.4118 13.7849L6.82176 12.8728L6.45588 12.7083L6.04593 13.6204L5.63596 14.5325L6.00184 14.697L6.4118 13.7849ZM6.04593 13.6204L6.45588 12.7083C6.27131 12.6254 6.1073 12.5302 5.96146 12.424L5.37308 13.2326L4.78471 14.0412C5.04815 14.2329 5.3327 14.3962 5.63596 14.5325L6.04593 13.6204ZM5.37308 13.2326L5.96146 12.424L5.65449 12.2007L5.06612 13.0093L4.47774 13.8179L4.78471 14.0412L5.37308 13.2326ZM5.06612 13.0093L5.65449 12.2007L5.34753 11.9773L4.75915 12.7859L4.17078 13.5945L4.47774 13.8179L5.06612 13.0093ZM4.75915 12.7859L5.34753 11.9773C5.26914 11.9203 5.20414 11.8476 5.14991 11.7459L4.26766 12.2167L3.38541 12.6875C3.57721 13.047 3.83988 13.3537 4.17078 13.5945L4.75915 12.7859ZM4.26766 12.2167L5.14991 11.7459L4.96538 11.4001L4.08313 11.8709L3.20088 12.3417L3.38541 12.6875L4.26766 12.2167ZM4.08313 11.8709L4.96538 11.4001L4.78085 11.0543L3.8986 11.5251L3.01636 11.9959L3.20088 12.3417L4.08313 11.8709ZM3.8986 11.5251L4.78085 11.0543C4.61556 10.7446 4.41199 10.4626 4.16909 10.2131L3.45249 10.9106L2.7359 11.6081C2.84177 11.7168 2.93561 11.8446 3.01636 11.9959L3.8986 11.5251ZM3.45249 10.9106L4.16909 10.2131L3.90751 9.94434L3.19091 10.6418L2.47431 11.3393L2.7359 11.6081L3.45249 10.9106ZM3.19091 10.6418L3.90751 9.94434L3.64593 9.67559L2.92933 10.3731L2.21273 11.0706L2.47431 11.3393L3.19091 10.6418ZM2.92933 10.3731L3.64593 9.67559C3.40209 9.42506 3.12453 9.21395 2.81771 9.04168L2.32812 9.91363L1.83853 10.7856C1.98455 10.8676 2.1078 10.9628 2.21273 11.0706L2.92933 10.3731ZM2.32812 9.91363L2.81771 9.04168L2.47808 8.85098L1.98849 9.72293L1.4989 10.5949L1.83853 10.7856L2.32812 9.91363ZM1.98849 9.72293L2.47808 8.85098L2.13844 8.66028L1.64886 9.53223L1.15927 10.4042L1.4989 10.5949L1.98849 9.72293ZM1.64886 9.53223L2.13844 8.66028C2.18668 8.68736 2.40045 8.83273 2.44751 9.1504C2.48775 9.42201 2.36477 9.57531 2.38683 9.5436L1.56593 8.97253L0.745035 8.40145C0.595955 8.61575 0.401226 8.98534 0.469106 9.44351C0.543811 9.94775 0.884607 10.25 1.15927 10.4042L1.64886 9.53223ZM1.56593 8.97253L2.38683 9.5436L2.64354 9.17459L1.82264 8.60352L1.00174 8.03244L0.745035 8.40145L1.56593 8.97253ZM1.82264 8.60352L2.64354 9.17459L2.90025 8.80558L2.07935 8.23451L1.25845 7.66343L1.00174 8.03244L1.82264 8.60352ZM2.07935 8.23451L2.90025 8.80558C2.96499 8.71252 3.01984 8.67967 3.06869 8.66173L2.72393 7.72304L2.37918 6.78435C1.91086 6.95635 1.53599 7.26448 1.25845 7.66343L2.07935 8.23451ZM2.72393 7.72304L3.06869 8.66173L3.45657 8.51928L3.11181 7.58059L2.76705 6.64189L2.37918 6.78435L2.72393 7.72304ZM3.11181 7.58059L3.45657 8.51928L3.84444 8.37682L3.49968 7.43813L3.15493 6.49944L2.76705 6.64189L3.11181 7.58059ZM3.49968 7.43813L3.84444 8.37682C4.4533 8.1532 4.83043 7.6658 4.95946 7.07267L3.98231 6.8601L3.00517 6.64753C3.00158 6.66403 3.00632 6.6298 3.04667 6.58148C3.08938 6.53032 3.13608 6.50636 3.15493 6.49944L3.49968 7.43813ZM3.98231 6.8601L4.95946 7.07267L5.05421 6.63709L4.07707 6.42453L3.09992 6.21196L3.00517 6.64753L3.98231 6.8601ZM4.07707 6.42453L5.05421 6.63709L5.14897 6.20152L4.17182 5.98895L3.19468 5.77638L3.09992 6.21196L4.07707 6.42453ZM4.17182 5.98895L5.14897 6.20152C5.15923 6.15435 5.16908 6.14269 5.16429 6.15015C5.16204 6.15365 5.15782 6.15934 5.15158 6.16565C5.14533 6.17197 5.13952 6.17641 5.13568 6.17894L4.58666 5.34313L4.03764 4.50731C3.56965 4.81472 3.30366 5.27541 3.19468 5.77638L4.17182 5.98895ZM4.58666 5.34313L5.13568 6.17894L5.45576 5.96869L4.90674 5.13288L4.35772 4.29707L4.03764 4.50731L4.58666 5.34313ZM4.90674 5.13288L5.45576 5.96869L5.77584 5.75844L5.22682 4.92263L4.6778 4.08681L4.35772 4.29707L4.90674 5.13288ZM5.22682 4.92263L5.77584 5.75844C6.11784 5.53379 6.39623 5.24068 6.60452 4.88922L5.74424 4.37939L4.88396 3.86956C4.82913 3.96208 4.76257 4.03113 4.6778 4.08681L5.22682 4.92263ZM5.74424 4.37939L6.60452 4.88922L6.80186 4.55623L5.94158 4.0464L5.08131 3.53657L4.88396 3.86956L5.74424 4.37939ZM5.94158 4.0464L6.80186 4.55623L6.9992 4.22324L6.13892 3.71341L5.27865 3.20358L5.08131 3.53657L5.94158 4.0464ZM6.13892 3.71341L6.9992 4.22324C7.00271 4.21732 7.00512 4.21436 7.00613 4.21318C7.00712 4.21204 7.00814 4.21102 7.00982 4.20967C7.01222 4.20775 7.02585 4.19718 7.06155 4.18455L6.72799 3.24182L6.39444 2.29909C5.92991 2.46344 5.53878 2.76463 5.27865 3.20358L6.13892 3.71341ZM6.72799 3.24182L7.06155 4.18455L7.45328 4.04595L7.11972 3.10322L6.78617 2.16049L6.39444 2.29909L6.72799 3.24182ZM7.11972 3.10322L7.45328 4.04595L7.84501 3.90735L7.51145 2.96462L7.1779 2.02189L6.78617 2.16049L7.11972 3.10322ZM7.51145 2.96462L7.84501 3.90735C8.26879 3.75741 8.64247 3.50477 8.92567 3.13822L8.13433 2.52684L7.343 1.91545C7.31799 1.94781 7.27642 1.98703 7.1779 2.02189L7.51145 2.96462ZM8.13433 2.52684L8.92567 3.13822L9.15681 2.83904L8.36548 2.22765L7.57414 1.61627L7.343 1.91545L8.13433 2.52684ZM8.36548 2.22765L9.15681 2.83904L9.38796 2.53985L8.59663 1.92847L7.80529 1.31709L7.57414 1.61627L8.36548 2.22765ZM8.59663 1.92847L9.38796 2.53985C9.46247 2.44342 9.51603 2.37602 9.55131 2.33337C9.55975 2.32317 9.56625 2.31546 9.57103 2.30989C9.57598 2.30413 9.5779 2.30202 9.57732 2.30267C9.57693 2.30309 9.57535 2.30482 9.5727 2.3076C9.57015 2.31029 9.56564 2.31497 9.55947 2.32106C9.55353 2.32692 9.54389 2.33622 9.53119 2.34757C9.5193 2.3582 9.4987 2.37604 9.47118 2.3967L8.87083 1.59697L8.27048 0.797227C8.17894 0.865943 8.11107 0.94233 8.09777 0.956946C8.06788 0.989808 8.03783 1.02521 8.01019 1.05863C7.95407 1.12648 7.88488 1.21407 7.80529 1.31709L8.59663 1.92847ZM8.87083 1.59697L9.47118 2.3967L9.51423 2.36438L8.91389 1.56464L8.31354 0.764905L8.27048 0.797227L8.87083 1.59697ZM8.91389 1.56464L8.54742 2.49507L8.56282 2.50114L8.92929 1.57071L9.29576 0.640281L9.28036 0.634214L8.91389 1.56464ZM8.92929 1.57071L9.6364 2.27782L9.70711 2.20711L9 1.5L8.29289 0.792893L8.22218 0.863604L8.92929 1.57071Z" fill="#52525B"/>
</svg>
