<svg width="121" height="77" viewBox="0 0 121 77" fill="none" xmlns="http://www.w3.org/2000/svg">
<path d="M3.00049 19C3.00049 10.1634 10.1639 3 19.0005 3H102C110.837 3 118 10.1634 118 19V58C118 66.8366 110.837 74 102 74H3.00049V19Z" fill="black"/>
<path d="M87.7624 0.90235C88.6223 0.649239 89.4466 0.843514 90.1296 1.28907L90.6921 1.65235L91.114 1.92188L91.4772 1.75782L92.0397 1.48829C92.7409 1.15498 93.5177 1.07696 94.278 1.32423L95.403 1.69923C95.7471 1.81125 96.092 1.90477 96.4343 1.99219L96.9968 2.14454L97.5593 2.28516C97.6448 2.30692 97.7243 2.30828 97.8288 2.27344L98.3913 2.07423L98.9538 1.88673C99.3227 1.76163 99.6961 1.63112 100.067 1.50001L101.192 1.10157L101.837 0.960944C102.257 0.917796 102.668 0.977229 103.055 1.12501L103.618 1.40626L104.157 1.75782L104.684 2.09766C104.935 2.26045 105.152 2.36511 105.329 2.41407L106.383 2.69532C106.518 2.73156 106.702 2.75957 106.958 2.73048L107.591 2.64844L108.212 2.57813H108.856C109.275 2.62259 109.672 2.76218 110.028 3.00001L110.532 3.4336L110.93 3.87891L111.341 4.31251C111.587 4.58285 111.828 4.83405 112.067 5.06251L112.466 5.44922L112.876 5.83594C112.939 5.89503 113.054 5.97239 113.274 6.03516L113.895 6.21094L114.528 6.39844C114.969 6.52461 115.414 6.76613 115.758 7.1836C115.929 7.39113 116.059 7.61196 116.145 7.83985L116.298 8.53126L116.368 9.18751L116.426 9.84376C116.428 9.86096 116.425 9.88105 116.426 9.89063L117.341 10.6406C118.018 11.1979 118.363 11.985 118.325 12.8555L118.278 14.0625C118.272 14.1935 118.294 14.2804 118.337 14.3555L118.63 14.8594L118.911 15.3633C119.325 16.0856 119.385 16.8905 119.122 17.6602L118.934 18.2344L118.735 18.7969C118.669 18.9892 118.653 19.1574 118.665 19.3125L118.712 19.875L118.747 20.4375C118.755 20.5399 118.798 20.6886 118.923 20.8945L119.602 22.0195C120.038 22.7371 120.177 23.5867 119.872 24.4336L119.673 24.9961L119.462 25.5586C119.434 25.6358 119.444 25.6863 119.462 25.7461L119.626 26.3086L119.801 26.8711C120.054 27.71 119.886 28.5262 119.462 29.2148L119.11 29.7773L118.77 30.3398C118.753 30.3671 118.729 30.3854 118.723 30.3984L118.841 30.9375L118.958 31.5C119.064 32.0216 119.094 32.5534 119.04 33.082L118.923 34.207C118.922 34.212 118.918 34.2241 118.923 34.2422C118.929 34.265 118.949 34.3112 118.993 34.3828L119.696 35.5078C120.043 36.0646 120.268 36.6929 120.294 37.3711L120.317 37.9336L120.329 38.4961C120.358 39.2855 120.077 39.9899 119.649 40.5703L119.239 41.1328L118.817 41.6953C118.777 41.7505 118.754 41.7844 118.747 41.8008L118.817 42.3281L118.876 42.8906C118.917 43.2569 118.958 43.6259 119.005 43.9922L119.087 44.5547L119.157 45.1172C119.185 45.3354 119.246 45.5691 119.356 45.8203L119.848 46.9453C120.108 47.5336 120.227 48.1682 120.165 48.8203L120.118 49.3828L120.059 49.9453C120.03 50.2487 120.021 50.5567 120.036 50.8594L120.071 51.4219L120.094 51.9844C120.119 52.4924 120.074 52.9966 119.966 53.4961L119.731 54.6211C119.646 55.0109 119.547 55.4035 119.45 55.793L119.169 56.918C119.156 56.9696 119.161 57.0307 119.204 57.1406L119.649 58.2891C119.879 58.8726 119.981 59.4882 119.93 60.1172L119.883 60.7031L119.837 61.2774C119.79 61.8571 119.638 62.4201 119.38 62.9414L119.122 63.4688L118.852 63.9961C118.595 64.5145 118.246 64.9742 117.821 65.3672L117.387 65.7774L116.966 66.1641C116.965 66.1725 116.966 66.186 116.966 66.1992L116.942 66.8555L116.93 67.5234C116.906 68.4086 116.502 69.2281 115.688 69.7383L115.184 70.0547L114.669 70.3828C114.267 70.6345 113.853 70.8548 113.426 71.0391L112.887 71.2617L112.36 71.4961C112.253 71.5422 112.161 71.6091 112.079 71.7188L111.727 72.1992L111.364 72.6797C110.886 73.3197 110.207 73.7196 109.407 73.8164L108.821 73.8867L108.247 73.957C108.069 73.9785 107.917 74.0364 107.778 74.1211L107.286 74.4141L106.794 74.7188C106.15 75.1126 105.421 75.2474 104.684 75.1172L103.536 74.9063C103.483 74.8969 103.421 74.8944 103.325 74.9414L102.786 75.2109L102.235 75.4805C101.477 75.8526 100.644 75.8827 99.8679 75.5508L99.3054 75.3047L98.8835 75.1172L98.4147 75.3984L97.8522 75.7383C97.049 76.2189 96.1177 76.2767 95.2624 75.832L94.1374 75.2461C93.9192 75.1325 93.7369 75.082 93.5866 75.0703L92.4616 74.9766C92.1978 74.9562 91.9309 74.9738 91.6647 75.0117L91.1022 75.082L90.5397 75.1641C90.238 75.2072 89.9335 75.2748 89.6257 75.3633L88.5007 75.6914C87.9883 75.8392 87.4604 75.9114 86.9304 75.9024L85.8054 75.8789C85.3527 75.8711 84.8953 75.8273 84.446 75.75L83.321 75.5625C82.9113 75.4919 82.4986 75.4059 82.0905 75.3047L80.9655 75.0234C80.6473 74.9447 80.3308 74.8881 80.0163 74.8477L79.4538 74.7774L78.8913 74.6953C78.6959 74.6703 78.4985 74.6833 78.2937 74.7305L77.1687 74.9883C76.7637 75.0817 76.356 75.167 75.9499 75.2344L74.8249 75.4219C74.4309 75.4873 74.0357 75.5371 73.6413 75.5859L72.5163 75.7266C71.8007 75.8151 71.1124 75.6623 70.5007 75.3399L69.9382 75.0469L69.4812 74.8008L69.0593 75.0234L68.4968 75.3047C68.0411 75.5285 67.5661 75.7043 67.0905 75.832L65.9655 76.1367C65.3827 76.2925 64.7795 76.3144 64.1843 76.207L63.6218 76.1016L63.0593 76.0078C62.6892 75.9411 62.316 75.8727 61.946 75.8086L61.3835 75.7149L60.821 75.6094C60.6383 75.5783 60.4571 75.5817 60.2702 75.6211L59.7077 75.75L59.1452 75.8672C58.4097 76.0236 57.684 75.906 57.0358 75.5859L56.4733 75.3047L56.0866 75.1055L55.6648 75.3633L55.1023 75.7031C54.7131 75.9351 54.2439 76.0896 53.7312 76.0781C53.2218 76.066 52.77 75.8847 52.3952 75.6445L51.8327 75.293L51.4812 75.0586L51.153 75.2578L50.5905 75.5977C49.9123 75.9987 49.1212 76.1511 48.3054 75.9258L47.1804 75.6211C46.9951 75.5701 46.8215 75.5632 46.653 75.5859L46.0905 75.6563L45.528 75.7383C44.9579 75.8147 44.3856 75.7762 43.8288 75.6328L43.2663 75.4805L42.7038 75.3399C42.3782 75.2561 42.0539 75.1904 41.7312 75.1406L41.1687 75.0469L40.6062 74.9649C40.4824 74.9458 40.3509 74.9591 40.196 75.0117L39.6335 75.1992L39.071 75.3984C38.314 75.6577 37.5301 75.5973 36.821 75.2695L36.2585 75.0117L35.9304 74.8594L35.5319 75.1641L34.9694 75.5859C34.256 76.1133 33.3414 76.3437 32.403 75.9727L31.278 75.5274C31.0262 75.4276 30.7866 75.3723 30.5632 75.3516L30.0007 75.293L29.4382 75.2461C29.2709 75.2311 29.0914 75.2444 28.8991 75.3047L27.7741 75.6563C27.0996 75.8668 26.4048 75.8658 25.7351 75.6445L24.6101 75.2695C24.5818 75.2602 24.5632 75.2578 24.5632 75.2578C24.5555 75.2588 24.5425 75.271 24.5163 75.2813L23.3913 75.7266C22.5751 76.0521 21.73 75.9662 20.989 75.5625L19.864 74.9531C19.8389 74.9395 19.8181 74.9345 19.8054 74.9297C19.793 74.9253 19.7819 74.918 19.7819 74.918L19.2312 75.0469L18.6687 75.1758C18.3246 75.254 17.9712 75.3437 17.6257 75.4453L16.5007 75.7734C16.0086 75.9181 15.5085 76.0056 15.0007 76.0195L13.8757 76.043C13.5397 76.0519 13.1927 76.0781 12.8562 76.1133L11.7312 76.2305C11.2942 76.2759 10.8566 76.2999 10.4187 76.2891L9.85616 76.2656L9.29366 76.2539C8.82219 76.2422 8.35233 76.1915 7.88741 76.0899L7.32491 75.9609L6.76241 75.8438C6.27582 75.7371 5.79763 75.5641 5.33272 75.3516L4.77022 75.0938L4.20772 74.8477C3.90367 74.7086 3.7416 74.6675 3.6921 74.6602L3.30538 74.6016L2.93038 74.5547C2.38925 74.4825 1.8743 74.1835 1.55928 73.6524C1.29304 73.2024 1.25637 72.7315 1.26631 72.4102L1.27803 71.8477L1.30147 71.2852C1.31002 71.0163 1.29186 70.7385 1.24288 70.4649L1.13741 69.9024L1.04366 69.3399C0.958312 68.8617 0.91904 68.3814 0.938189 67.8984L0.985064 66.7734C1.01144 66.1175 1.2129 65.4987 1.53585 64.9453L1.86397 64.3828L2.18038 63.8438L2.01631 63.3633L1.82881 62.8008C1.63943 62.2321 1.57532 61.6418 1.64131 61.043L1.7585 59.918C1.78731 59.6583 1.79013 59.393 1.7585 59.1328L1.61788 58.0078C1.5654 57.575 1.54721 57.1412 1.54756 56.707V55.582C1.54794 55.2634 1.52436 54.9408 1.48897 54.6211L1.43038 54.0586L1.36006 53.4961C1.319 53.1255 1.2868 52.7534 1.24288 52.3828L1.10225 51.2578C1.02861 50.6365 1.11275 50.024 1.32491 49.4414L1.52413 48.8789L1.73506 48.3164C1.73976 48.3033 1.73506 48.293 1.73506 48.293C1.73365 48.2878 1.72801 48.2811 1.72335 48.2695L1.27803 47.1445C1.05622 46.5958 0.937198 46.0158 0.949908 45.4219L0.973346 44.2969C0.980506 43.9611 0.979816 43.625 0.961627 43.2891L0.891314 42.1641C0.86088 41.6042 0.936679 41.0484 1.10225 40.5117L1.45381 39.3867C1.48924 39.2709 1.49145 39.1741 1.46553 39.0703L1.18428 37.9453C1.0612 37.4552 0.997408 36.9583 0.996783 36.457V35.8945L0.985064 35.332C0.98441 34.7891 1.08381 34.2569 1.2546 33.7383L1.43038 33.1758L1.61788 32.6133L1.60616 32.5781L1.34835 32.0156L1.10225 31.4531C0.71304 30.5981 0.79522 29.7006 1.2546 28.9336L1.93428 27.8086C2.01328 27.6768 2.0176 27.6145 2.01631 27.5977L1.95772 27.0352L1.91085 26.4727C1.89697 26.3236 1.84064 26.1409 1.72335 25.9219L1.11397 24.7969C0.778517 24.1738 0.628605 23.4683 0.738971 22.7344L0.821002 22.1719L0.914752 21.6094C0.979062 21.1856 1.05455 20.753 1.16085 20.332L1.31319 19.7695L1.45381 19.207C1.56199 18.7796 1.69699 18.3626 1.85225 17.9531L2.25069 16.875C2.31814 16.6972 2.34949 16.5218 2.34444 16.3477L2.33272 15.7969L2.30928 15.2344C2.28843 14.5154 2.51191 13.837 2.9421 13.2656L3.28194 12.8086L3.62178 12.3633C3.72857 12.2215 3.79362 12.0676 3.83272 11.9063L3.97335 11.3672L4.10225 10.8164C4.25719 10.1809 4.57753 9.61912 5.05147 9.16407L5.44991 8.77735L5.84835 8.40235C6.10734 8.15368 6.36401 7.89876 6.61006 7.65235L7.37178 6.89063C7.63379 6.62829 7.89734 6.36375 8.16866 6.10547L8.96553 5.35547C9.20409 5.12822 9.44673 4.88054 9.6921 4.61719L10.0905 4.19532L10.489 3.76173C11.0214 3.19101 11.7159 2.86452 12.4929 2.82423L13.0788 2.80079L13.6648 2.76563C13.9982 2.74834 14.3135 2.71213 14.6023 2.66016L15.1296 2.56641L15.6687 2.47266C16.0002 2.41298 16.3314 2.33821 16.6648 2.26173L17.2038 2.14454L17.7312 2.01563C17.787 2.00282 17.8421 2.00282 17.8835 1.99219L17.8952 1.98048L18.4694 1.64063C18.6005 1.59312 18.7233 1.5546 18.821 1.53516C19.0179 1.49618 19.2402 1.48036 19.4538 1.46485L20.0163 1.41798L20.5788 1.38282C20.9209 1.35801 21.2673 1.32494 21.6101 1.27735L22.7351 1.11329C23.443 1.01577 24.1245 1.1548 24.739 1.46485L25.3015 1.75782L25.864 2.03907C25.8804 2.04736 25.8911 2.05958 25.8991 2.06251L27.0241 1.73438C27.6097 1.56509 28.2139 1.52623 28.8171 1.62891L29.9421 1.81641H29.9538C29.9653 1.81413 30.0067 1.80574 30.071 1.76954L31.196 1.13673C31.6097 0.902272 32.1031 0.759114 32.6374 0.8086C32.8984 0.833306 33.1438 0.902862 33.364 0.9961L33.9733 1.34766L34.5358 1.76954L35.0983 2.20313C35.1178 2.21756 35.1326 2.23051 35.1452 2.23829L36.1999 2.06251C36.613 1.99618 37.0279 1.95527 37.4421 1.92188L38.5671 1.82813C39.0441 1.78972 39.5212 1.8036 39.9968 1.86329L41.1218 2.00391C41.4634 2.04695 41.8121 2.07802 42.153 2.09766L42.7155 2.13282L43.278 2.15626C43.5586 2.17222 43.8395 2.16821 44.1218 2.13282L45.2468 1.99219C45.4287 1.96924 45.6426 1.9033 45.8796 1.78126L46.4421 1.48829L47.0046 1.20704C47.529 0.937216 48.098 0.817232 48.6804 0.878913L49.278 0.9961L49.8405 1.1836L50.403 1.35938C50.7905 1.48404 51.1762 1.62002 51.5632 1.75782L52.6882 2.15626C52.8664 2.21974 53.0266 2.24073 53.1687 2.22657L54.2937 2.10938C54.6192 2.07681 54.9505 2.03326 55.278 1.96876L55.8405 1.85157L56.403 1.7461C56.8128 1.66551 57.2224 1.59582 57.6335 1.54688L58.196 1.47657L58.7585 1.41798C59.331 1.3499 59.9025 1.39395 60.4577 1.54688L61.0202 1.69923L61.5827 1.86329C61.7085 1.89807 61.8249 1.89392 61.946 1.86329L63.071 1.58204C63.4213 1.49347 63.7744 1.39696 64.1257 1.28907L65.2507 0.937506C65.9563 0.7215 66.6801 0.755078 67.3601 1.01954L67.9226 1.24219L68.4851 1.45313C68.7503 1.55621 69.0045 1.62308 69.2468 1.65235L70.3718 1.79298C70.6182 1.82241 70.8631 1.81368 71.1101 1.78126L72.2351 1.64063C72.8367 1.56066 73.4402 1.61109 74.0163 1.79298L74.5788 1.96876L75.1062 2.13282L76.2312 1.52344L76.864 1.27735C77.5074 1.11423 78.1732 1.20911 78.7858 1.54688L79.3483 1.85157L79.9108 2.16798C79.9323 2.17977 79.9481 2.18776 79.9577 2.19141L80.5085 2.05079L81.071 1.89844C81.6456 1.75267 82.2322 1.73788 82.8171 1.83985L83.9421 2.02735C84.0571 2.04751 84.1832 2.04214 84.3288 1.99219L84.8913 1.80469L85.4538 1.60548C85.8477 1.47046 86.2427 1.34669 86.6374 1.23048L87.7624 0.90235ZM88.0437 3.94923L87.4812 4.11329C87.1297 4.21686 86.7788 4.33228 86.4265 4.45313L85.3015 4.82813C84.6971 5.03541 84.0615 5.10355 83.4265 4.99219L82.864 4.88672L82.3015 4.79297C82.1404 4.765 81.9805 4.76138 81.8093 4.80469L81.2468 4.95704L80.6843 5.09766C79.9014 5.29703 79.1382 5.16017 78.4694 4.79297L77.9069 4.47657L77.4968 4.25391L76.5241 4.78126C75.8268 5.15607 75.0326 5.26511 74.239 5.01563L73.6765 4.82813L73.114 4.65235C72.9401 4.59747 72.7819 4.58575 72.6335 4.60548L72.071 4.68751L71.5085 4.75782C71.0093 4.824 70.5083 4.82989 70.0085 4.76954L68.8835 4.62891C68.3763 4.56762 67.8794 4.44217 67.3952 4.25391L66.8327 4.03126L66.2702 3.82032C66.2013 3.79351 66.1728 3.79536 66.1296 3.8086L65.5671 3.98438L65.0046 4.14844C64.6069 4.2706 64.208 4.38741 63.8093 4.48829L62.6843 4.76954C62.0554 4.92855 61.4101 4.91881 60.7858 4.7461L59.6608 4.44141C59.4683 4.38833 59.2853 4.3737 59.1101 4.39454L58.5476 4.46485L57.9851 4.52344C57.6499 4.56342 57.3138 4.62122 56.9773 4.68751L56.4148 4.79297L55.8523 4.91016C55.4315 4.99299 55.0093 5.05555 54.5866 5.09766L54.0241 5.15626L53.4616 5.20313C52.8537 5.26369 52.2521 5.18411 51.6804 4.98047L50.5554 4.58204C50.1964 4.45424 49.8358 4.33405 49.4773 4.21876L48.9148 4.03126L48.3757 3.85548V3.86719L47.2507 4.45313C46.7379 4.7171 46.1896 4.89711 45.6218 4.96876L44.4968 5.10938C44.0331 5.16762 43.5677 5.18304 43.1023 5.15626L41.9773 5.08594C41.5682 5.06238 41.1552 5.03194 40.7468 4.98047L39.6218 4.83985C39.3511 4.80597 39.0825 4.79504 38.8132 4.81641L37.6882 4.91016C37.3544 4.93705 37.0153 4.9737 36.6804 5.02735L35.5554 5.21485C34.6849 5.3546 33.9003 5.06102 33.2819 4.59376L32.7194 4.16016L32.3796 3.90235L32.1101 4.06641L31.5476 4.38282C30.9163 4.73919 30.1957 4.90958 29.4382 4.78126L28.8757 4.67579L28.3132 4.58204C28.1673 4.5572 28.0197 4.5698 27.8562 4.61719L26.7312 4.94532C25.9633 5.16757 25.201 5.05668 24.5163 4.71094L23.3913 4.14844C23.2582 4.08111 23.1848 4.0844 23.1452 4.08985L22.5827 4.17188L22.0202 4.24219C21.6146 4.29852 21.2078 4.34153 20.8015 4.3711L20.239 4.41798L19.6765 4.45313C19.628 4.45665 19.582 4.46146 19.5476 4.46485C19.2914 4.64937 19.0495 4.76739 18.9733 4.79297C18.8026 4.85016 18.6088 4.89983 18.4108 4.94532L17.8718 5.06251L17.3327 5.19141C16.9543 5.27818 16.5742 5.35773 16.196 5.42579L15.6687 5.51954L15.1296 5.61329C14.7068 5.68936 14.2662 5.74234 13.8171 5.76563L13.2312 5.78907L12.6687 5.81251L12.2819 6.23438L11.8835 6.66797C11.5998 6.9723 11.3133 7.26361 11.028 7.53516L10.6296 7.91016L10.2429 8.28516C9.98917 8.52668 9.73727 8.76699 9.49288 9.01173L8.73116 9.77344C8.46982 10.0352 8.19631 10.2958 7.92256 10.5586L7.12569 11.332C7.07015 11.3863 7.04125 11.4445 7.02022 11.5313L6.8796 12.0703L6.75069 12.6211C6.61361 13.184 6.37221 13.7056 6.02413 14.168L5.67256 14.6133L5.33272 15.0703C5.32231 15.0842 5.32366 15.1004 5.321 15.1055H5.30928C5.30875 15.1093 5.309 15.1274 5.30928 15.1406L5.321 15.7031L5.34444 16.2656C5.36111 16.8405 5.26692 17.4042 5.06319 17.9414L4.85225 18.4805L4.65303 19.0078C4.53832 19.3102 4.44069 19.6264 4.36006 19.9453L4.07881 21.0703C3.99582 21.399 3.92909 21.7288 3.8796 22.0547L3.78585 22.6172L3.70381 23.1797C3.70161 23.1942 3.6949 23.2417 3.76241 23.3672L4.0671 23.9297L4.36006 24.4922C4.64489 25.0212 4.8433 25.5915 4.89913 26.1914L4.99288 27.3164C5.06194 28.0585 4.86244 28.7524 4.50069 29.3555L4.17256 29.918L3.89131 30.3633L4.33663 31.3359C4.6559 32.0377 4.71272 32.801 4.46553 33.5508L4.28975 34.1133L4.10225 34.6758C4.02618 34.9067 3.98482 35.1256 3.98506 35.332L3.99678 35.8945V36.457C3.9974 36.7045 4.02562 36.9603 4.09053 37.2188L4.37178 38.3438C4.53273 38.9877 4.50808 39.6457 4.31319 40.2774L4.14913 40.8399L3.97335 41.4024C3.90842 41.6142 3.88104 41.811 3.89131 42L3.92647 42.5625L3.94991 43.125C3.97229 43.5373 3.98217 43.9547 3.97335 44.3672L3.94991 45.4922C3.94729 45.6469 3.97488 45.8204 4.05538 46.0195L4.27803 46.582L4.51241 47.1445C4.80006 47.8576 4.81262 48.6198 4.54756 49.3477L4.34835 49.9102L4.13741 50.4727C4.07814 50.6376 4.06372 50.7789 4.07881 50.9063L4.21944 52.0313C4.26421 52.409 4.30648 52.7902 4.34835 53.168L4.40694 53.7305L4.47725 54.293C4.52464 54.7218 4.54807 55.1522 4.54756 55.582V56.707C4.54721 57.0188 4.55657 57.3315 4.59444 57.6445L4.73506 58.7695C4.79462 59.2594 4.80116 59.7558 4.74678 60.2461L4.67647 60.8086L4.61788 61.3711C4.60161 61.5188 4.61742 61.6739 4.67647 61.8516L5.05147 62.9766C5.32793 63.8036 5.19365 64.6255 4.78194 65.332L4.12569 66.457C4.01097 66.6536 3.98884 66.7966 3.98506 66.8906L3.93819 68.0156C3.9276 68.2796 3.94882 68.5437 3.99678 68.8125L4.09053 69.375L4.196 69.9375C4.28127 70.4138 4.31677 70.8978 4.30147 71.3789L4.27803 71.7188C4.67617 71.796 5.07318 71.9451 5.44991 72.1172L6.57491 72.6328C6.86 72.7632 7.14353 72.8446 7.40694 72.9024L7.96944 73.0313L8.53194 73.1484C8.81315 73.2098 9.08922 73.2469 9.36397 73.2539L9.92647 73.2656L10.489 73.2891C10.7992 73.2967 11.1152 73.2747 11.4265 73.2422L12.5515 73.125C12.9642 73.0819 13.3803 73.0539 13.7937 73.043L14.9187 73.0195C15.1571 73.013 15.4028 72.977 15.6569 72.9024L16.2194 72.7383L16.7819 72.5625C17.186 72.4436 17.5951 72.3384 18.0007 72.2461L18.5632 72.1172L19.1257 72L19.6999 71.918C20.2627 71.9013 20.8029 72.05 21.2937 72.3164L21.8562 72.6211L22.3601 72.9024L22.8405 72.7149L23.403 72.4922C24.0966 72.216 24.8309 72.1856 25.5476 72.4219L26.6726 72.7969C26.7508 72.8228 26.81 72.8199 26.8835 72.7969L28.0085 72.4453C28.5646 72.271 29.1381 72.2039 29.7194 72.2578L30.2819 72.3047L30.8444 72.3633C31.3704 72.4121 31.882 72.5414 32.3796 72.7383L32.9421 72.9609L33.2819 73.0899L33.7507 72.7617L34.3132 72.3399L34.9108 72C35.3275 71.8219 35.7802 71.7451 36.2468 71.8125L36.9616 72.0234L37.5241 72.2813L38.0866 72.5508H38.0983L39.2233 72.1758C39.8167 71.9729 40.4383 71.9038 41.0632 72L41.6257 72.082L42.1882 72.1758C42.6113 72.2411 43.0336 72.3255 43.4538 72.4336L44.0163 72.5859L44.5788 72.7266C44.7705 72.7759 44.9513 72.7856 45.1296 72.7617L45.6921 72.6797L46.2546 72.6094C46.8348 72.5312 47.4137 72.5714 47.9773 72.7266L48.5398 72.8789L49.0437 73.0195H49.0671L49.6296 72.6797L50.1921 72.3516L50.8249 72.0703C51.0525 72.0054 51.2961 71.9708 51.5515 71.9766C52.0597 71.9886 52.513 72.1593 52.8874 72.3984L53.4499 72.7617L53.7898 72.9844L54.1296 72.7852L54.6921 72.457L55.3015 72.1758C55.7195 72.0453 56.1562 72.0266 56.5905 72.1172L57.2468 72.3399L57.8093 72.6211L58.3718 72.8906C58.4736 72.9409 58.5096 72.9289 58.5241 72.9258L59.6491 72.6914C60.2079 72.5732 60.7738 72.5588 61.3366 72.6563L61.8991 72.75L62.4616 72.8555C62.8399 72.921 63.2201 72.9865 63.5983 73.0547L64.1608 73.1602L64.7233 73.2539C64.876 73.2813 65.027 73.2748 65.1921 73.2305L65.7546 73.0781L66.3171 72.9375C66.5915 72.8638 66.8782 72.7539 67.1726 72.6094L67.7351 72.3281L68.2976 72.0586L68.9187 71.8359C69.3366 71.7415 69.76 71.7504 70.1726 71.8594L70.7819 72.0938L71.3444 72.3867L71.9069 72.6914C72.037 72.7594 72.1057 72.7538 72.1413 72.75L73.2663 72.6094C73.62 72.5656 73.9787 72.5158 74.3327 72.457L75.4577 72.2695C75.8 72.2127 76.1455 72.1494 76.489 72.0703L77.614 71.8125C78.157 71.6872 78.7139 71.6486 79.2663 71.7188L79.8288 71.8008L80.3913 71.8711C80.8249 71.9267 81.2622 72.0106 81.6921 72.1172L82.2546 72.2461L82.8171 72.3867C83.1573 72.4711 83.4981 72.5512 83.8366 72.6094L84.9616 72.7969C85.2603 72.8482 85.5568 72.8736 85.8522 72.8789L86.9772 72.9024C87.197 72.9062 87.4312 72.8771 87.6687 72.8086L88.7937 72.4805C89.2317 72.3544 89.6738 72.2626 90.1179 72.1992L91.2429 72.0352C91.7253 71.9664 92.2113 71.9506 92.696 71.9883L93.821 72.082C94.4206 72.1288 94.9885 72.3091 95.5202 72.5859L96.0827 72.8789L96.446 73.0664L96.8679 72.832L97.4304 72.4922C98.1843 72.0411 99.0737 71.9384 99.9265 72.3047L100.489 72.5508L100.981 72.75L101.462 72.5274L102.012 72.2578C102.65 71.9451 103.35 71.8259 104.063 71.9531L105.212 72.1641H105.223L106.208 71.5547C106.721 71.2409 107.287 71.0526 107.883 70.9805L108.469 70.9102L108.985 70.8399L109.313 70.4063L109.665 69.9258C110.054 69.4027 110.563 69.0023 111.165 68.7422L111.704 68.5078L112.231 68.2852C112.514 68.1633 112.796 68.0145 113.075 67.8399L113.591 67.5117L113.93 67.2891L113.942 66.7734L113.966 66.1172C113.988 65.3178 114.281 64.5603 114.903 63.9844L115.794 63.1641C115.956 63.0134 116.078 62.843 116.169 62.6602L116.684 61.6055C116.774 61.424 116.832 61.2413 116.848 61.043L116.942 59.8711C116.953 59.7239 116.93 59.5689 116.86 59.3906L116.637 58.8164L116.403 58.2422C116.146 57.5889 116.089 56.8891 116.262 56.1914L116.544 55.0664C116.633 54.7073 116.712 54.3471 116.79 53.9883L116.919 53.4258L117.036 52.8633C117.09 52.6144 117.118 52.3652 117.106 52.125L117.071 51.5625L117.048 51C117.026 50.5545 117.029 50.1088 117.071 49.6641L117.13 49.1016L117.176 48.5391C117.186 48.442 117.176 48.3239 117.106 48.1641L116.614 47.0391C116.395 46.543 116.248 46.0219 116.18 45.4922L116.04 44.3672C115.991 43.9852 115.942 43.6008 115.899 43.2188L115.829 42.6563L115.77 42.0938C115.677 41.2614 115.958 40.5177 116.403 39.9141L116.825 39.3516L117.235 38.7891C117.295 38.7072 117.319 38.6517 117.329 38.625C117.336 38.6039 117.34 38.6027 117.341 38.6133L117.294 37.4883C117.291 37.4181 117.27 37.2912 117.153 37.1016L116.45 35.9766C116.073 35.3702 115.857 34.662 115.934 33.9024L116.051 32.7773C116.074 32.5574 116.062 32.3362 116.016 32.1094L115.782 30.9844C115.617 30.1789 115.816 29.4164 116.216 28.7695L116.555 28.207L116.907 27.6445L116.755 27.1758L116.591 26.6133C116.382 25.9231 116.406 25.2119 116.649 24.5391L116.848 23.9766L117.001 23.5078L116.696 23.0156L116.356 22.4531C116.029 21.9127 115.809 21.3147 115.758 20.6719L115.712 20.1094L115.676 19.5469C115.631 18.9583 115.708 18.3805 115.899 17.8242L116.098 17.25L116.251 16.7695L116.028 16.3594L115.735 15.8555C115.395 15.2623 115.248 14.6072 115.278 13.9336L115.301 13.3242L115.313 12.8555L114.973 12.5742L114.505 12.1992C113.856 11.6647 113.515 10.9277 113.438 10.1367L113.38 9.48048L113.344 9.17579L113.075 9.10548L112.454 8.91798C111.844 8.74411 111.273 8.45342 110.801 8.00391L110.403 7.61719L109.993 7.24219C109.7 6.96254 109.415 6.65708 109.126 6.33985L108.716 5.89454L108.423 5.56641L107.93 5.63672L107.298 5.70704C106.72 5.7729 106.136 5.74456 105.575 5.58985L105.059 5.44922L104.532 5.29688C104.013 5.15331 103.519 4.91748 103.055 4.61719L102.516 4.27735L102.071 3.97266L101.626 4.13673L101.063 4.33594C100.682 4.4708 100.295 4.59385 99.9147 4.72266L99.3522 4.92188L98.7897 5.10938C98.1491 5.32574 97.4814 5.35922 96.821 5.19141L96.2585 5.05079L95.696 4.89844C95.2899 4.79475 94.8816 4.67851 94.4772 4.54688L93.9147 4.3711L93.3522 4.1836L93.3288 4.19532L92.2038 4.73438C91.3154 5.15479 90.3837 5.03751 89.614 4.53516L89.0515 4.16016L88.5007 3.79688L88.0437 3.94923ZM49.0671 73.0313C49.0807 73.0321 49.0972 73.0417 49.1023 73.043L49.0788 73.0313H49.0671Z" fill="#F3F1EF"/>
</svg>
