<svg width="19" height="24" viewBox="0 0 19 24" fill="none" xmlns="http://www.w3.org/2000/svg">
<path d="M2.83398 12C2.83398 11.4477 2.38627 11 1.83398 11C1.2817 11 0.833984 11.4477 0.833984 12H1.83398H2.83398ZM1.83398 12.1H0.833984V12.1861L0.848711 12.271L1.83398 12.1ZM1.95546 12.8L0.97019 12.971L1.95546 12.8ZM1.61377 14.625L0.689075 14.2443L1.61377 14.625ZM1.88668 16.125L0.951837 16.4801L1.88668 16.125ZM2.15153 18.375L1.19479 18.0841L2.15153 18.375ZM2.34766 21.125L1.93808 22.0373L2.34766 21.125ZM2.66489 21.2675L2.25531 22.1797L2.66489 21.2675ZM2.98212 21.4099L2.57254 22.3222L2.98212 21.4099ZM3.64307 21.6115L3.81271 20.626L3.64307 21.6115ZM4.33051 21.7298L4.16087 22.7153L4.33051 21.7298ZM5.04923 21.9625L5.46921 21.055L5.04923 21.9625ZM6.54923 22.2421L6.00859 21.4009L6.54923 22.2421ZM7.29923 21.7601L7.83987 22.6014L7.29923 21.7601ZM9.54923 21.7339L9.30143 20.7651L9.54923 21.7339ZM10.2992 21.542L10.547 22.5108L10.2992 21.542ZM11.0492 21.6251L11.48 20.7226L11.0492 21.6251ZM11.4242 21.8041L10.9935 22.7066L11.4242 21.8041ZM11.7992 21.9831L12.23 21.0806L11.7992 21.9831ZM12.5492 22.114L12.6765 23.1058L12.5492 22.114ZM13.2992 22.0177L13.172 21.0259L13.2992 22.0177ZM14.0492 21.9224L14.1742 22.9145L14.0492 21.9224ZM14.7992 21.8279L14.6742 20.8357L14.7992 21.8279ZM15.4151 21.5997L14.8145 20.8001L15.4151 21.5997ZM15.8969 21.2377L16.4976 22.0372L15.8969 21.2377ZM16.507 20.839L17.015 21.7004L16.507 20.839ZM17.2452 20.4036L17.7532 21.265L17.2452 20.4036ZM17.3586 19.8026L16.5268 20.3577L17.3586 19.8026ZM16.8471 19.0361L17.6789 18.481L16.8471 19.0361ZM17.0061 17.5278L17.9444 17.8738L17.0061 17.5278ZM17.0652 16.7778L18.0436 16.5711L17.0652 16.7778ZM16.9067 16.0278L15.9283 16.2345L16.9067 16.0278ZM17.0375 15.2778L17.91 15.7664L17.0375 15.2778ZM17.2474 14.9028L16.3749 14.4143L17.2474 14.9028ZM17.4574 14.5278L18.33 15.0164L17.4574 14.5278ZM17.3952 13.7778L18.2044 13.1904L17.3952 13.7778ZM16.8508 13.0278L17.66 12.4404L16.8508 13.0278ZM16.7257 12.4896L17.4683 13.1594L16.7257 12.4896ZM16.8729 12.3264L16.2633 11.5338L16.1912 11.5892L16.1303 11.6567L16.8729 12.3264ZM17.1673 12.1L17.777 12.8927L18.1673 12.5924V12.1H17.1673ZM18.1673 12C18.1673 11.4477 17.7196 11 17.1673 11C16.615 11 16.1673 11.4477 16.1673 12H17.1673H18.1673ZM12.612 6.69191C12.9941 7.09065 13.6271 7.10412 14.0259 6.72199C14.4246 6.33986 14.4381 5.70684 14.056 5.30809L13.334 6L12.612 6.69191ZM13.2648 5.9278L13.9868 5.2359L13.8894 5.13427L13.7677 5.06348L13.2648 5.9278ZM12.6353 5.56151L13.1383 4.69719L12.6353 5.56151ZM11.8631 4.81263L12.8 4.46302L11.8631 4.81263ZM11.5775 4.04746L10.6406 4.39707L11.5775 4.04746ZM11.1087 3.45799L11.6444 2.61359L11.1087 3.45799ZM10.4565 3.04421L9.92077 3.88861L10.4565 3.04421ZM9.77508 2.09721L8.87359 2.52999L9.77508 2.09721ZM9.61765 1.88788L8.92574 1.16589L9.61765 1.88788ZM9.57865 1.92525L8.88674 1.20326L8.60388 1.47434L8.58044 1.86542L9.57865 1.92525ZM9.56984 2.0722L8.84785 2.7641L10.4311 4.41622L10.568 2.13203L9.56984 2.0722ZM9.50065 2L10.2226 1.30809L9.50065 0.554716L8.77866 1.30809L9.50065 2ZM9.43146 2.0722L8.70947 1.38029L8.63611 1.45684L8.58044 1.54707L9.43146 2.0722ZM8.33132 3.47639L8.80179 4.35881L8.33132 3.47639ZM7.63484 3.84773L7.16437 2.96531L7.63484 3.84773ZM7.03599 4.31262L7.78019 4.98057L7.03599 4.31262ZM6.53476 4.87107L7.27896 5.53902L6.53476 4.87107ZM6.17586 5.40673L5.25463 5.01772L6.17586 5.40673ZM5.95929 5.9196L6.88052 6.30861L5.95929 5.9196ZM5.80508 6.13202L5.11317 6.85401L5.80508 6.13202ZM5.75916 6.08801L4.769 6.228L4.81744 6.5706L5.06725 6.81L5.75916 6.08801ZM5.73651 5.9278L6.72666 5.78782L6.43856 3.74995L5.01452 5.2359L5.73651 5.9278ZM4.94533 5.30809C4.5632 5.70684 4.57667 6.33986 4.97541 6.72199C5.37416 7.10412 6.00718 7.09065 6.38931 6.69191L5.66732 6L4.94533 5.30809ZM9.50065 2.1L10.4997 2.14437L10.5007 2.1222V2.1H9.50065ZM9.53764 3.875L10.5044 3.61935L9.53764 3.875ZM9.73597 4.625L10.7027 4.36935L9.73597 4.625ZM9.79997 6.125L10.7995 6.15625L9.79997 6.125ZM9.76065 6.875L8.76335 6.80162L9.76065 6.875ZM9.73306 7.25L10.7304 7.32338L9.73306 7.25ZM9.7723 8.375L8.80257 8.61918L9.7723 8.375ZM9.86673 8.75L8.897 8.99418L9.86673 8.75ZM9.96115 9.125L10.9309 8.88082L9.96115 9.125ZM9.80737 9.875L8.97349 9.32306L9.80737 9.875ZM9.31094 10.625L8.47706 10.0731L9.31094 10.625ZM9.02744 11.375L10.023 11.4687L9.02744 11.375ZM8.95685 12.125L7.96125 12.0313L8.95685 12.125ZM9.10668 12.875L8.21 13.3177L9.10668 12.875ZM9.29181 13.25L10.1885 12.8073L9.29181 13.25ZM9.48847 14.25L8.66706 13.6797L9.48847 14.25ZM9.14129 14.75L9.9627 15.3203L9.14129 14.75ZM9.23418 15V16H9.41563L9.58552 15.9362L9.23418 15ZM9.50065 14.9H10.5007V13.4566L9.1493 13.9638L9.50065 14.9ZM8.50065 15C8.50065 15.5523 8.94837 16 9.50065 16C10.0529 16 10.5007 15.5523 10.5007 15H9.50065H8.50065ZM1.83398 12H0.833984V12.1H1.83398H2.83398V12H1.83398ZM1.83398 12.1L0.848711 12.271L0.97019 12.971L1.95546 12.8L2.94074 12.629L2.81926 11.929L1.83398 12.1ZM1.95546 12.8L0.97019 12.971C1.00258 13.1576 1.01133 13.294 1.00844 13.3881C1.00551 13.484 0.991286 13.5103 0.997856 13.4943L1.92255 13.875L2.84725 14.2557C3.05792 13.744 3.03277 13.1594 2.94074 12.629L1.95546 12.8ZM1.92255 13.875L0.997856 13.4943L0.843466 13.8693L1.76816 14.25L2.69286 14.6307L2.84725 14.2557L1.92255 13.875ZM1.76816 14.25L0.843466 13.8693L0.689075 14.2443L1.61377 14.625L2.53847 15.0057L2.69286 14.6307L1.76816 14.25ZM1.61377 14.625L0.689075 14.2443C0.490556 14.7265 0.480666 15.2396 0.666974 15.7301L1.60181 15.375L2.53665 15.0199C2.53346 15.0115 2.53289 15.0079 2.533 15.0085C2.53313 15.0093 2.53352 15.012 2.53346 15.0159C2.5334 15.0198 2.53293 15.022 2.53302 15.0216C2.53314 15.021 2.53428 15.0159 2.53847 15.0057L1.61377 14.625ZM1.60181 15.375L0.666974 15.7301L0.809405 16.1051L1.74425 15.75L2.67909 15.3949L2.53665 15.0199L1.60181 15.375ZM1.74425 15.75L0.809405 16.1051L0.951837 16.4801L1.88668 16.125L2.82152 15.7699L2.67909 15.3949L1.74425 15.75ZM1.88668 16.125L0.951837 16.4801C1.02369 16.6692 1.07233 16.8525 1.10042 17.0307L2.08822 16.875L3.07602 16.7193C3.02529 16.3975 2.93957 16.0808 2.82152 15.7699L1.88668 16.125ZM2.08822 16.875L1.10042 17.0307L1.15953 17.4057L2.14734 17.25L3.13514 17.0943L3.07602 16.7193L2.08822 16.875ZM2.14734 17.25L1.15953 17.4057L1.21865 17.7807L2.20645 17.625L3.19425 17.4693L3.13514 17.0943L2.14734 17.25ZM2.20645 17.625L1.21865 17.7807C1.23374 17.8765 1.2283 17.9738 1.19479 18.0841L2.15153 18.375L3.10826 18.6659C3.2268 18.2762 3.25797 17.8735 3.19425 17.4693L2.20645 17.625ZM2.15153 18.375L1.19479 18.0841L1.08075 18.4591L2.03749 18.75L2.99423 19.0409L3.10826 18.6659L2.15153 18.375ZM2.03749 18.75L1.08075 18.4591L0.96671 18.8341L1.92345 19.125L2.88019 19.4159L2.99423 19.0409L2.03749 18.75ZM1.92345 19.125L0.96671 18.8341C0.849559 19.2193 0.81588 19.6175 0.875597 20.0181L1.86467 19.8707L2.85374 19.7232C2.83978 19.6296 2.84529 19.5307 2.88019 19.4159L1.92345 19.125ZM1.86467 19.8707L0.875597 20.0181L0.930852 20.3888L1.91992 20.2413L2.90899 20.0939L2.85374 19.7232L1.86467 19.8707ZM1.91992 20.2413L0.930852 20.3888L0.986107 20.7594L1.97518 20.612L2.96425 20.4645L2.90899 20.0939L1.91992 20.2413ZM1.97518 20.612L0.986107 20.7594C1.06852 21.3122 1.38793 21.7903 1.93808 22.0373L2.34766 21.125L2.75724 20.2128C2.79493 20.2297 2.85491 20.2688 2.90516 20.3381C2.9533 20.4044 2.96327 20.4579 2.96425 20.4645L1.97518 20.612ZM2.34766 21.125L1.93808 22.0373L2.25531 22.1797L2.66489 21.2675L3.07447 20.3552L2.75724 20.2128L2.34766 21.125ZM2.66489 21.2675L2.25531 22.1797L2.57254 22.3222L2.98212 21.4099L3.3917 20.4976L3.07447 20.3552L2.66489 21.2675ZM2.98212 21.4099L2.57254 22.3222C2.86085 22.4516 3.1618 22.5433 3.47343 22.597L3.64307 21.6115L3.81271 20.626C3.66605 20.6007 3.52637 20.5581 3.3917 20.4976L2.98212 21.4099ZM3.64307 21.6115L3.47343 22.597L3.81715 22.6561L3.98679 21.6706L4.15643 20.6851L3.81271 20.626L3.64307 21.6115ZM3.98679 21.6706L3.81715 22.6561L4.16087 22.7153L4.33051 21.7298L4.50015 20.7443L4.15643 20.6851L3.98679 21.6706ZM4.33051 21.7298L4.16087 22.7153C4.28932 22.7374 4.44469 22.7846 4.62925 22.87L5.04923 21.9625L5.46921 21.055C5.15377 20.909 4.83 20.8011 4.50015 20.7443L4.33051 21.7298ZM5.04923 21.9625L4.62925 22.87L5.00425 23.0436L5.42423 22.136L5.84421 21.2285L5.46921 21.055L5.04923 21.9625ZM5.42423 22.136L5.00425 23.0436L5.37925 23.2171L5.79923 22.3096L6.21921 21.402L5.84421 21.2285L5.42423 22.136ZM5.79923 22.3096L5.37925 23.2171C5.96791 23.4895 6.57922 23.4115 7.08987 23.0834L6.54923 22.2421L6.00859 21.4009C5.99439 21.41 6.02194 21.3891 6.08465 21.3835C6.15102 21.3775 6.20099 21.3936 6.21921 21.402L5.79923 22.3096ZM6.54923 22.2421L7.08987 23.0834L7.46487 22.8424L6.92423 22.0011L6.38359 21.1599L6.00859 21.4009L6.54923 22.2421ZM6.92423 22.0011L7.46487 22.8424L7.83987 22.6014L7.29923 21.7601L6.75859 20.9189L6.38359 21.1599L6.92423 22.0011ZM7.29923 21.7601L7.83987 22.6014C7.88048 22.5753 7.89569 22.574 7.88702 22.5759C7.88296 22.5768 7.87595 22.5778 7.86707 22.5779C7.85819 22.5779 7.85094 22.577 7.84644 22.576L8.04923 21.5968L8.25202 20.6176C7.70374 20.504 7.1899 20.6417 6.75859 20.9189L7.29923 21.7601ZM8.04923 21.5968L7.84644 22.576L8.22144 22.6537L8.42423 21.6745L8.62702 20.6952L8.25202 20.6176L8.04923 21.5968ZM8.42423 21.6745L8.22144 22.6537L8.59644 22.7313L8.79923 21.7521L9.00202 20.7729L8.62702 20.6952L8.42423 21.6745ZM8.79923 21.7521L8.59644 22.7313C8.99712 22.8143 9.40123 22.8039 9.79703 22.7027L9.54923 21.7339L9.30143 20.7651C9.19723 20.7917 9.10134 20.7935 9.00202 20.7729L8.79923 21.7521ZM9.54923 21.7339L9.79703 22.7027L10.172 22.6068L9.92423 21.6379L9.67643 20.6691L9.30143 20.7651L9.54923 21.7339ZM9.92423 21.6379L10.172 22.6068L10.547 22.5108L10.2992 21.542L10.0514 20.5732L9.67643 20.6691L9.92423 21.6379ZM10.2992 21.542L10.547 22.5108C10.5537 22.5091 10.5575 22.5087 10.5591 22.5086C10.5606 22.5085 10.562 22.5085 10.5641 22.5088C10.5672 22.5091 10.5843 22.5113 10.6185 22.5276L11.0492 21.6251L11.48 20.7226C11.0353 20.5104 10.5458 20.4468 10.0514 20.5732L10.2992 21.542ZM11.0492 21.6251L10.6185 22.5276L10.9935 22.7066L11.4242 21.8041L11.855 20.9016L11.48 20.7226L11.0492 21.6251ZM11.4242 21.8041L10.9935 22.7066L11.3685 22.8855L11.7992 21.9831L12.23 21.0806L11.855 20.9016L11.4242 21.8041ZM11.7992 21.9831L11.3685 22.8855C11.7742 23.0792 12.217 23.1648 12.6765 23.1058L12.5492 22.114L12.422 21.1221C12.3814 21.1273 12.3243 21.1256 12.23 21.0806L11.7992 21.9831ZM12.5492 22.114L12.6765 23.1058L13.0515 23.0577L12.9242 22.0659L12.797 21.074L12.422 21.1221L12.5492 22.114ZM12.9242 22.0659L13.0515 23.0577L13.4265 23.0096L13.2992 22.0177L13.172 21.0259L12.797 21.074L12.9242 22.0659ZM13.2992 22.0177L13.4265 23.0096C13.6757 22.9776 13.925 22.9459 14.1742 22.9145L14.0492 21.9224L13.9242 20.9302C13.6735 20.9618 13.4227 20.9937 13.172 21.0259L13.2992 22.0177ZM14.0492 21.9224L14.1742 22.9145L14.5492 22.8673L14.4242 21.8751L14.2992 20.883L13.9242 20.9302L14.0492 21.9224ZM14.4242 21.8751L14.5492 22.8673L14.9242 22.82L14.7992 21.8279L14.6742 20.8357L14.2992 20.883L14.4242 21.8751ZM14.7992 21.8279L14.9242 22.82C15.3035 22.7723 15.6849 22.6477 16.0158 22.3992L15.4151 21.5997L14.8145 20.8001C14.8242 20.7929 14.7949 20.8205 14.6742 20.8357L14.7992 21.8279ZM15.4151 21.5997L16.0158 22.3992L16.2567 22.2182L15.656 21.4187L15.0554 20.6192L14.8145 20.8001L15.4151 21.5997ZM15.656 21.4187L16.2567 22.2182L16.4976 22.0372L15.8969 21.2377L15.2963 20.4382L15.0554 20.6192L15.656 21.4187ZM15.8969 21.2377L16.4976 22.0372C16.619 21.946 16.7887 21.8338 17.015 21.7004L16.507 20.839L15.999 19.9777C15.733 20.1345 15.4961 20.2881 15.2963 20.4382L15.8969 21.2377ZM16.507 20.839L17.015 21.7004L17.3841 21.4827L16.8761 20.6213L16.3681 19.76L15.999 19.9777L16.507 20.839ZM16.8761 20.6213L17.3841 21.4827L17.7532 21.265L17.2452 20.4036L16.7372 19.5423L16.3681 19.76L16.8761 20.6213ZM17.2452 20.4036L17.7532 21.265C18.0212 21.1069 18.3497 20.8129 18.4408 20.3299C18.5279 19.8681 18.3485 19.4845 18.1904 19.2476L17.3586 19.8026L16.5268 20.3577C16.5267 20.3576 16.5255 20.3558 16.5235 20.3523C16.5215 20.3488 16.5184 20.3433 16.5148 20.3359C16.5076 20.3212 16.497 20.2969 16.4873 20.2635C16.4671 20.1943 16.4513 20.0872 16.4755 19.9592C16.5288 19.6765 16.7153 19.5552 16.7372 19.5423L17.2452 20.4036ZM17.3586 19.8026L18.1904 19.2476L17.9346 18.8643L17.1028 19.4194L16.271 19.9744L16.5268 20.3577L17.3586 19.8026ZM17.1028 19.4194L17.9346 18.8643L17.6789 18.481L16.8471 19.0361L16.0153 19.5912L16.271 19.9744L17.1028 19.4194ZM16.8471 19.0361L17.6789 18.481C17.6584 18.4503 17.6713 18.4584 17.678 18.5018C17.6813 18.5229 17.6821 18.5466 17.6796 18.5707C17.677 18.5946 17.6719 18.6128 17.6678 18.6238L16.7296 18.2778L15.7913 17.9319C15.5705 18.5309 15.6983 19.1162 16.0153 19.5912L16.8471 19.0361ZM16.7296 18.2778L17.6678 18.6238L17.8061 18.2488L16.8678 17.9028L15.9296 17.5569L15.7913 17.9319L16.7296 18.2778ZM16.8678 17.9028L17.8061 18.2488L17.9444 17.8738L17.0061 17.5278L16.0679 17.1819L15.9296 17.5569L16.8678 17.9028ZM17.0061 17.5278L17.9444 17.8738C18.0988 17.455 18.137 17.0136 18.0436 16.5711L17.0652 16.7778L16.0868 16.9845C16.0989 17.0421 16.0978 17.1007 16.0679 17.1819L17.0061 17.5278ZM17.0652 16.7778L18.0436 16.5711L17.9644 16.1961L16.9859 16.4028L16.0075 16.6095L16.0868 16.9845L17.0652 16.7778ZM16.9859 16.4028L17.9644 16.1961L17.8851 15.8211L16.9067 16.0278L15.9283 16.2345L16.0075 16.6095L16.9859 16.4028ZM16.9067 16.0278L17.8851 15.8211C17.8847 15.8192 17.885 15.8197 17.885 15.8219C17.8851 15.824 17.8848 15.8252 17.8849 15.8246C17.885 15.8241 17.8881 15.8055 17.91 15.7664L17.0375 15.2778L16.1649 14.7893C15.922 15.2231 15.8193 15.7185 15.9283 16.2345L16.9067 16.0278ZM17.0375 15.2778L17.91 15.7664L18.12 15.3914L17.2474 14.9028L16.3749 14.4143L16.1649 14.7893L17.0375 15.2778ZM17.2474 14.9028L18.12 15.3914L18.33 15.0164L17.4574 14.5278L16.5849 14.0393L16.3749 14.4143L17.2474 14.9028ZM17.4574 14.5278L18.33 15.0164C18.483 14.7431 18.5725 14.4209 18.5434 14.0701C18.5148 13.725 18.3778 13.4292 18.2044 13.1904L17.3952 13.7778L16.5859 14.3653C16.594 14.3765 16.5582 14.3307 16.5503 14.2355C16.5419 14.1348 16.5718 14.0626 16.5849 14.0393L17.4574 14.5278ZM17.3952 13.7778L18.2044 13.1904L17.9322 12.8154L17.123 13.4028L16.3137 13.9903L16.5859 14.3653L17.3952 13.7778ZM17.123 13.4028L17.9322 12.8154L17.66 12.4404L16.8508 13.0278L16.0415 13.6153L16.3137 13.9903L17.123 13.4028ZM16.8508 13.0278L17.66 12.4404C17.6017 12.3601 17.6343 12.3798 17.6575 12.4795C17.6711 12.5382 17.6857 12.6438 17.6597 12.7767C17.632 12.9181 17.5655 13.0517 17.4683 13.1594L16.7257 12.4896L15.9831 11.8199C15.6587 12.1797 15.6358 12.6157 15.7093 12.932C15.7742 13.2112 15.9183 13.4456 16.0415 13.6153L16.8508 13.0278ZM16.7257 12.4896L17.4683 13.1594L17.6155 12.9961L16.8729 12.3264L16.1303 11.6567L15.9831 11.8199L16.7257 12.4896ZM16.8729 12.3264L17.4826 13.1191L17.777 12.8927L17.1673 12.1L16.5577 11.3073L16.2633 11.5338L16.8729 12.3264ZM17.1673 12.1H18.1673V12H17.1673H16.1673V12.1H17.1673ZM13.334 6L14.056 5.30809L13.9868 5.2359L13.2648 5.9278L12.5428 6.61971L12.612 6.69191L13.334 6ZM13.2648 5.9278L13.7677 5.06348L13.1383 4.69719L12.6353 5.56151L12.1324 6.42582L12.7618 6.79212L13.2648 5.9278ZM12.6353 5.56151L13.1383 4.69719C12.9756 4.60255 12.8778 4.52572 12.8237 4.47326C12.7692 4.42044 12.7819 4.41464 12.8 4.46302L11.8631 4.81263L10.9262 5.16224C11.1448 5.74803 11.6527 6.14668 12.1324 6.42582L12.6353 5.56151ZM11.8631 4.81263L12.8 4.46302L12.6572 4.08044L11.7203 4.43004L10.7834 4.77965L10.9262 5.16224L11.8631 4.81263ZM11.7203 4.43004L12.6572 4.08044L12.5144 3.69785L11.5775 4.04746L10.6406 4.39707L10.7834 4.77965L11.7203 4.43004ZM11.5775 4.04746L12.5144 3.69785C12.3477 3.25107 12.0569 2.87527 11.6444 2.61359L11.1087 3.45799L10.573 4.30238C10.5953 4.31656 10.617 4.33374 10.6406 4.39707L11.5775 4.04746ZM11.1087 3.45799L11.6444 2.61359L11.3183 2.4067L10.7826 3.2511L10.2469 4.0955L10.573 4.30238L11.1087 3.45799ZM10.7826 3.2511L11.3183 2.4067L10.9922 2.19981L10.4565 3.04421L9.92077 3.88861L10.2469 4.0955L10.7826 3.2511ZM10.4565 3.04421L10.9922 2.19981C10.935 2.16349 10.9068 2.1379 10.8965 2.12743C10.887 2.11774 10.8986 2.12696 10.9135 2.15783L10.012 2.59062L9.11046 3.0234C9.2972 3.4124 9.60733 3.68975 9.92077 3.88861L10.4565 3.04421ZM10.012 2.59062L10.9135 2.15783L10.795 1.91113L9.89352 2.34391L8.99202 2.77669L9.11046 3.0234L10.012 2.59062ZM9.89352 2.34391L10.795 1.91113L10.6766 1.66442L9.77508 2.09721L8.87359 2.52999L8.99202 2.77669L9.89352 2.34391ZM9.77508 2.09721L10.6766 1.66442C10.6324 1.57242 10.5646 1.4387 10.4757 1.32045C10.4428 1.27673 10.3313 1.12905 10.1384 1.01878C10.0311 0.957453 9.84025 0.874182 9.59056 0.883697C9.31605 0.894158 9.08601 1.0123 8.92574 1.16589L9.61765 1.88788L10.3096 2.60986C10.1558 2.75722 9.93307 2.8721 9.66672 2.88225C9.42519 2.89145 9.24331 2.81083 9.14584 2.75511C8.97255 2.65605 8.88395 2.53142 8.87731 2.52259C8.84086 2.47412 8.8388 2.45753 8.87359 2.52999L9.77508 2.09721ZM9.61765 1.88788L8.92574 1.16589L8.88674 1.20326L9.57865 1.92525L10.2706 2.64724L10.3096 2.60986L9.61765 1.88788ZM9.57865 1.92525L8.58044 1.86542L8.57163 2.01236L9.56984 2.0722L10.568 2.13203L10.5769 1.98509L9.57865 1.92525ZM9.56984 2.0722L10.2918 1.38029L10.2226 1.30809L9.50065 2L8.77866 2.69191L8.84785 2.7641L9.56984 2.0722ZM9.50065 2L8.77866 1.30809L8.70947 1.38029L9.43146 2.0722L10.1534 2.7641L10.2226 2.69191L9.50065 2ZM9.43146 2.0722L8.58044 1.54707L8.20449 2.15633L9.05551 2.68146L9.90654 3.20659L10.2825 2.59733L9.43146 2.0722ZM9.05551 2.68146L8.20449 2.15633C8.10177 2.32281 8.01506 2.43695 7.94726 2.51138C7.87756 2.58789 7.84686 2.60144 7.86086 2.59397L8.33132 3.47639L8.80179 4.35881C9.27151 4.10837 9.62765 3.65856 9.90654 3.20659L9.05551 2.68146ZM8.33132 3.47639L7.86086 2.59397L7.51262 2.77964L7.98308 3.66206L8.45355 4.54448L8.80179 4.35881L8.33132 3.47639ZM7.98308 3.66206L7.51262 2.77964L7.16437 2.96531L7.63484 3.84773L8.10531 4.73014L8.45355 4.54448L7.98308 3.66206ZM7.63484 3.84773L7.16437 2.96531C6.83454 3.14116 6.54086 3.36716 6.29178 3.64467L7.03599 4.31262L7.78019 4.98057C7.86527 4.88578 7.97083 4.80184 8.10531 4.73014L7.63484 3.84773ZM7.03599 4.31262L6.29178 3.64467L6.04116 3.9239L6.78537 4.59185L7.52958 5.2598L7.78019 4.98057L7.03599 4.31262ZM6.78537 4.59185L6.04116 3.9239L5.79055 4.20313L6.53476 4.87107L7.27896 5.53902L7.52958 5.2598L6.78537 4.59185ZM6.53476 4.87107L5.79055 4.20313C5.57347 4.44499 5.38203 4.716 5.25463 5.01772L6.17586 5.40673L7.09709 5.79575C7.11406 5.75555 7.16189 5.66946 7.27896 5.53902L6.53476 4.87107ZM6.17586 5.40673L5.25463 5.01772L5.14634 5.27415L6.06757 5.66317L6.9888 6.05218L7.09709 5.79575L6.17586 5.40673ZM6.06757 5.66317L5.14634 5.27415L5.03805 5.53058L5.95929 5.9196L6.88052 6.30861L6.9888 6.05218L6.06757 5.66317ZM5.95929 5.9196L5.03805 5.53058C5.00626 5.60587 5.01165 5.57639 5.05734 5.51346C5.06796 5.49883 5.17142 5.34866 5.3807 5.24284C5.50364 5.18068 5.69799 5.11678 5.93679 5.14547C6.1836 5.17511 6.37278 5.291 6.49698 5.41003L5.80508 6.13202L5.11317 6.85401C5.24503 6.98038 5.44252 7.10047 5.69827 7.13119C5.94603 7.16095 6.14999 7.095 6.28317 7.02765C6.51296 6.91146 6.63952 6.73841 6.67584 6.68838C6.77293 6.55464 6.84012 6.40428 6.88052 6.30861L5.95929 5.9196ZM5.80508 6.13202L6.49698 5.41003L6.45106 5.36603L5.75916 6.08801L5.06725 6.81L5.11317 6.85401L5.80508 6.13202ZM5.75916 6.08801L6.74931 5.94803L6.72666 5.78782L5.73651 5.9278L4.74635 6.06779L4.769 6.228L5.75916 6.08801ZM5.73651 5.9278L5.01452 5.2359L4.94533 5.30809L5.66732 6L6.38931 6.69191L6.4585 6.61971L5.73651 5.9278ZM9.50065 2H8.50065V2.1H9.50065H10.5007V2H9.50065ZM9.50065 2.1L8.50164 2.05563L8.47055 2.75563L9.46956 2.8L10.4686 2.84437L10.4997 2.14437L9.50065 2.1ZM9.46956 2.8L8.47055 2.75563C8.44833 3.25585 8.46596 3.73393 8.57087 4.13066L9.53764 3.875L10.5044 3.61935C10.4771 3.51607 10.4493 3.27749 10.4686 2.84437L9.46956 2.8ZM9.53764 3.875L8.57087 4.13066L8.67004 4.50566L9.6368 4.25L10.6036 3.99435L10.5044 3.61935L9.53764 3.875ZM9.6368 4.25L8.67004 4.50566L8.7692 4.88066L9.73597 4.625L10.7027 4.36935L10.6036 3.99435L9.6368 4.25ZM9.73597 4.625L8.7692 4.88066C8.81142 5.0403 8.82859 5.19371 8.8239 5.34375L9.82341 5.375L10.8229 5.40625C10.8339 5.05629 10.7927 4.7097 10.7027 4.36935L9.73597 4.625ZM9.82341 5.375L8.8239 5.34375L8.81218 5.71875L9.81169 5.75L10.8112 5.78125L10.8229 5.40625L9.82341 5.375ZM9.81169 5.75L8.81218 5.71875L8.80045 6.09375L9.79997 6.125L10.7995 6.15625L10.8112 5.78125L9.81169 5.75ZM9.79997 6.125L8.80045 6.09375C8.79308 6.32966 8.78071 6.56562 8.76335 6.80162L9.76065 6.875L10.758 6.94838C10.7774 6.68438 10.7912 6.42034 10.7995 6.15625L9.79997 6.125ZM9.76065 6.875L8.76335 6.80162L8.73575 7.17662L9.73306 7.25L10.7304 7.32338L10.758 6.94838L9.76065 6.875ZM9.73306 7.25L8.73575 7.17662L8.70816 7.55162L9.70547 7.625L10.7028 7.69838L10.7304 7.32338L9.73306 7.25ZM9.70547 7.625L8.70816 7.55162C8.6817 7.91129 8.71426 8.26847 8.80257 8.61918L9.7723 8.375L10.742 8.13082C10.7044 7.98153 10.6924 7.83871 10.7028 7.69838L9.70547 7.625ZM9.7723 8.375L8.80257 8.61918L8.897 8.99418L9.86673 8.75L10.8365 8.50582L10.742 8.13082L9.7723 8.375ZM9.86673 8.75L8.897 8.99418L8.99142 9.36918L9.96115 9.125L10.9309 8.88082L10.8365 8.50582L9.86673 8.75ZM9.96115 9.125L8.99142 9.36918C8.98953 9.36166 8.98756 9.35013 8.98723 9.33587C8.98689 9.32157 8.98831 9.30886 8.9903 9.29913C8.99443 9.279 8.99777 9.28636 8.97349 9.32306L9.80737 9.875L10.6412 10.4269C10.9342 9.98438 11.0739 9.44869 10.9309 8.88082L9.96115 9.125ZM9.80737 9.875L8.97349 9.32306L8.72527 9.69806L9.55916 10.25L10.393 10.8019L10.6412 10.4269L9.80737 9.875ZM9.55916 10.25L8.72527 9.69806L8.47706 10.0731L9.31094 10.625L10.1448 11.1769L10.393 10.8019L9.55916 10.25ZM9.31094 10.625L8.47706 10.0731C8.23836 10.4337 8.0735 10.8386 8.03184 11.2813L9.02744 11.375L10.023 11.4687C10.0284 11.4114 10.0526 11.3163 10.1448 11.1769L9.31094 10.625ZM9.02744 11.375L8.03184 11.2813L7.99655 11.6563L8.99215 11.75L9.98775 11.8437L10.023 11.4687L9.02744 11.375ZM8.99215 11.75L7.99655 11.6563L7.96125 12.0313L8.95685 12.125L9.95245 12.2187L9.98775 11.8437L8.99215 11.75ZM8.95685 12.125L7.96125 12.0313C7.91849 12.4857 8.01387 12.9204 8.21 13.3177L9.10668 12.875L10.0034 12.4323C9.95266 12.3296 9.94816 12.2643 9.95245 12.2187L8.95685 12.125ZM9.10668 12.875L8.21 13.3177L8.39512 13.6927L9.29181 13.25L10.1885 12.8073L10.0034 12.4323L9.10668 12.875ZM9.29181 13.25L8.39512 13.6927L8.58024 14.0677L9.47693 13.625L10.3736 13.1823L10.1885 12.8073L9.29181 13.25ZM9.47693 13.625L8.58024 14.0677C8.59771 14.103 8.5741 14.0713 8.57255 13.9872C8.5707 13.8873 8.60164 13.7739 8.66706 13.6797L9.48847 14.25L10.3099 14.8203C10.7083 14.2465 10.5897 13.6201 10.3736 13.1823L9.47693 13.625ZM9.48847 14.25L8.66706 13.6797L8.49347 13.9297L9.31488 14.5L10.1363 15.0703L10.3099 14.8203L9.48847 14.25ZM9.31488 14.5L8.49347 13.9297L8.31989 14.1797L9.14129 14.75L9.9627 15.3203L10.1363 15.0703L9.31488 14.5ZM9.14129 14.75L8.31989 14.1797C8.26444 14.2595 8.10389 14.4888 8.05719 14.7782C8.03034 14.9445 8.01316 15.3249 8.31186 15.6552C8.59724 15.9707 8.95744 16 9.10094 16V15V14C9.20003 14 9.5286 14.0189 9.79513 14.3136C10.075 14.623 10.0518 14.9722 10.0316 15.0968C10.0106 15.2271 9.96669 15.3095 9.96209 15.3184C9.95176 15.3384 9.9487 15.3405 9.9627 15.3203L9.14129 14.75ZM9.10094 15V16H9.23418V15V14H9.10094V15ZM9.23418 15L9.58552 15.9362L9.852 15.8362L9.50065 14.9L9.1493 13.9638L8.88283 14.0638L9.23418 15ZM9.50065 14.9H8.50065V15H9.50065H10.5007V14.9H9.50065Z" fill="#1E1E1E"/>
</svg>
