<svg width="24" height="24" viewBox="0 0 24 24" fill="none" xmlns="http://www.w3.org/2000/svg">
<path fill-rule="evenodd" clip-rule="evenodd" d="M12 2.1001C9.77477 2.1001 7.94538 2.88789 6.68789 4.37443C5.44776 5.84044 4.85003 7.8832 4.85003 10.2501L4.85003 11.0001C4.85003 13.4652 4.1668 14.9249 3.19368 15.8682C2.81214 16.2381 2.77253 16.7499 2.90892 17.1264C3.04762 17.5094 3.42772 17.9001 3.99959 17.9001H20.0004C20.5723 17.9001 20.9524 17.5094 21.0911 17.1264C21.2275 16.7499 21.1879 16.2381 20.8063 15.8682C19.8332 14.9249 19.15 13.4652 19.15 11.0001L19.15 10.2501C19.15 7.8832 18.5522 5.84044 17.3121 4.37443C16.0546 2.88789 14.2252 2.1001 12 2.1001ZM6.65002 10.2501C6.65002 8.16522 7.17728 6.58298 8.06214 5.53693C8.92965 4.51142 10.2252 3.9001 12 3.9001C13.7748 3.9001 15.0704 4.51142 15.9379 5.53693C16.8227 6.58297 17.35 8.16522 17.35 10.2501L17.35 11.0001C17.35 13.1628 17.8181 14.8273 18.6687 16.1001H5.33131C6.18188 14.8273 6.65002 13.1628 6.65002 11.0001L6.65002 10.2501Z" fill="#1A1815"/>
<path d="M10 20.0999C9.50296 20.0999 9.10002 20.5029 9.10002 20.9999C9.10002 21.497 9.50296 21.8999 10 21.8999H14C14.4971 21.8999 14.9 21.497 14.9 20.9999C14.9 20.5029 14.4971 20.0999 14 20.0999H10Z" fill="#1A1815"/>
</svg>
