<svg width="315" height="14" viewBox="0 0 315 14" fill="none" xmlns="http://www.w3.org/2000/svg">
<path d="M8 10C8 12.2091 6.20914 14 4 14C1.79086 14 0 12.2091 0 10V4C0 1.79086 1.79086 0 4 0C6.20914 0 8 1.79086 8 4L8 10Z" fill="#DDD8D3"/>
<path d="M31.6155 10C31.6155 12.2091 29.8246 14 27.6155 14C25.4063 14 23.6155 12.2091 23.6155 10V4C23.6155 1.79086 25.4063 0 27.6155 0C29.8246 0 31.6155 1.79086 31.6155 4V10Z" fill="#DDD8D3"/>
<path d="M55.2307 10C55.2307 12.2091 53.4399 14 51.2307 14C49.0216 14 47.2307 12.2091 47.2307 10V4C47.2307 1.79086 49.0216 0 51.2307 0C53.4399 0 55.2307 1.79086 55.2307 4V10Z" fill="#DDD8D3"/>
<path d="M78.8462 10C78.8462 12.2091 77.0553 14 74.8462 14C72.6371 14 70.8462 12.2091 70.8462 10V4C70.8462 1.79086 72.6371 0 74.8462 0C77.0553 0 78.8462 1.79086 78.8462 4V10Z" fill="#DDD8D3"/>
<path d="M102.461 10C102.461 12.2091 100.671 14 98.4614 14C96.2523 14 94.4614 12.2091 94.4614 10V4C94.4614 1.79086 96.2523 0 98.4614 0C100.671 0 102.461 1.79086 102.461 4V10Z" fill="#DDD8D3"/>
<path d="M126.077 10C126.077 12.2091 124.286 14 122.077 14C119.868 14 118.077 12.2091 118.077 10V4C118.077 1.79086 119.868 0 122.077 0C124.286 0 126.077 1.79086 126.077 4V10Z" fill="#DDD8D3"/>
<path d="M149.692 10C149.692 12.2091 147.902 14 145.692 14C143.483 14 141.692 12.2091 141.692 10V4C141.692 1.79086 143.483 0 145.692 0C147.902 0 149.692 1.79086 149.692 4V10Z" fill="#DDD8D3"/>
<path d="M173.308 10C173.308 12.2091 171.517 14 169.308 14C167.098 14 165.308 12.2091 165.308 10V4C165.308 1.79086 167.098 0 169.308 0C171.517 0 173.308 1.79086 173.308 4V10Z" fill="#DDD8D3"/>
<path d="M196.923 10C196.923 12.2091 195.132 14 192.923 14C190.714 14 188.923 12.2091 188.923 10V4C188.923 1.79086 190.714 0 192.923 0C195.132 0 196.923 1.79086 196.923 4V10Z" fill="#DDD8D3"/>
<path d="M220.539 10C220.539 12.2091 218.748 14 216.539 14C214.329 14 212.539 12.2091 212.539 10V4C212.539 1.79086 214.329 0 216.539 0C218.748 0 220.539 1.79086 220.539 4V10Z" fill="#DDD8D3"/>
<path d="M244.154 10C244.154 12.2091 242.363 14 240.154 14C237.945 14 236.154 12.2091 236.154 10V4C236.154 1.79086 237.945 0 240.154 0C242.363 0 244.154 1.79086 244.154 4V10Z" fill="#DDD8D3"/>
<path d="M267.769 10C267.769 12.2091 265.978 14 263.769 14C261.56 14 259.769 12.2091 259.769 10V4C259.769 1.79086 261.56 0 263.769 0C265.978 0 267.769 1.79086 267.769 4V10Z" fill="#DDD8D3"/>
<path d="M291.385 10C291.385 12.2091 289.594 14 287.385 14C285.176 14 283.385 12.2091 283.385 10V4C283.385 1.79086 285.176 0 287.385 0C289.594 0 291.385 1.79086 291.385 4V10Z" fill="#DDD8D3"/>
<path d="M315 10C315 12.2091 313.209 14 311 14C308.791 14 307 12.2091 307 10V4C307 1.79086 308.791 0 311 0C313.209 0 315 1.79086 315 4V10Z" fill="#DDD8D3"/>
</svg>
