<svg width="22" height="22" viewBox="0 0 22 22" fill="none" xmlns="http://www.w3.org/2000/svg">
<rect x="5.5" y="5.5" width="11" height="11" rx="5.49998" fill="white"/>
<path fill-rule="evenodd" clip-rule="evenodd" d="M1.92488 11.0008C1.92488 5.9888 5.98788 1.92578 10.9998 1.92578C16.0118 1.92578 20.0748 5.9888 20.0748 11.0008C20.0748 16.0128 16.0118 20.0758 10.9998 20.0758C5.98788 20.0758 1.92488 16.0128 1.92488 11.0008ZM10.9999 6.50903C11.4556 6.50903 11.8249 6.87839 11.8249 7.33403V11.459C11.8249 11.9147 11.4556 12.284 10.9999 12.284C10.5443 12.284 10.1749 11.9147 10.1749 11.459V7.33403C10.1749 6.87839 10.5443 6.50903 10.9999 6.50903ZM11.9165 14.6674C11.9165 15.1736 11.5061 15.584 10.9998 15.584C10.4936 15.584 10.0832 15.1736 10.0832 14.6674C10.0832 14.1611 10.4936 13.7507 10.9998 13.7507C11.5061 13.7507 11.9165 14.1611 11.9165 14.6674Z" fill="#C93D2E"/>
</svg>
