<svg width="22" height="22" viewBox="0 0 22 22" fill="none" xmlns="http://www.w3.org/2000/svg">
<rect x="5.5" y="5.5" width="11" height="11" rx="5.49998" fill="white"/>
<path fill-rule="evenodd" clip-rule="evenodd" d="M1.92499 11.0008C1.92499 5.9888 5.98799 1.92578 11 1.92578C16.0119 1.92578 20.0749 5.9888 20.0749 11.0008C20.0749 16.0128 16.0119 20.0758 11 20.0758C5.98799 20.0758 1.92499 16.0128 1.92499 11.0008ZM15.2594 9.05363C15.5763 8.72624 15.5678 8.20395 15.2404 7.88706C14.913 7.57018 14.3907 7.57869 14.0738 7.90608L9.78756 12.3345L7.9269 10.4069C7.61046 10.0791 7.08818 10.0698 6.76036 10.3863C6.43254 10.7027 6.42331 11.225 6.73975 11.5528L9.19318 14.0945C9.34851 14.2554 9.56253 14.3464 9.78619 14.3465C10.0099 14.3467 10.224 14.256 10.3795 14.0953L15.2594 9.05363Z" fill="#1ED45A"/>
</svg>
