<svg width="20" height="20" viewBox="0 0 20 20" fill="none" xmlns="http://www.w3.org/2000/svg">
<rect width="20" height="20" rx="10" fill="#1A1815"/>
<path d="M9.99414 14.1172C8.17773 14.1172 6.88867 13.1328 6.85352 11.7031H8.38867C8.43555 12.3828 9.11523 12.8281 9.99414 12.8281C10.9316 12.8281 11.5996 12.3125 11.5996 11.5625C11.5996 10.8008 10.9434 10.25 9.8418 10.25H9.08008V9.07812H9.8418C10.7441 9.07812 11.377 8.57422 11.3652 7.83594C11.377 7.12109 10.8379 6.64062 10.0059 6.64062C9.20898 6.64062 8.51758 7.08594 8.49414 7.80078H7.0293C7.06445 6.37109 8.35352 5.39844 10.0176 5.39844C11.7402 5.39844 12.8535 6.45312 12.8418 7.75391C12.8535 8.70312 12.2207 9.39453 11.2949 9.58203V9.65234C12.4902 9.81641 13.1699 10.5781 13.1582 11.6445C13.1699 13.0742 11.834 14.1172 9.99414 14.1172Z" fill="white"/>
</svg>
