<svg width="20" height="20" viewBox="0 0 20 20" fill="none" xmlns="http://www.w3.org/2000/svg">
<path d="M9.25009 6.6665C9.25009 4.87158 10.7052 3.4165 12.5001 3.4165C14.295 3.4165 15.7501 4.87158 15.7501 6.6665C15.7501 8.46143 14.295 9.9165 12.5001 9.9165C10.7052 9.9165 9.25009 8.46143 9.25009 6.6665Z" fill="#557A55"/>
<path d="M12.5 11.3327C10.7885 11.3327 9.18465 11.7157 7.98209 12.4561C6.76807 13.2034 5.91673 14.3551 5.91673 15.8327L5.91661 15.8755C5.91604 16.0197 5.91526 16.218 5.96392 16.3989C6.09129 16.8724 6.46116 17.2423 6.93466 17.3696C7.1156 17.4183 7.31388 17.4175 7.45812 17.4169L7.50092 17.4168L17.5 17.4161L17.5427 17.4162C17.6865 17.4168 17.8841 17.4175 18.0644 17.3692C18.5388 17.242 18.9093 16.8715 19.0365 16.3971C19.0848 16.2167 19.084 16.0191 19.0835 15.8753L19.0833 15.8327C19.0833 14.3551 18.232 13.2034 17.018 12.4561C15.8154 11.7157 14.2116 11.3327 12.5 11.3327Z" fill="#557A55"/>
<path d="M2.47882 13.4426C3.32739 12.8918 4.42343 12.6214 5.57513 12.5865C4.8743 13.4536 4.41674 14.542 4.41674 15.8326L4.41645 15.8516C4.41453 15.9548 4.40653 16.3837 4.51542 16.7885C4.57484 17.0094 4.65952 17.2196 4.76623 17.4157L2.08398 17.4159C1.43935 17.416 0.916748 16.8934 0.916748 16.2488C0.916748 15.0046 1.53947 14.0522 2.47882 13.4426Z" fill="#557A55"/>
<path d="M5.41668 5.91642C4.082 5.91642 3.00002 6.9984 3.00002 8.33309C3.00002 9.66778 4.082 10.7498 5.41668 10.7498C6.75136 10.7498 7.83334 9.66778 7.83334 8.33309C7.83334 6.9984 6.75136 5.91642 5.41668 5.91642Z" fill="#557A55"/>
</svg>
