<svg width="16" height="16" viewBox="0 0 16 16" fill="none" xmlns="http://www.w3.org/2000/svg">
<path d="M5.06694 4.83519C5.06694 3.21515 6.38023 1.90186 8.00026 1.90186C9.62029 1.90186 10.9336 3.21515 10.9336 4.83519C10.9336 6.45522 9.62029 7.76852 8.00026 7.76852C6.38023 7.76852 5.06694 6.45522 5.06694 4.83519Z" fill="#956B72"/>
<path d="M8.00021 9.06592C6.45892 9.06592 5.02063 9.36763 3.94445 9.94732C2.86903 10.5266 2.0669 11.4434 2.0669 12.6659L2.0669 12.8844C2.06688 13.0088 2.06686 13.1355 2.0757 13.2438C2.08555 13.3643 2.10927 13.5138 2.1868 13.6659C2.29227 13.8729 2.46056 14.0412 2.66755 14.1467C2.81972 14.2242 2.96921 14.2479 3.0897 14.2577C3.198 14.2666 3.32468 14.2666 3.44912 14.2665L12.5515 14.266C12.6759 14.266 12.8026 14.266 12.9108 14.2572C13.0313 14.2473 13.1808 14.2236 13.333 14.1461C13.5399 14.0406 13.7082 13.8723 13.8136 13.6653C13.8912 13.5132 13.9149 13.3637 13.9247 13.2432C13.9336 13.1349 13.9335 13.0083 13.9335 12.8838L13.9335 12.6659C13.9335 11.4434 13.1314 10.5266 12.056 9.94732C10.9798 9.36763 9.5415 9.06592 8.00021 9.06592Z" fill="#956B72"/>
</svg>
