<svg width="16" height="16" viewBox="0 0 16 16" fill="none" xmlns="http://www.w3.org/2000/svg">
<path d="M7.40007 5.33291C7.40007 3.89697 8.56412 2.73291 10.0001 2.73291C11.436 2.73291 12.6 3.89697 12.6 5.33291C12.6 6.76885 11.436 7.93291 10.0001 7.93291C8.56412 7.93291 7.40007 6.76885 7.40007 5.33291Z" fill="#557A55"/>
<path d="M10 9.06585C8.63079 9.06585 7.34772 9.3723 6.38567 9.96455C5.41446 10.5624 4.73338 11.4838 4.73338 12.6659L4.73329 12.7001C4.73283 12.8155 4.73221 12.9741 4.77114 13.1189C4.87303 13.4977 5.16892 13.7935 5.54773 13.8954C5.69248 13.9343 5.8511 13.9337 5.9665 13.9332L6.00074 13.9331L14 13.9326L14.0342 13.9327C14.1492 13.9331 14.3073 13.9337 14.4516 13.895C14.831 13.7933 15.1274 13.4969 15.2292 13.1174C15.2678 12.9731 15.2672 12.815 15.2668 12.7L15.2667 12.6659C15.2667 11.4838 14.5856 10.5624 13.6144 9.96455C12.6523 9.3723 11.3693 9.06585 10 9.06585Z" fill="#557A55"/>
<path d="M1.98306 10.7538C2.66192 10.3132 3.53874 10.0968 4.4601 10.0689C3.89944 10.7626 3.53339 11.6333 3.53339 12.6658L3.53316 12.681C3.53162 12.7636 3.52523 13.1067 3.61233 13.4305C3.65988 13.6072 3.72762 13.7754 3.81298 13.9323L1.66718 13.9324C1.15148 13.9325 0.733398 13.5144 0.733398 12.9987C0.733398 12.0034 1.23157 11.2415 1.98306 10.7538Z" fill="#557A55"/>
<path d="M4.33334 4.73285C3.2656 4.73285 2.40002 5.59843 2.40002 6.66618C2.40002 7.73393 3.2656 8.59951 4.33334 8.59951C5.40109 8.59951 6.26667 7.73393 6.26667 6.66618C6.26667 5.59843 5.40109 4.73285 4.33334 4.73285Z" fill="#557A55"/>
</svg>
