<svg width="18" height="18" viewBox="0 0 18 18" fill="none" xmlns="http://www.w3.org/2000/svg">
<path fill-rule="evenodd" clip-rule="evenodd" d="M11.9916 2.8662C12.8593 1.99854 14.266 1.99854 15.1337 2.8662C16.0014 3.73387 16.0014 5.14063 15.1337 6.0083L5.66498 15.477C5.53839 15.6036 5.36671 15.6747 5.18769 15.6747H3.00019C2.6274 15.6747 2.3252 15.3725 2.3252 14.9997V12.8123C2.3252 12.6332 2.39631 12.4615 2.5229 12.335L11.9916 2.8662ZM14.1791 3.8208C13.8386 3.48034 13.2867 3.48034 12.9462 3.8208L3.67519 13.0918V14.3247H4.90809L14.1791 5.0537C14.5196 4.71324 14.5196 4.16125 14.1791 3.8208Z" fill="white"/>
</svg>
