<svg width="20" height="20" viewBox="0 0 20 20" fill="none" xmlns="http://www.w3.org/2000/svg">
<path fill-rule="evenodd" clip-rule="evenodd" d="M9.99987 1.95801C8.87669 1.95801 7.75153 2.41685 6.95788 3.20186L6.95497 3.20475C6.27794 3.88178 5.93026 4.68285 5.79267 5.71883L5.79211 5.7231C5.72919 6.21859 5.70822 6.8032 5.70822 7.66632V8.00439C5.54615 8.00787 5.397 8.01408 5.26092 8.0252C4.93662 8.05169 4.62113 8.10972 4.31952 8.2634C3.8648 8.4951 3.49509 8.8648 3.2634 9.31952C3.10972 9.62113 3.0517 9.93663 3.0252 10.2609C2.99998 10.5696 2.99999 10.9456 3 11.3871V14.8628C2.99999 15.3044 2.99998 15.6804 3.0252 15.9891C3.0517 16.3134 3.10972 16.6289 3.2634 16.9305C3.49509 17.3852 3.8648 17.7549 4.31952 17.9866C4.62113 18.1403 4.93662 18.1983 5.26092 18.2248C5.56961 18.25 5.94559 18.25 6.38714 18.25H13.6128C14.0543 18.25 14.4303 18.25 14.739 18.2248C15.0633 18.1983 15.3788 18.1403 15.6804 17.9866C16.1352 17.7549 16.5049 17.3852 16.7365 16.9305C16.8902 16.6289 16.9483 16.3134 16.9748 15.9891C17 15.6804 17 15.3044 16.9999 14.8628V11.3872C17 10.9456 17 10.5696 16.9748 10.2609C16.9483 9.93663 16.8902 9.62113 16.7365 9.31952C16.5049 8.8648 16.1352 8.4951 15.6804 8.2634C15.3788 8.10972 15.0633 8.05169 14.739 8.0252C14.6029 8.01408 14.4537 8.00786 14.2915 8.00439V7.66632C14.2915 6.76209 14.2706 6.18592 14.2153 5.72771L14.2139 5.71651C14.076 4.70286 13.7214 3.88134 13.0448 3.20475L13.0419 3.20189C12.2409 2.40951 11.1298 1.95801 9.99987 1.95801ZM12.7915 8V7.66632C12.7915 6.77598 12.7702 6.27604 12.7268 5.91305C12.6235 5.15994 12.3838 4.66571 11.9856 4.26687C11.4692 3.75678 10.7393 3.45801 9.99987 3.45801C9.26792 3.45801 8.52382 3.76358 8.01417 4.26687C7.61579 4.66584 7.38315 5.13905 7.27989 5.91419C7.22967 6.31087 7.20822 6.8168 7.20822 7.66632V8H12.7915Z" fill="#2F2B27" fill-opacity="0.28"/>
</svg>
