<svg width="20" height="20" viewBox="0 0 20 20" fill="none" xmlns="http://www.w3.org/2000/svg">
<path fill-rule="evenodd" clip-rule="evenodd" d="M1.9585 9.99967C1.9585 5.55838 5.55886 1.95801 10.0001 1.95801C14.4414 1.95801 18.0418 5.55838 18.0418 9.99967C18.0418 11.2816 17.7413 12.4953 17.2064 13.5723L17.6183 15.0826C17.7115 15.4244 17.7947 15.7294 17.8389 15.9799C17.8838 16.2337 17.9143 16.5554 17.7916 16.8768C17.6308 17.2978 17.2982 17.6304 16.8772 17.7912C16.5558 17.9139 16.2341 17.8833 15.9803 17.8385C15.7298 17.7943 15.4249 17.7111 15.0831 17.6179L13.5727 17.206C12.4957 17.7408 11.2821 18.0413 10.0001 18.0413C5.55886 18.0413 1.9585 14.441 1.9585 9.99967ZM5.91653 8.33293C5.91653 7.91871 6.25231 7.58293 6.66653 7.58293H13.3332C13.7474 7.58293 14.0832 7.91871 14.0832 8.33293C14.0832 8.74714 13.7474 9.08293 13.3332 9.08293H6.66653C6.25231 9.08293 5.91653 8.74714 5.91653 8.33293ZM5.91653 11.6663C5.91653 11.252 6.25231 10.9163 6.66653 10.9163H10.6248C11.0391 10.9163 11.3748 11.252 11.3748 11.6663C11.3748 12.0805 11.0391 12.4163 10.6248 12.4163H6.66653C6.25231 12.4163 5.91653 12.0805 5.91653 11.6663Z" fill="white"/>
</svg>
