<svg width="20" height="20" viewBox="0 0 20 20" fill="none" xmlns="http://www.w3.org/2000/svg">
<path fill-rule="evenodd" clip-rule="evenodd" d="M17.822 2.17806C16.9538 1.30982 15.5462 1.30978 14.678 2.17798L6.9697 9.88631C6.82904 10.027 6.75003 10.2177 6.75003 10.4166V12.5C6.75003 12.9142 7.08581 13.25 7.50002 13.25H9.58335C9.78226 13.25 9.97303 13.1709 10.1137 13.0303L17.8219 5.32187C18.69 4.45373 18.69 3.04623 17.822 2.17806ZM15.7386 3.23864C16.021 2.95625 16.4789 2.95626 16.7613 3.23866C17.0436 3.52104 17.0436 3.97885 16.7612 4.26122L9.27268 11.75H8.25002V10.7273L15.7386 3.23864Z" fill="#1A1815"/>
<path d="M10.0855 2.58574C10.4985 2.58574 10.8333 2.92051 10.8333 3.33347C10.8333 3.74643 10.4985 4.08121 10.0855 4.08121H5.66668C4.98788 4.08121 4.82635 4.09046 4.71675 4.12607C4.43769 4.21675 4.21889 4.43554 4.12822 4.71461C4.09261 4.82421 4.08335 4.98574 4.08335 5.66454V14.3312C4.08335 15.01 4.09261 15.1715 4.12822 15.2811C4.21889 15.5602 4.43769 15.779 4.71675 15.8697C4.82635 15.9053 4.98788 15.9145 5.66668 15.9145H14.3333C15.0121 15.9145 15.1736 15.9053 15.2832 15.8697C15.5623 15.779 15.7811 15.5602 15.8718 15.2811C15.9074 15.1715 15.9166 15.01 15.9166 14.3312V9.91707C15.9166 9.50289 16.2524 9.16712 16.6666 9.16712C17.0808 9.16712 17.4165 9.50289 17.4165 9.91707V14.0319C17.4165 14.4734 17.4166 14.8495 17.3913 15.1581C17.3648 15.4824 17.3068 15.7979 17.1531 16.0995C16.9214 16.5543 16.5517 16.924 16.097 17.1557C15.7954 17.3093 15.4799 17.3674 15.1556 17.3939C14.8469 17.4191 14.471 17.4191 14.0295 17.4191H5.9704C5.52888 17.4191 5.15285 17.4191 4.84418 17.3939C4.51988 17.3674 4.20438 17.3093 3.90277 17.1557C3.44805 16.924 3.07835 16.5543 2.84665 16.0995C2.69298 15.7979 2.63495 15.4824 2.60845 15.1581C2.58323 14.8495 2.58324 14.4735 2.58325 14.032V5.9729C2.58324 5.53138 2.58323 5.15534 2.60845 4.84667C2.63495 4.52237 2.69298 4.20687 2.84665 3.90526C3.07835 3.45054 3.44805 3.08083 3.90277 2.84914C4.20438 2.69546 4.51988 2.63743 4.84418 2.61094C5.15285 2.58572 5.52881 2.58573 5.97033 2.58574H10.0855Z" fill="#1A1815"/>
</svg>
