<svg width="20" height="20" viewBox="0 0 20 20" fill="none" xmlns="http://www.w3.org/2000/svg">
<path d="M9.99989 2.58594C10.4141 2.58594 10.7499 2.92172 10.7499 3.33594V9.2526H16.6665C17.0807 9.2526 17.4165 9.58839 17.4165 10.0026C17.4165 10.4168 17.0807 10.7526 16.6665 10.7526H10.7499V16.6693C10.7499 17.0835 10.4141 17.4193 9.99989 17.4193C9.58568 17.4193 9.24989 17.0835 9.24989 16.6693V10.7526H3.33325C2.91904 10.7526 2.58325 10.4168 2.58325 10.0026C2.58325 9.58839 2.91904 9.2526 3.33325 9.2526H9.24989V3.33594C9.24989 2.92172 9.58568 2.58594 9.99989 2.58594Z" fill="white"/>
</svg>
