<svg width="20" height="20" viewBox="0 0 20 20" fill="none" xmlns="http://www.w3.org/2000/svg">
<path d="M6.62052 2.83988L16.854 8.1669C17.1961 8.34498 17.4976 8.5019 17.7255 8.64838C17.9524 8.79417 18.227 9.00185 18.3801 9.33022C18.5779 9.7544 18.5779 10.2444 18.3801 10.6685C18.227 10.9969 17.9524 11.2046 17.7255 11.3504C17.4976 11.4969 17.1961 11.6538 16.854 11.8319L6.62052 17.1589C6.21161 17.3717 5.86028 17.5546 5.57431 17.6725C5.30162 17.7849 4.9297 17.9104 4.53868 17.823C4.04914 17.7136 3.64041 17.3787 3.43689 16.9202C3.27433 16.554 3.32423 16.1646 3.38083 15.8752C3.44019 15.5716 3.55045 15.1912 3.67879 14.7484L4.83774 10.7494H10.8333C11.2475 10.7494 11.5833 10.4136 11.5833 9.99938C11.5833 9.58516 11.2475 9.24938 10.8333 9.24938H4.83774L3.6788 5.25036C3.55045 4.80757 3.44019 4.42716 3.38083 4.12358C3.32423 3.83412 3.27433 3.44479 3.43689 3.07858C3.64041 2.6201 4.04914 2.28518 4.53868 2.17577C4.9297 2.08837 5.30162 2.21383 5.57431 2.32623C5.86029 2.44411 6.2116 2.627 6.62052 2.83988Z" fill="white"/>
</svg>
